<svg version="1" xmlns="http://www.w3.org/2000/svg" width="346.667" height="346.667" viewBox="0 0 260.000000 260.000000"><path d="M119.5 76c-.4.6-1.3.9-2.1.6-.8-.3-1.4-.1-1.4.4 0 .6-.7 1-1.5 1-.9 0-1.8.7-2.1 1.5-.4.8-1 1.2-1.5.9-.5-.3-.9 0-.9.5 0 .6-.7 1.1-1.5 1.1s-1.5.7-1.5 1.5-.6 1.5-1.4 1.5c-.8 0-1.8.9-2.1 2-.3 1.1-1.5 2-2.5 2-1.4 0-1.8.6-1.5 2 .2 1.1 0 1.8-.6 1.5-.5-.4-.9.5-.9 1.9s-.4 2.6-.9 2.6-1.2 1.1-1.5 2.5c-.4 1.4-1 2.3-1.5 2-.8-.4-2.1 1.6-2 3.1 0 .3-.6 1.5-1.3 2.7-.8 1.2-1.3 3.2-1.2 4.4.1 1.2-.2 2.1-.5 1.8-.4-.2-1.2.5-1.9 1.6-1 1.5-1 1.9 0 1.9.9 0 .8.3-.2 1-.8.5-1.1 1-.6 1 .5 0 .3.7-.4 1.5-1 1.2-1 1.5.1 1.5s1.1.2-.1.9c-.8.6-1.7.8-2.1.5-.4-.2-.5.6-.1 1.8.3 1.3.1 1.9-.5 1.5-.9-.6-1.5.4-2.7 4.3-.1.3-.5 1-.9 1.7-.4.6-.3 1.3.2 1.5.6.1.2 1.4-.8 2.7-1.4 1.9-2.7 2.3-6.9 2.4-2.9 0-4.9.4-4.5 1 .3.5-.4.4-1.5-.2-2.5-1.4-4.3-1.4-2.2-.1 1.2.8 1 1-1 1.1-1.4 0-3.3.2-4.2.4-1 .2-2.1-.1-2.4-.6-.3-.6-1.1-.5-2 .2-.7.6-1.2 1.5-.9 1.9.3.5-.4.6-1.4.3-3.3-.8-6.6 3.5-6.6 8.7-.1 2.5.3 4.8.8 5.1.4.3.9 1.6 1 2.7.1 1.2.5 2.2.9 2.2s.7.3.6.7c-.2 1.4 3.2 8.3 4.1 8.3.5 0 1.4 1.3 2.1 3 .7 1.6 1.6 3 2.1 3s.9.6.9 1.2c.1 3.8 8.9 9.8 13.8 9.3 1.2-.1 2.2.2 2.2.6 0 .4 6 .6 13.3.3 7.2-.2 13.7-.4 14.2-.4.6 0 3.7.2 7 .5 6.9.5 34.8.5 48 0 18.4-.8 29.1-1.5 31.3-1.9 3-.7 10.2-6.4 10.2-8.2 0-.7 1.2-2.6 2.8-4.1 1.5-1.6 2.8-3.5 3-4.3.2-.8.8-1.7 1.3-1.8.5-.2.7-.7.4-1.2-.3-.5.2-1.5 1-2.4.9-.8 1.6-1.8 1.5-2.1 0-.3 0-.6.1-.8.6-2 .5-3.8-.2-4.3-.6-.3-.6-1.1-.1-1.7 1.4-1.9 1.3-5.9-.1-5-.7.4-.6 0 .2-1 1.1-1.4 1.1-1.7 0-1.7-1.2 0-1.2-.2 0-.9.8-.5.9-1 .3-1.2-.6-.2-1.2-1.1-1.4-1.9-.5-2.5-5.7-5.8-8-5.2-1.3.3-1.9.1-1.5-.5.4-.6-1.4-1-4.6-1-9.1-.1-15.7-.7-15.7-1.6 0-.4-.4-.6-.9-.2-1.2.7-4.3-2.4-3.6-3.6.4-.5.2-.9-.3-.9-1.1 0-3.6-5.1-3.3-6.8.1-.6-.2-1.2-.7-1.2-.8 0-1-.7-1.4-5-.1-1.1-.7-2-1.2-2s-.6-.3-.3-.7c.4-.3-.1-1.5-1-2.6-1-1-1.8-2.2-1.8-2.6 0-.3-.4-.5-1-.3-.5.2-.5-.2.2-.9.9-.9.8-1.5-.3-2.6-.8-.8-1.2-1.9-.9-2.4.4-.5.1-.9-.5-.9s-.8-.5-.5-1c.3-.6-.1-1-.9-1-.9 0-1.6-.5-1.6-1.1 0-.5.6-.7 1.3-.4.6.4.2-.2-1-1.3s-1.9-2.2-1.6-2.6c.4-.3.1-.6-.6-.6s-1-.4-.7-.8c.2-.4-.9-1.8-2.5-3.1s-2.9-3-2.9-3.8c0-.8-.4-1.1-1-.8-.5.3-1 .1-1-.4 0-.6-.7-1.1-1.5-1.1-.7 0-1.9-.8-2.4-1.8-.6-.9-1.1-1.3-1.1-.9 0 .5-1.6 0-3.6-1.2-1.9-1.2-4-2.1-4.5-2.1-.6 0-2.8-.9-4.9-1.9-2.6-1.3-4-1.5-4-.8 0 .8-.3.8-.8.2-1-1.5-3.9-1.7-4.7-.5z"/></svg>