<?xml version="1.0" encoding="UTF-8" standalone="no"?>
<svg width="1200px" height="1200px" viewBox="0 0 1200 1200" version="1.1" xmlns="http://www.w3.org/2000/svg" xmlns:xlink="http://www.w3.org/1999/xlink">
    <!-- Generator: Sketch 42 (36781) - http://www.bohemiancoding.com/sketch -->
    <title>11</title>
    <desc>Created with Sketch.</desc>
    <defs>
        <polygon id="path-1" points="732.19885 387.821974 732.19885 775.36762 0 775.36762 0 387.821974 0 0.276328059 732.19885 0.276328059 732.19885 387.821974"></polygon>
    </defs>
    <g id="Page-1" stroke="none" stroke-width="1" fill="none" fill-rule="evenodd">
        <g id="11">
            <g id="Group-4" transform="translate(222.000000, 45.000000)">
                <g id="Mascot_EPS" transform="translate(22.995846, 0.000000)">
                    <g id="Group-8" transform="translate(336.239778, 232.927911) rotate(15.000000) translate(-336.239778, -232.927911) translate(191.941613, 132.027911)" stroke-width="2.22835536">
                        <path d="M18.9917619,194.099788 L6.70297479,177.386397 C6.70297479,177.386397 10.2437167,173.849462 12.2887871,174.043719 C18.063854,174.59228 30.1633866,179.614849 30.1633866,179.614849 C30.1633866,179.614849 18.2133494,177.249844 11.1716247,170.701041 C3.19061473,163.278703 -5.43616889e-13,151.132635 -5.43740451e-13,142.84539 C-5.43740451e-13,127.246225 16.757437,116.103965 16.757437,116.103965 C16.757437,116.103965 5.58581233,101.619026 10.0544622,88.2483134 C14.5231121,74.8776008 33.514874,74.8776008 33.514874,74.8776008 C33.514874,74.8776008 33.514874,50.3646278 49.1551485,44.7934976 C64.795423,39.2223674 70.3812353,42.5650455 70.3812353,42.5650455 C70.3812353,42.5650455 64.795423,28.0801069 75.9670477,15.8236204 C81.3856568,9.87881732 87.8029911,6.66512812 93.8416471,9.13826418 C100.252975,11.7640285 106.130434,20.2805246 106.130434,20.2805246 C106.130434,20.2805246 104.710421,18.3081846 102.778947,15.8236204 C101.446511,14.1096331 99.3497323,12.2375414 99.4274594,10.2524902 C99.5642334,6.75946205 106.216629,3.35393151 108.364759,2.45290791 C112.385234,0.766537675 118.571008,2.45290791 121.770709,2.45290791 C123.991089,2.45290791 127.657271,-0.880426747 130.708008,0.224455817 C137.084851,2.53395007 142.996796,10.2524902 142.996796,10.2524902 C142.996796,10.2524902 160.871395,1.33868186 173.160182,5.79558604 C178.266418,7.64751864 186.143961,11.1226952 189.917619,18.0520725 C195.225735,27.7990963 195.503431,41.4508195 195.503431,41.4508195 C195.503431,41.4508195 195.760348,38.0675198 195.503431,35.8796893 C195.129382,32.6943825 192.94163,28.9649928 194.386269,25.8516549 C194.78366,24.9952395 196.999545,24.4088857 197.737756,23.6232028 C200.397172,20.7927704 209.913765,23.4655225 213.378031,22.5089767 C222.95358,19.8649962 232.811647,11.4620192 240.18993,12.4809423 C249.062771,13.7062604 265.884667,32.5370111 265.884667,32.5370111 L281.524941,38.1081414 C281.524941,38.1081414 292.975192,52.2537593 285.993591,68.1922446 C270.687801,103.134245 226.440938,158.316486 199.972081,174.043719 C170.600348,191.49578 110.864154,200.593236 68.1469104,200.785144 C39.6457993,200.913186 18.9917619,194.099788 18.9917619,194.099788 Z" id="Path-19" stroke="#55142E" fill="#DC6EB0"></path>
                        <path d="M77.0154617,142.636123 C77.0154617,142.636123 61.165214,124.293211 52.4378874,120.351602 C41.4286771,115.379402 17.805851,115.894697 17.805851,115.894697" id="Path-20" stroke="#422635"></path>
                        <path d="M62.3204785,129.271266 C62.3204785,129.271266 71.918934,124.436538 76.8435905,124.814362 C81.6010087,125.179355 91.3667026,131.499718 91.3667026,131.499718" id="Path-21" stroke="#422635"></path>
                        <path d="M40.0631647,138.16403 C40.0631647,138.16403 62.628098,156.932632 75.8123636,161.562777 C89.0676096,166.217849 119.3817,166.019681 119.3817,166.019681" id="Path-22" stroke="#422635"></path>
                        <path d="M33.3859706,155.991646 C33.3859706,155.991646 42.8976979,160.286365 47.9090827,159.334324 C50.7178352,158.80073 56.8463824,151.534742 56.8463824,151.534742" id="Path-23" stroke="#422635"></path>
                        <path d="M51.1918216,173.819263 C51.1918216,173.819263 54.3843677,169.353236 54.543309,167.133907 C54.7567552,164.153514 52.3089841,158.220098 52.3089841,158.220098" id="Path-24" stroke="#422635"></path>
                        <path d="M82.3520608,106.9657 C82.3520608,106.9657 101.138358,111.5772 109.722541,116.993735 C119.385345,123.090869 137.093022,141.506708 137.093022,141.506708" id="Path-25" stroke="#422635"></path>
                        <path d="M113.890056,141.506708 C113.890056,141.506708 113.040105,134.657612 113.890056,131.478673 C114.529655,129.086481 118.358706,124.793317 118.358706,124.793317" id="Path-26" stroke="#422635"></path>
                        <path d="M33.3859706,75.7673711 C33.3859706,75.7673711 51.810777,79.4758897 57.9635449,83.5669534 C62.9824016,86.9040633 66.9008446,98.051892 66.9008446,98.051892" id="Path-27" stroke="#422635"></path>
                        <path d="M66.7719412,60.1682064 C66.7719412,60.1682064 81.4245702,64.3268912 98.0524903,75.7673711 C112.296854,85.5678965 127.75019,102.34484 139.387501,108.079926 C145.818505,111.249246 161.730751,106.9657 161.730751,106.9657 C161.730751,106.9657 164.071774,92.6443561 161.730751,85.7954055 C159.016451,77.8543872 144.973314,57.9397543 144.973314,57.9397543 C144.973314,57.9397543 151.219214,67.4180863 157.262101,76.8815971 C161.515127,83.5420828 164.780646,90.643336 169.550888,92.4807617 C177.906451,95.6991992 184.458266,73.7275689 189.659812,73.538919 C197.750653,73.2454799 206.417249,55.7113023 206.417249,55.7113023" id="Path-28" stroke="#422635"></path>
                        <path d="M157.013575,143.762899 C157.013575,143.762899 139.331194,123.736016 140.256138,113.678795 C140.652466,109.369392 146.12367,109.875274 151.427763,109.221891 C156.50593,108.596339 161.407207,106.715995 162.599388,106.993439 C164.863063,107.520242 172.197537,112.19315 177.1225,120.364152 C181.097561,126.959174 182.550891,135.272295 184.942637,141.534447 C187.217002,147.489266 190.528449,151.562481 190.528449,151.562481" id="Path-29" stroke="#422635"></path>
                        <path d="M77.9005981,77.9958232 C77.9005981,77.9958232 89.7070839,85.2009624 94.6580351,84.6811794 C96.7824462,84.458145 99.1266849,75.7673711 99.1266849,75.7673711 L117.001284,91.3665357 C117.001284,91.3665357 121.574862,92.944507 122.587097,90.2523097 C123.809187,87.0019681 123.704259,73.538919 123.704259,73.538919" id="Path-30" stroke="#422635"></path>
                        <path d="M71.223404,41.3516317 C71.223404,41.3516317 84.6162588,40.7879885 90.2151659,43.5800838 C92.0640086,44.5020753 93.5666533,52.4938921 93.5666533,52.4938921 C93.5666533,52.4938921 92.5956172,49.3140024 94.6838157,46.3030149 C96.660371,43.4530066 101.540212,40.7792169 106.972603,40.2374056 C118.144228,39.1231796 124.847202,45.8085359 124.847202,45.8085359" id="Path-31" stroke="#422635"></path>
                        <path d="M144.672539,8.91380836 C144.672539,8.91380836 147.912097,18.885294 153.609839,26.7414251 C157.963043,32.7436871 164.665685,36.9461149 167.015789,37.8836855 C169.037474,38.690234 167.015789,17.8276167 167.015789,17.8276167 C167.015789,17.8276167 168.241612,38.1046706 169.250114,47.9117199 C169.731161,52.5896092 171.484438,61.2824325 171.484438,61.2824325" id="Path-32" stroke="#422635"></path>
                        <path d="M204.767286,24.512973 C204.767286,24.512973 208.473897,28.9473779 213.704586,34.5410074 C220.544312,41.8553191 229.344861,51.4774383 229.344861,59.0539804 C229.344861,72.4246929 209.235936,82.4527273 209.235936,82.4527273" id="Path-33" stroke="#422635"></path>
                        <path d="M222.598918,17.8276167 L215.895943,35.6552334 C215.895943,35.6552334 226.932284,33.899564 231.536218,36.7694595 C238.848683,41.3277377 251.645142,57.9397543 251.645142,57.9397543" id="Path-34" stroke="#422635"></path>
                        <path d="M238.153257,64.6251106 C238.153257,64.6251106 251.175393,69.3304761 256.027856,73.538919 C259.740305,76.7586497 263.847994,86.9096315 263.847994,86.9096315" id="Path-35" stroke="#422635"></path>
                    </g>
                    <g id="Group-3" transform="translate(0.000000, 231.759017)">
                        <mask id="mask-2" fill="white">
                            <use xlink:href="#path-1"></use>
                        </mask>
                        <g id="Clip-2"></g>
                        <path d="M690.352875,202.702231 C684.383463,188.125925 678.037903,173.745724 670.931143,159.802299 C696.113067,144.867213 713.050883,117.466167 713.050883,86.0383068 C713.050883,38.6725576 674.701532,0.276328059 627.393611,0.276328059 L425.114692,0.276328059 C415.789912,0.276328059 406.465131,11.1422605 396.180185,11.1422605 C390.143101,11.1422605 376.148602,0.276328059 376.148602,0.276328059 C376.148602,0.276328059 368.454263,2.47776933 366.099425,4.45690418 C363.26089,6.84256416 360.568483,13.3707125 360.568483,13.3707125 C360.568483,13.3707125 355.140075,9.13430189 353.891288,6.68535627 C352.914343,4.76950707 353.891288,0.276328059 353.891288,0.276328059 C353.891288,0.276328059 330.845256,-1.38655233 304.925198,0.276328059 C300.490726,0.560818059 280.442153,2.22845209 280.442153,2.22845209 L273.764959,20.0560688 C273.764959,20.0560688 268.61572,6.1311559 258.184839,2.22845209 C251.751645,-0.178521479 240.161799,6.68535627 235.927526,6.68535627 C231.381637,6.68535627 206.993018,0.276328059 206.993018,0.276328059 C206.993018,0.276328059 201.43631,2.63351492 200.315824,4.45690418 C199.210578,6.25549238 200.315824,11.1422605 200.315824,11.1422605 L180.284241,0.276328059 C180.284241,0.276328059 154.476616,0.276328059 142.446808,0.276328059 L104.880914,0.276328059 C57.5729935,0.276328059 19.2258676,38.6725576 19.2258676,86.0383068 C19.2258676,117.441654 36.1347489,144.824873 61.2855134,159.766644 C54.1787531,173.705612 47.8354187,188.081356 41.8660071,202.653205 C19.3148969,257.689286 4.99676693,316.950512 0.685525263,379.030731 C0.35611702,386.415821 0,393.796454 0,401.263997 C0,454.913981 8.71596406,506.495962 24.583203,554.826631 C29.3151079,568.431331 38.4138978,591.859048 49.5625862,607.502781 C50.7800613,609.109495 51.9285387,610.676097 53.3151693,612.363035 C58.7526311,618.92137 64.7465257,625.292514 71.9601211,631.612404 C79.2404884,637.93898 87.6715588,644.261098 97.2689125,649.549215 C106.752754,654.806134 117.821316,659.055792 128.74298,660.464174 C140.169885,662.104314 152.228897,660.141048 161.434522,653.67408 C170.818206,647.363104 177.52656,636.323352 181.410461,623.839564 C183.76004,616.16994 187.548234,575.747488 182.410461,534.240983 C177.272689,492.734477 155.390994,398.585383 156.004154,406.263997 C156.548474,413.080527 180.147002,470.506625 191.004154,527.240983 C201.861306,583.97534 197.170211,624.916822 196.460857,628.037967 C192.984265,642.667755 185.737283,658.102014 172.543148,668.53117 C159.335658,679.136374 142.822957,682.416655 127.992908,682.777664 C112.381629,682.88463 98.5219993,679.319107 85.9510685,674.525706 C84.4197653,673.932938 83.113261,673.170807 81.6264724,672.542384 C104.6116,707.246068 131.983645,738.716269 162.758832,766.500609 C179.178053,775.536983 205.929118,782.213425 241.362762,763.79304 C303.144613,731.67436 364.92869,728.10438 364.92869,728.10438 C364.92869,728.10438 426.710542,731.67436 488.494619,763.79304 C530.008961,785.37337 559.606736,772.526344 574.60594,761.771834 C603.17988,735.217599 628.733501,705.469992 650.383191,672.832083 C648.994334,673.415937 647.781311,674.129042 646.356842,674.67947 C633.785912,679.47287 619.926282,683.040622 604.315003,682.931428 C589.484954,682.570418 572.972253,679.290137 559.764763,668.684933 C546.570628,658.255778 539.325872,642.823747 535.84928,628.19173 C533.978954,619.962337 533.404726,569.566981 543.004154,519.240983 C552.603582,468.914984 575.384304,405.036379 578.004154,406.263997 C580.626677,407.492868 559.171804,466.102803 550.89745,522.240983 C542.623095,578.379162 549.40949,619.13528 550.89745,623.993327 C554.781351,636.477115 561.489705,647.519095 570.873389,653.827843 C580.081239,660.29704 592.138026,662.258078 603.567157,660.617937 C614.486595,659.209555 625.555157,654.962125 635.041224,649.702978 C644.638578,644.414862 653.069648,638.092743 660.34779,631.766168 C670.147685,623.179942 677.563822,614.582574 683.261694,606.992466 C692.14904,594.337086 699.700946,576.850423 704.746679,563.466339 C722.481307,512.677688 732.19885,458.118495 732.19885,401.263997 C732.19885,393.798683 731.844959,386.420278 731.515551,379.037416 C727.204309,316.972797 712.895082,257.72717 690.352875,202.702231 Z" id="Fill-1" fill="#6FA4A2" mask="url(#mask-2)"></path>
                    </g>
                    <path d="M289.874803,379.10427 C289.874803,422.325098 254.879628,457.365279 211.709343,457.365279 C168.541283,457.365279 133.543882,422.325098 133.543882,379.10427 C133.543882,335.881213 168.541283,300.841032 211.709343,300.841032 C254.879628,300.841032 289.874803,335.881213 289.874803,379.10427" id="Fill-4" fill="#FEFDF2"></path>
                    <path d="M245.402464,378.0101 C245.402464,397.24387 229.829022,412.836349 210.616508,412.836349 C191.406221,412.836349 175.832779,397.24387 175.832779,378.0101 C175.832779,358.774101 191.406221,343.181622 210.616508,343.181622 C229.829022,343.181622 245.402464,358.774101 245.402464,378.0101" id="Fill-5" fill="#D3C8B5"></path>
                    <path d="M105.292674,274.099607 C81.5597005,274.099607 62.3204785,293.362347 62.3204785,317.124332 C62.3204785,332.536306 70.4800097,345.951588 82.6436316,353.550609 C97.513743,329.097805 114.108796,305.821623 132.362019,283.962736 C124.954785,277.892433 115.611165,274.099607 105.292674,274.099607" id="Fill-6" fill="#25282C"></path>
                    <path d="M628.059105,274.099607 C617.718357,274.099607 608.361382,277.905803 600.947471,283.998391 C619.196243,305.855049 635.784618,329.131231 650.652504,353.579579 C662.84506,345.989472 671.0313,332.558591 671.0313,317.124332 C671.0313,293.362347 651.792078,274.099607 628.059105,274.099607" id="Fill-7" fill="#25282C"></path>
                    <path d="M599.251464,379.10427 C599.251464,422.325098 564.256289,457.365279 521.086004,457.365279 C477.915718,457.365279 442.920543,422.325098 442.920543,379.10427 C442.920543,335.881213 477.915718,300.841032 521.086004,300.841032 C564.256289,300.841032 599.251464,335.881213 599.251464,379.10427" id="Fill-9" fill="#FEFDF2"></path>
                    <path d="M554.779125,378.0101 C554.779125,397.24387 539.205683,412.836349 519.995395,412.836349 C500.782882,412.836349 485.20944,397.24387 485.20944,378.0101 C485.20944,358.774101 500.782882,343.181622 519.995395,343.181622 C539.205683,343.181622 554.779125,358.774101 554.779125,378.0101" id="Fill-10" fill="#D3C8B5"></path>
                    <path d="M470.742186,529.816713 C470.742186,588.583223 423.1605,636.2253 364.463512,636.2253 C305.766525,636.2253 258.184839,588.583223 258.184839,529.816713 C258.184839,471.047974 305.766525,423.405897 364.463512,423.405897 C423.1605,423.405897 470.742186,471.047974 470.742186,529.816713" id="Fill-12" fill="#FFFFFF" opacity="0.729885728"></path>
                    <path d="M358.342751,635.873853 C360.633029,636.023834 362.907726,636.2253 365.235841,636.2253 C367.566182,636.2253 369.843105,636.023834 372.135609,635.873853 L372.135609,496.944816 L358.342751,496.944816 L358.342751,635.873853" id="Fill-13" fill="#694C61"></path>
                    <path d="M419.659425,472.055235 C419.659425,470.584456 419.381208,469.193902 418.985028,467.852374 C418.811421,467.194981 418.6712,466.80723 418.6712,466.80723 L418.660071,466.80723 C418.163733,465.494672 417.489337,464.286851 416.66359,463.183767 L416.668042,463.170396 C416.668042,463.170396 410.424865,450.283258 365.146812,450.160693 L365.146812,450.147322 C365.037751,450.147322 364.94427,450.154008 364.832984,450.154008 C364.723923,450.154008 364.628217,450.147322 364.519156,450.147322 L364.519156,450.160693 C338.175399,450.232003 325.07697,454.610912 318.711378,458.276715 C314.86754,459.821033 311.847223,462.923038 310.37824,466.80723 L310.355983,466.80723 C310.355983,466.80723 310.191279,467.261834 309.999866,468.026193 C309.634846,469.316467 309.376661,470.649081 309.376661,472.055235 C309.376661,472.182257 309.410047,472.300364 309.414498,472.425158 C309.145185,479.110514 311.335305,490.883426 326.476955,502.961637 C341.373775,514.843743 352.81626,518.72125 359.106177,520.007067 C359.584709,520.116261 360.07437,520.183115 360.561805,520.263339 C363.036819,520.66446 364.508027,520.662232 364.508027,520.662232 L364.519156,520.662232 C364.519156,520.662232 365.983687,520.662232 368.449797,520.265567 C368.950587,520.183115 369.453602,520.116261 369.945489,520.00261 C376.239857,518.712336 387.673439,514.825916 402.550228,502.961637 C417.629558,490.932452 419.861966,479.206338 419.61491,472.507611 C419.619362,472.353847 419.659425,472.211226 419.659425,472.055235" id="Fill-14" fill="#694C61"></path>
                    <path d="M248.181071,180.211459 L590.948154,180.211459 C549.905667,151.95023 501.700777,133.387224 449.467313,128.250642 L470.45596,71.0462769 C470.45596,71.0462769 457.097121,59.8995595 419.564612,59.8995595 C382.032104,59.8995595 368.673265,71.0462769 368.673265,71.0462769 L389.661911,128.250642 C337.430673,133.387224 289.223557,151.95023 248.181071,180.211459" id="Fill-15" fill="#73A2A2" transform="translate(419.564612, 120.055509) rotate(22.000000) translate(-419.564612, -120.055509) "></path>
                    <path d="M103.213841,242.99553 C103.213841,242.99553 96.8193148,245.449056 88.4794993,250.460845 C84.2773185,252.887629 79.5988311,255.945065 74.918118,259.557386 C70.2017933,263.116224 65.5655948,267.350283 61.3033192,271.914153 C56.9097255,276.382199 53.2239143,281.451928 49.6939044,286.240871 C46.5222372,291.259346 43.441825,295.965836 41.2005135,300.318003 C38.6787598,304.534235 36.920432,308.291405 35.6272821,310.925435 C34.2962947,313.548323 33.3859706,315.043615 33.3859706,315.043615 C33.3859706,315.043615 33.4015507,313.347763 33.6864443,310.383921 C34.1382678,307.475791 34.1182362,303.056771 35.6717967,298.145262 C36.7579536,293.068849 39.0281996,287.442007 41.8793615,281.552208 C44.9709024,275.778289 49.0039277,269.995456 53.7803472,264.814305 C63.4889874,254.547826 76.1467218,247.532659 86.211479,244.994452 C96.2806878,242.242313 103.213841,242.99553 103.213841,242.99553" id="Fill-18" fill="#FFFFFF"></path>
                </g>
                <path d="M630.751469,283.657336 C630.751469,283.657336 619.422953,282.208515 617.397081,283.657336 C614.22958,285.922602 615.171349,294.799596 615.171349,294.799596 C615.171349,294.799596 617.023141,297.010117 617.397081,299.2565 C617.765051,301.467021 617.397081,308.170309 617.397081,308.170309 C617.397081,308.170309 624.074275,317.084117 630.751469,319.312569 C637.428663,321.541021 632.9772,325.997925 632.9772,325.997925 C632.9772,325.997925 630.650116,337.869204 632.9772,341.59709 C634.359668,343.811742 644.105857,343.825542 644.105857,343.825542 C644.105857,343.825542 652.953649,349.285136 657.460246,348.282446 C659.630843,347.799502 664.13744,339.368638 664.13744,339.368638 C664.13744,339.368638 654.352115,320.068558 648.55732,310.398761 C643.223458,301.498124 630.751469,283.657336 630.751469,283.657336 Z" id="Path-18" stroke-opacity="0.533004982" stroke="#332942" stroke-width="2.22835536" fill="#B8729D"></path>
                <path d="M657.915716,361.202067 C657.915716,361.202067 654.283131,360.768203 653.633517,361.202067 C652.617831,361.880425 652.919818,364.538735 652.919818,364.538735 C652.919818,364.538735 653.51361,365.200699 653.633517,365.873402 C653.75151,366.535366 653.633517,368.542736 653.633517,368.542736 C653.633517,368.542736 655.774617,371.21207 657.915716,371.879404 C660.056816,372.546737 665.483465,372.105793 663.625315,369.21007 C661.914966,366.54468 657.915716,361.202067 657.915716,361.202067 Z" id="Path-18" stroke-opacity="0.533004982" stroke="#332942" stroke-width="1.5916824" fill="#B8729D"></path>
                <path d="M604.498163,298.805409 C604.498163,298.805409 600.865578,298.371544 600.215964,298.805409 C599.200278,299.483767 599.502265,302.142076 599.502265,302.142076 C599.502265,302.142076 600.096057,302.80404 600.215964,303.476744 C600.333957,304.138707 600.215964,306.146078 600.215964,306.146078 C600.215964,306.146078 602.357064,308.815412 604.498163,309.482745 C606.639263,310.150079 612.065912,309.709134 610.207762,306.813411 C608.497413,304.148021 604.498163,298.805409 604.498163,298.805409 Z" id="Path-18" stroke-opacity="0.533004982" stroke="#332942" stroke-width="1.5916824" fill="#B8729D"></path>
                <path d="M298.711078,818.64392 C298.711078,818.64392 287.382562,817.1951 285.356689,818.64392 C282.189188,820.909187 283.130958,829.786181 283.130958,829.786181 C283.130958,829.786181 284.982749,831.996702 285.356689,834.243085 C285.72466,836.453606 285.356689,843.156893 285.356689,843.156893 C285.356689,843.156893 292.033884,852.070702 298.711078,854.299154 C305.388272,856.527606 300.936809,860.98451 300.936809,860.98451 C300.936809,860.98451 298.609725,872.855788 300.936809,876.583675 C302.319277,878.798327 312.065466,878.812127 312.065466,878.812127 C312.065466,878.812127 320.913258,884.271721 325.419854,883.269031 C327.590452,882.786086 332.097048,874.355222 332.097048,874.355222 C332.097048,874.355222 322.311724,855.055142 316.516929,845.385345 C311.183067,836.484708 298.711078,818.64392 298.711078,818.64392 Z" id="Path-18" stroke-opacity="0.533004982" stroke="#332942" stroke-width="2.22835536" fill="#B8729D"></path>
                <path d="M326.037892,896.192829 C326.037892,896.192829 322.405306,895.758964 321.755693,896.192829 C320.740006,896.871187 321.041993,899.529496 321.041993,899.529496 C321.041993,899.529496 321.635786,900.19146 321.755693,900.864163 C321.873685,901.526127 321.755693,903.533498 321.755693,903.533498 C321.755693,903.533498 323.896792,906.202832 326.037892,906.870165 C328.178991,907.537499 333.605641,907.096554 331.74749,904.200831 C330.037142,901.535441 326.037892,896.192829 326.037892,896.192829 Z" id="Path-18" stroke-opacity="0.533004982" stroke="#332942" stroke-width="1.5916824" fill="#B8729D"></path>
                <path d="M272.037892,834.192829 C272.037892,834.192829 268.405306,833.758964 267.755693,834.192829 C266.740006,834.871187 267.041993,837.529496 267.041993,837.529496 C267.041993,837.529496 267.635786,838.19146 267.755693,838.864163 C267.873685,839.526127 267.755693,841.533498 267.755693,841.533498 C267.755693,841.533498 269.896792,844.202832 272.037892,844.870165 C274.178991,845.537499 279.605641,845.096554 277.74749,842.200831 C276.037142,839.535441 272.037892,834.192829 272.037892,834.192829 Z" id="Path-18" stroke-opacity="0.533004982" stroke="#332942" stroke-width="1.5916824" fill="#B8729D"></path>
                <path d="M83.6770218,624.159414 C83.6770218,624.159414 80.0444361,623.725549 79.3948229,624.159414 C78.3791365,624.837772 78.681123,627.496082 78.681123,627.496082 C78.681123,627.496082 79.2749158,628.158045 79.3948229,628.830749 C79.5128157,629.492713 79.3948229,631.500083 79.3948229,631.500083 C79.3948229,631.500083 81.5359223,634.169417 83.6770218,634.83675 C85.8181212,635.504084 91.2447709,635.063139 89.3866204,632.167416 C87.6762718,629.502027 83.6770218,624.159414 83.6770218,624.159414 Z" id="Path-18" stroke-opacity="0.533004982" stroke="#332942" stroke-width="1.5916824" fill="#B8729D"></path>
                <path d="M94.8056787,644.215483 C94.8056787,644.215483 91.173093,643.781618 90.5234797,644.215483 C89.5077934,644.893841 89.8097799,647.55215 89.8097799,647.55215 C89.8097799,647.55215 90.4035726,648.214114 90.5234797,648.886818 C90.6414726,649.548781 92.6645792,650.888818 94.8056787,651.556152 C96.9467781,652.223485 100.528863,650.447873 98.6707126,647.55215 C96.960364,644.886761 94.8056787,644.215483 94.8056787,644.215483 Z" id="Path-18" stroke-opacity="0.533004982" stroke="#332942" stroke-width="1.5916824" fill="#B8729D"></path>
                <path d="M499.888789,641.987031 C499.888789,641.987031 496.256203,641.553166 495.60659,641.987031 C494.590903,642.665389 494.89289,645.323698 494.89289,645.323698 C494.89289,645.323698 495.486683,645.985662 495.60659,646.658365 C495.724583,647.320329 495.60659,649.3277 495.60659,649.3277 C495.60659,649.3277 497.747689,651.997034 499.888789,652.664367 C502.029888,653.331701 507.456538,652.890756 505.598387,649.995033 C503.888039,647.329643 499.888789,641.987031 499.888789,641.987031 Z" id="Path-18" stroke-opacity="0.533004982" stroke="#332942" stroke-width="1.5916824" fill="#B8729D"></path>
                <path d="M105.478865,586.72682 C105.478865,586.72682 94.1503488,585.278 92.1244765,586.72682 C88.9569756,588.992086 89.8987452,597.86908 89.8987452,597.86908 C89.8987452,597.86908 91.7505364,600.079601 92.1244765,602.325985 C92.4924469,604.536505 92.1244765,611.239793 92.1244765,611.239793 C92.1244765,611.239793 98.8016707,620.153601 105.478865,622.382053 C112.156059,624.610505 107.704596,629.06741 107.704596,629.06741 C107.704596,629.06741 105.377512,640.938688 107.704596,644.666574 C109.087064,646.881227 118.833253,646.895026 118.833253,646.895026 C118.833253,646.895026 127.681045,652.354621 132.187641,651.351931 C134.358239,650.868986 138.864835,642.438122 138.864835,642.438122 C138.864835,642.438122 142.561537,636.053521 138.864835,629.06741 C135.93204,623.524946 125.848251,617.746026 123.284716,613.468245 C121.537592,610.552813 125.874385,598.88936 123.284716,594.996708 C117.968281,587.005329 105.478865,586.72682 105.478865,586.72682 Z" id="Path-18" stroke-opacity="0.526551178" stroke="#332942" stroke-width="2.22835536" fill="#B8729D"></path>
                <path d="M630.751469,548.843134 C630.751469,548.843134 619.422953,547.394314 617.397081,548.843134 C614.22958,551.108401 615.171349,559.985395 615.171349,559.985395 C615.171349,559.985395 617.023141,562.195916 617.397081,564.442299 C617.765051,566.65282 617.397081,573.356107 617.397081,573.356107 C617.397081,573.356107 621.717585,581.625996 628.39478,583.854448 C635.071974,586.0829 632.9772,591.183724 632.9772,591.183724 C632.9772,591.183724 630.650116,603.055002 632.9772,606.782889 C634.359668,608.997541 644.105857,609.011341 644.105857,609.011341 C644.105857,609.011341 652.953649,614.470935 657.460246,613.468245 C659.630843,612.9853 664.13744,604.554437 664.13744,604.554437 C664.13744,604.554437 667.834141,598.169836 664.13744,591.183724 C661.204645,585.64126 657.667091,579.21842 655.103556,574.940639 C653.356433,572.025208 651.146989,561.005674 648.55732,557.113023 C643.240886,549.121644 630.751469,548.843134 630.751469,548.843134 Z" id="Path-18" fill="#4B7E7C" opacity="0.366487873"></path>
                <path d="M255.968264,673.636451 C255.968264,673.636451 231.618701,672.187631 227.264283,673.636451 C220.456042,675.901718 222.480286,684.778712 222.480286,684.778712 C222.480286,684.778712 226.460534,686.989233 227.264283,689.235616 C228.0552,691.446137 227.264283,698.149424 227.264283,698.149424 C227.264283,698.149424 236.550794,706.419313 250.902785,708.647765 C265.254775,710.876217 260.75226,715.977041 260.75226,715.977041 C260.75226,715.977041 255.750415,727.848319 260.75226,731.576206 C263.723743,733.790858 284.672245,733.804658 284.672245,733.804658 C284.672245,733.804658 303.689728,739.264252 313.376226,738.261562 C318.041719,737.778617 327.728216,729.347754 327.728216,729.347754 C327.728216,729.347754 335.673922,722.963153 327.728216,715.977041 C321.424454,710.434577 313.82082,704.011737 308.310747,699.733956 C304.555472,696.818525 299.806485,685.798992 294.240238,681.90634 C282.813071,673.914961 255.968264,673.636451 255.968264,673.636451 Z" id="Path-18" fill="#4B7E7C" opacity="0.366487873" transform="translate(276.729222, 705.688522) scale(-1, -1) translate(-276.729222, -705.688522) "></path>
                <path d="M586.158511,590.516892 C586.158511,590.516892 577.391583,589.353885 575.823798,590.516892 C573.372528,592.335281 574.101346,599.461078 574.101346,599.461078 C574.101346,599.461078 575.534413,601.235521 575.823798,603.038752 C576.108564,604.813196 575.823798,610.194101 575.823798,610.194101 C575.823798,610.194101 579.167357,616.832559 584.334713,618.621396 C589.50207,620.410233 606.988012,614.899934 605.004139,611.466047 C603.652073,609.125753 601.942226,600.280083 599.938129,597.155349 C595.823839,590.740458 586.158511,590.516892 586.158511,590.516892 Z" id="Path-18" fill="#4B7E7C" opacity="0.366487873"></path>
                <path d="M465.711078,818.64392 C465.711078,818.64392 454.382562,817.1951 452.356689,818.64392 C449.189188,820.909187 450.130958,829.786181 450.130958,829.786181 C450.130958,829.786181 451.982749,831.996702 452.356689,834.243085 C452.72466,836.453606 452.356689,843.156893 452.356689,843.156893 C452.356689,843.156893 456.677194,851.426781 463.354388,853.655233 C470.031582,855.883686 467.936809,860.98451 467.936809,860.98451 C467.936809,860.98451 465.609725,872.855788 467.936809,876.583675 C469.319277,878.798327 479.065466,878.812127 479.065466,878.812127 C479.065466,878.812127 487.913258,884.271721 492.419854,883.269031 C494.590452,882.786086 499.097048,874.355222 499.097048,874.355222 C499.097048,874.355222 502.793749,867.970622 499.097048,860.98451 C496.164253,855.442046 492.6267,849.019206 490.063165,844.741425 C488.316041,841.825993 486.106598,830.80646 483.516929,826.913808 C478.200494,818.922429 465.711078,818.64392 465.711078,818.64392 Z" id="Path-18" fill="#4B7E7C" opacity="0.366487873"></path>
                <path d="M421.158511,860.516892 C421.158511,860.516892 412.391583,859.353885 410.823798,860.516892 C408.372528,862.335281 409.101346,869.461078 409.101346,869.461078 C409.101346,869.461078 410.534413,871.235521 410.823798,873.038752 C411.108564,874.813196 410.823798,880.194101 410.823798,880.194101 C410.823798,880.194101 414.167357,886.832559 419.334713,888.621396 C424.50207,890.410233 441.988012,884.899934 440.004139,881.466047 C438.652073,879.125753 436.942226,870.280083 434.938129,867.155349 C430.823839,860.740458 421.158511,860.516892 421.158511,860.516892 Z" id="Path-18" fill="#4B7E7C" opacity="0.366487873"></path>
                <path d="M477.176004,651.351931 C477.176004,651.351931 465.847488,649.90311 463.821616,651.351931 C460.654115,653.617197 461.595885,662.494191 461.595885,662.494191 C461.595885,662.494191 463.447676,664.704712 463.821616,666.951095 C464.189586,669.161616 463.821616,675.864904 463.821616,675.864904 C463.821616,675.864904 468.142121,684.134792 474.819315,686.363244 C481.496509,688.591696 504.091626,681.727216 501.528091,677.449435 C499.780968,674.534004 497.571525,663.514471 494.981855,659.621819 C489.665421,651.63044 477.176004,651.351931 477.176004,651.351931 Z" id="Path-18" stroke-opacity="0.526551178" stroke="#332942" stroke-width="2.22835536" fill="#B16593"></path>
                <path d="M679.586601,625.12855 C679.586601,625.12855 676.511164,631.003648 670.683676,635.62689 C666.666981,638.813537 661.498793,639.825496 657.329287,642.312246 C652.671743,645.090069 649.191593,649.187917 648.55732,649.641523 C645.389819,651.906789 646.331589,660.783783 646.331589,660.783783 C646.331589,660.783783 648.18338,662.994304 648.55732,665.240687 C648.92529,667.451208 648.55732,674.154496 648.55732,674.154496 C648.55732,674.154496 645.48203,692.751443 648.55732,695.795096 C650.243662,697.46409 657.190277,683.863625 659.555019,684.652836 C662.960478,685.789376 662.831838,676.691075 666.232213,673.510575 C669.499064,670.454966 676.391236,667.336742 675.135138,665.240687 C674.378863,663.978688 681.064966,663.00918 686.263795,655.682959 C689.293413,651.413603 686.413774,643.896028 688.489527,640.083794 C691.08059,635.325163 698.207879,634.624144 697.392452,633.398438 C695.665793,630.803016 697.733012,621.250716 695.166721,620.027725 C689.831329,617.485093 679.586601,625.12855 679.586601,625.12855 Z" id="Path-18" stroke-opacity="0.526551178" stroke="#332942" stroke-width="2.22835536" fill="#B16593"></path>
                <path d="M638.410571,687.47747 L670.683676,679.677888" id="Path-41" stroke="#EBAE77" stroke-width="2.22835536"></path>
                <path d="M661.78075,695.277052 L643.974899,664.078723" id="Path-42" stroke="#EBAE77" stroke-width="2.22835536"></path>
                <path d="M135.18612,575.269796 C135.18612,575.269796 129.719891,574.529194 128.742369,575.269796 C127.213988,576.427744 127.66841,580.965447 127.66841,580.965447 C127.66841,580.965447 128.561935,582.095411 128.742369,583.243707 C128.919922,584.373671 128.742369,587.800228 128.742369,587.800228 C128.742369,587.800228 130.827096,592.027592 134.048971,593.166722 C137.270847,594.305853 136.260078,596.913269 136.260078,596.913269 C136.260078,596.913269 135.137215,602.981576 136.260078,604.887181 C136.927146,606.019257 141.62987,606.026311 141.62987,606.026311 C141.62987,606.026311 145.899101,608.817122 148.073621,608.304571 C149.120977,608.057702 151.295497,603.748051 151.295497,603.748051 C151.295497,603.748051 153.079227,600.484399 151.295497,596.913269 C149.880366,594.080097 148.173428,590.796899 146.936473,588.610202 C146.093452,587.119904 145.027353,581.486989 143.777787,579.49716 C141.212505,575.412163 135.18612,575.269796 135.18612,575.269796 Z" id="Path-18" fill="#4B7E7C" opacity="0.366487873"></path>
                <path d="M326.599018,332.368518 C326.599018,332.368518 321.132789,331.627916 320.155267,332.368518 C318.626886,333.526466 319.081308,338.064169 319.081308,338.064169 C319.081308,338.064169 319.974834,339.194133 320.155267,340.342429 C320.33282,341.472393 320.155267,344.89895 320.155267,344.89895 C320.155267,344.89895 322.239994,349.126314 325.461869,350.265445 C328.683745,351.404575 327.672976,354.011991 327.672976,354.011991 C327.672976,354.011991 326.550113,360.080299 327.672976,361.985903 C328.340044,363.117979 333.042769,363.125033 333.042769,363.125033 C333.042769,363.125033 337.312,365.915844 339.486519,365.403293 C340.533875,365.156424 342.708395,360.846773 342.708395,360.846773 C342.708395,360.846773 344.492125,357.583121 342.708395,354.011991 C341.293265,351.17882 339.586326,347.895621 338.349371,345.708924 C337.50635,344.218626 336.440251,338.585711 335.190686,336.595882 C332.625403,332.510885 326.599018,332.368518 326.599018,332.368518 Z" id="Path-18" fill="#4B7E7C" opacity="0.366487873"></path>
                <path d="M294.666032,254.687459 C294.666032,254.687459 283.337516,253.238638 281.311643,254.687459 C278.144142,256.952725 279.085912,265.829719 279.085912,265.829719 C279.085912,265.829719 280.937703,268.04024 281.311643,270.286623 C281.679614,272.497144 281.311643,279.200431 281.311643,279.200431 C281.311643,279.200431 285.632148,287.47032 292.309342,289.698772 C298.986536,291.927224 321.581654,285.062744 319.018119,280.784963 C317.270995,277.869532 315.061552,266.849999 312.471883,262.957347 C307.155448,254.965968 294.666032,254.687459 294.666032,254.687459 Z" id="Path-18" fill="#4B7E7C" opacity="0.366487873"></path>
                <path d="M335.846367,309.874123 C335.846367,309.874123 333.341531,309.605737 332.893592,309.874123 C332.193229,310.293751 332.401463,311.938166 332.401463,311.938166 C332.401463,311.938166 332.810911,312.347653 332.893592,312.763783 C332.974954,313.17327 332.893592,314.415018 332.893592,314.415018 C332.893592,314.415018 333.848894,315.946969 335.325282,316.359778 C336.80167,316.772587 341.797653,315.500979 341.230832,314.708544 C340.844528,314.168476 340.356,312.127167 339.783401,311.406075 C338.607889,309.925716 335.846367,309.874123 335.846367,309.874123 Z" id="Path-18" fill="#4B7E7C" opacity="0.366487873"></path>
                <path d="M503.669994,463.161819 C503.669994,463.161819 511.956753,472.065793 524.980386,476.149247 C540.97822,481.165239 563.696504,489.424725 579.515279,486.828313 C584.618614,485.990679 594.80703,483.030835 602.79138,478.291229 C609.429323,474.350866 613.711534,469.011321 619.937262,464.193304 C630.522648,456.001399 638.223859,439.228928 638.223859,439.228928 C638.223859,439.228928 623.971479,455.901859 615.975489,459.294942 C600.961584,465.666064 589.997484,470.250704 574.270577,472.832037 C563.006277,474.680901 540.213567,471.244485 525.505214,470.158196 C512.591854,469.204476 503.669994,463.161819 503.669994,463.161819 Z" id="Path-17" fill="#497B79" opacity="0.63776819" transform="translate(570.946927, 463.275218) rotate(-6.000000) translate(-570.946927, -463.275218) "></path>
                <path d="M143.101512,463.161819 C143.101512,463.161819 151.38827,472.065793 164.411904,476.149247 C180.409737,481.165239 203.128021,489.424725 218.946796,486.828313 C224.050131,485.990679 234.238547,483.030835 242.222898,478.291229 C248.86084,474.350866 253.143051,469.011321 259.368779,464.193304 C269.954166,456.001399 277.655377,439.228928 277.655377,439.228928 C277.655377,439.228928 263.402997,455.901859 255.407007,459.294942 C240.393101,465.666064 229.429002,470.250704 213.702094,472.832037 C202.437794,474.680901 179.645084,471.244485 164.936731,470.158196 C152.023372,469.204476 143.101512,463.161819 143.101512,463.161819 Z" id="Path-17" fill="#497B79" opacity="0.63776819" transform="translate(210.378444, 463.275218) scale(-1, 1) rotate(-6.000000) translate(-210.378444, -463.275218) "></path>
                <path d="M160.991191,258.500442 C160.991191,258.500442 166.774864,258.056599 169.894117,256.27199 C171.968238,255.08533 176.571311,249.586634 176.571311,249.586634" id="Path-37" stroke="#3A222F" stroke-width="2.22835536"></path>
                <path d="M174.896964,296.384128 C174.896964,296.384128 169.204885,293.899863 168.21977,291.927224 C166.979154,289.442959 168.21977,283.013415 168.21977,283.013415" id="Path-38" stroke="#3A222F" stroke-width="2.22835536"></path>
                <g id="Group-2" transform="translate(710.746840, 476.888747)">
                    <g id="Group">
                        <path d="M15.4438504,6.23966585 C14.7132829,2.11788579 10.4647855,0.346476421 7.99894217,0.951346526 C5.61965599,1.5349842 2.06434647,5.30282184 0.731247889,8.08239322 C-0.601850694,10.8619646 0.192189851,13.4602075 0.731247889,16.1048207 C1.10065164,17.9171117 3.45663324,21.4531058 3.45663324,21.4531058 C3.45663324,21.4531058 6.48569235,25.0186291 7.99894217,25.0186291 C9.2110777,25.0186291 11.6327893,21.4531058 11.6327893,21.4531058 C11.6327893,21.4531058 16.1744178,10.3614459 15.4438504,6.23966585 Z" id="Path-36" fill="#294544"></path>
                        <path d="M9.08461785,19.0162905 C9.08461785,19.0162905 18.5870163,13.5718127 22.7115446,15.4507671 C27.0659929,17.434463 34.5215478,30.6042414 34.5215478,30.6042414 C34.5215478,30.6042414 37.2469332,36.2498193 41.7892421,35.0611455 C46.3315511,33.8724718 42.6977039,24.3645755 42.6977039,24.3645755 C42.6977039,24.3645755 40.8359012,18.0215838 36.3384714,13.6680055 C34.6347222,12.0187511 30.7315952,12.4472521 29.0707771,10.993863 C27.3785533,9.51299051 25.7721914,7.08901673 24.5284682,6.53695878 C17.4965245,3.41565296 4.54230893,7.42833962 4.54230893,7.42833962 C4.54230893,7.42833962 4.72492311,11.816285 5.45077071,13.6680055 C6.23902608,15.6789353 9.08461785,19.0162905 9.08461785,19.0162905 Z" id="Path-16" fill="#D0A9C0"></path>
                    </g>
                    <path d="M33.3859706,28.9698772 L42.2888961,24.512973" id="Path-39" stroke="#AA819A" stroke-width="2.22835536"></path>
                    <path d="M28.9345079,22.2845209 L37.8374334,15.5991646" id="Path-39" stroke="#AA819A" stroke-width="2.22835536"></path>
                    <path d="M24.4830451,15.5991646 L28.9345079,11.1422605" id="Path-39" stroke="#AA819A" stroke-width="2.22835536"></path>
                    <path d="M17.805851,4.45690418 L17.805851,15.5991646" id="Path-40" stroke="#A17590" stroke-width="2.22835536"></path>
                </g>
                <g id="Group-2" transform="translate(22.652242, 668.974390) scale(-1, 1) translate(-22.652242, -668.974390) translate(0.051325, 650.708010)">
                    <g id="Group">
                        <path d="M15.4438504,6.23966585 C14.7132829,2.11788579 10.4647855,0.346476421 7.99894217,0.951346526 C5.61965599,1.5349842 2.06434647,5.30282184 0.731247889,8.08239322 C-0.601850694,10.8619646 0.192189851,13.4602075 0.731247889,16.1048207 C1.10065164,17.9171117 3.45663324,21.4531058 3.45663324,21.4531058 C3.45663324,21.4531058 6.48569235,25.0186291 7.99894217,25.0186291 C9.2110777,25.0186291 11.6327893,21.4531058 11.6327893,21.4531058 C11.6327893,21.4531058 16.1744178,10.3614459 15.4438504,6.23966585 Z" id="Path-36" fill="#294544"></path>
                        <path d="M9.08461785,19.0162905 C9.08461785,19.0162905 18.5870163,13.5718127 22.7115446,15.4507671 C27.0659929,17.434463 34.5215478,30.6042414 34.5215478,30.6042414 C34.5215478,30.6042414 37.2469332,36.2498193 41.7892421,35.0611455 C46.3315511,33.8724718 42.6977039,24.3645755 42.6977039,24.3645755 C42.6977039,24.3645755 40.8359012,18.0215838 36.3384714,13.6680055 C34.6347222,12.0187511 30.7315952,12.4472521 29.0707771,10.993863 C27.3785533,9.51299051 25.7721914,7.08901673 24.5284682,6.53695878 C17.4965245,3.41565296 4.54230893,7.42833962 4.54230893,7.42833962 C4.54230893,7.42833962 4.72492311,11.816285 5.45077071,13.6680055 C6.23902608,15.6789353 9.08461785,19.0162905 9.08461785,19.0162905 Z" id="Path-16" fill="#D0A9C0"></path>
                    </g>
                    <path d="M33.3859706,28.9698772 L42.2888961,24.512973" id="Path-39" stroke="#AA819A" stroke-width="2.22835536"></path>
                    <path d="M28.9345079,22.2845209 L37.8374334,15.5991646" id="Path-39" stroke="#AA819A" stroke-width="2.22835536"></path>
                    <path d="M24.4830451,15.5991646 L28.9345079,11.1422605" id="Path-39" stroke="#AA819A" stroke-width="2.22835536"></path>
                    <path d="M17.805851,4.45690418 L17.805851,15.5991646" id="Path-40" stroke="#A17590" stroke-width="2.22835536"></path>
                </g>
                <path d="M669.57081,631.766168 L701.843915,623.966585" id="Path-41" stroke="#EDB786" stroke-width="2.22835536"></path>
                <path d="M697.392452,644.022654 L679.586601,612.824325" id="Path-42" stroke="#EDB786" stroke-width="2.22835536"></path>
                <path d="M640.636302,656.279141 L691.828124,647.365332" id="Path-41" stroke="#EDB786" stroke-width="2.22835536"></path>
                <path d="M678.473735,671.878305 L655.103556,632.880394" id="Path-42" stroke="#EDB786" stroke-width="2.22835536"></path>
            </g>
        </g>
    </g>
</svg>