<?xml version="1.0" encoding="UTF-8" standalone="no"?>
<svg width="1200px" height="1200px" viewBox="0 0 1200 1200" version="1.1" xmlns="http://www.w3.org/2000/svg" xmlns:xlink="http://www.w3.org/1999/xlink">
    <!-- Generator: Sketch 42 (36781) - http://www.bohemiancoding.com/sketch -->
    <title>18</title>
    <desc>Created with Sketch.</desc>
    <defs>
        <polyline id="path-1" points="0 808.230379 653.580096 808.230379 653.580096 1.90091077 0 1.90091077"></polyline>
        <path d="M520.108423,202.816901 C486.968285,202.816901 480.369756,219.80818 480.369756,219.80818 C480.369756,219.808181 462.920187,202.816901 443.043048,202.816901 C406.101748,202.816901 408.156602,219.80818 408.156602,219.80818 C408.156602,219.808181 394.740154,208.164887 371.373883,208.164887 C348.007613,208.164886 340.447348,221.295735 340.447348,219.80818 C340.447348,218.320626 329.765592,208.164887 299.919897,208.164887 C270.074203,208.164887 270.074203,220.532824 270.074203,219.80818 C270.074203,219.083536 259.018257,210.404624 232.963313,210.404624 C206.908368,210.404625 201.627997,225.804948 201.627997,224.068602 C201.627997,222.332256 188.647481,214.569248 160.154858,214.598509 C139.513655,214.619708 129.146629,235.36604 131.355961,251.01369 C133.565293,266.66134 143.900398,274.647645 165.745347,274.647644 C187.590297,274.647643 201.627997,265.008784 201.627997,265.008784 C201.627997,265.008784 214.559812,274.703973 235.949157,274.647643 C257.338503,274.591312 270.074203,261.165528 270.074203,260.892459 C270.074203,260.892459 277.938329,274.64763 307.116139,274.647644 C328.131586,274.647654 340.447348,260.892459 340.447348,260.892459 C340.447348,260.892459 352.867609,274.647644 375.591357,274.647644 C397.865254,274.647644 408.156602,260.892459 408.156602,260.892459 C408.156602,260.892459 417.478824,274.647644 440.374735,274.647644 C463.270646,274.647644 480.369756,265.008784 480.369756,265.008784 C480.369747,265.008786 497.064587,274.647643 517.255756,274.647643 C537.446925,274.647643 548.085438,260.418141 552.370017,251.01369 C556.654596,241.609238 553.248561,202.816901 520.108423,202.816901 Z" id="path-3"></path>
        <filter x="-50%" y="-50%" width="200%" height="200%" filterUnits="objectBoundingBox" id="filter-4">
            <feOffset dx="0" dy="-0" in="SourceAlpha" result="shadowOffsetOuter1"></feOffset>
            <feGaussianBlur stdDeviation="10" in="shadowOffsetOuter1" result="shadowBlurOuter1"></feGaussianBlur>
            <feColorMatrix values="0 0 0 0 0   0 0 0 0 0   0 0 0 0 0  0 0 0 0.097486413 0" type="matrix" in="shadowBlurOuter1"></feColorMatrix>
        </filter>
        <path d="M164.430769,741.65959 C164.430769,741.65959 290.93927,758.638046 332.778518,758.638046 C378.322178,758.638046 506.994872,741.509434 506.994872,741.509434 L506.994872,741.509434 C508.07424,740.565874 508.949237,746.826606 508.949235,750.741296 C508.949235,750.741296 508.949235,752.806887 508.949235,750.741296 C508.949235,748.330979 508.949235,750.741296 508.949235,750.741296 C508.949238,755.698483 508.949241,766.745512 508.949241,766.776988 L508.949241,766.776988 C508.949241,766.776988 495.397913,761.043065 489.866667,763.5562 C483.905049,766.264876 479.589744,777.209643 472.738462,777.209643 C465.887179,777.209643 457.909283,769.227901 451.120573,771.058425 C444.653256,772.802287 436.843122,781.855847 428.361749,783.013541 C421.861562,783.900806 411.580817,774.234094 404.591584,775.264128 C397.352038,776.331053 390.150288,785.010864 382.857923,785.655003 C374.155901,786.423657 364.943088,776.588951 356.934803,777.209643 C349.269932,777.803719 341.782447,785.655003 335.510179,785.655003 C328.260311,785.655003 319.322786,774.116436 310.545348,775.264128 C304.453024,776.060729 298.027173,784.080385 291.581576,783.013541 C284.335834,781.814261 277.440933,771.589355 269.796009,771.058425 C263.630275,770.630224 255.050929,778.053428 249.150927,777.209643 C240.333663,775.948649 232.321778,767.580687 224.764981,766.776988 C218.21061,766.079901 210.869294,771.7625 206.018002,771.058425 C204.268516,770.804519 196.061354,763.613791 188.410256,762.078129 C179.272808,760.24414 168.239994,768.714735 164.430769,768.934361 C163.579757,768.983427 164.661058,762.239349 164.430769,762.078129 C160.387835,759.247761 164.430769,762.078129 164.430769,762.078129 C160.933056,760.857085 160.406417,753.229461 163.254391,745.041636 L164.430769,741.65959 Z" id="path-5"></path>
        <filter x="-50%" y="-50%" width="200%" height="200%" filterUnits="objectBoundingBox" id="filter-6">
            <feOffset dx="0" dy="16" in="SourceAlpha" result="shadowOffsetOuter1"></feOffset>
            <feGaussianBlur stdDeviation="8" in="shadowOffsetOuter1" result="shadowBlurOuter1"></feGaussianBlur>
            <feColorMatrix values="0 0 0 0 0   0 0 0 0 0   0 0 0 0 0  0 0 0 0.187188632 0" type="matrix" in="shadowBlurOuter1"></feColorMatrix>
        </filter>
        <polygon id="path-7" points="495.921266 681.648819 645.190133 683.222594 642.056024 714.170123 498.213485 714.170123"></polygon>
        <filter x="-50%" y="-50%" width="200%" height="200%" filterUnits="objectBoundingBox" id="filter-8">
            <feOffset dx="0" dy="0" in="SourceAlpha" result="shadowOffsetOuter1"></feOffset>
            <feGaussianBlur stdDeviation="8" in="shadowOffsetOuter1" result="shadowBlurOuter1"></feGaussianBlur>
            <feColorMatrix values="0 0 0 0 0   0 0 0 0 0   0 0 0 0 0  0 0 0 0.35 0" type="matrix" in="shadowBlurOuter1"></feColorMatrix>
        </filter>
        <polygon id="path-9" points="2.62895871 15.5579346 151.897826 17.1317086 148.763716 48.0792378 4.92117743 48.0792378"></polygon>
        <filter x="-50%" y="-50%" width="200%" height="200%" filterUnits="objectBoundingBox" id="filter-10">
            <feOffset dx="0" dy="0" in="SourceAlpha" result="shadowOffsetOuter1"></feOffset>
            <feGaussianBlur stdDeviation="8" in="shadowOffsetOuter1" result="shadowBlurOuter1"></feGaussianBlur>
            <feColorMatrix values="0 0 0 0 0   0 0 0 0 0   0 0 0 0 0  0 0 0 0.35 0" type="matrix" in="shadowBlurOuter1"></feColorMatrix>
        </filter>
    </defs>
    <g id="Page-1" stroke="none" stroke-width="1" fill="none" fill-rule="evenodd">
        <g id="18">
            <g id="Group-44" transform="translate(267.000000, 151.000000)">
                <g id="Group-3" transform="translate(9.929620, 85.888624)">
                    <mask id="mask-2" fill="white">
                        <use xlink:href="#path-1"></use>
                    </mask>
                    <g id="Clip-2"></g>
                    <path d="M616.228849,305.309026 C610.898363,292.512699 605.23522,279.88508 598.892818,267.641959 C621.370098,254.529794 636.487085,230.471208 636.487085,202.877595 C636.487085,161.291004 602.257239,127.578773 560.027681,127.578773 L93.6201413,127.578773 C51.3925753,127.578773 17.1607378,161.291004 17.1607378,202.877595 C17.1607378,230.449629 32.2558128,254.492521 54.7052052,267.612533 C48.3628037,279.849769 42.6996606,292.473464 37.3711668,305.265868 C17.2404162,353.58902 4.45999907,405.619832 0.611531806,460.126339 C0.318713645,466.6118 0,473.091375 0,479.647457 C0,526.754341 7.78059686,572.042706 21.9434345,614.476763 C26.1663903,626.421702 34.2896043,646.992342 44.2414379,660.726373 C45.3270562,662.136853 46.3529158,663.512021 47.591915,664.995085 C52.4443303,670.752746 57.7947356,676.345621 64.2327512,681.895339 C70.7305257,687.44898 78.2581436,693.00066 86.8235728,697.642099 C95.291396,702.259998 105.171519,705.989236 114.918181,707.227084 C125.119009,708.66699 135.883563,706.942634 144.100399,701.263442 C152.476592,695.725495 158.466416,686.030654 161.932427,675.070501 C168.846521,652.865744 168.079617,627.706631 165.962163,604.952592 C163.647505,582.010227 159.426541,560.69217 155.235457,542.577608 C146.727794,506.321021 138.381481,482.778369 138.381481,482.778369 C138.381481,482.778369 148.351242,505.665806 159.446461,541.475119 C164.932319,559.387623 170.697052,580.538934 174.710852,603.806945 C178.41789,627.027874 181.407823,652.608758 175.366207,678.75658 C172.262733,691.601951 165.794838,705.153542 154.018369,714.308908 C142.227956,723.621213 127.48745,726.501024 114.250874,726.818824 C100.31512,726.912987 87.9430545,723.780113 76.7223422,719.572215 C75.3558575,719.052358 74.1905607,718.38341 72.8619232,717.830203 C93.3791141,748.301666 117.812499,775.93059 145.283623,800.326592 C159.938475,808.261767 183.818095,814.123399 215.44644,797.948982 C270.595852,769.749197 325.745265,766.616323 325.745265,766.616323 C325.745265,766.616323 380.894677,769.749197 436.042098,797.948982 C473.100527,816.897277 499.519896,805.619324 512.907861,796.173622 C538.414912,772.860491 561.22485,746.742095 580.548856,718.087189 C579.311849,718.599199 578.228223,719.224989 576.95536,719.707574 C565.734648,723.915472 553.364574,727.048346 539.42882,726.954183 C526.190252,726.636383 511.451738,723.756572 499.661325,714.444267 C487.884856,705.2889 481.416961,691.73731 478.313487,678.891939 C472.271871,652.744117 475.259812,627.163233 478.968842,603.942304 C482.98065,580.676255 488.747375,559.522982 494.233233,541.610478 C505.32646,505.801164 515.298213,482.913728 515.298213,482.913728 C515.298213,482.913728 506.949908,506.45638 498.444237,542.712967 C494.253153,560.827529 490.030197,582.147548 487.715539,605.087951 C485.598085,627.84199 484.831181,653.001103 491.747267,675.20586 C495.213278,686.166013 501.20111,695.860854 509.577303,701.398801 C517.796131,707.079955 528.558693,708.802349 538.759521,707.362443 C548.508175,706.124595 558.388298,702.395357 566.854129,697.777458 C575.42155,693.136019 582.947176,687.584339 589.444951,682.030698 C598.19364,674.491792 604.812924,666.943077 609.898399,660.277138 C617.830385,649.165932 624.57317,633.813479 629.075001,622.06275 C644.905109,577.468835 653.580096,529.565492 653.580096,479.647457 C653.580096,473.093337 653.263374,466.615723 652.970556,460.132225 C649.122089,405.639449 636.34964,353.62237 616.228849,305.309026 Z" id="Fill-1" fill="#F6C823" mask="url(#mask-2)"></path>
                </g>
                <path d="M103.549761,250.991258 C82.3652639,250.991258 65.1905823,267.903282 65.1905823,288.766219 C65.1905823,302.298193 72.4751811,314.076385 83.3313646,320.748209 C96.6057879,299.2791 111.418005,278.841857 127.71224,259.650309 C121.098932,254.320304 112.760586,250.991258 103.549761,250.991258" id="Fill-4" fill="#25282C"></path>
                <path d="M569.957302,250.991258 C560.72855,250.991258 552.374268,254.334036 545.756976,259.681696 C562.047227,278.873244 576.853468,299.308525 590.123907,320.775674 C601.00997,314.109735 608.316481,302.31781 608.316481,288.766219 C608.316481,267.903282 591.141799,250.991258 569.957302,250.991258" id="Fill-5" fill="#25282C"></path>
                <path d="M430.541993,475.239877 C430.541993,526.837147 388.069416,568.666993 335.674885,568.666993 C283.280354,568.666993 240.805785,526.837147 240.805785,475.239877 C240.805785,423.640645 283.280354,381.810799 335.674885,381.810799 C388.069416,381.810799 430.541993,423.640645 430.541993,475.239877" id="Fill-6" fill="#FFFFFF"></path>
                <path d="M329.517736,568.360964 C331.563479,568.490438 333.593287,568.666993 335.670901,568.666993 C337.750508,568.666993 339.784299,568.490438 341.830042,568.360964 L341.830042,446.928273 L329.517736,446.928273 L329.517736,568.360964" id="Fill-7" fill="#25282C"></path>
                <path d="M384.896224,424.225239 C384.896224,422.934424 384.647229,421.714232 384.29266,420.535235 C384.137287,419.956527 384.011793,419.617148 384.011793,419.617148 L384.001833,419.617148 C383.559618,418.465616 382.958046,417.406285 382.219029,416.437194 L382.225005,416.425423 C382.225005,416.425423 376.6515,405.110198 336.236618,405.000341 L336.236618,404.990533 C336.13702,404.990533 336.053357,404.996418 335.955751,404.996418 C335.856153,404.996418 335.772491,404.990533 335.674885,404.990533 L335.674885,405.000341 C312.159794,405.065078 300.468979,408.910058 294.785916,412.127285 C291.353769,413.482837 288.658647,416.20571 287.345945,419.617148 L287.326025,419.617148 C287.326025,419.617148 287.180612,420.01734 287.009303,420.68825 C286.684614,421.820165 286.453546,422.991314 286.453546,424.225239 C286.453546,424.337057 286.483426,424.441028 286.48741,424.550885 C286.246383,430.418402 288.200496,440.756689 301.715946,451.359808 C315.014273,461.794219 325.229045,465.199772 330.842389,466.327764 C331.270661,466.423888 331.7069,466.480778 332.143139,466.5514 C334.352223,466.904511 335.664925,466.902549 335.664925,466.902549 L335.674885,466.902549 C335.674885,466.902549 336.981611,466.902549 339.182727,466.553362 C339.630918,466.480778 340.079109,466.421927 340.51734,466.32384 C346.138652,465.189964 356.343465,461.778525 369.621872,451.359808 C383.08354,440.799847 385.0755,430.502756 384.854392,424.623469 C384.858376,424.48811 384.896224,424.362559 384.896224,424.225239" id="Fill-8" fill="#25282C"></path>
                <path d="M102.32869,222.610994 C102.32869,222.610994 96.6217236,224.764967 89.1757761,229.165114 C85.4269068,231.295547 81.2497661,233.979185 77.0706334,237.151294 C72.8616214,240.278282 68.7243199,243.993788 64.9196757,247.999628 C60.9975059,251.923077 57.7067875,256.374229 54.5555064,260.580166 C51.7249308,264.986198 48.9740337,269.11759 46.9741055,272.939028 C44.7231904,276.640802 43.1535257,279.940422 41.9981888,282.253295 C40.8109804,284.556359 40.0002526,285.870715 40.0002526,285.870715 C40.0002526,285.870715 40.0122044,284.379804 40.2671753,281.778558 C40.6695513,279.224393 40.6536156,275.344102 42.0400199,271.032233 C43.0081126,266.575195 45.0359282,261.633612 47.5816534,256.462507 C50.3405184,251.393411 53.9399907,246.316469 58.2027857,241.767231 C66.8698048,232.753108 78.1701955,226.593294 87.1519444,224.364775 C96.1396692,221.949893 102.32869,222.610994 102.32869,222.610994" id="Fill-12" fill="#FFFFFF"></path>
                <path d="M99.2313746,828.08316 C104.062859,834.642947 118.386952,849.866124 118.386952,849.866124 C118.386952,849.866124 125.784363,857.394598 133.31744,865.62374 C137.926025,870.658163 143.433371,876.165362 147.019541,879.506638 C150.868711,883.092955 156.58041,888.004023 161.636042,891.70087 C166.907178,895.5553 179.582992,895.347809 179.582992,895.347809 C179.582992,895.347809 191.618883,895.083184 206.625857,891.70087 C222.428491,888.139228 263.514163,868.019067 263.514163,868.019067 C263.514163,868.019067 291.018863,859.838776 305.179496,857.21657 C313.945477,855.593324 324.839899,854.748746 335.59536,853.987812 C344.530857,853.355639 355.275578,855.097217 355.275578,855.097217 C355.275578,855.097217 391.228693,863.526902 409.080019,869.188947 C424.149289,873.968586 452.630856,888.085082 452.630856,888.085082 C452.630856,888.085082 471.52518,895.347809 486.423322,895.347809 C501.321465,895.347809 503.259116,895.347809 514.485014,889.661251 C525.710912,883.974692 532.42945,877.723393 541.244007,869.188945 C553.814737,857.017688 578.18375,825.967967 578.18375,825.967967 L595.777212,800.92206 C595.777212,800.92206 653.37162,710.809065 630.317949,700.372044 C584.680113,679.710559 438.115128,731.290446 409.080034,732.1172 C381.968764,732.889175 352.540347,733.468984 328.320377,733.27788 C321.852096,733.226843 314.420886,732.926024 308.839424,732.67447 C278.55075,731.309372 78.9118642,673.577691 34.2564103,700.372044 C22.6557137,707.332742 98.2126122,826.699969 99.2313746,828.08316 Z" id="Path-18" fill="#D81414"></path>
                <path d="M254.705684,351.723835 L254.715643,351.723835 L254.697716,351.694409 C254.659868,351.61594 254.596126,351.54728 254.558278,351.466849 C254.430793,351.26283 254.229605,350.946992 253.906907,350.482063 C253.321271,349.489431 252.645997,348.549765 251.783478,347.696415 C245.47494,340.031959 228.379936,324.057638 195.341283,324.057638 C160.932161,324.057638 143.691745,342.717559 137.986771,350.501681 C137.187995,351.421729 136.480849,352.410438 135.962939,353.497234 C135.819518,353.738526 135.73984,353.881732 135.73984,353.881732 C135.168147,355.411876 134.739876,357.006758 134.715972,358.680109 C134.696052,360.1259 134.823538,361.591308 135.265753,363.048869 C136.112336,365.850211 137.747736,368.196433 139.849254,369.960023 C140.677909,370.691746 147.215523,375.682373 164.049579,367.594184 L163.983844,367.74916 C167.61718,365.977723 171.379993,364.386765 175.401761,363.20973 C195.695852,357.257859 216.551676,360.349536 233.574969,370.050263 C237.178425,372.104188 241.395405,372.853566 245.385301,371.682417 C254.520431,369.002702 258.082056,359.174464 254.705684,351.723835" id="Fill-13" fill="#25282C"></path>
                <path d="M535.380855,351.723835 L535.390815,351.723835 L535.372887,351.694409 C535.337032,351.61594 535.271297,351.54728 535.23345,351.466849 C535.105965,351.26283 534.904777,350.946992 534.582079,350.482063 C533.996443,349.489431 533.321168,348.549765 532.458649,347.696415 C526.150111,340.031959 509.0571,324.057638 476.016455,324.057638 C441.607333,324.057638 424.366917,342.717559 418.661942,350.501681 C417.863166,351.421729 417.15602,352.410438 416.638111,353.497234 C416.49469,353.738526 416.415011,353.881732 416.415011,353.881732 C415.84531,355.411876 415.415047,357.006758 415.391144,358.680109 C415.371224,360.1259 415.498709,361.591308 415.940925,363.048869 C416.787508,365.850211 418.422907,368.196433 420.524425,369.960023 C421.353081,370.691746 427.890694,375.682373 444.726743,367.594184 L444.659016,367.74916 C448.292352,365.977723 452.055164,364.386765 456.076932,363.20973 C476.371024,357.257859 497.226848,360.349536 514.25014,370.050263 C517.853597,372.104188 522.070576,372.853566 526.060473,371.682417 C535.197595,369.002702 538.757228,359.174464 535.380855,351.723835" id="Fill-14" fill="#25282C"></path>
                <path d="M185.538708,146.366225 C178.730438,173.642972 170.916011,226.698765 170.916011,226.698765 L506.41063,226.698757 C506.41063,226.698757 480.498958,50.3876014 417.92445,14.5616458 C386.39006,-3.49282597 253.457031,-6.16888689 179.022501,14.5616456 C108.176527,34.2927407 29.7888606,185.468166 29.7888606,185.468166 C29.7888606,185.468166 79.0702723,121.591114 118.397456,107.409147 C153.784882,94.6479156 222.919681,77.6148912 222.919681,77.6148912 C222.919681,77.6148912 191.190763,123.721755 185.538708,146.366225 Z" id="Path-16" fill="#C50000"></path>
                <g id="Path-14-Copy" transform="translate(342.455696, 238.732394) scale(1, -1) translate(-342.455696, -238.732394) ">
                    <use fill="black" fill-opacity="1" filter="url(#filter-4)" xlink:href="#path-3"></use>
                    <use fill="#FFFFFF" fill-rule="evenodd" xlink:href="#path-3"></use>
                </g>
                <path d="M12.063568,527.106954 C11.3441827,533.89415 10.987403,541.50565 10.3503957,549.525129 C9.16361419,564.465884 9.22862147,580.897812 10.3503957,595.508022 C10.9677511,603.548579 12.5226031,611.024161 12.9158337,617.426841 C13.8849523,633.206277 18.389569,657.965219 23.2701761,677.016066 C27.3454592,692.923431 32.0095065,704.779673 32.0095065,704.779673 C32.0095065,704.779673 188.922884,736.821789 187.720028,749.781529 C186.860651,759.040584 257.456704,763.564608 332.558669,765.817583 C407.660633,768.070558 602.912821,765.817583 602.912821,765.817583 C602.912821,765.817583 623.466667,748.365666 640.594872,710.656391 C657.723077,672.947117 659.703315,644.88011 662.167019,624.499862 C664.237833,607.369683 665.541084,583.913054 665.241972,562.425358 C664.821617,532.227829 660.544788,506.033183 660.544788,506.033183 C660.544788,506.033183 484.789259,596.83843 342.163202,599.891011 C199.537145,602.943591 15.7870427,499.546827 15.7870427,499.546827 C15.7870427,499.546827 13.7803464,510.909638 12.063568,527.106954 Z" id="Path-17" fill="#D91414"></path>
                <path d="M322.224314,598.424962 C322.224314,598.424962 331.617406,598.424962 336.008923,598.424962 C340.979424,598.424962 350.310369,598.424962 350.310369,598.424962 L352.011218,751.096691 C352.102822,759.319232 345.499185,765.984919 337.281275,765.984919 L337.200698,765.984919 L337.120121,765.984919 C328.893394,765.984919 322.224314,759.312969 322.224314,751.096691 L322.224314,598.424962 Z" id="Rectangle-5" fill="#FFFFFF"></path>
                <g id="Rectangle-1">
                    <use fill="black" fill-opacity="1" filter="url(#filter-6)" xlink:href="#path-5"></use>
                    <use fill="#FFFFFF" fill-rule="evenodd" xlink:href="#path-5"></use>
                </g>
                <path d="M165.999529,698.923606 C165.999529,698.923606 287.828875,677.276706 339.011628,677.276706 C390.875857,677.276706 508.763302,702.028714 508.763302,702.028714 L506.994872,714.084507 C506.994872,714.084507 389.409004,716.702578 339.011636,716.702578 C287.789022,716.702578 167.85641,714.084507 167.85641,714.084507 L165.999529,698.923606 Z" id="Rectangle-2" fill="#26292D"></path>
                <polyline id="Path-20" stroke="#F6C724" stroke-width="4.90427924" points="314.884362 674.264349 314.884362 714.942495 362.146271 714.942494 362.146271 695.465203 340.455245 695.465203 362.14627 695.465203 362.146271 676.748681 313.067902 676.748681"></polyline>
                <ellipse id="Oval-1" fill="#E2E8F0" cx="34.7536707" cy="162.631723" rx="34.7536707" ry="34.4976381"></ellipse>
                <path d="M500.14359,676.375233 C500.14359,676.375233 482.936554,782.646824 527.548718,789.503056 C543.805648,792.001507 561.805128,796.359288 592.635897,775.790593 C623.466667,755.221897 644.020513,703.800159 644.020513,703.800159 L500.14359,676.375233 Z" id="Path-25" fill="#F6C823"></path>
                <g id="Rectangle-3-Copy" transform="translate(570.555700, 697.909471) rotate(10.000000) translate(-570.555700, -697.909471) ">
                    <use fill="black" fill-opacity="1" filter="url(#filter-8)" xlink:href="#path-7"></use>
                    <use fill="#FFFFFF" fill-rule="evenodd" xlink:href="#path-7"></use>
                </g>
                <g id="Group-43" transform="translate(102.328690, 729.511028) scale(-1, 1) translate(-102.328690, -729.511028) translate(25.251767, 666.090885)">
                    <path d="M6.85128205,10.2843476 C6.85128205,10.2843476 -10.3557541,116.555939 34.2564103,123.412171 C50.5133405,125.910622 68.5128205,130.268403 99.3435897,109.699708 C130.174359,89.1310125 150.728205,37.7092745 150.728205,37.7092745 L6.85128205,10.2843476 Z" id="Path-25" fill="#F6C823"></path>
                    <g id="Rectangle-3-Copy" transform="translate(77.263392, 31.818586) rotate(10.000000) translate(-77.263392, -31.818586) ">
                        <use fill="black" fill-opacity="1" filter="url(#filter-10)" xlink:href="#path-9"></use>
                        <use fill="#FFFFFF" fill-rule="evenodd" xlink:href="#path-9"></use>
                    </g>
                </g>
            </g>
        </g>
    </g>
</svg>