<?xml version="1.0" encoding="UTF-8" standalone="no"?>
<svg width="1200px" height="1200px" viewBox="0 0 1200 1200" version="1.1" xmlns="http://www.w3.org/2000/svg" xmlns:xlink="http://www.w3.org/1999/xlink">
    <!-- Generator: Sketch 42 (36781) - http://www.bohemiancoding.com/sketch -->
    <title>20</title>
    <desc>Created with Sketch.</desc>
    <defs></defs>
    <g id="Page-1" stroke="none" stroke-width="1" fill="none" fill-rule="evenodd">
        <g id="20">
            <g id="Group" transform="translate(191.000000, 108.000000)">
                <g id="Mascot_EPS" transform="translate(14.977465, 312.112500)">
                    <g id="Group-3" fill="#F6C823">
                        <path d="M595.582728,174.815672 C590.432784,162.244687 584.958329,149.842828 578.827169,137.817656 C600.552174,124.93725 615.164803,101.305875 615.164803,74.2016719 C615.164803,33.3522187 582.079967,0.2383125 541.266376,0.2383125 L90.4830892,0.2383125 C49.6694977,0.2383125 16.5865822,33.3522187 16.5865822,74.2016719 C16.5865822,101.284734 31.1742488,124.900734 52.8723709,137.786906 C46.7412113,149.808234 41.2686761,162.20625 36.1187324,174.773391 C16.6633897,222.237937 4.3108216,273.346359 0.59141784,326.885953 C0.307230047,333.255047 0,339.620297 0,346.0605 C0,392.329641 7.5194554,436.815281 21.2084742,478.496906 C25.2907934,490.229953 113.865216,637.088109 140.415653,661.050047 C154.580878,668.84325 177.659615,674.601187 208.229005,658.714969 C261.529577,631.014984 314.83207,627.936141 314.83207,627.936141 C314.83207,627.936141 368.132643,631.014984 421.435136,658.714969 C457.250479,677.326406 482.785136,666.246797 495.725282,656.971828 C520.376653,634.070766 542.422329,608.415656 561.099995,580.267875 C559.901798,580.771406 558.855296,581.386406 557.626376,581.861109 C546.781155,585.995062 534.824146,589.071984 521.355948,588.977812 C508.561737,588.666469 494.315864,585.837469 482.921469,576.691266 C471.538596,567.696891 465.288385,554.387906 462.289052,541.768875 C456.449761,516.084937 459.337723,490.958344 462.922714,468.149531 C466.799573,445.296516 472.371958,424.519125 477.673596,406.922437 C488.397845,371.750203 498.033347,349.268109 498.033347,349.268109 C498.033347,349.268109 489.966638,372.392109 481.744394,408.006375 C477.694718,425.799094 631.684178,395.093297 631.684178,346.0605 C631.684178,339.622219 631.378869,333.258891 631.094681,326.891719 C627.375277,273.365578 615.03039,222.270609 595.582728,174.815672 Z" id="Fill-1"></path>
                    </g>
                    <path d="M249.578329,127.037859 C249.578329,164.312625 219.387216,194.532187 182.143254,194.532187 C144.901211,194.532187 114.708178,164.312625 114.708178,127.037859 C114.708178,89.7611719 144.901211,59.5416094 182.143254,59.5416094 C219.387216,59.5416094 249.578329,89.7611719 249.578329,127.037859" id="Fill-4" fill="#FFFFFF"></path>
                    <path d="M212.153869,127.037859 C212.153869,143.625562 198.718315,157.072922 182.143254,157.072922 C165.570113,157.072922 152.134559,143.625562 152.134559,127.037859 C152.134559,110.448234 165.570113,97.000875 182.143254,97.000875 C198.718315,97.000875 212.153869,110.448234 212.153869,127.037859" id="Fill-5" fill="#25282C"></path>
                    <path d="M90.4830892,37.0960313 C70.0081268,37.0960313 53.4100235,53.7087188 53.4100235,74.2016719 C53.4100235,87.4933594 60.4494319,99.0630469 70.9432582,105.616641 C83.7720329,84.5279063 98.0889531,64.4539219 113.836413,45.60225 C107.446028,40.3670625 99.3850798,37.0960313 90.4830892,37.0960313" id="Fill-6" fill="#25282C"></path>
                    <path d="M541.266376,37.0960313 C532.345183,37.0960313 524.272714,40.3785938 517.876568,45.633 C533.620188,64.48275 547.931347,84.5567344 560.758202,105.641625 C571.276991,99.0957188 578.339441,87.5125781 578.339441,74.2016719 C578.339441,53.7087188 561.741338,37.0960313 541.266376,37.0960313" id="Fill-7" fill="#25282C"></path>
                    <path d="M177.966845,105.280312 C177.966845,114.388078 170.591404,121.77 161.493554,121.77 C152.393784,121.77 145.018343,114.388078 145.018343,105.280312 C145.018343,96.1744687 152.393784,88.7925469 161.493554,88.7925469 C170.591404,88.7925469 177.966845,96.1744687 177.966845,105.280312" id="Fill-8" fill="#FFFFFF"></path>
                    <path d="M516.976,127.037859 C516.976,164.312625 486.784887,194.532187 449.540925,194.532187 C412.296962,194.532187 382.10585,164.312625 382.10585,127.037859 C382.10585,89.7611719 412.296962,59.5416094 449.540925,59.5416094 C486.784887,59.5416094 516.976,89.7611719 516.976,127.037859" id="Fill-9" fill="#FFFFFF"></path>
                    <path d="M479.54962,127.037859 C479.54962,143.625562 466.114066,157.072922 449.540925,157.072922 C432.965864,157.072922 419.53031,143.625562 419.53031,127.037859 C419.53031,110.448234 432.965864,97.000875 449.540925,97.000875 C466.114066,97.000875 479.54962,110.448234 479.54962,127.037859" id="Fill-10" fill="#25282C"></path>
                    <path d="M445.364516,105.280312 C445.364516,114.388078 437.987155,121.77 428.889305,121.77 C419.791455,121.77 412.416014,114.388078 412.416014,105.280312 C412.416014,96.1744687 419.791455,88.7925469 428.889305,88.7925469 C437.987155,88.7925469 445.364516,96.1744687 445.364516,105.280312" id="Fill-11" fill="#FFFFFF"></path>
                    <path d="M406.521038,257.365969 C406.521038,308.047734 365.471263,349.1355 314.83207,349.1355 C264.192878,349.1355 223.143103,308.047734 223.143103,257.365969 C223.143103,206.682281 264.192878,165.594516 314.83207,165.594516 C365.471263,165.594516 406.521038,206.682281 406.521038,257.365969" id="Fill-12" fill="#FFFFFF"></path>
                    <path d="M308.881408,348.833766 C310.857282,348.962531 312.819714,349.1355 314.82823,349.1355 C316.838667,349.1355 318.803019,348.962531 320.780812,348.833766 L320.780812,229.556437 L308.881408,229.556437 L308.881408,348.833766" id="Fill-13" fill="#25282C"></path>
                    <path d="M362.402803,207.256922 C362.402803,205.988484 362.162779,204.789234 361.820986,203.632266 C361.671211,203.065313 361.550239,202.730906 361.550239,202.730906 L361.540638,202.730906 C361.112437,201.598922 360.53062,200.557266 359.81823,199.605938 L359.82207,199.594406 C359.82207,199.594406 354.435944,188.480203 315.373563,188.3745 L315.373563,188.362969 C315.279474,188.362969 315.198826,188.368734 315.102817,188.368734 C315.008728,188.368734 314.92616,188.362969 314.83207,188.362969 L314.83207,188.3745 C292.104728,188.436 280.804423,192.212484 275.312685,195.373969 C271.996521,196.705828 269.390826,199.381078 268.123502,202.730906 L268.1043,202.730906 C268.1043,202.730906 267.962207,203.122969 267.79707,203.782172 C267.48216,204.894938 267.259418,206.044219 267.259418,207.256922 C267.259418,207.366469 267.288221,207.468328 267.292061,207.575953 C267.059718,213.341578 268.949183,223.494844 282.012221,233.911406 C294.864038,244.158844 304.735723,247.502906 310.162174,248.611828 C310.575014,248.706 310.997455,248.763656 311.417977,248.832844 C313.553225,249.178781 314.822469,249.176859 314.822469,249.176859 L314.83207,249.176859 C314.83207,249.176859 316.095554,249.176859 318.223122,248.834766 C318.655164,248.763656 319.089127,248.706 319.513488,248.607984 C324.943779,247.495219 334.807784,244.143469 347.642319,233.911406 C360.651592,223.537125 362.57754,213.424219 362.364399,207.647063 C362.368239,207.514453 362.402803,207.391453 362.402803,207.256922" id="Fill-14" fill="#25282C"></path>
                    <path d="M507.044789,396.978656 C507.044789,396.978656 506.908455,402.346453 506.075094,410.135812 C505.195648,417.917484 503.473239,428.089969 501.412878,438.162516 C499.268028,448.219687 496.821709,458.207672 494.615413,465.702984 C493.590033,469.458328 492.364953,472.558312 491.744732,474.768469 C491.018901,476.96325 490.479329,478.212469 490.479329,478.212469 C490.479329,478.212469 489.611404,472.910016 489.542277,464.982281 C489.515394,457.066078 490.552296,446.586094 492.681784,436.336734 C494.843915,426.091219 498.06023,416.101312 501.142131,408.834703 C504.268197,401.570016 507.044789,396.978656 507.044789,396.978656" id="Fill-17" fill="#FFFFFF"></path>
                    <path d="M89.3040939,9.21923438 C89.3040939,9.21923438 83.7873944,11.3352188 76.5924507,15.6575156 C72.9671362,17.7504375 68.9309014,20.38725 64.8927465,23.5026094 C60.8238685,26.5718438 56.8241174,30.2234063 53.1469577,34.1594063 C49.356507,38.0127656 46.1766761,42.3850313 43.1312582,46.5151406 C40.3949906,50.8432031 37.7374507,54.9022031 35.8038216,58.655625 C33.6282488,62.2918125 32.1113005,65.5320938 30.9956714,67.80375 C29.8473991,70.0657969 29.0620423,71.355375 29.0620423,71.355375 C29.0620423,71.355375 29.0754836,69.8928281 29.3212676,67.3367344 C29.7110657,64.8286875 29.693784,61.0176094 31.0340751,56.7817969 C31.9711268,52.4037656 33.9297183,47.5510313 36.3894789,42.4715156 C39.0566197,37.4919375 42.536,32.5046719 46.656723,28.0363125 C55.0325822,19.1822344 65.9526901,13.1321719 74.6357793,10.9431563 C83.3227089,8.56964063 89.3040939,9.21923438 89.3040939,9.21923438" id="Fill-18" fill="#FFFFFF"></path>
                </g>
                <path d="M805.826496,683.772058 C823.160595,646.434601 795.532932,563.456654 790.226608,544.704274 C779.758275,507.709517 754.296166,469.848382 739.780394,452.360663 C715.938181,423.637017 665.100158,428.231745 656.556418,429.880345 C634.899301,434.059302 623.945734,470.014564 624.731466,474.963094 C625.192938,477.907662 632.627685,502.744709 634.78145,507.65865 C637.075664,512.937149 643.183419,513.554619 647.564288,513.554619 C652.996787,513.554619 659.62759,512.473856 666.747539,511.30727 C673.889628,510.134607 681.284939,508.911818 687.313822,508.911818 C694.287097,508.911818 696.94177,510.535622 697.892388,511.800942 C702.18885,518.826283 705.129954,533.779246 708.583036,551.318293 C712.036118,568.857341 717.794483,595.243765 717.794483,595.243765 C717.794483,595.243765 699.579147,593.527299 686.829519,593.527299 C682.611929,593.527299 678.287102,594.101478 673.978878,595.24376 C645.943948,602.664798 633.909013,624.123606 629.618086,634.489211 C618.955112,625.098799 605.818041,620.147643 591.533171,620.147643 C564.071794,620.147643 537.471093,638.884416 532.240618,661.96171 C531.571588,665.387798 516.493845,746.194404 542.459417,781.371993 C550.388844,792.120385 561.321644,797.578125 574.937483,797.578125 C577.338935,797.578125 579.858696,797.417871 582.619916,797.022174 L583.457761,796.72597 C635.810249,767.635744 636.259959,754.072659 636.766402,739.706028 C636.946286,734.06297 637.12617,728.729028 641.462067,721.938372 C645.916273,722.530779 651.005609,722.839894 656.556415,722.839894 C674.726781,722.839894 695.141546,719.641655 708.711723,717.537091 C712.260282,716.975064 715.348061,716.493543 717.794484,716.160124 C724.705967,715.217482 787.866053,722.458653 805.826496,683.772058 Z" id="Shape" stroke-opacity="0.47081635" stroke="#DAA518" stroke-width="1.728" fill="#F6C724" transform="translate(669.377465, 613.078125) rotate(2.000000) translate(-669.377465, -613.078125) "></path>
                <path d="M203.576904,273.439072 C292.537246,223.892968 534.556123,286.356063 534.556123,384.587619 C495.840618,384.587623 406.87879,373.10685 325.653676,350.052864 C257.92754,330.830269 197.202673,328.355086 174.53732,296.637323" id="Fill-187" fill="#271C1C" transform="translate(354.546721, 320.327247) rotate(-5.000000) translate(-354.546721, -320.327247) "></path>
                <path d="M259.848493,281.916585 C207.792324,287.128634 67.9191087,293.293841 81.2221051,455.1 C93.3108476,425.828342 176.929557,276.749421 259.848493,281.916585 Z" id="Fill-189" fill="#382A2A"></path>
                <path d="M571.964072,281.988907 C559.90071,295.201152 381.041866,291.756341 394.344863,453.5625 C406.433605,424.290842 478.039132,304.653947 571.964072,281.988907 Z" id="Fill-189" fill="#382A2A" transform="translate(482.801285, 367.775703) scale(-1, 1) translate(-482.801285, -367.775703) "></path>
                <g transform="translate(327.670383, 328.521201) rotate(315.000000) translate(-327.670383, -328.521201) translate(99.168036, 95.013388)" fill="#EB2D1D">
                    <path d="M316.840044,323.8575 C305.912157,290.302828 293.383831,236.810749 264.964506,199.918391 C243.093884,171.527189 225.498289,161.021948 225.498289,161.021948 L248.77339,158.058129 C248.77339,158.058129 289.701059,193.525982 323.222197,245.53641 C343.546958,277.071723 360.089852,315.767975 366.172789,353.23199 C368.84438,369.687463 369.357125,387.275787 366.172789,409.685865 C363.744636,426.774235 363.246936,448.032179 335.856699,465.674196 C335.856699,465.674196 343.416228,405.461118 316.840044,323.8575 Z" id="Fill-456"></path>
                    <path d="M183.914965,105.891881 C160.213936,92.2961934 74.7073167,56.6762673 1.06323936,113.75644 C1.06323936,113.75644 154.045789,106.88717 230.827407,165.361516 L243.365469,155.705227" id="Fill-458"></path>
                    <path d="M231.9926,144.725902 C231.9926,144.725902 274.966944,95.4843483 396.215985,107.794737 L456.073107,103.178341 L402.355177,153.958694 C402.355177,153.958694 301.05851,164.730284 231.9926,144.725902" id="Fill-459"></path>
                    <path d="M210.870534,135.194441 C210.870534,135.194441 212.405332,64.4097073 246.170888,50.5605202 C279.936444,36.7113331 299.888818,1.31896615 299.888818,1.31896615 L275.33205,81.3364915 C275.33205,81.3364915 244.63609,127.500448 210.870534,135.194441" id="Fill-460"></path>
                    <path d="M231.611253,160.363401 L211.947421,149.216344 C204.517464,145.003114 202.890578,133.791428 208.31302,124.173937 C213.736996,114.557984 224.158274,110.177025 231.589766,114.390255 L251.255132,125.538851 C258.683555,129.752081 260.311975,140.962229 254.887999,150.57972 C249.462488,160.197211 239.04121,164.57817 231.611253,160.363401 Z" id="Fill-457"></path>
                </g>
                <g transform="translate(97.929577, 113.390625)" id="Oval-45" fill="#FFFFFF">
                    <ellipse cx="409.960094" cy="218.132812" rx="4.80046948" ry="4.8046875"></ellipse>
                    <ellipse cx="423.401408" cy="241.195312" rx="4.80046948" ry="4.8046875"></ellipse>
                    <ellipse cx="452.204225" cy="256.570312" rx="4.80046948" ry="4.8046875"></ellipse>
                    <ellipse cx="369.63615" cy="195.070312" rx="4.80046948" ry="4.8046875"></ellipse>
                    <ellipse cx="235.223005" cy="156.248437" rx="4.80046948" ry="4.8046875"></ellipse>
                    <ellipse cx="388.838028" cy="221.976562" rx="4.80046948" ry="4.8046875"></ellipse>
                    <ellipse cx="322.39953" cy="172.776563" rx="4.80046948" ry="4.8046875"></ellipse>
                    <ellipse cx="290.908451" cy="166.626562" rx="4.80046948" ry="4.8046875"></ellipse>
                    <ellipse cx="333.152582" cy="193.148438" rx="4.80046948" ry="4.8046875"></ellipse>
                    <ellipse transform="translate(54.725352, 210.445312) scale(-1, 1) translate(-54.725352, -210.445312) " cx="54.7253521" cy="210.445312" rx="4.80046948" ry="4.8046875"></ellipse>
                    <ellipse transform="translate(262.105634, 47.085938) scale(-1, 1) translate(-262.105634, -47.085938) " cx="262.105634" cy="47.0859375" rx="4.80046948" ry="4.8046875"></ellipse>
                    <ellipse transform="translate(225.622066, 66.304688) scale(-1, 1) translate(-225.622066, -66.304688) " cx="225.622066" cy="66.3046875" rx="4.80046948" ry="4.8046875"></ellipse>
                    <ellipse transform="translate(4.800469, 256.570312) scale(-1, 1) translate(-4.800469, -256.570312) " cx="4.80046948" cy="256.570312" rx="4.80046948" ry="4.8046875"></ellipse>
                    <ellipse transform="translate(131.532864, 110.507812) scale(-1, 1) translate(-131.532864, -110.507812) " cx="131.532864" cy="110.507812" rx="4.80046948" ry="4.8046875"></ellipse>
                    <ellipse transform="translate(75.847418, 193.148438) scale(-1, 1) translate(-75.847418, -193.148438) " cx="75.8474178" cy="193.148438" rx="4.80046948" ry="4.8046875"></ellipse>
                    <ellipse transform="translate(141.133803, 164.320312) scale(-1, 1) translate(-141.133803, -164.320312) " cx="141.133803" cy="164.320312" rx="4.80046948" ry="4.8046875"></ellipse>
                    <ellipse transform="translate(27.842723, 212.367188) scale(-1, 1) translate(-27.842723, -212.367188) " cx="27.842723" cy="212.367188" rx="4.80046948" ry="4.8046875"></ellipse>
                    <ellipse transform="translate(100.809859, 175.851562) scale(-1, 1) translate(-100.809859, -175.851562) " cx="100.809859" cy="175.851562" rx="4.80046948" ry="4.8046875"></ellipse>
                    <ellipse transform="translate(131.532864, 56.695312) scale(-1, 1) translate(-131.532864, -56.695312) " cx="131.532864" cy="56.6953125" rx="4.80046948" ry="4.8046875"></ellipse>
                    <ellipse transform="translate(281.307512, 4.804687) scale(-1, 1) translate(-281.307512, -4.804687) " cx="281.307512" cy="4.8046875" rx="4.80046948" ry="4.8046875"></ellipse>
                    <ellipse transform="translate(141.133803, 87.445312) scale(-1, 1) translate(-141.133803, -87.445312) " cx="141.133803" cy="87.4453125" rx="4.80046948" ry="4.8046875"></ellipse>
                    <ellipse cx="209.492488" cy="103.589062" rx="4.80046948" ry="4.8046875"></ellipse>
                </g>
                <path d="M76.4567302,861.431716 C63.5086684,840.518646 38.9321936,797.877788 38.9321936,797.877788 C38.9321936,797.877788 34.2114929,785.031575 29.4380723,768.23223 C22.8381319,745.004721 17.0104363,714.084743 16.1498366,709.818514 C14.2056374,700.170505 12.6327993,658.661515 16.1498366,623.054169 C19.0749216,593.439893 27.0635184,567.941231 27.0635184,567.941231 C57.3475155,558.837517 199.048178,648.188363 199.048178,648.188363 C203.028427,645.674761 264.305442,697.550851 325.943854,697.094989 C382.488652,696.676798 631.612534,583.052173 631.612534,583.052173 C639.325632,581.811517 643.969171,584.50363 656.087131,585.210937 C676.827906,586.421545 678.083798,591.281857 678.083798,591.281857 L705.767712,725.24816 L693.902548,735.894515 L634.566589,743.348952 C634.566589,743.348952 610.169399,816.737881 595.644989,853.020474 C588.926658,869.803152 577.556696,885.762088 570.838364,902.544767 C570.838364,902.544767 489.092287,911.468401 396.000011,912.496693 C288.297189,913.686373 126.029883,906.757341 103.735419,902.544756 C95.0824053,888.568836 85.1097434,875.407636 76.4567302,861.431716 Z" id="Fill-79" fill="#367EBB"></path>
                <path d="M50.5939413,883.66831 C50.5939413,883.66831 24.2036551,788.037725 90.8394288,784.022469 C157.475202,780.007213 186.358418,880.617184 186.358418,880.617184 L50.5939413,883.66831 Z" id="Path-1628" stroke="#DAA517" stroke-width="1.92" fill="#F6C724" transform="translate(115.898465, 833.786857) rotate(172.000000) translate(-115.898465, -833.786857) "></path>
                <path d="M321.636831,701.1 C321.636831,701.1 321.540069,714.080174 321.397614,733.544037 C321.343857,738.410216 321.284725,743.682479 321.222905,749.258451 C321.163772,754.834424 321.099264,760.714106 321.032069,766.79683 C320.972936,772.879553 320.916492,779.165319 320.854672,785.551753 C320.814354,791.938186 320.771349,798.42614 320.728344,804.914095 C320.72028,811.402049 320.712217,817.88915 320.704153,824.275584 C320.752534,830.662017 320.798227,836.94693 320.84392,843.028801 C320.967561,849.110671 321.088513,854.9895 321.201402,860.564619 C321.30354,866.139739 321.685212,871.407736 321.838419,876.273062 C322.058821,881.138388 322.566821,885.594218 322.824853,889.546708 C323.155457,893.498346 323.835478,896.936407 324.179521,899.773021 C324.303161,901.192608 324.655267,902.453515 324.991246,903.550623 C325.300347,904.647731 325.563755,905.581894 325.778781,906.338609 C326.206147,907.854598 326.431925,908.6625 326.431925,908.6625 C326.431925,908.6625 326.133575,907.857157 325.569131,906.34714 C325.289596,905.592132 324.940178,904.659675 324.531627,903.564273 C324.098886,902.468871 323.631203,901.208817 323.381235,899.790937 C322.811414,896.957735 321.867985,893.518821 321.279349,889.567183 C320.75791,885.616399 319.986502,881.158009 319.537634,876.292683 C319.112956,871.427358 318.502818,866.155095 318.220596,860.579122 C317.922246,855.002297 317.465314,849.121762 317.34705,843.037332 C317.172341,836.953755 316.895494,830.667136 316.90087,824.278996 C316.876679,817.890857 316.855176,811.401196 316.830986,804.912389 C316.919684,798.422728 317.005695,791.93392 317.091706,785.545781 C317.274478,779.158494 317.457251,772.871875 317.629272,766.789152 C317.881929,760.706428 318.126521,754.825893 318.360363,749.24992 C318.658712,743.674801 318.940935,738.402538 319.201654,733.536359 C320.346671,714.072496 321.636831,701.1 321.636831,701.1" id="Fill-84" fill="#1F5F95"></path>
                <path d="M336.788464,763.903189 C340.759412,769.12108 334.866356,775.019314 329.654966,771.044877 C325.684018,765.826986 331.577074,759.930674 336.788464,763.903189" id="Fill-97" fill-opacity="0.564821105" fill="#1F2228"></path>
                <path d="M334.869388,706.247725 C338.838416,711.465615 332.94728,717.361928 327.73397,713.389412 C323.764942,708.171522 329.656078,702.273287 334.869388,706.247725" id="Fill-98" fill-opacity="0.564821105" fill="#1F2228"></path>
                <path d="M338.091305,828.975797 C338.091305,831.666422 335.911892,833.849672 333.221709,833.849672 C330.533446,833.849672 328.352113,831.666422 328.352113,828.975797 C328.352113,826.28325 330.533446,824.1 333.221709,824.1 C335.911892,824.1 338.091305,826.28325 338.091305,828.975797" id="Fill-99" fill-opacity="0.564821105" fill="#1F2228"></path>
                <path d="M338.091305,885.861375 C338.091305,888.553921 335.911892,890.73525 333.221709,890.73525 C330.533446,890.73525 328.352113,888.553921 328.352113,885.861375 C328.352113,883.168828 330.533446,880.9875 333.221709,880.9875 C335.911892,880.9875 338.091305,883.168828 338.091305,885.861375" id="Fill-100" fill-opacity="0.564821105" fill="#1F2228"></path>
                <path d="M636.394988,581.244666 C636.394988,581.244666 434.307893,661.229093 403.629052,682.18714 C403.629052,682.18714 430.255651,730.791308 436.586511,739.564667 L505.121,672.090787" id="Fill-106" fill="#296CA5"></path>
                <path d="M263.585939,566.131772 C263.585939,566.131772 236.571063,568.980283 199.371529,586.748437 C136.123108,616.9587 45.8659553,670.605322 26.5486062,683.801842 C26.5486062,683.801842 80.1803574,729.967004 86.5112165,738.740363 L140.254153,662.346752" id="Fill-106" fill="#296CA5" transform="translate(145.067272, 652.436068) scale(-1, 1) translate(-145.067272, -652.436068) "></path>
                <polygon id="Path-1630" fill="#2A6EA8" points="662.111492 585.210938 694.278035 587.579979 716.215137 738.740363 684.774037 736.996511"></polygon>
                <polygon id="Path-1630" fill="#2A6EA8" transform="translate(103.929146, 779.985504) rotate(85.000000) translate(-103.929146, -779.985504) " points="79.099599 710.899758 109.378504 707.623829 128.758693 845.578052 90.6320644 852.347179"></polygon>
                <path d="M158.412577,684.871939 C158.412577,684.871939 158.315815,690.640906 158.17336,699.291511 C158.119604,701.454258 158.060471,703.797486 157.998651,706.275696 C157.939519,708.753906 157.875011,711.367098 157.807815,714.07053 C157.748683,716.773963 157.692238,719.567637 157.630418,722.406052 C157.590101,725.244467 157.547095,728.128002 157.50409,731.011537 C157.496026,733.895072 157.487963,736.778228 157.479899,739.616643 C157.52828,742.455058 157.573974,745.248353 157.619667,747.951406 C157.743307,750.65446 157.86426,753.267273 157.977148,755.745104 C158.079286,758.222934 158.460958,760.564266 158.614165,762.726634 C158.834567,764.889001 159.342568,766.869369 159.6006,768.626032 C159.931203,770.382315 160.611225,771.910343 160.955267,773.17106 C161.078908,773.801987 161.431014,774.36239 161.766993,774.849994 C162.076094,775.337598 162.339501,775.752781 162.554528,776.089099 C162.981893,776.762872 163.207671,777.121939 163.207671,777.121939 C163.207671,777.121939 162.909322,776.764009 162.344877,776.092891 C162.065342,775.757331 161.715924,775.342906 161.307373,774.856061 C160.874632,774.369215 160.406949,773.809191 160.156981,773.179022 C159.58716,771.919822 158.643731,770.391415 158.055096,768.635132 C157.533656,766.879228 156.762248,764.897721 156.31338,762.735354 C155.888702,760.572987 155.278564,758.229759 154.996342,755.751549 C154.697992,753.27296 154.241061,750.659389 154.122796,747.955198 C153.948087,745.251386 153.67124,742.457333 153.676616,739.61816 C153.652425,736.778987 153.630923,733.894693 153.606732,731.010779 C153.695431,728.126485 153.781441,725.242571 153.867452,722.403397 C154.050225,719.564603 154.232997,716.770551 154.405019,714.067118 C154.657675,711.363685 154.902268,708.750114 155.136109,706.271904 C155.434459,703.794073 155.716681,701.450845 155.977401,699.288099 C157.122418,690.637493 158.412577,684.871939 158.412577,684.871939" id="Fill-84" fill="#1F5F95" transform="translate(158.407202, 730.996939) scale(-1, 1) rotate(25.000000) translate(-158.407202, -730.996939) "></path>
            </g>
        </g>
    </g>
</svg>