<?xml version="1.0" encoding="UTF-8" standalone="no"?>
<svg width="1200px" height="1200px" viewBox="0 0 1200 1200" version="1.1" xmlns="http://www.w3.org/2000/svg" xmlns:xlink="http://www.w3.org/1999/xlink">
    <!-- Generator: Sketch 42 (36781) - http://www.bohemiancoding.com/sketch -->
    <title>21</title>
    <desc>Created with Sketch.</desc>
    <defs>
        <polyline id="path-1" points="0 836.735941 696.758166 836.735941 696.758166 1.45413333 0 1.45413333"></polyline>
        <path d="M87.0192559,29.5640188 C87.0192559,29.5640188 87.8136712,38.176507 94.4078947,41.5981798 C101.002118,45.0198526 172.885319,74.1190102 172.885319,74.1190102 L172.885319,1.12859834 L87.0192559,29.5640188 Z" id="path-3"></path>
        <filter x="-50%" y="-50%" width="200%" height="200%" filterUnits="objectBoundingBox" id="filter-4">
            <feOffset dx="0" dy="8" in="SourceAlpha" result="shadowOffsetOuter1"></feOffset>
            <feGaussianBlur stdDeviation="4" in="shadowOffsetOuter1" result="shadowBlurOuter1"></feGaussianBlur>
            <feColorMatrix values="0 0 0 0 0   0 0 0 0 0   0 0 0 0 0  0 0 0 0.203294837 0" type="matrix" in="shadowBlurOuter1"></feColorMatrix>
        </filter>
        <path d="M1.59180165,29.6606293 C1.59180165,29.6606293 5.88800278,39.0700519 10.760193,41.5981798 C15.6323831,44.1263077 87.457865,74.2156206 87.457865,74.2156206 L87.457865,1.12859834 L1.59180165,29.6606293 Z" id="path-5"></path>
        <filter x="-50%" y="-50%" width="200%" height="200%" filterUnits="objectBoundingBox" id="filter-6">
            <feOffset dx="0" dy="8" in="SourceAlpha" result="shadowOffsetOuter1"></feOffset>
            <feGaussianBlur stdDeviation="4" in="shadowOffsetOuter1" result="shadowBlurOuter1"></feGaussianBlur>
            <feColorMatrix values="0 0 0 0 0   0 0 0 0 0   0 0 0 0 0  0 0 0 0.203294837 0" type="matrix" in="shadowBlurOuter1"></feColorMatrix>
        </filter>
    </defs>
    <g id="Page-1" stroke="none" stroke-width="1" fill="none" fill-rule="evenodd">
        <g id="21">
            <g id="Group-9" transform="translate(250.000000, 178.000000)">
                <g id="Group-14" transform="translate(0.000000, 8.264059)">
                    <g id="Group-5" transform="translate(1.251979, 0.000000)">
                        <g id="Group-3" transform="translate(0.848771, 0.000000)">
                            <mask id="mask-2" fill="white">
                                <use xlink:href="#path-1"></use>
                            </mask>
                            <g id="Clip-2"></g>
                            <path d="M670.486927,476.139307 C666.535611,419.690095 653.418389,365.803894 632.758303,315.756118 C627.28615,302.500352 621.470582,289.419245 614.957964,276.738227 C638.038307,263.153454 653.561478,238.232127 653.561478,209.647033 C653.561478,166.567318 618.412554,131.645778 575.050291,131.645778 L96.1316419,131.645778 C52.7714227,131.645778 17.6204549,166.567318 17.6204549,209.647033 C17.6204549,238.209786 33.1211404,263.114866 56.1728655,276.705733 C49.6602472,289.384719 43.8446795,302.459734 38.3745707,315.711438 C17.7022203,365.769368 4.58090945,419.669786 0.627549844,476.133214 C0.327061808,482.851473 0,489.563639 0,496.35501 C0,545.151744 7.98848466,592.067853 22.5325144,636.024923 C26.8681275,648.399273 35.2082036,669.707606 45.426841,683.936179 C46.5429394,685.396405 47.5956696,686.822106 48.8671224,688.357476 L49.3188765,688.907853 C53.8507267,694.322266 59.345365,700.116459 65.9561018,705.865972 C72.6281627,711.617516 80.357042,717.36906 89.1529605,722.178261 C97.8466722,726.96106 107.991721,730.823856 118.001856,732.105361 C128.476011,733.598082 139.528655,731.81291 147.96685,725.929356 C156.566532,720.192029 162.717338,710.149167 166.276179,698.794335 C173.375464,675.79222 172.588472,649.72952 170.415555,626.15875 C168.038224,602.395043 163.702611,580.30887 159.399704,561.543239 C150.66511,523.985574 142.094047,499.598377 142.094047,499.598377 C142.094047,499.598377 152.331081,523.307249 163.723053,560.401866 C169.356692,578.958313 175.276511,600.869828 179.39749,624.972697 C183.203672,649.026825 186.273964,675.526171 180.070011,702.61245 C176.885246,715.92102 170.241803,729.956656 158.148693,739.443048 C146.043318,749.089882 130.908533,752.073293 117.315026,752.40027 C103.006072,752.497754 90.3017651,749.254386 78.781013,744.896048 C77.3766913,744.357856 76.1808716,743.663284 74.8174327,743.090567 C95.8843014,774.65704 120.971986,803.278689 149.181067,828.549333 C164.227954,836.768436 188.747369,842.840864 221.226651,826.085836 C277.853315,796.873191 334.484067,793.627793 334.484067,793.627793 C334.484067,793.627793 391.112775,796.873191 447.739438,826.085836 C485.791036,845.714605 512.920813,834.030766 526.667629,824.24786 C552.857103,800.096249 576.278817,773.040433 596.123292,743.356616 C594.85184,743.886685 593.739829,744.534546 592.433626,745.036181 C580.91083,749.394519 568.208567,752.639917 553.897569,752.542434 C540.306107,752.213426 525.171321,749.230015 513.065946,739.583181 C500.972836,730.096789 494.329393,716.061153 491.144629,702.752583 C484.940675,675.666304 488.008923,649.166958 491.817149,625.11283 C495.936084,601.011992 501.857947,579.098446 507.489542,560.541999 C518.883558,523.447382 529.120593,499.73851 529.120593,499.73851 C529.120593,499.73851 520.549529,524.125707 511.814935,561.683372 C507.512028,580.451034 503.176415,602.535176 500.799084,626.298883 C498.626167,649.871684 497.837131,675.932353 504.93846,698.934468 C508.497302,710.289299 514.646064,720.332162 523.247789,726.069489 C531.685984,731.953043 542.738629,733.738215 553.212783,732.247525 C563.220874,730.963989 573.365923,727.101193 582.061679,722.318394 C590.857597,717.509193 598.584432,711.75968 605.256493,706.006105 C614.240472,698.195216 621.037225,690.376203 626.25795,683.4711 C634.403833,671.959888 641.327322,656.055813 645.951159,643.884554 C662.206131,597.689419 671.114477,548.066103 671.114477,496.35501 C671.114477,489.565669 670.787415,482.855535 670.486927,476.139307" id="Fill-1" fill="#F6C823" mask="url(#mask-2)"></path>
                        </g>
                        <path d="M266.005955,265.369179 C266.005955,304.681552 233.929369,336.550631 194.361022,336.550631 C154.792676,336.550631 122.718133,304.681552 122.718133,265.369179 C122.718133,226.056806 154.792676,194.187728 194.361022,194.187728 C233.929369,194.187728 266.005955,226.056806 266.005955,265.369179" id="Fill-4" fill="#FFFFFF"></path>
                        <path d="M226.24546,265.369179 C226.24546,282.863459 211.969212,297.045321 194.361022,297.045321 C176.752832,297.045321 162.478628,282.863459 162.478628,265.369179 C162.478628,247.874899 176.752832,233.693037 194.361022,233.693037 C211.969212,233.693037 226.24546,247.874899 226.24546,265.369179" id="Fill-5" fill="#25282C"></path>
                        <path d="M96.9804132,170.515412 C75.2267147,170.515412 57.5919509,188.036094 57.5919509,209.647033 C57.5919509,223.664391 65.0714456,235.866113 76.220165,242.777309 C89.8504658,220.536786 105.05884,199.366554 121.790095,179.485952 C115.001519,173.963901 106.438632,170.515412 96.9804132,170.515412" id="Fill-6" fill="#25282C"></path>
                        <path d="M575.899063,170.515412 C566.422447,170.515412 557.845251,173.978118 551.050542,179.518447 C567.775665,199.399049 582.979951,220.56725 596.608207,242.805741 C607.783501,235.900639 615.287525,223.686731 615.287525,209.647033 C615.287525,188.036094 597.652761,170.515412 575.899063,170.515412" id="Fill-7" fill="#25282C"></path>
                        <path d="M189.923202,242.42393 C189.923202,252.028115 182.088028,259.814633 172.421307,259.814633 C162.754587,259.814633 154.919412,252.028115 154.919412,242.42393 C154.919412,232.819745 162.754587,225.035257 172.421307,225.035257 C182.088028,225.035257 189.923202,232.819745 189.923202,242.42393" id="Fill-8" fill="#FFFFFF"></path>
                        <path d="M550.093886,265.369179 C550.093886,304.681552 518.017299,336.550631 478.448953,336.550631 C438.880606,336.550631 406.80402,304.681552 406.80402,265.369179 C406.80402,226.056806 438.880606,194.187728 478.448953,194.187728 C518.017299,194.187728 550.093886,226.056806 550.093886,265.369179" id="Fill-9" fill="#FFFFFF"></path>
                        <path d="M510.331347,265.369179 C510.331347,282.863459 496.057143,297.045321 478.448953,297.045321 C460.840763,297.045321 446.566559,282.863459 446.566559,265.369179 C446.566559,247.874899 460.840763,233.693037 478.448953,233.693037 C496.057143,233.693037 510.331347,247.874899 510.331347,265.369179" id="Fill-10" fill="#25282C"></path>
                        <path d="M474.011133,242.42393 C474.011133,252.028115 466.175958,259.814633 456.509238,259.814633 C446.842517,259.814633 439.007343,252.028115 439.007343,242.42393 C439.007343,232.819745 446.842517,225.035257 456.509238,225.035257 C466.175958,225.035257 474.011133,232.819745 474.011133,242.42393" id="Fill-11" fill="#FFFFFF"></path>
                        <path d="M432.744109,402.815243 C432.744109,456.266828 389.132461,499.598377 335.332838,499.598377 C281.533215,499.598377 237.919523,456.266828 237.919523,402.815243 C237.919523,349.363657 281.533215,306.032109 335.332838,306.032109 C389.132461,306.032109 432.744109,349.363657 432.744109,402.815243" id="Fill-12" fill="#FFFFFF"></path>
                        <path d="M329.010324,499.281555 C331.109652,499.415595 333.194671,499.598377 335.32875,499.598377 C337.462828,499.598377 339.551935,499.415595 341.653307,499.281555 L341.653307,373.488867 L329.010324,373.488867 L329.010324,499.281555" id="Fill-13" fill="#25282C"></path>
                        <path d="M385.874108,349.9709 C385.874108,348.63456 385.618591,347.36727 385.252691,346.148723 C385.095292,345.549604 384.966512,345.196225 384.966512,345.196225 L384.956291,345.196225 C384.500448,344.004079 383.883119,342.905356 383.126789,341.902085 L383.130877,341.889899 C383.130877,341.889899 377.407295,330.169504 335.909284,330.055772 L335.909284,330.045618 L335.621061,330.04968 L335.330794,330.045618 L335.330794,330.055772 C311.1875,330.120762 299.182288,334.105412 293.346278,337.438139 C289.822187,338.8415 287.056471,341.664468 285.707341,345.196225 L285.6869,345.196225 C285.6869,345.196225 285.535634,345.610531 285.361882,346.305103 C285.026644,347.478971 284.791568,348.691425 284.791568,349.9709 L284.824274,350.308032 C284.576934,356.386553 286.584276,367.095554 300.461917,378.08076 C314.118792,388.887245 324.605211,392.41494 330.371719,393.584746 C330.811209,393.68426 331.25683,393.743157 331.70654,393.81627 C333.973487,394.181834 335.322617,394.179803 335.322617,394.179803 L335.330794,394.179803 C335.330794,394.179803 336.673791,394.179803 338.934606,393.818301 C339.394537,393.743157 339.854468,393.682229 340.304178,393.580684 C346.076818,392.406816 356.555061,388.870998 370.191494,378.08076 C384.0119,367.140234 386.05808,356.473882 385.831181,350.383175 L385.874108,349.9709" id="Fill-14" fill="#25282C"></path>
                        <path d="M53.724445,651.691382 C53.724445,651.691382 48.5180298,644.96703 42.7842275,633.593921 C37.0197632,622.273614 31.1674009,606.276117 27.4327639,589.821664 C23.6347587,573.369242 21.825698,556.581719 21.4597976,543.977877 C21.1327358,531.357786 21.9258607,522.931531 21.9258607,522.931531 C21.9258607,522.931531 22.5493223,524.968536 23.4078595,528.542942 C24.2418671,532.107193 25.4335986,537.19666 26.8624499,543.305645 C29.6077249,555.499243 32.9110492,571.69577 36.6702158,587.723731 C40.2515426,603.798404 44.4072717,619.702479 47.8373324,631.646276 C49.5830248,637.641529 51.0364058,642.635543 52.0543856,646.132774 C53.1888813,649.636098 53.724445,651.691382 53.724445,651.691382" id="Fill-16" fill="#FFFFFF"></path>
                        <path d="M95.7273577,141.117954 C95.7273577,141.117954 89.8647747,143.347896 82.2217491,147.907294 C78.3705963,150.112865 74.0819984,152.893184 69.7913563,156.179201 C65.468008,159.418506 61.2202928,163.267085 57.3139483,167.41827 C53.2869998,171.482126 49.9080425,176.092297 46.6721748,180.450636 C43.7654129,185.014096 40.9404166,189.293229 38.8881037,193.253508 C36.5741414,197.08584 34.9654062,200.505896 33.777763,202.900342 C32.5594577,205.286664 31.7254501,206.647376 31.7254501,206.647376 C31.7254501,206.647376 31.737715,205.103882 32.0014085,202.408861 C32.4143241,199.762582 32.3959268,195.743407 33.8206898,191.275399 C34.8141401,186.661166 36.897115,181.541236 39.5095212,176.183688 C42.3426941,170.93378 46.0405366,165.673716 50.4170325,160.959969 C59.3172019,151.623864 70.9197195,145.242737 80.1428625,142.933589 C89.3721379,140.431505 95.7273577,141.117954 95.7273577,141.117954" id="Fill-17" fill="#FFFFFF"></path>
                        <path d="M649.692383,742.493479 C648.797051,742.493479 647.889455,742.400057 646.979814,742.20712 L574.008236,726.642207 L646.979814,742.20712 C647.889455,742.400057 648.797051,742.493479 649.692383,742.493479 C650.086901,742.493479 650.479375,742.4752 650.867761,742.440675 C656.376709,741.937009 661.188605,737.936111 662.406911,732.296267 L689.51829,606.832587 L662.406911,732.296267 C661.188605,737.936111 656.376709,741.937009 650.867761,742.440675 C650.479375,742.4752 650.086901,742.493479 649.692383,742.493479 M512.332556,713.485956 L493.92102,709.558171 L512.332556,713.485956" id="Fill-26" fill="#CECFCA"></path>
                        <path d="M574.008236,726.642207 L512.332556,713.485956 L574.008236,726.642207 M493.92102,709.558171 L459.555001,702.228608 L493.92102,709.558171" id="Fill-27" fill="#C5A433"></path>
                    </g>
                    <g id="Group-16" transform="translate(0.000000, 410.099829)">
                        <path d="M23.5456865,224.178827 C16.373231,202.95675 10.6904096,172.731861 6.20006391,142.646664 C-3.35152945,78.6512426 16.3072148,2.20885497 16.3072148,2.20885497 C16.3072148,2.20885497 229.416916,120.961327 336.460101,120.745953 C443.952073,120.529677 662.280098,2.20885497 662.280098,2.20885497 C662.280098,2.20885497 683.624462,90.1976774 669.03758,150.006145 C663.986699,170.715534 662.048173,192.431844 656.652574,210.199388 C646.465748,243.7443 633.801758,266.696075 633.801758,266.696075 L500.132353,252.344443 C500.132353,252.344443 501.162559,205.767256 505.268619,181.748624 C510.29125,152.368459 522.415763,117.939026 522.415763,117.939026 C522.415763,117.939026 506.536672,163.846766 498.324804,199.950274 C493.462598,221.326985 490.187042,266.045632 490.187042,266.045632 C490.187042,266.045632 389.414616,325.735587 338.859576,325.636112 C288.304537,325.536638 186.983319,265.449033 186.983319,265.449033 C186.983319,265.449033 183.222575,217.587309 177.609822,193.794753 C169.974064,161.426642 150.254541,106.194527 150.254541,106.194527 C150.254541,106.194527 167.612874,166.070214 172.990147,199.950274 C176.196995,220.15535 175.761587,259.934123 175.761587,259.934123 L40.991699,261.184539 C40.991699,261.184539 31.630047,248.099076 23.5456865,224.178827 Z" id="Path-164" fill="#FFFFFF"></path>
                        <path d="M418.801947,103.681407 C418.801947,103.681407 489.499246,80.9788061 522.225289,67.3112589 C570.775536,47.0349672 662.630819,1.84989037 662.630819,1.84989037 C662.630819,1.84989037 673.152657,30.8079292 676.49091,65.2586181 C678.695211,88.0069489 678.659062,113.4551 676.49091,134.367386 C671.039251,186.949803 668.285327,183.900187 652.360145,228.801834 C644.391058,251.270973 627.599092,287.201754 610.726833,315.231176 C593.882081,343.214901 576.950505,363.315628 576.950505,363.315628 L336.478932,361.097387 L336.478932,302.000453 L418.801947,103.681407 Z" id="Path-165" fill="#4A4946"></path>
                        <path d="M82.6144759,103.947272 C82.6144759,103.947272 153.311775,81.2446708 186.037818,67.5771235 C234.588065,47.3008319 328.464702,0.294054548 328.464702,0.294054548 C328.464702,0.294054548 334.703246,31.3930563 338.041499,65.8437453 C340.2458,88.592076 340.209651,113.392213 338.041499,134.304499 C332.58984,186.886917 332.097856,184.166052 316.172674,229.067699 C308.203587,251.536838 291.411621,287.467619 274.539361,315.497041 C257.694609,343.480766 240.763034,363.581492 240.763034,363.581492 L0.291460821,361.363251 L2.98019034,301.623723 L82.6144759,103.947272 Z" id="Path-165" fill="#4A4946" transform="translate(169.986329, 181.937773) scale(-1, 1) translate(-169.986329, -181.937773) "></path>
                        <g id="Group" transform="translate(252.083333, 95.036675)">
                            <g id="Path-166">
                                <use fill="black" fill-opacity="1" filter="url(#filter-4)" xlink:href="#path-3"></use>
                                <use fill="#1F2228" fill-rule="evenodd" xlink:href="#path-3"></use>
                            </g>
                            <g id="Path-166" transform="translate(44.524833, 37.672109) scale(-1, 1) translate(-44.524833, -37.672109) ">
                                <use fill="black" fill-opacity="1" filter="url(#filter-6)" xlink:href="#path-5"></use>
                                <use fill="#1F2228" fill-rule="evenodd" xlink:href="#path-5"></use>
                            </g>
                            <ellipse id="Oval" fill="#1F2228" cx="86.3486842" cy="32.6004962" rx="17.2697368" ry="16.8623256"></ellipse>
                        </g>
                        <ellipse id="Oval-2" fill="#D8D8D8" cx="338.541667" cy="158.050122" rx="3.125" ry="3.099022"></ellipse>
                        <ellipse id="Oval-2" fill="#D8D8D8" cx="338.541667" cy="178.710269" rx="3.125" ry="3.099022"></ellipse>
                        <ellipse id="Oval-2" fill="#D8D8D8" cx="338.541667" cy="203.502445" rx="3.125" ry="3.099022"></ellipse>
                        <g id="Group-5" transform="translate(459.928497, 128.128874)">
                            <path d="M37.5751121,205.020575 C37.5751121,205.020575 9.54477396,103.155604 80.3216974,98.8785834 C121.140899,96.411896 148.250601,125.726301 163.04684,155.077819 C173.905984,176.619265 177.674875,200.411862 177.674875,200.411862 L37.5751121,205.020575 Z" id="Path-1628" fill="#F6C724" transform="translate(104.887085, 151.876829) scale(-1, 1) rotate(172.000000) translate(-104.887085, -151.876829) "></path>
                            <g id="Group-4" transform="translate(96.871070, 75.098604) scale(-1, 1) translate(-96.871070, -75.098604) translate(1.037737, 0.722076)" fill="#242323">
                                <path d="M164.776245,8.48967313 C164.776245,8.48967313 164.673469,14.6347322 164.522161,23.8492917 C164.465064,26.1530325 164.402257,28.649021 164.336595,31.2887914 C164.273787,33.9285617 164.20527,36.712114 164.133899,39.59179 C164.071092,42.4714661 164.011139,45.4472659 163.945477,48.4707239 C163.902654,51.4941818 163.856976,54.5657016 163.811298,57.6372214 C163.802734,60.7087413 163.794169,63.7798572 163.785604,66.8033151 C163.836992,69.826773 163.885525,72.802169 163.934058,75.6814412 C164.065382,78.5607134 164.193851,81.3438617 164.313756,83.9832282 C164.422241,86.6225947 164.827632,89.1165638 164.99036,91.4199007 C165.224459,93.7232377 165.76403,95.8327115 166.038098,97.7038951 C166.389247,99.5746748 167.111529,101.202318 167.476953,102.545224 C167.608277,103.217283 167.982265,103.81422 168.339124,104.333612 C168.667434,104.853004 168.947211,105.295254 169.175601,105.653497 C169.629525,106.371195 169.869335,106.753671 169.869335,106.753671 C169.869335,106.753671 169.552444,106.372407 168.952921,105.657536 C168.656014,105.300101 168.284881,104.858658 167.850941,104.340074 C167.391307,103.82149 166.894559,103.224957 166.629056,102.553706 C166.023823,101.212415 165.021764,99.584368 164.396547,97.7135882 C163.842702,95.8432124 163.023354,93.732527 162.54659,91.42919 C162.095521,89.125853 161.447465,86.6298645 161.147704,83.9900942 C160.830813,81.3499199 160.345485,78.5659638 160.219871,75.68548 C160.034304,72.8054001 159.740252,69.8291963 159.745962,66.8049306 C159.720268,63.780665 159.697429,60.7083374 159.671735,57.6364137 C159.765946,54.5640861 159.857302,51.4921624 159.948658,48.4678967 C160.142789,45.4440349 160.33692,42.4678311 160.519632,39.5881551 C160.78799,36.708479 161.047783,33.9245229 161.296157,31.2847526 C161.613048,28.6453861 161.912809,26.1493976 162.189732,23.8456567 C163.405907,14.6310973 164.776245,8.48967313 164.776245,8.48967313 L131.721068,4.52807424" id="Fill-84" transform="translate(150.795201, 55.640873) scale(-1, 1) rotate(25.000000) translate(-150.795201, -55.640873) "></path>
                                <polygon id="Path-1630" transform="translate(81.123106, 115.384141) rotate(85.000000) translate(-81.123106, -115.384141) " points="54.750501 41.7945305 86.91112 38.3050351 107.495711 185.252824 66.9996635 192.463246"></polygon>
                            </g>
                        </g>
                        <g id="Group-5" transform="translate(108.765832, 242.509040) scale(-1, 1) translate(-108.765832, -242.509040) translate(25.432498, 142.307329)">
                            <path d="M13.0034329,190.771534 C13.0034329,190.771534 -14.3124889,88.1482629 54.660525,83.8394039 C86.2154254,81.8681167 115.247438,95.2780243 130.400474,118.853126 C148.369094,146.808714 149.464585,185.896837 149.464585,185.896837 L13.0034329,190.771534 Z" id="Path-1628" fill="#F6C724" transform="translate(78.565882, 137.210030) scale(-1, 1) rotate(172.000000) translate(-78.565882, -137.210030) "></path>
                            <g id="Group-4" transform="translate(83.867097, 67.872928) scale(-1, 1) translate(-83.867097, -67.872928) translate(1.575431, 0.727451)" fill="#242323">
                                <path d="M137.427067,-1.63979536 C137.427067,-1.63979536 137.326911,4.55100857 137.179459,13.8341628 C137.123817,16.1550531 137.062611,18.6696221 136.998622,21.3290434 C136.937416,23.9884646 136.870645,26.7927381 136.801093,29.6938509 C136.739886,32.5949638 136.681462,35.592916 136.617474,38.6388811 C136.575742,41.6848461 136.531228,44.7792309 136.486715,47.8736156 C136.478368,50.9680003 136.470022,54.0619782 136.461676,57.1079432 C136.511753,60.1539083 136.559049,63.1514536 136.606345,66.0521596 C136.734322,68.9528655 136.859517,71.7567321 136.976366,74.4157465 C137.082086,77.0747608 137.477145,79.5872955 137.635725,81.9077789 C137.863858,84.2282622 138.389677,86.3534393 138.656759,88.2385523 C138.998958,90.1232584 139.702832,91.7630179 140.058941,93.1159211 C140.186918,93.7929831 140.551375,94.3943639 140.899138,94.9176221 C141.219081,95.4408803 141.491727,95.8864229 141.714296,96.2473327 C142.156651,96.970373 142.390348,97.3556962 142.390348,97.3556962 C142.390348,97.3556962 142.081534,96.9715937 141.497291,96.2514016 C141.207952,95.8913055 140.846278,95.4465767 140.423398,94.9241323 C139.975478,94.4016878 139.491391,93.800714 139.232655,93.1244658 C138.642848,91.7731901 137.666328,90.1330238 137.057047,88.2483176 C136.517318,86.3640184 135.718853,84.2376207 135.254241,81.9171373 C134.814667,79.5966539 134.183129,77.0820848 133.891008,74.4226636 C133.582194,71.7628354 133.109235,68.9581551 132.986822,66.0562285 C132.805985,63.1547087 132.519428,60.1563496 132.524992,57.1095708 C132.499953,54.062792 132.477697,50.9675934 132.452658,47.8728018 C132.544467,44.7776033 132.633495,41.6828117 132.722522,38.6360329 C132.911705,35.5896609 133.100889,32.5913018 133.278944,29.6901889 C133.540462,26.7890761 133.793634,23.9843958 134.035677,21.3249745 C134.344491,18.6659601 134.636613,16.1513911 134.906477,13.8305008 C136.091655,4.54734657 137.427067,-1.63979536 137.427067,-1.63979536" id="Fill-84" transform="translate(137.421503, 47.857950) scale(-1, 1) rotate(25.000000) translate(-137.421503, -47.857950) "></path>
                                <polygon id="Path-1630" transform="translate(81.032637, 100.428650) rotate(85.000000) translate(-81.032637, -100.428650) " points="55.3321973 26.2912263 86.6731304 22.7757546 106.733077 170.817447 67.2691623 178.081545"></polygon>
                            </g>
                        </g>
                    </g>
                </g>
                <g id="Group-15" transform="translate(114.583333, 198.337408)">
                    <path d="M15.625,22.870914 C29.1666667,9.356283 60.4166667,1.039587 93.75,1.039587 C127.083333,1.039587 175,10.39587 183.333333,16.633392 C191.666667,22.870914 192.708333,44.702241 186.458333,79.008612 C180.208333,113.314983 152.083333,144.502593 152.083333,144.502593 C152.083333,144.502593 130.208333,163.215159 89.5833333,163.215159 C48.9583333,163.215159 35.5263224,155.394229 35.5263224,155.394229 C28.5622018,152.823833 18.8855291,146.25084 14.5702867,140.192432 C14.5702867,140.192432 1.20896934e-13,129.948375 1.17870513e-13,86.285721 C1.17870513e-13,42.623067 2.08333333,36.385545 15.625,22.870914 Z" id="Path-14" stroke="#999999" stroke-width="4.1472" fill-opacity="0.336531929" fill="#9C6E2B"></path>
                    <path d="M272.916667,22.870914 C286.458333,9.356283 317.708333,1.039587 351.041667,1.039587 C384.375,1.039587 432.291667,10.39587 440.625,16.633392 C448.958333,22.870914 450,44.702241 443.75,79.008612 C437.5,113.314983 409.375,144.502593 409.375,144.502593 C409.375,144.502593 387.5,163.215159 346.875,163.215159 C306.25,163.215159 292.817989,155.394229 292.817989,155.394229 C285.853868,152.823833 276.177196,146.25084 271.861953,140.192432 C271.861953,140.192432 257.291667,129.948375 257.291667,86.285721 C257.291667,42.623067 259.375,36.385545 272.916667,22.870914 Z" id="Path-14" stroke="#999999" stroke-width="4.1472" fill-opacity="0.336531929" fill="#9C6E2B" transform="translate(352.529762, 82.127373) scale(-1, 1) translate(-352.529762, -82.127373) "></path>
                    <path d="M118.75,2.06601467 L331.770833,2.06601467" id="Path-15" stroke="#979797" stroke-width="4.1472"></path>
                    <path d="M170.833333,118.512918 C170.833333,118.512918 178.800086,112.054241 185.815603,97.721178 C192.83112,83.3881146 204.926759,49.900176 222.916667,49.900176 C241.444664,49.900176 246.694952,75.6608481 257.624113,95.642004 C268.553275,115.62316 277.083333,118.512918 277.083333,118.512918 C277.083333,118.512918 264.318428,82.9929094 260.01773,65.493981 C255.717033,47.9950525 257.624113,25.989675 257.624113,25.989675 L189.406028,27.029262 C189.406028,27.029262 189.380734,56.3488911 185.815603,70.691916 C182.250472,85.0349409 170.833333,118.512918 170.833333,118.512918 Z" id="Path-16" fill="#999999"></path>
                </g>
                <path d="M164.583333,121.894866 L512.5,121.894866 C470.840332,93.2615244 421.911967,74.4548362 368.895102,69.2506263 L390.198341,11.2935204 C390.198341,11.2935204 376.639469,0 338.542799,0 C300.446129,0 286.884992,11.2935204 286.884992,11.2935204 L308.190497,69.2506263 C255.173631,74.4548362 206.243001,93.2615244 164.583333,121.894866" id="Fill-9" fill="#F6C823"></path>
            </g>
        </g>
    </g>
</svg>