<?xml version="1.0" encoding="UTF-8" standalone="no"?>
<svg width="1200px" height="1200px" viewBox="0 0 1200 1200" version="1.1" xmlns="http://www.w3.org/2000/svg" xmlns:xlink="http://www.w3.org/1999/xlink">
    <!-- Generator: Sketch 42 (36781) - http://www.bohemiancoding.com/sketch -->
    <title>27</title>
    <desc>Created with Sketch.</desc>
    <defs>
        <polyline id="path-1" points="0 839.60161 668.594358 839.60161 668.594358 1.97469408 0 1.97469408"></polyline>
        <path d="M21.0369107,10.5697674 C21.0369107,10.5697674 231.971577,139.128249 334.83542,137.406977 C442.284629,135.685704 669.55383,0 669.55383,0 C669.55383,0 696.848057,126.837209 669.55383,211.395349 C650.484647,270.472117 621.662913,329.131612 601.823322,359.372093 C581.98373,389.612574 580.706714,380.511628 580.706714,380.511628 L115.176464,391.081395 C115.176464,391.081395 32.9646281,274.313086 21.0369107,211.395349 C11.2317544,179.046156 7.97415604,127.618459 10.5583039,84.5581395 C13.1424517,41.4978197 21.0369107,10.5697674 21.0369107,10.5697674 Z" id="path-3"></path>
    </defs>
    <g id="Page-1" stroke="none" stroke-width="1" fill="none" fill-rule="evenodd">
        <g id="27">
            <g id="Group-35" transform="translate(227.000000, 146.000000)">
                <g id="card" transform="translate(42.233216, 52.848837)">
                    <g id="Mascot3_EPS" transform="translate(1.150895, 2.244132)">
                        <g id="Group-3">
                            <mask id="mask-2" fill="white">
                                <use xlink:href="#path-1"></use>
                            </mask>
                            <g id="Clip-2"></g>
                            <path d="M667.970816,477.992125 C664.03394,421.384228 650.968078,367.348121 630.385065,317.159508 C624.932126,303.866495 619.138887,290.748739 612.650786,278.030405 C635.644421,264.409295 651.108681,239.416882 651.108681,210.752231 C651.108681,167.551468 616.092495,132.530707 572.892826,132.530707 L95.7708147,132.530707 C52.5731828,132.530707 17.5549601,167.551468 17.5549601,210.752231 C17.5549601,239.394466 32.9968042,264.370576 55.9619116,277.999837 C49.4738103,290.712058 43.6805716,303.825738 38.2296699,317.114675 C17.6364689,367.313477 4.56245567,421.36385 0.625580121,477.986012 C0.326035242,484.723203 0,491.454281 0,498.264836 C0,547.20016 7.95933535,594.24638 22.4475264,638.327503 C26.7674934,650.736081 35.0773166,672.105165 45.2577671,686.372278 C46.3683246,687.837505 47.4177505,689.266051 48.6852125,690.806679 C48.8360038,690.983974 48.9827197,691.183685 49.133511,691.358941 C53.6490991,696.787822 59.1224157,702.597783 65.7083276,708.362912 C72.3553711,714.132116 80.055916,719.899283 88.8181131,724.720878 C97.480462,729.518019 107.587554,733.392006 117.55812,734.677901 C127.993285,736.173696 139.005126,734.38241 147.410722,728.482782 C155.979335,722.729881 162.10676,712.658738 165.652393,701.273169 C172.72532,678.206541 171.940798,652.070884 169.774702,628.433654 C167.406871,604.600788 163.088941,582.455276 158.801578,563.637603 C150.098475,525.973727 141.560427,501.517273 141.560427,501.517273 C141.560427,501.517273 151.759217,525.293079 163.109319,562.492321 C168.7212,581.100094 174.618363,603.072387 178.724369,627.243539 C182.516566,651.365782 185.575184,677.939581 179.394779,705.102323 C176.220011,718.446283 169.603533,732.523875 157.556531,742.034605 C145.495265,751.708364 130.416135,754.699954 116.875483,755.030089 C102.619592,755.127906 89.9633119,751.873431 78.4848337,747.502204 C77.0869576,746.962169 75.8948912,746.267256 74.5357318,745.692578 C95.5242505,777.346781 120.518927,806.048114 148.621127,831.39104 C163.612635,839.634216 188.040826,845.723366 220.395748,828.921144 C276.812072,799.626792 333.228395,796.372317 333.228395,796.372317 C333.228395,796.372317 389.644718,799.626792 446.059004,828.921144 C483.968751,848.604911 510.995035,836.889208 524.690553,827.076873 C550.783561,802.85885 574.117496,775.726676 593.88542,745.959538 C592.619996,746.491422 591.511476,747.141502 590.209373,747.642817 C578.730894,752.014044 566.076652,755.268519 551.820761,755.170702 C538.278072,754.840567 523.20098,751.848977 511.139713,742.175217 C499.092711,732.664488 492.476233,718.586896 489.301465,705.242936 C483.12106,678.080194 486.17764,651.506395 489.971875,627.384152 C494.075844,603.215037 499.975044,581.240707 505.586926,562.632934 C516.93499,525.433692 527.135817,501.657886 527.135817,501.657886 C527.135817,501.657886 518.595732,526.11434 509.894666,563.778216 C505.607303,582.595889 501.287336,604.743438 498.919505,628.574267 C496.753408,652.211497 495.968886,678.347154 503.043851,701.413782 C506.589484,712.79935 512.714871,722.870494 521.283485,728.623395 C529.691119,734.525061 540.700921,736.314309 551.136087,734.818514 C561.10869,733.532619 571.215782,729.658632 579.876093,724.861491 C588.640328,720.039895 596.338835,714.272729 602.985879,708.503525 C611.935546,700.671998 618.706891,692.830282 623.90919,685.905607 C632.023393,674.363122 638.921076,658.414768 643.526323,646.207938 C659.720086,599.883123 668.594358,550.120425 668.594358,498.264836 C668.594358,491.456319 668.270361,484.727279 667.970816,477.992125" id="Fill-1" fill="#F6C823" mask="url(#mask-2)"></path>
                        </g>
                        <path d="M95.7708147,171.511045 C74.0996597,171.511045 56.5304356,189.079505 56.5304356,210.752231 C56.5304356,224.809445 63.9823786,237.044804 75.087954,243.975593 C88.6673218,221.673166 103.81981,200.442657 120.488361,180.506195 C113.72313,174.969307 105.193233,171.511045 95.7708147,171.511045" id="Fill-4" fill="#25282C"></path>
                        <path d="M572.892826,171.511045 C563.452068,171.511045 554.905869,174.983572 548.136562,180.538801 C564.801039,200.475263 579.947413,221.703734 593.522706,244.004123 C604.658847,237.079448 612.133205,224.829823 612.133205,210.752231 C612.133205,189.079505 594.563981,171.511045 572.892826,171.511045" id="Fill-5" fill="#25282C"></path>
                        <path d="M430.274822,404.463811 C430.274822,458.063814 386.826551,501.517273 333.228395,501.517273 C279.630239,501.517273 236.179929,458.063814 236.179929,404.463811 C236.179929,350.861769 279.630239,307.40831 333.228395,307.40831 C386.826551,307.40831 430.274822,350.861769 430.274822,404.463811" id="Fill-6" fill="#FFFFFF"></path>
                        <path d="M326.929801,501.199366 C329.02254,501.333865 331.098977,501.517273 333.224319,501.517273 C335.351699,501.517273 337.432212,501.333865 339.52495,501.199366 L339.52495,375.0533 L326.929801,375.0533 L326.929801,501.199366" id="Fill-7" fill="#25282C"></path>
                        <path d="M383.580462,351.469054 C383.580462,350.128136 383.325747,348.860583 382.963033,347.635824 C382.804091,347.034653 382.675715,346.682102 382.675715,346.682102 L382.665526,346.682102 C382.213152,345.485873 381.597761,344.385425 380.841766,343.378718 L380.84788,343.366491 C380.84788,343.366491 375.146338,331.612068 333.803032,331.497947 L333.803032,331.487758 C333.701146,331.487758 333.615562,331.493872 333.515713,331.493872 C333.413827,331.493872 333.328243,331.487758 333.228395,331.487758 L333.228395,331.497947 C309.173107,331.565197 297.213727,335.559418 291.400111,338.901522 C287.889119,340.309689 285.132083,343.138249 283.789226,346.682102 L283.768849,346.682102 C283.768849,346.682102 283.620095,347.097827 283.444851,347.794778 C283.112703,348.970627 282.876327,350.187235 282.876327,351.469054 C282.876327,351.585212 282.906893,351.693219 282.910968,351.80734 C282.664404,357.902603 284.663408,368.642167 298.48934,379.656844 C312.09316,390.496263 322.54259,394.034002 328.284885,395.205776 C328.722995,395.305632 329.169256,395.36473 329.615517,395.438093 C331.875349,395.80491 333.218206,395.802872 333.218206,395.802872 L333.228395,395.802872 C333.228395,395.802872 334.565139,395.802872 336.81682,395.440131 C337.275307,395.36473 337.733794,395.303594 338.182093,395.201701 C343.932539,394.023813 354.37178,390.47996 367.955224,379.656844 C381.726137,368.687 383.763857,357.990231 383.53767,351.882741 C383.541746,351.742128 383.580462,351.611704 383.580462,351.469054" id="Fill-8" fill="#25282C"></path>
                        <path d="M52.6771065,654.037427 C52.6771065,654.037427 47.4911085,647.292084 41.7793786,635.888175 C36.0350451,624.53725 30.2051275,608.495153 26.4842503,591.992498 C22.7002037,575.493919 20.898859,558.66113 20.5341071,546.022272 C20.2080719,533.365074 20.9987073,524.916074 20.9987073,524.916074 C20.9987073,524.916074 21.620212,526.960055 22.4760545,530.542627 C23.3054067,534.117048 24.4933976,539.221907 25.9157263,545.347738 C28.6503469,557.574946 31.9412651,573.816754 35.6886327,589.891456 C39.2546432,606.008954 43.3952907,621.959347 46.8125476,633.935897 C48.550723,639.947608 49.9995421,644.956687 51.0143268,648.463858 C52.1432238,651.975105 52.6771065,654.037427 52.6771065,654.037427" id="Fill-10" fill="#FFFFFF"></path>
                        <path d="M536.672348,552.115498 C536.672348,552.115498 536.529708,557.792998 535.647375,566.03006 C534.714099,574.261009 532.890339,585.016876 530.709979,595.67085 C528.439958,606.306483 525.852054,616.870791 523.516826,624.796059 C522.432759,628.767864 521.134731,632.046794 520.476548,634.384228 C519.710365,636.70536 519.139803,638.025898 519.139803,638.025898 C519.139803,638.025898 518.220791,632.419723 518.147433,624.033897 C518.116867,615.662335 519.215199,604.580409 521.468917,593.738951 C523.759315,582.903607 527.164345,572.3393 530.424698,564.654499 C533.733956,556.971737 536.672348,552.115498 536.672348,552.115498" id="Fill-11" fill="#FFFFFF"></path>
                        <path d="M94.5216922,142.029209 C94.5216922,142.029209 88.6836236,144.266788 81.0666253,148.837726 C77.2316357,151.050851 72.9585363,153.838654 68.6833992,157.133887 C64.3776963,160.382248 60.1453513,164.24197 56.2533056,168.403297 C52.2410344,172.479033 48.8747205,177.102955 45.6510471,181.472144 C42.7554466,186.049196 39.9413549,190.340946 37.8954837,194.310712 C35.5928599,198.156169 33.9871363,201.583863 32.8052585,203.98651 C31.5907773,206.378967 30.7614251,207.744338 30.7614251,207.744338 C30.7614251,207.744338 30.7736514,206.195559 31.0344796,203.493346 C31.4460991,200.840041 31.4297974,196.809139 32.8480507,192.329905 C33.8383827,187.699869 35.9127819,182.566479 38.5169884,177.194659 C41.339231,171.928808 45.0213915,166.654806 49.3821129,161.92899 C58.2482337,152.564987 69.8082208,146.166081 78.9963015,143.851063 C88.1904953,141.342448 94.5216922,142.029209 94.5216922,142.029209" id="Fill-12" fill="#FFFFFF"></path>
                        <path d="M250.399141,276.153529 L250.40933,276.153529 L250.390991,276.122961 C250.352274,276.041446 250.287067,275.97012 250.24835,275.886568 C250.117936,275.67463 249.912126,275.346533 249.582016,274.863558 C248.982926,273.832397 248.292139,272.856258 247.409806,271.969786 C240.956346,264.007835 223.46863,247.413476 189.671002,247.413476 C154.471422,247.413476 136.834953,266.797677 130.998923,274.883937 C130.181797,275.839697 129.458406,276.866782 128.928599,277.995761 C128.781883,278.246419 128.700374,278.395183 128.700374,278.395183 C128.115548,279.98472 127.677439,281.641507 127.652986,283.379808 C127.632609,284.881717 127.763023,286.404005 128.215397,287.91814 C129.081428,290.828216 130.754396,293.265506 132.904191,295.097549 C133.751883,295.857674 140.439681,301.04201 157.660455,292.639881 L157.59321,292.800872 C161.310012,290.960677 165.159265,289.307966 169.273422,288.085246 C190.033716,281.902354 211.368648,285.114034 228.783005,295.191291 C232.469241,297.324939 236.783095,298.103405 240.864648,296.886797 C250.209633,294.10307 253.853077,283.893351 250.399141,276.153529" id="Fill-13" fill="#25282C"></path>
                        <path d="M537.522078,276.153529 L537.532266,276.153529 L537.513927,276.122961 C537.477248,276.041446 537.410003,275.97012 537.371286,275.886568 C537.240872,275.67463 537.035062,275.346533 536.704952,274.863558 C536.105862,273.832397 535.415075,272.856258 534.532742,271.969786 C528.079282,264.007835 510.593604,247.413476 476.793938,247.413476 C441.594358,247.413476 423.95789,266.797677 418.121859,274.883937 C417.304733,275.839697 416.581342,276.866782 416.051535,277.995761 C415.904819,278.246419 415.82331,278.395183 415.82331,278.395183 C415.240522,279.98472 414.800375,281.641507 414.775922,283.379808 C414.755545,284.881717 414.885959,286.404005 415.338333,287.91814 C416.204364,290.828216 417.877332,293.265506 420.027127,295.097549 C420.874819,295.857674 427.562617,301.04201 444.785428,292.639881 L444.716146,292.800872 C448.432948,290.960677 452.282201,289.307966 456.396358,288.085246 C477.156652,281.902354 498.491584,285.114034 515.905941,295.191291 C519.592177,297.324939 523.906031,298.103405 527.987584,296.886797 C537.334607,294.10307 540.976013,283.893351 537.522078,276.153529" id="Fill-14" fill="#25282C"></path>
                    </g>
                </g>
                <path d="M337.2479,274.813953 C345.599686,274.813953 370.655046,247.870772 370.655046,247.870772 C370.655046,247.870772 376.510126,317.093023 387.358619,317.093023 C398.207112,317.093023 415.168443,274.925823 420.765765,253.674419 C426.363088,232.423014 420.765765,190.255814 420.765765,190.255814 C420.765765,190.255814 380.6293,174.532073 362.303259,179.686047 C343.977219,184.84002 345.599686,200.825581 345.599686,200.825581 C345.599686,200.825581 328.896113,274.813953 337.2479,274.813953 Z" id="Path-112" fill="#24464E"></path>
                <path d="M158.374558,274.813953 C158.374558,274.813953 305.678019,278.361655 380.09894,274.813953 C454.519861,271.266252 591.265018,243.104651 591.265018,243.104651 L580.706714,211.395349 C580.706714,211.395349 435.682911,185.162423 369.540636,190.255814 C303.398361,195.349205 168.932862,243.104651 168.932862,243.104651 L158.374558,274.813953 Z" id="Path-113" fill-opacity="0.225317029" fill="#1F2228"></path>
                <path d="M380.09894,200.825581 C456.371374,195.133142 499.556248,191.525454 517.35689,190.375779 C606.42685,184.62309 680.819425,443.721584 680.819425,443.721584 L697.786534,442.625744 C703.604613,442.249976 705.880941,437.896941 702.870178,432.901844 L696.848057,422.910662 L729.65588,406.395748 C734.86138,403.775386 735.736443,398.302702 731.61487,394.176654 L707.40636,369.94186 L742.162079,335.247131 C746.291787,331.12467 746.894049,323.928605 743.512761,319.181978 L696.848057,253.674419 L741.390901,218.001453 C745.946518,214.353003 745.086698,210.152307 739.459978,208.616081 L633.498233,179.686047 C633.498233,179.686047 428.203491,165.795122 380.09894,169.116279 C331.994389,172.437436 303.826506,206.518021 380.09894,200.825581 Z" id="Path-105" fill="#24464E"></path>
                <path d="M47.2508588,211.908361 C123.523293,206.215922 166.708167,202.608234 184.508809,201.458559 C273.578769,195.70587 347.971344,454.804364 347.971344,454.804364 L364.938453,453.708524 C370.756532,453.332756 373.03286,448.979721 370.022097,443.984624 L363.999975,433.993442 L396.807799,417.478529 C402.013299,414.858166 402.888361,409.385482 398.766789,405.259434 L374.558279,381.024641 L409.313998,346.329911 C413.443706,342.20745 413.862046,335.16393 410.234984,330.580831 L349.371288,253.674419 L387.833214,218.981586 C392.164051,215.075152 391.122009,210.665319 385.495289,209.129093 L279.533544,180.199059 C279.533544,180.199059 95.3554102,176.877902 47.2508588,180.199059 C-0.853692621,183.520216 -29.0215751,217.600801 47.2508588,211.908361 Z" id="Path-105" fill="#24464E" transform="translate(206.360556, 316.763677) scale(-1, 1) translate(-206.360556, -316.763677) "></path>
                <g id="Group-32" transform="translate(147.816254, 0.000000)">
                    <path d="M10.5583039,274.813953 C10.5583039,274.813953 153.365767,216.402629 221.724382,211.395349 C290.082996,206.388068 443.448763,243.104651 443.448763,243.104651 L422.332155,95.127907 C422.332155,95.127907 358.982332,0 211.166078,0 C63.3498233,1.12183343e-14 0,137.406977 0,137.406977 L10.5583039,274.813953 Z" id="Path-110" fill="#D74C37"></path>
                    <path d="M158.374558,147.976744 L168.932862,137.406977 C168.932862,137.406977 195.497618,139.329553 211.166078,137.406977 C226.834537,136.249207 285.074205,137.406977 285.074205,137.406977 L295.632509,158.546512 L316.749117,147.976744 C316.749117,147.976744 312.190746,132.543802 306.190813,126.837209 C300.19088,120.748214 285.074205,116.267442 285.074205,116.267442 C285.074205,116.267442 233.924075,115.311434 211.166078,116.267442 C188.40808,118.753062 147.816254,116.267442 147.816254,116.267442 L137.257951,137.406977 L158.374558,147.976744 Z" id="Path-111" fill="#FFFFFF" transform="translate(227.003534, 137.406977) scale(1, -1) translate(-227.003534, -137.406977) "></path>
                    <path d="M232.282686,211.395349 C295.865991,207.850024 401.65499,240.156973 401.65499,240.156973 C407.243483,241.784931 408.658991,239.560965 404.604318,235.361243 C404.604318,235.361243 352.557248,169.116279 232.282686,169.116279 C117.139016,169.116279 49.1559953,256.276878 49.1559953,256.276878 C45.3326496,260.677101 46.668896,262.606191 52.1494633,260.612624 C52.1494633,260.612624 173.830273,214.940674 232.282686,211.395349 Z" id="Path-108" fill="#A9AAA6"></path>
                    <path d="M232.282686,169.116279 C298.804856,169.689689 413.206804,237.851781 413.206804,237.851781 C418.246596,240.752861 419.964698,239.017235 416.746747,234.152567 C416.746747,234.152567 380.09894,159.201837 242.840989,147.976744 C105.583039,138.226134 47.8445979,244.748239 47.8445979,244.748239 C44.745517,249.678032 46.05923,250.903277 50.8317135,247.538747 C50.8317135,247.538747 155.202212,169.689689 232.282686,169.116279 Z" id="Path-109" fill="#2A2833"></path>
                    <path d="M158.374558,105.697674 L168.932862,73.9883721 C168.932862,73.9883721 195.497618,65.4810847 211.166078,63.4186047 C226.834537,62.3820523 274.515901,63.4186047 274.515901,63.4186047 L295.632509,95.127907 L316.749117,84.5581395 L285.074205,42.2790698 C285.074205,42.2790698 233.924075,41.3172626 211.166078,42.2790698 C188.40808,44.7797685 147.816254,52.8488372 147.816254,52.8488372 L126.699647,95.127907 L158.374558,105.697674 Z" id="Path-111" fill="#FFFFFF"></path>
                </g>
                <g id="Group-33" transform="translate(31.674912, 454.500000)">
                    <mask id="mask-4" fill="white">
                        <use xlink:href="#path-3"></use>
                    </mask>
                    <use id="Path-114" fill="#F6F8F5" xlink:href="#path-3"></use>
                    <path d="M10.5583039,116.267442 C10.5583039,116.267442 234.234423,158.59983 348.424028,158.546512 C462.613634,158.493194 717.964664,126.837209 717.964664,126.837209 L707.40636,200.825581 C707.40636,200.825581 472.790296,211.395349 348.424028,211.395349 C224.057761,211.395349 0,200.825581 0,200.825581 L10.5583039,116.267442 Z" id="Path-117" fill="#6281AF" mask="url(#mask-4)"></path>
                    <path d="M10.5583039,264.244186 C10.5583039,264.244186 234.234423,278.827518 348.424028,278.756531 C462.613634,278.685544 717.964664,278.756531 717.964664,278.756531 L717.964664,306.901685 C717.964664,306.901685 472.790296,349.119416 348.424028,349.119416 C224.057761,349.119416 0,306.901685 0,306.901685 L10.5583039,264.244186 Z" id="Path-117" fill="#6281AF" mask="url(#mask-4)"></path>
                </g>
                <g id="Group-34" transform="translate(538.473498, 581.337209)">
                    <path d="M21.1166078,73.9883721 C21.1166078,73.9883721 -21.1166078,200.825581 52.7915194,211.395349 C126.699647,221.965116 168.932862,73.9883721 168.932862,73.9883721 L21.1166078,73.9883721 Z" id="Path-115" fill="#F6C823"></path>
                    <polygon id="Path-116" fill="#486186" points="21.1166078 63.4186047 10.5583039 95.127907 168.932862 105.697674 168.932862 73.9883721"></polygon>
                    <polygon id="Path-118" fill="#486186" points="21.1166078 63.4186047 42.2332155 0 31.6749117 63.4186047"></polygon>
                </g>
                <g id="Group-34" transform="translate(137.257951, 681.750000) scale(-1, 1) translate(-137.257951, -681.750000) translate(52.791519, 570.767442)">
                    <path d="M21.1166078,73.9883721 C21.1166078,73.9883721 -21.1166078,200.825581 52.7915194,211.395349 C126.699647,221.965116 168.932862,73.9883721 168.932862,73.9883721 L21.1166078,73.9883721 Z" id="Path-115" fill="#F6C823"></path>
                    <polygon id="Path-116" fill="#486186" points="21.1166078 63.4186047 10.5583039 95.127907 168.932862 105.697674 168.932862 73.9883721"></polygon>
                    <polygon id="Path-118" fill="#486186" points="21.1166078 63.4186047 42.2332155 0 31.6749117 63.4186047"></polygon>
                </g>
            </g>
        </g>
    </g>
</svg>