<?xml version="1.0" encoding="UTF-8" standalone="no"?>
<svg width="1200px" height="1200px" viewBox="0 0 1200 1200" version="1.1" xmlns="http://www.w3.org/2000/svg" xmlns:xlink="http://www.w3.org/1999/xlink">
    <!-- Generator: Sketch 42 (36781) - http://www.bohemiancoding.com/sketch -->
    <title>42</title>
    <desc>Created with Sketch.</desc>
    <defs>
        <polygon id="path-1" points="692.392554 362.93161 692.392554 725.604626 0 725.604626 0 362.93161 0 0.25859336 692.392554 0.25859336 692.392554 362.93161"></polygon>
        <path d="M20.7642435,216.905261 C18.6350685,210.475486 3.04606786,138.265673 1.27772429,111.237534 C-1.36299001,70.8756967 10.167252,0.722198135 10.167252,0.722198135 C10.167252,0.722198135 238.144041,143.436032 350.212779,142.967448 C459.66641,142.509798 685.928505,0.722198135 685.928505,0.722198135 C685.928505,0.722198135 691.771028,20.7038948 694.890727,46.7190158 C698.607509,77.7132011 699.580134,117.344681 697.704853,142.967448 C694.855942,181.893342 672.226862,246.010443 672.226862,246.010443 L350.212792,354.324664 L30.021415,246.010443 C30.021415,246.010443 26.6588647,234.706096 20.7642435,216.905261 Z" id="path-3"></path>
    </defs>
    <g id="Page-1" stroke="none" stroke-width="1" fill="none" fill-rule="evenodd">
        <g id="42">
            <g id="Group-8" transform="translate(184.000000, 60.000000)">
                <g id="Group" transform="translate(50.025316, 135.717277)">
                    <g id="Mascot_EPS">
                        <g id="Group-3" transform="translate(0.000000, 135.552971)">
                            <mask id="mask-2" fill="white">
                                <use xlink:href="#path-1"></use>
                            </mask>
                            <g id="Clip-2"></g>
                            <path d="M691.746403,354.710843 C687.669543,296.629523 674.138244,241.186273 652.821553,189.692827 C647.176671,176.052028 641.17609,162.594746 634.455691,149.546208 C658.26859,135.569654 674.285575,109.927203 674.285575,80.5163793 C674.285575,36.1905578 638.021101,0.25859336 593.285096,0.25859336 L99.1790192,0.25859336 C54.4430137,0.25859336 18.1806453,36.1905578 18.1806453,80.5163793 C18.1806453,109.904263 34.1702682,135.530031 57.9537009,149.512841 C51.2333026,162.557208 45.2348262,176.010319 39.5899442,189.646948 C18.2648344,241.150821 4.72511562,296.608669 0.648256396,354.704587 C0.33675657,361.615703 0,368.522648 0,375.510925 C0,425.71766 8.24211704,473.989116 23.2467269,519.217929 C27.7213799,531.949481 36.3255102,553.87361 46.8680956,568.513331 C48.0193821,570.016926 49.105422,571.482983 50.4166679,573.061654 C50.5745226,573.245172 50.726063,573.449544 50.8818129,573.628891 C55.5585198,579.199076 61.2265538,585.161321 68.0479791,591.075601 C74.9325462,596.996138 82.905258,602.912504 91.9808475,607.86123 C100.949096,612.78076 111.415911,616.757676 121.743814,618.075668 C132.549491,619.610544 143.95291,617.77328 152.658067,611.721361 C161.531603,605.815423 167.875255,595.484201 171.548006,583.80162 C178.874566,560.134072 178.062141,533.319609 175.8185,509.066054 C173.366491,484.614383 168.893943,461.891535 164.452966,442.584621 C155.442623,403.939511 146.598554,378.847614 146.598554,378.847614 C146.598554,378.847614 157.162186,403.242978 168.914991,441.408438 C174.726146,460.500553 180.834068,483.04614 185.08562,507.843992 C189.013044,532.595964 192.18066,559.86088 185.780181,587.730571 C182.492595,601.421421 175.639598,615.865111 163.162767,625.624925 C150.673308,635.549488 135.058327,638.619242 121.034521,638.957081 C106.271954,639.057182 93.1658097,635.720494 81.2783028,631.234733 C79.8302495,630.680008 78.5947739,629.966791 77.1888152,629.3787 C98.924347,661.855106 124.808299,691.305553 153.910381,717.306699 C169.436963,725.763119 194.733696,732.011068 228.240974,714.772901 C286.66403,684.715594 345.08919,681.374734 345.08919,681.374734 C345.08919,681.374734 403.512245,684.715594 461.937405,714.772901 C501.194803,734.968208 529.183483,722.945702 543.367249,712.881415 C570.387754,688.031428 594.552143,660.193018 615.024837,629.649806 C613.711487,630.196189 612.56441,630.863526 611.217383,631.378628 C599.329876,635.864388 586.223732,639.203162 571.461165,639.100976 C557.437359,638.763136 541.822378,635.693383 529.332919,625.76882 C516.856088,616.009006 510.005196,601.567401 506.71761,587.874466 C500.317131,560.004775 503.482642,532.739859 507.412171,507.989972 C511.661618,483.19212 517.76954,460.646533 523.580695,441.552333 C535.335604,403.386872 545.897132,378.991508 545.897132,378.991508 C545.897132,378.991508 537.055168,404.083406 528.04272,442.728515 C523.603847,462.035429 519.131299,484.758278 516.677186,509.209949 C514.43565,533.463503 513.623225,560.280052 520.94768,583.945515 C524.620431,595.628096 530.964083,605.961403 539.837619,611.865256 C548.544881,617.91926 559.946196,619.754439 570.753977,618.219562 C581.079775,616.90157 591.54659,612.92674 600.516943,608.005125 C609.592533,603.056398 617.565245,597.140033 624.447707,591.219496 C633.714827,583.184333 640.727782,575.138743 646.115887,568.035767 C654.520069,556.192608 661.661413,539.828237 666.432832,527.303142 C683.203309,479.7741 692.392554,428.716509 692.392554,375.510925 C692.392554,368.524734 692.057903,361.619874 691.746403,354.710843" id="Fill-1" fill="#F6C823" mask="url(#mask-2)"></path>
                        </g>
                        <path d="M273.564199,273.402 C273.564199,313.848922 240.471552,346.640228 199.648237,346.640228 C158.827027,346.640228 125.732275,313.848922 125.732275,273.402 C125.732275,232.952994 158.827027,200.161688 199.648237,200.161688 C240.471552,200.161688 273.564199,232.952994 273.564199,273.402" id="Fill-4" fill="#FFFFFF"></path>
                        <path d="M232.54304,273.402 C232.54304,291.40135 217.816254,305.993106 199.648237,305.993106 C181.482325,305.993106 166.755539,291.40135 166.755539,273.402 C166.755539,255.400566 181.482325,240.80881 199.648237,240.80881 C217.816254,240.80881 232.54304,255.400566 232.54304,273.402" id="Fill-5" fill="#25282C"></path>
                        <path d="M99.1790192,175.805947 C76.7362986,175.805947 58.5430249,193.832407 58.5430249,216.06935 C58.5430249,230.492186 66.2589598,243.046477 77.7613014,250.157794 C91.8229929,227.274367 107.515849,205.492048 124.776728,185.036062 C117.772191,179.355349 108.936541,175.805947 99.1790192,175.805947" id="Fill-6" fill="#25282C"></path>
                        <path d="M593.285096,175.805947 C583.506527,175.805947 574.658248,179.367862 567.647397,185.069428 C584.904067,205.523329 600.590609,227.305649 614.650196,250.184905 C626.179899,243.081929 633.92109,230.513041 633.92109,216.06935 C633.92109,193.832407 615.727817,175.805947 593.285096,175.805947" id="Fill-7" fill="#25282C"></path>
                        <path d="M195.070452,249.792844 C195.070452,259.675698 186.98619,267.685836 177.013986,267.685836 C167.039677,267.685836 158.955415,259.675698 158.955415,249.792844 C158.955415,239.912075 167.039677,231.901937 177.013986,231.901937 C186.98619,231.901937 195.070452,239.912075 195.070452,249.792844" id="Fill-8" fill="#FFFFFF"></path>
                        <path d="M566.66028,273.402 C566.66028,313.848922 533.567632,346.640228 492.744317,346.640228 C451.921002,346.640228 418.828355,313.848922 418.828355,273.402 C418.828355,232.952994 451.921002,200.161688 492.744317,200.161688 C533.567632,200.161688 566.66028,232.952994 566.66028,273.402" id="Fill-9" fill="#FFFFFF"></path>
                        <path d="M525.637015,273.402 C525.637015,291.40135 510.91023,305.993106 492.744317,305.993106 C474.5763,305.993106 459.849515,291.40135 459.849515,273.402 C459.849515,255.400566 474.5763,240.80881 492.744317,240.80881 C510.91023,240.80881 525.637015,255.400566 525.637015,273.402" id="Fill-10" fill="#25282C"></path>
                        <path d="M488.166533,249.792844 C488.166533,259.675698 480.080166,267.685836 470.107962,267.685836 C460.135758,267.685836 452.051495,259.675698 452.051495,249.792844 C452.051495,239.912075 460.135758,231.901937 470.107962,231.901937 C480.080166,231.901937 488.166533,239.912075 488.166533,249.792844" id="Fill-11" fill="#FFFFFF"></path>
                        <path d="M445.589979,414.821287 C445.589979,469.81617 400.595092,514.400585 345.08919,514.400585 C289.583288,514.400585 244.588401,469.81617 244.588401,414.821287 C244.588401,359.824318 289.583288,315.239904 345.08919,315.239904 C400.595092,315.239904 445.589979,359.824318 445.589979,414.821287" id="Fill-12" fill="#FFFFFF"></path>
                        <path d="M397.231735,360.447862 C397.231735,359.071478 396.968644,357.77017 396.594003,356.514741 C396.429834,355.899539 396.297236,355.536674 396.297236,355.536674 L396.286712,355.536674 C395.817358,354.308355 395.179625,353.178052 394.398771,352.145764 L394.40298,352.133251 C394.40298,352.133251 388.499216,340.073208 345.682723,339.958509 L345.682723,339.945997 C345.579592,339.945997 345.491193,339.952253 345.385957,339.952253 C345.282825,339.952253 345.192322,339.945997 345.08919,339.945997 L345.08919,339.958509 C320.177623,340.025243 307.791295,344.123114 301.771771,347.553646 C298.136905,348.99885 295.280789,351.901769 293.891668,355.536674 L293.87062,355.536674 C293.87062,355.536674 293.714871,355.962101 293.533864,356.677404 C293.188688,357.884868 292.94454,359.131956 292.94454,360.447862 C292.94454,360.566732 292.976111,360.677259 292.98032,360.794044 C292.725648,367.050334 294.796701,378.067663 309.115169,389.370695 C323.202118,400.49021 334.022527,404.118858 339.97049,405.322152 C340.423007,405.424338 340.886047,405.486901 341.346983,405.561976 C343.687441,405.937354 345.078666,405.935268 345.078666,405.935268 L345.08919,405.935268 C345.08919,405.935268 346.474101,405.935268 348.806141,405.564062 C349.279705,405.486901 349.755373,405.424338 350.220518,405.317981 C356.172691,404.110517 366.984681,400.473526 381.052687,389.370695 C395.312223,378.113542 397.423266,367.140008 397.189641,360.871204 C397.19385,360.72731 397.231735,360.593842 397.231735,360.447862" id="Fill-14" fill="#25282C"></path>
                        <path d="M183.38079,114.448416 L507.513198,114.448416 C468.702003,88.0009887 423.117792,70.6293541 373.724022,65.8224372 L393.571612,12.2894409 C393.571612,12.2894409 380.939032,1.85811842 345.446994,1.85811842 C309.954956,1.85811842 297.322375,12.2894409 297.322375,12.2894409 L317.169966,65.8224372 C267.7783,70.6293541 222.191985,88.0009887 183.38079,114.448416" id="Fill-15" fill="#F6C823"></path>
                        <path d="M54.5524595,670.889191 C54.5524595,670.889191 49.1811923,663.969733 43.266905,652.268383 C37.3168374,640.621255 31.2804759,624.160953 27.4267179,607.23143 C23.5077133,590.303992 21.6429238,573.032458 21.2661774,560.063167 C20.9273161,547.077192 21.7460555,538.408059 21.7460555,538.408059 C21.7460555,538.408059 22.3901024,540.506001 23.2761931,544.182615 C24.1349224,547.848802 25.3640839,553.085317 26.8394986,559.370804 C29.6703585,571.916753 33.077914,588.581427 36.9590335,605.07301 C40.6528321,621.612557 44.9401642,637.976929 48.4782129,650.26637 C50.2798606,656.432988 51.780532,661.573573 52.8307916,665.170941 C53.9989159,668.774564 54.5524595,670.889191 54.5524595,670.889191" id="Fill-16" fill="#FFFFFF"></path>
                        <path d="M555.774624,566.315287 C555.774624,566.315287 555.625188,572.139894 554.711736,580.592143 C553.74777,589.03605 551.859828,600.074233 549.601455,611.003973 C547.250473,621.91703 544.569049,632.755012 542.150716,640.88819 C541.026791,644.963121 539.683974,648.32692 539.004146,650.725165 C538.208559,653.106726 537.61713,654.462256 537.61713,654.462256 C537.61713,654.462256 536.665793,648.708554 536.590023,640.106154 C536.560557,631.516266 537.69711,620.144415 540.031254,609.022815 C542.401178,597.905386 545.926599,587.065319 549.304688,579.180307 C552.731186,571.29738 555.774624,566.315287 555.774624,566.315287" id="Fill-17" fill="#FFFFFF"></path>
                        <path d="M97.8867159,145.55678 C97.8867159,145.55678 91.8398307,147.852839 83.9534128,152.542972 C79.9796853,154.814005 75.5555458,157.675216 71.1293017,161.055698 C66.6693819,164.38613 62.2852323,168.348448 58.2546771,172.619409 C54.0999429,176.800697 50.6145124,181.545051 47.2764129,186.026641 C44.2771747,190.72303 41.3642304,195.127459 39.2447687,199.200304 C36.8601113,203.145938 35.1973757,206.661974 33.9745284,209.126953 C32.7159007,211.581504 31.8550668,212.980828 31.8550668,212.980828 C31.8550668,212.980828 31.8697999,211.393815 32.1392051,208.620193 C32.566465,205.898706 32.5475225,201.763298 34.016623,197.16701 C35.0437305,192.416399 37.1905537,187.150688 39.8867109,181.638896 C42.8101789,176.235546 46.6239471,170.823854 51.1406945,165.975228 C60.3215205,156.367651 72.2911118,149.802716 81.8086944,147.427411 C91.3304864,144.851905 97.8867159,145.55678 97.8867159,145.55678" id="Fill-18" fill="#FFFFFF"></path>
                    </g>
                    <path d="M327.633754,475.649342 C314.738319,477.86143 311.078881,472.969572 311.078881,472.969572 C311.078881,472.969572 330.017517,467.036916 336.108392,464.166107 C341.72396,461.519743 347.102596,458.067465 347.911631,457.543412 C348.720666,458.067465 354.099302,461.519743 359.714869,464.166107 C365.80719,467.036916 384.744381,472.969572 384.744381,472.969572 C384.744381,472.969572 381.002595,478.099447 368.190953,475.649342 C350.676796,472.300413 347.993979,472.156351 327.633754,475.649342 Z" id="Path" fill="#393E44"></path>
                </g>
                <g id="Group-6" transform="translate(44.759494, 550.698953)">
                    <g id="Group-5" transform="translate(28.962025, 242.725131)" stroke="#1F2228" stroke-width="3.3">
                        <g id="Group-4" transform="translate(0.000000, 2.609948)">
                            <path d="M11.7338176,3.04537983 L11.7894149,39.4566978" id="Path-14943"></path>
                            <path d="M3.308501,0.957421679 L3.36409829,37.3687396" id="Path-14943"></path>
                            <path d="M20.1591342,5.13333797 L20.2147315,41.5446559" id="Path-14943"></path>
                            <path d="M28.5844507,9.30925426 L28.640048,45.7205722" id="Path-14943"></path>
                            <path d="M44.9085015,13.5717277 L44.9640988,49.9830457" id="Path-14943"></path>
                            <path d="M37.0097673,11.4837696 L37.0653646,47.8950875" id="Path-14943"></path>
                            <path d="M52.8072357,16.1816754 L52.862833,52.5929933" id="Path-14943"></path>
                            <path d="M60.7059699,19.3136125 L60.7615672,55.7249305" id="Path-14943"></path>
                            <path d="M78.1387824,26.0994764 L78.1943797,62.5107944" id="Path-14943"></path>
                            <path d="M70.2400482,23.4895288 L70.2956455,59.9008468" id="Path-14943"></path>
                            <path d="M86.0375166,28.7094241 L86.0931139,65.120742" id="Path-14943"></path>
                            <path d="M96.5691621,31.3193717 L96.6247594,67.7306897" id="Path-14943"></path>
                            <path d="M112.366631,36.539267 L112.422228,72.950585" id="Path-14943"></path>
                            <path d="M104.467896,33.9293194 L104.523494,70.3406373" id="Path-14943"></path>
                            <path d="M120.265365,39.1492147 L120.320962,75.5605326" id="Path-14943"></path>
                            <path d="M128.164099,41.7591623 L128.219696,78.1704803" id="Path-14943"></path>
                            <path d="M145.596911,46.9790576 L145.652509,83.3903756" id="Path-14943"></path>
                            <path d="M137.698177,44.3691099 L137.753775,80.7804279" id="Path-14943"></path>
                            <path d="M153.495646,49.5890052 L153.551243,86.0003232" id="Path-14943"></path>
                            <path d="M164.027291,52.1989529 L164.082888,88.6102708" id="Path-14943"></path>
                            <path d="M179.82476,57.4188482 L179.880357,93.8301661" id="Path-14943"></path>
                            <path d="M171.926025,54.8089005 L171.981623,91.2202185" id="Path-14943"></path>
                            <path d="M187.723494,60.0287958 L187.779091,96.4401138" id="Path-14943"></path>
                            <path d="M195.622228,62.6387435 L195.677825,99.0500614" id="Path-14943"></path>
                            <path d="M213.05504,70.9905759 L213.110638,107.401894" id="Path-14943"></path>
                            <path d="M205.156306,68.3806282 L205.211904,104.791946" id="Path-14943"></path>
                            <path d="M220.953775,73.6005235 L221.009372,110.011841" id="Path-14943"></path>
                            <path d="M231.48542,76.2104712 L231.541017,112.621789" id="Path-14943"></path>
                            <path d="M247.282889,81.4303665 L247.338486,117.841684" id="Path-14943"></path>
                            <path d="M239.384154,78.8204188 L239.439752,115.231737" id="Path-14943"></path>
                            <path d="M255.181623,84.0403141 L255.23722,120.451632" id="Path-14943"></path>
                            <path d="M263.080357,86.6502617 L263.135954,123.06158" id="Path-14943"></path>
                            <path d="M271.769919,90.826178 L271.825517,127.237496" id="Path-14943"></path>
                            <path d="M280.195236,93.4361257 L280.250833,129.847444" id="Path-14943"></path>
                            <path d="M298.099033,98.656021 L298.154631,135.067339" id="Path-14943"></path>
                            <path d="M288.09397,96.0460733 L288.149567,132.457391" id="Path-14943"></path>
                            <path d="M305.997767,101.265969 L306.053365,137.677287" id="Path-14943"></path>
                            <path d="M320.215489,103.875916 L320.271086,140.287234" id="Path-14943"></path>
                            <path d="M313.896502,103.875916 L313.952099,140.287234" id="Path-14943"></path>
                        </g>
                        <g id="Group-4" transform="translate(481.559494, 71.773560) scale(-1, 1) translate(-481.559494, -71.773560) translate(317.002532, 0.000000)">
                            <path d="M16.9996404,5.65532747 L17.0552377,42.0666454" id="Path-14943"></path>
                            <path d="M10.6806529,3.56736932 L10.7362502,39.9786873" id="Path-14943"></path>
                            <path d="M4.36166549,1.47941118 L4.41726279,37.8907291" id="Path-14943"></path>
                            <path d="M25.4249569,7.74328562 L25.4805542,44.1546036" id="Path-14943"></path>
                            <path d="M33.8502735,11.9192019 L33.9058708,48.3305199" id="Path-14943"></path>
                            <path d="M50.1743243,16.1816754 L50.2299216,52.5929933" id="Path-14943"></path>
                            <path d="M42.2755901,14.0937172 L42.3311874,50.5050352" id="Path-14943"></path>
                            <path d="M58.0730585,18.791623 L58.1286558,55.202941" id="Path-14943"></path>
                            <path d="M65.9717926,21.9235601 L66.0273899,58.3348781" id="Path-14943"></path>
                            <path d="M83.4046052,28.7094241 L83.4602025,65.120742" id="Path-14943"></path>
                            <path d="M75.505871,26.0994764 L75.5614683,62.5107944" id="Path-14943"></path>
                            <path d="M91.3033394,31.3193717 L91.3589367,67.7306897" id="Path-14943"></path>
                            <path d="M101.834985,33.9293194 L101.890582,70.3406373" id="Path-14943"></path>
                            <path d="M117.632453,39.1492147 L117.688051,75.5605326" id="Path-14943"></path>
                            <path d="M109.733719,36.539267 L109.789316,72.950585" id="Path-14943"></path>
                            <path d="M125.531187,41.7591623 L125.586785,78.1704803" id="Path-14943"></path>
                            <path d="M133.429922,44.3691099 L133.485519,80.7804279" id="Path-14943"></path>
                            <path d="M150.862734,49.5890052 L150.918331,86.0003232" id="Path-14943"></path>
                            <path d="M142.964,46.9790576 L143.019597,83.3903756" id="Path-14943"></path>
                            <path d="M158.761468,52.1989529 L158.817066,88.6102708" id="Path-14943"></path>
                            <path d="M169.293114,54.8089005 L169.348711,91.2202185" id="Path-14943"></path>
                            <path d="M185.090582,60.0287958 L185.14618,96.4401138" id="Path-14943"></path>
                            <path d="M177.191848,57.4188482 L177.247445,93.8301661" id="Path-14943"></path>
                            <path d="M192.989316,62.6387435 L193.044914,99.0500614" id="Path-14943"></path>
                            <path d="M200.888051,65.2486911 L200.943648,101.660009" id="Path-14943"></path>
                            <path d="M218.320863,73.6005235 L218.37646,110.011841" id="Path-14943"></path>
                            <path d="M210.422129,70.9905759 L210.477726,107.401894" id="Path-14943"></path>
                            <path d="M226.219597,76.2104712 L226.275195,112.621789" id="Path-14943"></path>
                            <path d="M236.751243,78.8204188 L236.80684,115.231737" id="Path-14943"></path>
                            <path d="M252.548711,84.0403141 L252.604309,120.451632" id="Path-14943"></path>
                            <path d="M244.649977,81.4303665 L244.705574,117.841684" id="Path-14943"></path>
                            <path d="M260.447445,86.6502617 L260.503043,123.06158" id="Path-14943"></path>
                            <path d="M268.34618,89.2602094 L268.401777,125.671527" id="Path-14943"></path>
                            <path d="M277.035742,93.4361257 L277.091339,129.847444" id="Path-14943"></path>
                            <path d="M285.461059,96.0460733 L285.516656,132.457391" id="Path-14943"></path>
                            <path d="M303.364856,101.265969 L303.420453,137.677287" id="Path-14943"></path>
                            <path d="M293.359793,98.656021 L293.41539,135.067339" id="Path-14943"></path>
                            <path d="M311.26359,103.875916 L311.319187,140.287234" id="Path-14943"></path>
                            <path d="M325.481312,106.485864 L325.536909,142.897182" id="Path-14943"></path>
                            <path d="M319.162324,106.485864 L319.217922,142.897182" id="Path-14943"></path>
                        </g>
                    </g>
                    <mask id="mask-4" fill="white">
                        <use xlink:href="#path-3"></use>
                    </mask>
                    <use id="Path-5567" fill="#D82124" xlink:href="#path-3"></use>
                    <polyline id="Path-15022" stroke="#1F2228" stroke-width="7.9634015" mask="url(#mask-4)" points="15.7974684 219.923593 345.671545 331.463351 687.189873 216.625654"></polyline>
                </g>
                <path d="M335.827277,644.690835 C356.704597,630.533184 397.858056,594.071154 397.858056,594.071154 C397.858056,594.071154 447.517412,640.695378 500.105324,667.751201 C537.124679,686.797197 578.293579,689.144714 592.880494,689.144714 C609.41011,689.144714 632.4634,685.367369 646.563726,676.662783 C662.582652,666.773783 668.616447,651.806032 668.616447,651.806032 C668.616447,651.806032 675.439865,633.08514 671.189252,614.02701 C667.653676,598.17483 655.81517,582.076411 631.931581,576.443165 C610.144091,571.30431 596.704656,578.430332 589.944389,588.253576 C580.384625,602.144726 582.893824,621.675654 582.893824,621.675654 C582.893824,621.675654 592.163618,604.690357 605.219134,597.998536 C612.351232,594.342861 621.2993,593.348144 628.695741,597.998536 C635.253299,600.64585 646.563726,611.878522 642.503959,626.155451 C640.544424,633.046524 638.069276,635.878782 625.100896,642.351752 C612.132517,648.824721 593.830249,638.4988 593.830249,638.4988 C593.830249,638.4988 573.775255,622.373865 565.939721,614.027011 C558.02077,605.591296 549.175286,591.608373 539.422633,580.302623 C534.810694,574.956239 529.29981,567.84821 525.057715,563.308845 C514.270575,551.765783 506.764676,545.751618 506.764676,545.751618 C506.764676,545.751618 488.932878,525.536799 450.533384,523.37671 C412.13389,521.216621 396.144709,538.53551 396.144709,538.53551 C396.144709,538.53551 382.376473,522.12254 345.28129,523.37671 C308.186108,524.63088 288.596935,543.525581 288.596935,543.525581 C288.596935,543.525581 273.94864,556.613388 268.177534,563.308846 C254.847563,578.773868 231.293704,610.007021 231.293704,610.007021 C231.293704,610.007021 205.439356,636.542464 193.183798,642.35175 C189.259495,644.211919 182.884684,645.310607 178.017178,644.690835 C171.31081,643.836923 163.623225,640.072155 163.623225,640.072155 C163.623225,640.072155 148.81527,633.074607 148.81527,621.675653 C148.81527,610.2767 155.056807,604.879422 159.808155,600.808534 C164.559503,596.737646 172.188779,594.071155 179.447019,594.071155 C182.483516,594.071155 188.697614,597.720905 194.692727,602.906088 C203.027933,610.115223 211.105406,619.53891 211.105406,619.53891 C211.105406,619.53891 212.146075,603.97994 205.459448,591.498432 C198.772822,579.016923 183.397031,574.677353 178.541292,574.677356 C173.685552,574.677359 162.189605,572.363202 141.201862,585.377448 C120.214119,598.391694 119.977704,616.747698 119.977704,616.747698 C119.977704,616.747698 116.469762,637.976168 128.105508,657.319476 C139.741254,676.662784 171.630121,684.760962 171.630121,684.760962 C171.630121,684.760962 204.545887,689.955205 220.782822,687.970777 C242.155338,685.358694 284.458475,670.971429 284.458475,670.971429 C284.458475,670.971429 318.904737,656.166608 335.827277,644.690835 Z" id="Path-14923" fill="#000000"></path>
                <g id="Group-7" transform="translate(0.000000, 0.521990)">
                    <g id="Group-2" transform="translate(18.430380, 1.565969)">
                        <path d="M600.75661,348.682263 C526.108172,359.665143 462.331884,366.949269 376.005828,366.949269 C289.679772,366.949269 231.371969,366.949269 162.259524,361.763862 C135.599165,359.763575 115.350764,350.76564 99.2360032,345.393704 C73.5759877,336.839809 58.2492515,330.470178 43.0887624,323.185977 C-15.6531533,294.962087 2.82755133,228.576345 2.82755133,228.576345 C2.82755133,228.576345 11.5559829,205.284805 51.8856957,194.524276 C92.2154085,183.763748 234.503364,217.211128 234.503364,217.211128 C234.503364,217.211128 254.139382,2.63818329 376.005845,1.1001063 C497.872309,-0.437970696 544.013897,208.244301 544.013897,208.244301 C544.013897,208.244301 709.11055,165.418632 745.995725,171.15091 C782.8809,176.883188 794.583403,215.034509 794.583403,215.034509 C794.583403,215.034509 794.142652,231.096985 788.679373,260.991571 C783.216094,290.886157 733.446208,309.250513 733.446208,309.250513 C733.446208,309.250513 675.405047,337.699384 600.75661,348.682263 Z" id="Path-14938" fill="#CA8240"></path>
                        <path d="M544.48717,212.351265 C538.157094,178.059542 526.367408,142.150332 514.750996,119.999492 C503.577169,98.6926 485.163193,60.8868922 460.97369,39.0328465 C448.293483,27.5768929 434.438745,17.925299 422.943962,12.2820307 C407.456151,4.67841813 396.087492,3.17090729 396.087492,3.17090729 C396.087492,3.17090729 420.701708,36.7728689 439.915811,80.3676704 C453.53797,111.274932 461.429788,149.271157 469.34564,174.673759 C482.808426,217.876914 493.719416,303.951806 493.719416,303.951806 L553.667275,298.721711 C553.667275,298.721711 553.320884,260.205861 544.48717,212.351265 Z" id="Path-14940" fill="#AD6D33"></path>
                        <path d="M546.695629,235.94739 C546.695629,235.94739 715.975949,198.342039 738.842751,206.620658 C761.709552,214.899277 764.945986,222.566127 764.945986,222.566127 L789.239463,201.525764 C789.239463,201.525764 780.434078,186.110696 764.945982,177.034173 C755.617704,171.567502 743.594545,169.649519 731.070553,169.649519 C697.752497,169.649519 542.775185,208.531141 542.775185,208.531141 L546.695629,235.94739 Z" id="Path-14941" fill="#AD6D33"></path>
                        <path d="M53.8329975,236.879546 C77.1495803,224.320779 231.677571,241.629149 231.677571,241.629149 L234.567611,217.233609 C234.567611,217.233609 104.882141,184.060882 55.519219,193.684737 C6.15629715,203.308591 2.43793985,230.628565 2.43793985,230.628565 L35.722407,260.174292 C35.722407,260.174292 30.5164147,249.438314 53.8329975,236.879546 Z" id="Path-14942" fill="#AD6D33"></path>
                    </g>
                    <g id="Group-9" transform="translate(0.000000, 214.015707)">
                        <polygon id="Path-15023" fill="#C41618" transform="translate(622.420253, 109.878796) scale(1, -1) rotate(10.000000) translate(-622.420253, -109.878796) " points="596.091139 132.063351 621.359965 87.6942409 648.749367 132.063349"></polygon>
                        <polygon id="Path-15023" fill="#19974E" points="363.341772 151.376963 388.610598 107.007853 416 151.376962"></polygon>
                        <polygon id="Path-15023" fill="#19974E" transform="translate(458.126582, 126.582461) rotate(-4.000000) translate(-458.126582, -126.582461) " points="431.797468 148.767016 457.066295 104.397906 484.455696 148.767014"></polygon>
                        <polygon id="Path-15023" fill="#C41618" transform="translate(423.898734, 129.192408) scale(1, -1) translate(-423.898734, -129.192408) " points="397.56962 151.376963 422.838446 107.007853 450.227848 151.376962"></polygon>
                        <polygon id="Path-15023" fill="#19974E" transform="translate(523.949367, 122.406544) rotate(-5.000000) translate(-523.949367, -122.406544) " points="497.620253 144.591099 522.889079 100.221989 550.278481 144.591098"></polygon>
                        <polygon id="Path-15023" fill="#19974E" transform="translate(588.192405, 113.532723) rotate(-9.000000) translate(-588.192405, -113.532723) " points="561.863291 135.717277 587.132117 91.3481675 614.521519 135.717276"></polygon>
                        <polygon id="Path-15023" fill="#C41618" transform="translate(556.070886, 118.230628) scale(1, -1) rotate(9.000000) translate(-556.070886, -118.230628) " points="529.741772 140.415183 555.010598 96.0460732 582.4 140.415182"></polygon>
                        <polygon id="Path-15023" fill="#C41618" transform="translate(491.827848, 124.494503) scale(1, -1) rotate(7.000000) translate(-491.827848, -124.494503) " points="465.498734 146.679058 490.76756 102.309948 518.156962 146.679056"></polygon>
                        <polygon id="Path-15023" fill="#19974E" transform="translate(656.121519, 102.048953) rotate(-11.000000) translate(-656.121519, -102.048953) " points="629.792405 124.233508 655.061231 79.8643978 682.450633 124.233506"></polygon>
                        <polygon id="Path-15023" fill="#19974E" transform="translate(723.524051, 79.603403) rotate(-24.000000) translate(-723.524051, -79.603403) " points="697.194937 101.787958 722.463763 57.4188482 749.853165 101.787957"></polygon>
                        <polygon id="Path-15023" fill="#C41618" transform="translate(687.902730, 92.643485) scale(1, -1) rotate(13.000000) translate(-687.902730, -92.643485) " points="663.126168 110.712782 692.783242 68.8779959 712.679292 116.408975"></polygon>
                        <path d="M798.551845,66.2822584 C795.799415,68.4394584 788.935426,71.4097324 788.935426,71.4097324 L760.774721,71.4097332 L786.043547,27.0406232 L805.445292,58.4702305 C805.445292,58.4702305 801.302704,64.1262911 798.551845,66.2822584 Z" id="Path-15023" fill="#19974E" transform="translate(783.110007, 49.225178) rotate(-29.000000) translate(-783.110007, -49.225178) "></path>
                        <polygon id="Path-15023" fill="#C41618" transform="translate(804.180106, 25.921229) scale(1, -1) rotate(35.000000) translate(-804.180106, -25.921229) " points="825.142851 40.1863711 783.217362 40.1863722 799.465758 11.6560851"></polygon>
                        <polygon id="Path-15023" fill="#C41618" transform="translate(756.172152, 66.553665) scale(1, -1) rotate(28.000000) translate(-756.172152, -66.553665) " points="729.843038 88.7382199 755.111864 44.3691099 782.501266 88.7382185"></polygon>
                        <polygon id="Path-15023" fill="#19974E" transform="translate(118.960003, 104.658901) rotate(17.000000) translate(-118.960003, -104.658901) " points="92.6308892 126.843456 117.899715 82.4743456 145.289117 126.843454"></polygon>
                        <polygon id="Path-15023" fill="#19974E" transform="translate(187.588597, 122.882285) rotate(8.000000) translate(-187.588597, -122.882285) " points="161.259483 145.06684 186.528309 100.69773 213.917711 145.066839"></polygon>
                        <polygon id="Path-15023" fill="#C41618" transform="translate(155.501018, 116.058114) scale(1, -1) rotate(-12.000000) translate(-155.501018, -116.058114) " points="129.171904 138.242669 154.440731 93.8735586 181.830132 138.242667"></polygon>
                        <polygon id="Path-15023" fill="#19974E" points="229.063291 148.767016 254.332117 104.397906 281.721519 148.767014"></polygon>
                        <polygon id="Path-15023" fill="#19974E" points="297.518987 148.767016 322.787814 104.397906 350.177215 148.767014"></polygon>
                        <polygon id="Path-15023" fill="#C41618" transform="translate(289.620253, 126.582461) scale(1, -1) translate(-289.620253, -126.582461) " points="263.291139 148.767016 288.559965 104.397906 315.949367 148.767014"></polygon>
                        <polygon id="Path-15023" fill="#C41618" transform="translate(358.075949, 126.582461) scale(1, -1) translate(-358.075949, -126.582461) " points="331.746835 148.767016 357.015662 104.397906 384.405063 148.767014"></polygon>
                        <polygon id="Path-15023" fill="#C41618" transform="translate(221.164557, 126.582461) scale(1, -1) rotate(-3.000000) translate(-221.164557, -126.582461) " points="194.835443 148.767016 220.104269 104.397906 247.493671 148.767014"></polygon>
                        <path d="M44.9468462,99.0387752 C44.9468462,99.0387752 39.6450491,96.865667 37.3075212,95.5500127 C35.3262717,94.4348861 31.7941905,92.3744656 31.7941905,92.3744656 L53.1062494,54.6696657 L80.4956511,99.0387743 L44.9468462,99.0387752 Z" id="Path-15023" fill="#19974E" transform="translate(56.144921, 76.854220) rotate(29.000000) translate(-56.144921, -76.854220) "></path>
                        <path d="M5.71601932,69.7388172 C5.71601932,69.7388172 13.1843441,58.7743093 17.8503238,53.987248 C22.3459317,49.3749796 33.2007822,41.5408282 33.2007822,41.5408282 L50.6076231,69.738816 L5.71601932,69.7388172 Z" id="Path-15023" fill="#C41618" transform="translate(28.161821, 55.639823) scale(1, -1) rotate(-37.000000) translate(-28.161821, -55.639823) "></path>
                        <polygon id="Path-15023" fill="#C41618" transform="translate(85.638769, 93.257612) scale(1, -1) rotate(-23.000000) translate(-85.638769, -93.257612) " points="59.3096548 115.442167 84.578481 71.0730569 111.967883 115.442165"></polygon>
                    </g>
                    <path d="M21.7422113,234.569997 C21.7422113,234.569997 33.5768376,253.052242 66.5104219,271.088974 C95.0025067,286.69323 133.770343,302.532522 187.64796,309.719112 C240.583978,316.780105 308.110214,315.317156 394.366547,316.13759 C540.691968,317.529375 647.01345,298.810299 715.868386,271.088972 C780.70011,244.987409 807.229844,204.700171 807.229844,204.700171" id="Path-14939" stroke="#FFFFFF" stroke-width="3.7721376"></path>
                </g>
            </g>
        </g>
    </g>
</svg>