<?xml version="1.0" encoding="UTF-8" standalone="no"?>
<svg width="1200px" height="1200px" viewBox="0 0 1200 1200" version="1.1" xmlns="http://www.w3.org/2000/svg" xmlns:xlink="http://www.w3.org/1999/xlink">
    <!-- Generator: Sketch 42 (36781) - http://www.bohemiancoding.com/sketch -->
    <title>43</title>
    <desc>Created with Sketch.</desc>
    <defs>
        <polyline id="path-1" points="0 846.622918 710.636541 846.622918 710.636541 1.47131556 0 1.47131556"></polyline>
    </defs>
    <g id="Page-1" stroke="none" stroke-width="1" fill="none" fill-rule="evenodd">
        <g id="43">
            <g id="Group-17" transform="translate(192.000000, 172.000000)">
                <g id="Group-4">
                    <g id="Group-12" transform="translate(61.445783, 4.919540)">
                        <g id="Group-2" transform="translate(3.487904, 0.499763)">
                            <g id="Group-3" transform="translate(3.026570, 0.000000)">
                                <mask id="mask-2" fill="white">
                                    <use xlink:href="#path-1"></use>
                                </mask>
                                <g id="Clip-2"></g>
                                <path d="M683.842018,481.765429 C679.811998,424.649205 666.4335,370.126279 645.361897,319.487132 C639.780747,306.074734 633.849342,292.839059 627.207002,280.008201 C650.747071,266.262908 666.57944,241.047107 666.57944,212.124249 C666.57944,168.535498 630.730403,133.201321 586.504428,133.201321 L98.0464396,133.201321 C53.8225501,133.201321 17.9714279,168.535498 17.9714279,212.124249 C17.9714279,241.024503 33.7808638,266.223864 57.2917445,279.975322 C50.6494047,292.804125 44.7179996,306.033636 39.1389345,319.441924 C18.054822,370.091345 4.67215427,424.628656 0.640049693,481.759264 C0.333576387,488.556906 0,495.348384 0,502.220003 C0,551.593325 8.14760326,599.063801 22.9813282,643.540273 C27.4033002,656.06084 35.9094981,677.620955 46.3316753,692.017655 C47.4700048,693.495135 48.5437038,694.937682 49.840482,696.491194 L50.3012343,697.048074 C54.9233522,702.526465 60.5274355,708.389123 67.2698482,714.206573 C74.0748065,720.026078 81.9576335,725.845583 90.9287535,730.71161 C99.7956308,735.550923 110.142753,739.459362 120.352276,740.75601 C131.035059,742.266369 142.307856,740.460103 150.914127,734.507029 C159.685101,728.701908 165.958422,718.540378 169.58815,707.051376 C176.828843,683.777466 176.026175,657.406806 173.809977,633.55752 C171.385293,609.513018 166.963321,587.165872 162.574707,568.178504 C153.666132,530.177053 144.924346,505.501694 144.924346,505.501694 C144.924346,505.501694 155.365287,529.490713 166.98417,567.023645 C172.730023,585.799357 178.767756,607.969781 182.970818,632.357453 C186.852813,656.695807 189.984262,683.508273 183.656735,710.914607 C180.408534,724.380432 173.632764,738.581915 161.298777,748.1804 C148.952281,757.941222 133.516034,760.959885 119.651765,761.290726 C105.057798,761.389361 92.1004405,758.10767 80.3502123,753.697833 C78.9179187,753.153282 77.69828,752.450503 76.3076834,751.871018 C97.7941725,783.810484 123.381566,812.770331 152.15253,838.339576 C167.499128,846.655797 192.506933,852.799978 225.633153,835.84697 C283.387735,806.289145 341.146486,803.005399 341.146486,803.005399 C341.146486,803.005399 398.903153,806.289145 456.657735,835.84697 C495.467263,855.707675 523.137424,843.885778 537.158056,833.987277 C563.869186,809.550287 587.757425,782.174776 607.997172,752.140211 C606.700394,752.676543 605.566234,753.332059 604.234013,753.839622 C592.4817,758.249459 579.526427,761.533205 564.930375,761.434569 C551.068192,761.101674 535.631944,758.083011 523.285448,748.322189 C510.951461,738.723704 504.175691,724.522221 500.927491,711.056396 C494.599964,683.650061 497.729327,656.837596 501.613407,632.499242 C505.814385,608.113625 511.854203,585.941146 517.597971,567.165433 C529.218938,529.632502 539.659879,505.643483 539.659879,505.643483 C539.659879,505.643483 530.918093,530.318842 522.009519,568.320293 C517.620904,587.309716 513.198932,609.654807 510.774249,633.699309 C508.558051,657.550649 507.753298,683.919255 514.996075,707.193165 C518.625803,718.682167 524.897039,728.843697 533.670098,734.648818 C542.276369,740.601892 553.549166,742.408158 564.23195,740.899854 C574.439387,739.601151 584.78651,735.692712 593.655472,730.853399 C602.626592,725.987372 610.507334,720.169922 617.312293,714.348362 C626.475219,706.445178 633.407353,698.533774 638.732066,691.54708 C647.040203,679.899851 654.101598,663.80785 658.817534,651.492775 C675.396281,604.751792 684.482068,554.542121 684.482068,502.220003 C684.482068,495.350439 684.148491,488.561016 683.842018,481.765429" id="Fill-1" fill="#F6C823" mask="url(#mask-2)"></path>
                            </g>
                            <path d="M271.952002,271.84866 C271.952002,311.625553 239.236497,343.871201 198.880009,343.871201 C158.523521,343.871201 125.810102,311.625553 125.810102,271.84866 C125.810102,232.071768 158.523521,199.82612 198.880009,199.82612 C239.236497,199.82612 271.952002,232.071768 271.952002,271.84866" id="Fill-4" fill="#FFFFFF"></path>
                            <path d="M231.399537,271.84866 C231.399537,289.549655 216.838928,303.899092 198.880009,303.899092 C180.92109,303.899092 166.362566,289.549655 166.362566,271.84866 C166.362566,254.147666 180.92109,239.798229 198.880009,239.798229 C216.838928,239.798229 231.399537,254.147666 231.399537,271.84866" id="Fill-5" fill="#25282C"></path>
                            <path d="M99.5597247,175.874089 C77.3727252,175.874089 59.3867034,193.601798 59.3867034,215.468095 C59.3867034,229.651084 67.0151784,241.996983 78.3859635,248.989842 C92.2877595,226.486522 107.799061,205.06614 124.863579,184.950627 C117.939784,179.363326 109.206337,175.874089 99.5597247,175.874089" id="Fill-6" fill="#25282C"></path>
                            <path d="M588.017713,175.874089 C578.352338,175.874089 569.604297,179.377711 562.674247,184.983505 C579.73251,205.099019 595.239642,226.517346 609.139353,249.01861 C620.537241,242.031916 628.190735,229.673688 628.190735,215.468095 C628.190735,193.601798 610.204713,175.874089 588.017713,175.874089" id="Fill-7" fill="#25282C"></path>
                            <path d="M194.353795,248.632287 C194.353795,258.349957 186.362555,266.228482 176.503288,266.228482 C166.644021,266.228482 158.652782,258.349957 158.652782,248.632287 C158.652782,238.914618 166.644021,231.038148 176.503288,231.038148 C186.362555,231.038148 194.353795,238.914618 194.353795,248.632287" id="Fill-8" fill="#FFFFFF"></path>
                            <path d="M561.698536,271.84866 C561.698536,311.625553 528.983032,343.871201 488.626544,343.871201 C448.270056,343.871201 415.554551,311.625553 415.554551,271.84866 C415.554551,232.071768 448.270056,199.82612 488.626544,199.82612 C528.983032,199.82612 561.698536,232.071768 561.698536,271.84866" id="Fill-9" fill="#FFFFFF"></path>
                            <path d="M521.143987,271.84866 C521.143987,289.549655 506.585463,303.899092 488.626544,303.899092 C470.667625,303.899092 456.109101,289.549655 456.109101,271.84866 C456.109101,254.147666 470.667625,239.798229 488.626544,239.798229 C506.585463,239.798229 521.143987,254.147666 521.143987,271.84866" id="Fill-10" fill="#25282C"></path>
                            <path d="M484.100329,248.632287 C484.100329,258.349957 476.10909,266.228482 466.249823,266.228482 C456.390556,266.228482 448.399316,258.349957 448.399316,248.632287 C448.399316,238.914618 456.390556,231.038148 466.249823,231.038148 C476.10909,231.038148 484.100329,238.914618 484.100329,248.632287" id="Fill-11" fill="#FFFFFF"></path>
                            <path d="M442.011329,410.918804 C442.011329,465.00198 397.531002,508.84554 342.659771,508.84554 C287.788541,508.84554 243.306129,465.00198 243.306129,410.918804 C243.306129,356.835628 287.788541,312.992068 342.659771,312.992068 C397.531002,312.992068 442.011329,356.835628 442.011329,410.918804" id="Fill-12" fill="#FFFFFF"></path>
                            <path d="M336.211323,508.524974 C338.352466,508.660598 340.479016,508.84554 342.655602,508.84554 C344.832188,508.84554 346.962907,508.660598 349.106135,508.524974 L349.106135,381.245904 L336.211323,381.245904 L336.211323,508.524974" id="Fill-13" fill="#25282C"></path>
                            <path d="M394.207748,357.450046 C394.207748,356.097915 393.947141,354.815651 393.573952,353.582705 C393.413419,352.976507 393.282073,352.618953 393.282073,352.618953 L393.271649,352.618953 C392.806727,351.412721 392.177101,350.301014 391.405706,349.285889 L391.409876,349.273559 C391.409876,349.273559 385.572289,337.414674 343.2477,337.299599 L343.2477,337.289324 L342.953736,337.293434 L342.657687,337.289324 L342.657687,337.299599 C318.033495,337.365356 305.789156,341.397089 299.836903,344.769197 C296.242617,346.189139 293.421812,349.045464 292.045809,352.618953 L292.024961,352.618953 C292.024961,352.618953 291.870682,353.038154 291.693469,353.740934 C291.351553,354.928672 291.111795,356.155453 291.111795,357.450046 L291.145153,357.791161 C290.892886,363.941507 292.940211,374.777047 307.094274,385.892055 C321.023173,396.826231 331.718466,400.39561 337.599835,401.579238 C338.048078,401.679929 338.502576,401.739521 338.961243,401.813498 C341.273345,402.183382 342.649347,402.181327 342.649347,402.181327 L342.657687,402.181327 C342.657687,402.181327 344.027435,402.181327 346.333281,401.815553 C346.802373,401.739521 347.271465,401.677874 347.730133,401.575128 C353.617756,400.38739 364.304709,396.809792 378.21276,385.892055 C392.308447,374.822255 394.395384,364.029868 394.163966,357.867193 L394.207748,357.450046" id="Fill-14" fill="#25282C"></path>
                            <path d="M55.4421626,662.735695 C55.4421626,662.735695 50.1320435,655.931888 44.2840325,644.424392 C38.4047487,632.970323 32.4358162,616.783797 28.6267908,600.134917 C24.753135,583.488091 22.9080406,566.502205 22.534852,553.749433 C22.2012756,540.980223 23.0101984,532.454401 23.0101984,532.454401 C23.0101984,532.454401 23.6460784,534.515476 24.5217164,538.132117 C25.3723362,541.738484 26.5878051,546.888089 28.045117,553.069258 C30.8450738,565.406938 34.2141953,581.794845 38.0482389,598.012195 C41.7009003,614.276807 45.9394053,630.368807 49.4377877,642.453733 C51.2182516,648.519827 52.7005817,653.572851 53.7388382,657.111406 C54.8959313,660.656126 55.4421626,662.735695 52.4155925,662.735695" id="Fill-16" fill="#FFFFFF"></path>
                            <path d="M98.2817102,146.129267 C98.2817102,146.129267 92.3023534,148.385558 84.5070902,152.998831 C80.5792283,155.230463 76.2052079,158.043635 71.8291027,161.368479 C67.4196398,164.646061 63.0873165,168.540115 59.1031635,172.740351 C54.9960042,176.852226 51.5497432,181.516872 48.2494218,185.926709 C45.2847616,190.544092 42.4034956,194.873787 40.3103038,198.880861 C37.9502508,202.758477 36.309472,206.218945 35.0981727,208.641684 C33.8556007,211.056203 33.0049809,212.432993 33.0049809,212.432993 C33.0049809,212.432993 33.01749,210.871261 33.286436,208.144396 C33.7075762,205.466848 33.6888125,201.400181 35.1419546,196.879379 C36.1551929,192.210624 38.2796575,187.030195 40.9440989,181.609343 C43.8337044,176.297401 47.6052024,170.975184 52.0688714,166.205738 C61.1463189,156.759316 72.9799412,150.302789 82.3867953,147.966356 C91.799904,145.434707 98.2817102,146.129267 98.2817102,146.129267" id="Fill-17" fill="#FFFFFF"></path>
                            <path d="M25.7258463,360.223404 C25.7258463,360.223404 201.266915,553.254511 345.028998,553.254511 C488.79108,553.254511 667.35872,363.263264 667.35872,363.263264 C667.35872,363.263264 678.324425,394.216793 685.518141,437.739833 C692.633857,480.790967 691.505291,536.094288 679.465,594.292621 C661.958495,678.912621 615.188121,749.224283 590.181181,781.244008 C580.602001,793.50951 573.535045,799.483168 573.535045,799.483168 C573.535045,799.483168 420.668761,804.042958 345.564516,804.042958 C268.331396,804.042958 116.522951,799.483168 116.522951,799.483168 C116.522951,799.483168 104.340976,789.449867 92.3103898,773.644358 C64.8369335,737.550361 18.6822795,664.38274 6.05314031,574.533531 C-12.1062806,445.339483 25.7258463,360.223404 25.7258463,360.223404 Z" id="Path-3" fill="#8A2410"></path>
                        </g>
                        <path d="M218.746988,664.137931 L218.746988,538.689655 L9.8313253,425.54023 C9.8313253,425.54023 -1.01504549,506.767663 2.45783133,543.609195 C5.93070815,580.450728 34.4096386,686.275862 34.4096386,686.275862 L218.746988,664.137931 Z" id="Path-9" fill="#003C37"></path>
                        <g id="Group" transform="translate(97.453294, 620.075915) scale(-1, 1) translate(-97.453294, -620.075915) translate(10.200282, 508.156375)">
                            <path d="M10.5929955,80.5562887 C10.5929955,80.5562887 -23.91107,212.152618 36.3188419,221.909777 C83.2306793,229.509426 106.813175,204.289704 128.629232,174.791947 C166.212635,123.974968 166.461359,83.5961487 166.461359,83.5961487 L10.5929955,80.5562887 Z" id="Path-4" fill="#F6C823"></path>
                            <polyline id="Path-5" fill="#05322E" points="31.7789866 3.03985995 16.6461359 75.9964988 9.07971047 79.0363588 33.2922717 0"></polyline>
                            <polygon id="Path-6" fill="#05322E" points="3.02657016 101.835308 174.027784 107.915028 174.027784 75.9964988 12.1062806 71.4367089"></polygon>
                        </g>
                        <path d="M48.9414848,386.60085 C48.9414848,386.60085 200.453421,564.467643 351.965357,557.960321 C503.477294,551.452999 652.824774,390.939064 652.824774,390.939064" id="Path-2" stroke="#FFFFFF" stroke-width="28.114944"></path>
                        <path d="M334.649708,573.144071 C334.649708,575.313179 300.018408,711.966934 300.018408,711.966934 L345.471989,714.136041 L349.800901,566.63675 C349.800901,566.63675 334.649708,570.974964 334.649708,573.144071 Z" id="Path-8" fill="#FFFFFF"></path>
                        <path d="M384.432201,573.144071 C384.432201,575.313179 349.800901,711.966934 349.800901,711.966934 L395.254482,714.136041 L399.583395,566.63675 C399.583395,566.63675 384.432201,570.974964 384.432201,573.144071 Z" id="Path-8" fill="#FFFFFF" transform="translate(374.692148, 640.386396) scale(-1, 1) translate(-374.692148, -640.386396) "></path>
                        <path d="M297.853952,536.269249 L325.991883,590.496929 L373.60992,590.496929 L399.583395,536.269249 C399.583395,536.269249 366.428392,542.77657 348.718673,542.77657 C331.008955,542.77657 297.853952,536.269249 297.853952,536.269249 Z" id="Path-7" fill="#D8D8D8"></path>
                    </g>
                    <path d="M755.240038,669.057471 L755.240038,543.609195 L546.324375,430.45977 C546.324375,430.45977 535.478004,511.687203 538.950881,548.528736 C542.423758,585.370268 570.902688,691.195402 570.902688,691.195402 L755.240038,669.057471 Z" id="Path-9" fill="#003C37" transform="translate(646.752549, 560.827586) scale(-1, 1) translate(-646.752549, -560.827586) "></path>
                    <path d="M212.33314,592.736738 C212.33314,592.736738 149.159252,581.172763 162.32377,565.912312 C175.488287,550.654636 232.10098,548.459507 243.369807,527.368503 C251.384365,512.391116 235.149882,494.241752 235.149882,494.241752 L203.997367,448.46595 C203.997367,448.46595 167.265108,397.604199 169.148795,340.721443 C170.257382,307.244811 194.113466,228.792755 201.659367,222.459903 C243.780558,187.126922 227.834028,191.248014 314.656655,183.094676 C401.474017,174.941338 404.048996,130.999898 404.048996,130.999898 C420.206008,154.892635 431.579971,171.953085 478.344828,183.094676 C525.109684,194.236266 599.553261,197.964395 614.340648,210.085666 C625.425172,219.176998 652.23456,304.772828 653.676231,340.721443 C655.773884,393.027236 612.002633,448.46595 612.002633,448.46595 C612.002633,448.46595 600.812793,491.236284 546.632904,494.702424 C552.109343,495.651519 557.412011,495.98176 562.145971,495.98176 C572.9988,495.98176 580.850118,494.241752 580.850118,494.241752 C580.850118,494.241752 564.620901,512.391116 572.630193,527.368503 C583.89902,548.459507 640.516978,550.654636 653.67623,565.912312 C666.840748,581.172763 603.66686,592.736738 603.66686,592.736738 C603.66686,592.736738 607.558292,593.247362 614.340651,593.247362 C627.921168,593.247362 653.081194,591.193765 681.75878,578.861078 C724.754095,560.364823 712.463701,521.060628 712.463701,521.060628 C712.463701,521.060628 744.111201,535.435812 773.705037,535.435812 C790.529291,535.435812 806.695319,530.784691 816,516.204147 C806.842761,519.195739 798.638634,520.483401 791.429744,520.483401 C753.321098,520.480626 751.821181,484.503814 777.276093,474.588267 C807.549218,462.799506 812.050645,433.66062 785.732141,408.692757 C759.408371,383.72212 818.632904,362.217621 809.417741,340.721449 C800.207845,319.216951 758.969186,305.346841 755.025096,280.376203 C751.075741,255.405565 778.681435,231.47146 768.155086,220.373707 C757.623472,209.275954 756.326854,203.666303 751.066313,189.793418 C747.220846,179.664476 746.891284,151.156788 701.28382,105.198236 C655.676355,59.2396828 660.722911,52.9336405 640.370861,29.9843661 C582.515438,-35.2451121 471.431912,29.2794826 428.81047,29.2794826 C415.840787,29.2794826 408,29.9843661 408,29.9843661 C408,29.9843661 400.169745,29.2794826 387.194796,29.2794826 C344.568088,29.2794826 220.168661,-35.2423369 162.32377,29.9843661 C139.193941,56.065905 109.353004,85.6506702 93.071618,105.198236 C76.7902321,124.745801 53.6625944,190.99226 50.0146358,200.610583 C44.7435629,214.483468 60.5409842,217.952383 50.0146358,229.050136 C39.4882875,240.147889 62.7650684,257.574672 58.8104473,282.54531 C54.8716236,307.515948 24.4499804,319.216951 15.2400838,340.721449 C6.02492138,362.217621 56.5968947,383.72212 30.273125,408.692757 C3.95462113,433.66062 17.1086073,462.799506 47.3817323,474.588267 C72.8366438,484.503814 62.6894335,520.483401 24.5702559,520.483401 C17.3666318,520.483401 9.15197274,519.195739 0,516.204147 C9.30468115,530.787466 25.4654431,535.435812 42.2949626,535.435812 C71.8887985,535.435812 103.536299,521.060628 103.536299,521.060628 C103.536299,521.060628 91.2511713,560.364823 134.251752,578.861078 C162.924072,591.19654 188.084098,593.247362 201.659349,593.247362 C208.441708,593.247362 212.33314,592.736738 212.33314,592.736738 Z" id="Fill-58" fill="#1F2228"></path>
                    <g id="Group" transform="translate(570.216867, 514.091954)">
                        <path d="M10.5929955,80.5562887 C10.5929955,80.5562887 -23.91107,212.152618 36.3188419,221.909777 C83.2306793,229.509426 106.813175,204.289704 128.629232,174.791947 C166.212635,123.974968 166.461359,83.5961487 166.461359,83.5961487 L10.5929955,80.5562887 Z" id="Path-4" fill="#F6C823"></path>
                        <polyline id="Path-5" fill="#05322E" points="31.7789866 3.03985995 16.6461359 75.9964988 9.07971047 79.0363588 33.2922717 0"></polyline>
                        <polygon id="Path-6" fill="#05322E" points="3.02657016 101.835308 174.027784 107.915028 174.027784 75.9964988 12.1062806 71.4367089"></polygon>
                    </g>
                </g>
            </g>
        </g>
    </g>
</svg>