<?xml version="1.0" encoding="UTF-8" standalone="no"?>
<svg width="1200px" height="1200px" viewBox="0 0 1200 1200" version="1.1" xmlns="http://www.w3.org/2000/svg" xmlns:xlink="http://www.w3.org/1999/xlink">
    <!-- Generator: Sketch 42 (36781) - http://www.bohemiancoding.com/sketch -->
    <title>44</title>
    <desc>Created with Sketch.</desc>
    <defs>
        <polyline id="path-1" points="0 889 731.024961 889 731.024961 1.54496117 0 1.54496117"></polyline>
        <path d="M413.442844,118.003339 C395.667362,121.432461 360.199387,125.446549 360.199387,125.446549 L441.708469,168.946312 L442.155166,109.636215 C442.155166,109.636215 422.985955,116.162349 413.442844,118.003339 Z" id="path-3"></path>
        <filter x="-50%" y="-50%" width="200%" height="200%" filterUnits="objectBoundingBox" id="filter-4">
            <feOffset dx="0" dy="8" in="SourceAlpha" result="shadowOffsetOuter1"></feOffset>
            <feGaussianBlur stdDeviation="4" in="shadowOffsetOuter1" result="shadowBlurOuter1"></feGaussianBlur>
            <feColorMatrix values="0 0 0 0 0   0 0 0 0 0   0 0 0 0 0  0 0 0 0.203294837 0" type="matrix" in="shadowBlurOuter1"></feColorMatrix>
        </filter>
        <path d="M325.346041,118.097662 C307.570559,121.526783 272.102585,125.540871 272.102585,125.540871 L353.611666,169.040634 L354.058364,109.730537 C354.058364,109.730537 334.889152,116.256672 325.346041,118.097662 Z" id="path-5"></path>
        <filter x="-50%" y="-50%" width="200%" height="200%" filterUnits="objectBoundingBox" id="filter-6">
            <feOffset dx="0" dy="8" in="SourceAlpha" result="shadowOffsetOuter1"></feOffset>
            <feGaussianBlur stdDeviation="4" in="shadowOffsetOuter1" result="shadowBlurOuter1"></feGaussianBlur>
            <feColorMatrix values="0 0 0 0 0   0 0 0 0 0   0 0 0 0 0  0 0 0 0.203294837 0" type="matrix" in="shadowBlurOuter1"></feColorMatrix>
        </filter>
        <path d="M0,68.6686467 C0,36.1777837 26.332461,8.96692773 58.7959845,7.89213486 L139.570866,5.21786363 C185.581319,3.69456297 217.68647,39.4093029 211.279585,84.9899899 L208.991974,101.264802 C204.469002,133.442713 175.799932,167.847903 144.889974,177.820932 C144.889974,177.820932 122.902692,185.842848 112.491402,186.935968 C102.080111,188.029089 58.6793929,184.585078 58.6793929,184.585078 C26.2716591,182.390293 0,154.27881 0,121.781156 L0,68.6686467 Z" id="path-7"></path>
        <mask id="mask-8" maskContentUnits="userSpaceOnUse" maskUnits="objectBoundingBox" x="0" y="0" width="212.063355" height="181.982668" fill="white">
            <use xlink:href="#path-7"></use>
        </mask>
        <path d="M294.845846,67.8074696 C294.845846,35.3166067 321.150822,7.69194756 353.605375,6.10578696 L434.476156,2.15336628 C480.453779,-0.0937111213 512.643604,35.0514543 506.37387,80.6542773 L503.661757,100.380792 C499.236022,132.571313 470.645779,166.986726 439.73582,176.959755 C439.73582,176.959755 417.748538,184.981671 407.337248,186.074791 C396.925957,187.167912 353.525239,183.723901 353.525239,183.723901 C321.117505,181.529116 294.845846,153.417632 294.845846,120.919979 L294.845846,67.8074696 Z" id="path-9"></path>
        <mask id="mask-10" maskContentUnits="userSpaceOnUse" maskUnits="objectBoundingBox" x="0" y="0" width="212.279362" height="184.241646" fill="white">
            <use xlink:href="#path-9"></use>
        </mask>
    </defs>
    <g id="Page-1" stroke="none" stroke-width="1" fill="none" fill-rule="evenodd">
        <g id="44">
            <g id="Group" transform="translate(200.000000, 156.000000)">
                <path d="M117.092713,267.499421 C112.404567,273.224779 86.5704396,301.766766 79.2394264,313.091693 C60.8434532,341.509736 26.1211123,380.677499 26.1211123,380.677499 C26.1211123,380.677499 22.0276385,377.121605 18.8692657,348.048507 C18.8692657,348.048507 37.652493,316.489976 37.2693995,313.091693 C36.0957955,302.727202 42.1523223,292.327137 44.0009006,281.984535 C42.6023052,280.985845 39.9267313,280.383895 37.3180468,280.474187 C40.0301058,279.396149 42.7421647,278.31811 45.4542237,277.237336 C41.6476118,270.161683 44.7853302,262.385579 53.8822813,256.366076 C55.4937065,255.298982 57.3544464,254.18811 57.372689,252.899389 C57.4395783,248.570819 39.5618804,248.726778 37.2694001,244.521334 C54.4295578,244.097233 70.799205,239.516938 79.2394243,232.786039 C81.677845,230.840645 83.4838574,228.747499 85.9222781,226.804841 C89.0113497,224.345053 93.0794381,222.164351 97.0380713,219.972705 C111.157804,212.150086 124.213388,203.938936 136.113611,195.402186 C136.435896,197.632138 136.758181,199.864827 137.074385,202.097516 C145.684868,193.790601 162.723409,187.346996 182.394958,184.958347 C182.492251,186.632864 243.08691,158.678766 337.075981,163.068889 C431.065052,167.459013 454.637245,195.927959 469.40498,207.443929 C469.83064,206.218139 470.250218,204.99235 470.669797,203.76656 C469.848882,207.099176 476.908749,209.783327 483.919968,210.916088 C490.931188,212.048849 498.751161,212.360769 504.880657,214.265121 C514.196519,217.157219 516.592374,223.680172 509.848711,227.765226 L553.442323,225.217881 C539.474611,226.610575 526.218359,229.415117 514.914059,233.360628 C522.350938,232.914637 530.176992,234.107593 535.479493,236.496242 C532.226238,236.570118 528.972984,236.646729 525.719729,236.720605 C537.510496,238.562026 548.91209,240.906896 559.72384,243.711438 C556.409777,245.935918 551.052549,247.522878 545.19669,248.00991 C556.586122,249.689899 563.062227,255.159439 565.597941,260.429241 C568.139736,265.696306 567.926906,271.226041 571.642306,276.350827 C572.840233,278.006191 576.245509,279.935168 579.68727,279.141688 C577.11507,301.19496 584.989771,322.452016 589.824046,344.431412 C579.687284,363.10775 579.687284,366.70758 579.687284,366.70758 C579.687284,366.70758 563.562254,339.637711 545.19668,313.091693 C534.939907,298.266319 507.580554,261.20904 499.31668,256.002169 C491.058886,250.792563 477.960736,246.73487 463.737629,246.811482 C456.691529,246.848626 421.899969,237.473256 384.22527,233.360628 C335.86894,228.081977 283.217538,227.76523 283.217538,227.76523 L166.976913,243.711436" id="Fill-83" fill="#999999" transform="translate(304.346656, 271.638965) rotate(-16.000000) translate(-304.346656, -271.638965) "></path>
                <path d="M307.256648,267.499421 C302.568501,273.224779 276.734374,301.766766 269.403361,313.091693 C251.007388,341.509736 216.285047,380.677499 216.285047,380.677499 C216.285047,380.677499 212.191573,377.121605 209.0332,348.048507 C209.0332,348.048507 227.816427,316.489976 227.433334,313.091693 C226.25973,302.727202 232.316257,292.327137 234.164835,281.984535 C232.76624,280.985845 230.090666,280.383895 227.481981,280.474187 C230.19404,279.396149 232.906099,278.31811 235.618158,277.237336 C231.811546,270.161683 234.949265,262.385579 244.046216,256.366076 C245.657641,255.298982 247.518381,254.18811 247.536623,252.899389 C247.603513,248.570819 229.725815,248.726778 227.433334,244.521334 C244.593492,244.097233 260.963139,239.516938 269.403359,232.786039 C271.841779,230.840645 273.647792,228.747499 276.086213,226.804841 C279.175284,224.345053 283.243373,222.164351 287.202006,219.972705 C301.321739,212.150086 314.377323,203.938936 326.277546,195.402186 C326.599831,197.632138 326.922116,199.864827 327.23832,202.097516 C335.848803,193.790601 352.887344,187.346996 372.558892,184.958347 C372.656186,186.632864 433.250845,158.678766 527.239916,163.068889 C621.228987,167.459013 644.801179,195.927959 659.568915,207.443929 C659.994574,206.218139 660.414153,204.99235 660.833732,203.76656 C660.012817,207.099176 667.072683,209.783327 674.083903,210.916088 C681.095123,212.048849 688.915095,212.360769 695.044592,214.265121 C704.360453,217.157219 706.756308,223.680172 700.012646,227.765226 L743.606257,225.217881 C729.638545,226.610575 716.382293,229.415117 705.077994,233.360628 C712.514873,232.914637 720.340926,234.107593 725.643427,236.496242 C722.390173,236.570118 719.136918,236.646729 715.883663,236.720605 C727.674431,238.562026 739.076024,240.906896 749.887775,243.711438 C746.573712,245.935918 741.216483,247.522878 735.360625,248.00991 C746.750056,249.689899 753.226161,255.159439 755.761875,260.429241 C758.303671,265.696306 758.090841,271.226041 761.80624,276.350827 C763.004167,278.006191 766.409443,279.935168 769.851204,279.141688 C767.279005,301.19496 775.153705,322.452016 779.98798,344.431412 C769.851219,363.10775 769.851219,366.70758 769.851219,366.70758 C769.851219,366.70758 753.726188,339.637711 735.360615,313.091693 C725.103842,298.266319 697.744489,261.20904 689.480614,256.002169 C681.22282,250.792563 668.12467,246.73487 653.901563,246.811482 C646.855463,246.848626 612.063904,237.473256 574.389204,233.360628 C526.032874,228.081977 473.381472,227.76523 473.381472,227.76523 L357.140847,243.711436" id="Fill-83" fill="#999999" transform="translate(494.510590, 271.638965) scale(-1, 1) rotate(-16.000000) translate(-494.510590, -271.638965) "></path>
                <g id="Group-14" transform="translate(41.530055, 0.000000)">
                    <g id="Group-5" transform="translate(3.499345, 0.000000)">
                        <g id="Group-3" transform="translate(0.890514, 0.000000)">
                            <mask id="mask-2" fill="white">
                                <use xlink:href="#path-1"></use>
                            </mask>
                            <g id="Clip-2"></g>
                            <path d="M703.461694,505.87984 C699.316051,445.904706 685.553719,388.652675 663.877564,335.478823 C658.136289,321.395078 652.034709,307.4969 645.201798,294.023803 C669.41724,279.5905 685.703846,253.112541 685.703846,222.741971 C685.703846,176.971417 648.826287,139.868614 603.331453,139.868614 L100.859428,139.868614 C55.3667386,139.868614 18.4870346,176.971417 18.4870346,222.741971 C18.4870346,253.088806 34.750049,279.549502 58.9354654,293.989279 C52.1025545,307.460218 46.0009752,321.351922 40.2618447,335.431352 C18.5728213,388.615993 4.80620007,445.883129 0.658412951,505.873367 C0.343146815,513.01126 0,520.14268 0,527.358252 C0,579.20292 8.38136095,629.049495 23.6406709,675.752204 C28.1895108,688.899478 36.9397546,711.538769 47.6609479,726.656085 C48.8319364,728.207519 49.9364402,729.722272 51.2704235,731.353544 L51.744395,731.938299 C56.499123,737.690905 62.2639895,743.847015 69.1998445,749.955653 C76.2000396,756.066449 84.3090277,762.177245 93.5375324,767.286837 C102.658804,772.368379 113.302789,776.472451 123.805226,777.834002 C134.794503,779.419961 146.390721,777.523284 155.243908,771.272233 C164.266525,765.176541 170.71983,754.506383 174.453696,742.442308 C181.902127,718.003439 181.076429,690.312816 178.796648,665.269772 C176.302399,640.02174 171.753559,616.556024 167.239034,596.618257 C158.07487,556.714672 149.082278,530.804206 149.082278,530.804206 C149.082278,530.804206 159.822774,555.993978 171.775006,595.405592 C177.68571,615.121109 183.896667,638.401257 188.220317,664.009636 C192.213688,689.566228 195.434979,717.720772 188.925913,746.49891 C185.584521,760.638757 178.614351,775.551085 165.926498,785.630015 C153.225776,795.879408 137.346657,799.049167 123.084618,799.396568 C108.071945,799.500141 94.7428356,796.054187 82.655489,791.423619 C81.1821024,790.851811 79.9274718,790.113854 78.4969785,789.505364 C100.599923,823.043536 126.921428,853.452947 156.517841,880.302041 C172.304739,889.034524 198.030027,895.486248 232.10665,877.68467 C291.518232,846.64735 350.934103,843.199238 350.934103,843.199238 C350.934103,843.199238 410.347829,846.64735 469.759411,877.68467 C509.682398,898.539488 538.146426,886.125854 552.569316,875.731891 C580.046797,850.071726 604.620398,821.325954 625.440831,789.788032 C624.106848,790.351209 622.940149,791.039536 621.569706,791.572505 C609.480215,796.203073 596.153251,799.651184 581.138433,799.547612 C566.878538,799.198053 550.999419,796.028294 538.298698,785.7789 C525.610844,775.699971 518.640674,760.787643 515.299282,746.647796 C508.790216,717.869658 512.009362,689.715114 516.004878,664.158522 C520.326383,638.552301 526.539485,615.269995 532.448044,595.554478 C544.402422,556.142864 555.142917,530.953092 555.142917,530.953092 C555.142917,530.953092 546.150326,556.863558 536.986161,596.767143 C532.471636,616.707068 527.922796,640.170626 525.428547,665.418658 C523.148766,690.463859 522.320924,718.152325 529.771499,742.591194 C533.505366,754.655269 539.956526,765.325427 548.981287,771.421119 C557.834475,777.67217 569.430692,779.568847 580.419969,777.985046 C590.920262,776.621337 601.564247,772.517265 610.687663,767.435723 C619.916168,762.326131 628.023011,756.217493 635.023206,750.104539 C644.44902,741.805767 651.58004,733.498364 657.057521,726.161956 C665.604021,713.931733 672.86801,697.03426 677.719248,684.102762 C694.773645,635.022194 704.120107,582.299316 704.120107,527.358252 C704.120107,520.144837 703.77696,513.015575 703.461694,505.87984" id="Fill-1" fill="#F6C823" mask="url(#mask-2)"></path>
                        </g>
                        <path d="M279.088216,281.944624 C279.088216,323.712519 245.434092,357.572199 203.919761,357.572199 C162.405431,357.572199 128.753451,323.712519 128.753451,281.944624 C128.753451,240.176728 162.405431,206.317049 203.919761,206.317049 C245.434092,206.317049 279.088216,240.176728 279.088216,281.944624" id="Fill-4" fill="#FFFFFF"></path>
                        <path d="M237.372286,281.944624 C237.372286,300.531629 222.393928,315.599316 203.919761,315.599316 C185.445595,315.599316 170.469381,300.531629 170.469381,281.944624 C170.469381,263.357619 185.445595,248.289932 203.919761,248.289932 C222.393928,248.289932 237.372286,263.357619 237.372286,281.944624" id="Fill-5" fill="#25282C"></path>
                        <path d="M101.749942,181.166117 C78.9263892,181.166117 60.4243419,199.781172 60.4243419,222.741971 C60.4243419,237.634879 68.2716806,250.598743 79.9686977,257.941624 C94.2693412,234.311917 110.225668,211.819354 127.779772,190.696973 C120.657331,184.830005 111.673319,181.166117 101.749942,181.166117" id="Fill-6" fill="#25282C"></path>
                        <path d="M604.221967,181.166117 C594.279288,181.166117 585.280263,184.845109 578.151388,190.731498 C595.699058,211.853879 611.651096,234.344284 625.949595,257.971833 C637.674492,250.635425 645.547567,237.658614 645.547567,222.741971 C645.547567,199.781172 627.04552,181.166117 604.221967,181.166117" id="Fill-7" fill="#25282C"></path>
                        <path d="M199.263688,257.566172 C199.263688,267.770252 191.043177,276.043131 180.901044,276.043131 C170.758911,276.043131 162.5384,267.770252 162.5384,257.566172 C162.5384,247.362092 170.758911,239.091371 180.901044,239.091371 C191.043177,239.091371 199.263688,247.362092 199.263688,257.566172" id="Fill-8" fill="#FFFFFF"></path>
                        <path d="M577.147684,281.944624 C577.147684,323.712519 543.49356,357.572199 501.979229,357.572199 C460.464899,357.572199 426.810775,323.712519 426.810775,281.944624 C426.810775,240.176728 460.464899,206.317049 501.979229,206.317049 C543.49356,206.317049 577.147684,240.176728 577.147684,281.944624" id="Fill-9" fill="#FFFFFF"></path>
                        <path d="M535.42961,281.944624 C535.42961,300.531629 520.453396,315.599316 501.979229,315.599316 C483.505062,315.599316 468.528849,300.531629 468.528849,281.944624 C468.528849,263.357619 483.505062,248.289932 501.979229,248.289932 C520.453396,248.289932 535.42961,263.357619 535.42961,281.944624" id="Fill-10" fill="#25282C"></path>
                        <path d="M497.323156,257.566172 C497.323156,267.770252 489.102645,276.043131 478.960512,276.043131 C468.818379,276.043131 460.597868,267.770252 460.597868,257.566172 C460.597868,247.362092 468.818379,239.091371 478.960512,239.091371 C489.102645,239.091371 497.323156,247.362092 497.323156,257.566172" id="Fill-11" fill="#FFFFFF"></path>
                        <path d="M454.026606,427.97582 C454.026606,484.76609 408.270123,530.804206 351.824617,530.804206 C295.379111,530.804206 249.620483,484.76609 249.620483,427.97582 C249.620483,371.185551 295.379111,325.147434 351.824617,325.147434 C408.270123,325.147434 454.026606,371.185551 454.026606,427.97582" id="Fill-12" fill="#FFFFFF"></path>
                        <path d="M345.19116,530.467595 C347.393734,530.610007 349.581295,530.804206 351.820328,530.804206 C354.059361,530.804206 356.251211,530.610007 358.455929,530.467595 L358.455929,396.817665 L345.19116,396.817665 L345.19116,530.467595" id="Fill-13" fill="#25282C"></path>
                        <path d="M404.851523,371.830723 C404.851523,370.410913 404.58344,369.064466 404.199544,367.769806 C404.034405,367.133265 403.899291,366.757813 403.899291,366.757813 L403.888567,366.757813 C403.410307,365.491204 402.762617,364.323852 401.96909,363.257915 L401.973379,363.244968 C401.973379,363.244968 395.96831,350.792495 352.429413,350.67166 L352.429413,350.660871 L352.127015,350.665187 L351.822472,350.660871 L351.822472,350.67166 C326.491803,350.740709 313.896171,354.974248 307.773145,358.515143 C304.075738,360.00616 301.174002,363.005456 299.758522,366.757813 L299.737075,366.757813 C299.737075,366.757813 299.57837,367.197998 299.396073,367.935954 C299.044348,369.183143 298.797711,370.47133 298.797711,371.830723 L298.832025,372.188913 C298.572521,378.647109 300.678584,390.025015 315.238733,401.696376 C329.567257,413.177854 340.569401,416.925896 346.619509,418.168769 C347.080612,418.2745 347.54815,418.337075 348.019977,418.414755 C350.398413,418.803153 351.813894,418.800995 351.813894,418.800995 L351.822472,418.800995 C351.822472,418.800995 353.231519,418.800995 355.603521,418.416913 C356.086071,418.337075 356.568622,418.272342 357.040449,418.164454 C363.09699,416.917265 374.090556,413.160592 388.397633,401.696376 C402.897731,390.072485 405.044543,378.739893 404.806485,372.26875 L404.851523,371.830723" id="Fill-14" fill="#25282C"></path>
                        <path d="M56.3666308,692.397218 C56.3666308,692.397218 50.9041624,685.252852 44.8883699,673.169357 C38.8404072,661.141964 32.7002239,644.145233 28.7819162,626.663005 C24.7971238,609.182934 22.899093,591.346833 22.5151975,577.955731 C22.1720507,564.547367 23.0041817,555.594791 23.0041817,555.594791 C23.0041817,555.594791 23.6583054,557.759032 24.5590657,561.556701 C25.4340901,565.343583 26.6844313,570.750947 28.183554,577.24151 C31.0638426,590.196743 34.5296254,607.404934 38.4736691,624.434032 C42.2311267,641.512757 46.5912359,658.410231 50.1899881,671.100058 C52.0215343,677.469786 53.5463929,682.775735 54.6144374,686.49141 C55.8047279,690.213558 56.3666308,692.397218 56.3666308,692.397218" id="Fill-16" fill="#FFFFFF"></path>
                        <path d="M100.43526,149.932439 C100.43526,149.932439 94.2843538,152.301667 86.2654417,157.145854 C82.224888,159.489189 77.7253754,162.443172 73.2237181,165.934439 C68.6877461,169.376078 64.2311269,173.465046 60.1326671,177.875522 C55.9076719,182.193214 52.3625364,187.091345 48.9675276,191.721913 C45.9178103,196.570415 42.9538797,201.11683 40.8006334,205.324476 C38.3728697,209.396182 36.6850163,213.029862 35.4389644,215.573869 C34.1607426,218.109245 33.2857182,219.554949 33.2857182,219.554949 C33.2857182,219.554949 33.2985862,217.915046 33.5752483,215.051689 C34.0084712,212.240119 33.9891691,207.969898 35.4840025,203.222811 C36.5263109,198.320364 38.7117272,192.880633 41.4526124,187.188444 C44.4251217,181.610617 48.3048253,176.022 52.8965586,171.013823 C62.2344413,161.094568 74.4075746,154.314864 84.0843148,151.861483 C93.7674889,149.203114 100.43526,149.932439 100.43526,149.932439" id="Fill-17" fill="#FFFFFF"></path>
                        <path d="M681.644467,788.870981 C680.705103,788.870981 679.75287,788.771723 678.798493,788.566735 L602.23815,772.029609 L678.798493,788.566735 C679.75287,788.771723 680.705103,788.870981 681.644467,788.870981 C682.058388,788.870981 682.470164,788.851561 682.877651,788.814879 C688.65753,788.279752 693.706078,784.028951 694.9843,778.036833 L723.429026,644.736461 L694.9843,778.036833 C693.706078,784.028951 688.65753,788.279752 682.877651,788.814879 C682.470164,788.851561 682.058388,788.870981 681.644467,788.870981 M537.529239,758.051595 L518.212218,753.878473 L537.529239,758.051595" id="Fill-26" fill="#CECFCA"></path>
                        <path d="M602.23815,772.029609 L537.529239,758.051595 L602.23815,772.029609 M518.212218,753.878473 L482.156067,746.091092 L518.212218,753.878473" id="Fill-27" fill="#C5A433"></path>
                    </g>
                    <path d="M173.459355,181.257692 C168.771208,186.98305 142.937081,215.525037 135.606068,226.849964 C117.210095,255.268007 82.4877538,294.435771 82.4877538,294.435771 C82.4877538,294.435771 78.39428,290.879876 75.2359072,261.806778 C75.2359072,261.806778 94.0191345,230.248247 93.636041,226.849964 C92.462437,216.485473 98.5189638,206.085408 100.367542,195.742807 C98.9689467,194.744116 96.2933728,194.142166 93.6846883,194.232458 C96.3967473,193.15442 99.1088062,192.076382 101.820865,190.995607 C98.0142533,183.919955 101.151972,176.14385 110.248923,170.124347 C111.860348,169.057253 113.721088,167.946381 113.73933,166.65766 C113.80622,162.32909 95.9285219,162.48505 93.6360415,158.279606 C110.796199,157.855504 127.165847,153.27521 135.606066,146.54431 C138.044487,144.598916 139.850499,142.505771 142.28892,140.563113 C145.377991,138.103325 149.44608,135.922623 153.404713,133.730976 C167.524446,125.908358 180.58003,117.697208 192.480253,109.160457 C192.802538,111.39041 193.124823,113.623098 193.441027,115.855787 C202.05151,107.548872 219.090051,101.105267 238.761599,98.7166188 C238.858893,100.391135 299.453552,72.437037 393.442623,76.8271605 C487.431694,81.217284 511.003886,109.68623 525.771622,121.2022 C526.197281,119.976411 526.61686,118.750621 527.036439,117.524831 C526.215524,120.857447 533.27539,123.541598 540.28661,124.67436 C547.29783,125.807121 555.117802,126.11904 561.247299,128.023392 C570.56316,130.91549 572.959015,137.438443 566.215353,141.523497 L609.808964,138.976153 C595.841252,140.368847 582.585,143.173388 571.280701,147.118899 C578.71758,146.672909 586.543633,147.865865 591.846134,150.254513 C588.59288,150.328389 585.339625,150.405001 582.08637,150.478877 C593.877138,152.320297 605.278731,154.665168 616.090482,157.469709 C612.776419,159.694189 607.41919,161.281149 601.563332,161.768182 C612.952763,163.44817 619.428868,168.91771 621.964582,174.187512 C624.506378,179.454577 624.293548,184.984312 628.008947,190.109099 C629.206874,191.764462 632.61215,193.693439 636.053911,192.899959 C633.481712,214.953231 641.356412,236.210287 646.190687,258.189683 C636.053926,276.866021 636.053926,280.465852 636.053926,280.465852 C636.053926,280.465852 619.928895,253.395982 601.563322,226.849964 C591.306549,212.02459 563.947196,174.967311 555.683321,169.760441 C547.425527,164.550834 534.327377,160.493141 520.10427,160.569753 C513.05817,160.606898 478.266611,151.231527 440.591911,147.118899 C392.235581,141.840248 339.58418,141.523501 339.58418,141.523501 L223.343554,157.469707" id="Fill-83" fill="#999999"></path>
                    <g id="Group-16" transform="translate(0.000000, 435.715415)">
                        <path d="M26.8894634,238.181447 C19.3642642,215.633801 13.4019598,183.521009 8.69077744,151.556636 C-1.33056642,83.5639432 19.2950013,2.34682409 19.2950013,2.34682409 C19.2950013,2.34682409 242.885508,128.516793 355.193111,128.287967 C467.971574,128.058181 697.037043,2.34682409 697.037043,2.34682409 C697.037043,2.34682409 719.43113,95.8315894 704.12686,159.375803 C698.827575,181.378739 696.793712,204.451489 691.132755,223.328827 C680.444938,258.969015 667.158128,283.3544 667.158128,283.3544 L526.914818,268.106339 C526.914818,268.106339 527.995691,218.619855 532.303688,193.100976 C537.573333,161.885672 550.294134,125.305714 550.294134,125.305714 C550.294134,125.305714 533.634103,174.080935 525.018374,212.439535 C519.917043,235.151474 516.480394,282.663329 516.480394,282.663329 L198.365012,282.029466 C198.365012,282.029466 194.419314,231.178211 188.530524,205.899528 C180.519236,171.509646 159.829901,112.827632 159.829901,112.827632 C159.829901,112.827632 178.041922,176.443264 183.683651,212.439535 C187.048213,233.906656 186.591392,276.170084 186.591392,276.170084 L45.1934765,277.498603 C45.1934765,277.498603 35.3714154,263.595798 26.8894634,238.181447 Z" id="Path-164" fill="#FFFFFF"></path>
                        <path d="M357.15278,177.350249 L404.852276,119.918584 C404.852276,119.918584 384.667018,125.493611 354.494102,125.493611 C324.321187,125.493611 308.482128,119.918584 308.482128,119.918584 L357.15278,177.350249 Z" id="Fill-18" fill="#000000"></path>
                        <polygon id="Fill-19" fill="#000000" points="349.901562 127.866546 310.042285 331.556856 357.15278 381.952447 404.263275 331.556856 364.403999 127.866546"></polygon>
                        <path d="M441.584557,110.157538 C441.584557,110.157538 515.758772,86.0368906 550.094293,71.5156433 C601.032257,49.9728574 697.405012,1.96543791 697.405012,1.96543791 C697.405012,1.96543791 708.444318,32.7322488 711.946747,69.3347909 C714.259457,93.504024 714.221529,120.541713 711.946747,142.760219 C706.226974,198.62703 703.337611,195.38693 686.629224,243.093215 C678.268214,266.965818 660.650413,305.140902 642.948371,334.921093 C625.275188,364.652732 607.510913,386.008987 607.510913,386.008987 L355.212869,383.652191 L355.212869,320.863954 L441.584557,110.157538 Z" id="Path-165" fill="#1C1D1E"></path>
                        <path d="M88.8632753,110.440009 C88.8632753,110.440009 163.03749,86.3193616 197.373011,71.7981143 C248.310975,50.2553284 344.618704,0.312421733 344.618704,0.312421733 C344.618704,0.312421733 353.349854,33.3539241 356.852283,69.9564661 C359.164992,94.1256993 359.127065,120.474899 356.852283,142.693404 C351.13251,198.560215 350.61633,195.669401 333.907942,243.375686 C325.546933,267.248289 307.929132,305.423373 290.227089,335.203564 C272.553907,364.935203 254.789631,386.291458 254.789631,386.291458 L2.49158731,383.934662 L5.31254942,320.463693 L88.8632753,110.440009 Z" id="Path-165" fill="#1C1D1E" transform="translate(180.532104, 193.301940) scale(-1, 1) translate(-180.532104, -193.301940) "></path>
                        <g id="Path-166">
                            <use fill="black" fill-opacity="1" filter="url(#filter-4)" xlink:href="#path-3"></use>
                            <use fill="#FFFAFA" fill-rule="evenodd" xlink:href="#path-3"></use>
                        </g>
                        <g id="Path-166" transform="translate(313.080474, 139.385586) scale(-1, 1) translate(-313.080474, -139.385586) ">
                            <use fill="black" fill-opacity="1" filter="url(#filter-6)" xlink:href="#path-5"></use>
                            <use fill="#FFFAFA" fill-rule="evenodd" xlink:href="#path-5"></use>
                        </g>
                        <g id="Group-5" transform="translate(480.362139, 136.132038)">
                            <path d="M43.7946532,217.826535 C43.7946532,217.826535 14.3857738,109.598891 88.6435295,105.054721 C131.470232,102.43396 159.913199,133.579396 175.437121,164.764263 C186.830322,187.651228 190.784568,212.929954 190.784568,212.929954 L43.7946532,217.826535 Z" id="Path-1628" fill="#F6C724" transform="translate(114.417051, 161.363334) scale(-1, 1) rotate(172.000000) translate(-114.417051, -161.363334) "></path>
                            <g id="Group-4" transform="translate(108.828052, 79.853527) scale(-1, 1) translate(-108.828052, -79.853527) translate(6.731266, 0.767178)" fill="#000000">
                                <path d="M177.251579,9.01995365 C177.251579,9.01995365 177.143749,15.5488444 176.985,25.3389621 C176.925094,27.7865988 176.859198,30.4384913 176.790307,33.2431466 C176.724411,36.0478018 176.652524,39.0052198 176.577642,42.0647657 C176.511746,45.1243116 176.448846,48.2859854 176.379954,51.498294 C176.335025,54.7106026 176.287101,57.9739752 176.239176,61.2373478 C176.230191,64.5007204 176.221205,67.7636638 176.212219,70.9759725 C176.266134,74.1882811 176.317053,77.3495258 176.367973,80.4086426 C176.505756,83.4677594 176.640543,86.4247482 176.766345,89.2289744 C176.880165,92.0332005 177.305494,94.6829475 177.476225,97.1301551 C177.721837,99.5773627 178.287944,101.818598 178.57549,103.806659 C178.943909,105.794291 179.701714,107.5236 180.085109,108.950387 C180.222891,109.664424 180.615272,110.298647 180.989682,110.850481 C181.334138,111.402314 181.627675,111.872189 181.867297,112.252808 C182.343546,113.015335 182.595149,113.421701 182.595149,113.421701 C182.595149,113.421701 182.262673,113.016622 181.633666,112.257099 C181.322157,111.877338 180.932772,111.408322 180.47749,110.857346 C179.995251,110.306371 179.474073,109.672577 179.195512,108.959398 C178.560514,107.534328 177.509173,105.80459 176.853208,103.816958 C176.272124,101.829755 175.412481,99.5872322 174.91227,97.1400246 C174.439016,94.692817 173.759089,92.0409245 173.444585,89.2362692 C173.11211,86.4311849 172.602913,83.4733378 172.471121,80.4129337 C172.276428,77.3529587 171.967915,74.1908558 171.973905,70.9776889 C171.946948,67.7645221 171.922986,64.5002913 171.896028,61.2364896 C171.994872,57.9722588 172.090721,54.7084571 172.18657,51.4952902 C172.390249,48.2825525 172.593927,45.1204496 172.785625,42.0609037 C173.067181,39.0013578 173.339751,36.0435107 173.600339,33.2388555 C173.932815,30.4346293 174.247319,27.7827368 174.53786,25.3351001 C175.813847,15.5449824 177.251579,9.01995365 177.251579,9.01995365 L142.570738,4.81090605" id="Fill-84" transform="translate(162.582944, 59.116303) scale(-1, 1) rotate(25.000000) translate(-162.582944, -59.116303) "></path>
                                <polygon id="Path-1630" transform="translate(89.484352, 122.591245) rotate(85.000000) translate(-89.484352, -122.591245) " points="61.8147332 44.4050934 95.5570221 40.6976378 117.15397 196.824054 74.6663136 204.484853"></polygon>
                            </g>
                        </g>
                        <g id="Group-5" transform="translate(117.351343, 260.410586) scale(-1, 1) translate(-117.351343, -260.410586) translate(26.598644, 151.196105)">
                            <path d="M18.0145306,202.687473 C18.0145306,202.687473 -10.6447971,93.6541648 61.7203322,89.0761666 C94.827113,86.9817492 125.28693,101.229264 141.185197,126.276909 C160.03752,155.978655 161.186887,197.508293 161.186887,197.508293 L18.0145306,202.687473 Z" id="Path-1628" fill="#F6C724" transform="translate(86.801362, 145.780419) scale(-1, 1) rotate(172.000000) translate(-86.801362, -145.780419) "></path>
                            <g id="Group-4" transform="translate(93.916547, 72.327205) scale(-1, 1) translate(-93.916547, -72.327205) translate(6.945211, 0.772889)" fill="#000000">
                                <path d="M146.371568,-1.74221998 C146.371568,-1.74221998 146.266486,4.83527289 146.111783,14.6982699 C146.053404,17.1641273 145.989187,19.8357609 145.922052,22.6612945 C145.857835,25.4868281 145.787781,28.4662616 145.714808,31.5485832 C145.650591,34.6309049 145.589294,37.8161147 145.522158,41.0523363 C145.478374,44.2885579 145.431671,47.5762236 145.384968,50.8638893 C145.376211,54.1515549 145.367455,57.4387883 145.358698,60.6750099 C145.411239,63.9112315 145.46086,67.096009 145.510482,70.1778984 C145.644753,73.2597878 145.776105,76.238789 145.8987,79.0638902 C146.00962,81.8889915 146.424108,84.5584636 146.590488,87.0238887 C146.82984,89.4893137 147.381519,91.7472332 147.661736,93.7500938 C148.020765,95.7525222 148.759255,97.494704 149.132878,98.932112 C149.267149,99.6514645 149.64953,100.290409 150.014396,100.846351 C150.350074,101.402292 150.636129,101.875664 150.869644,102.259117 C151.333754,103.02732 151.578944,103.436711 151.578944,103.436711 C151.578944,103.436711 151.254943,103.028617 150.641967,102.26344 C150.338398,101.880852 149.958937,101.408345 149.515259,100.853267 C149.04531,100.29819 148.537416,99.6596783 148.265955,98.9411904 C147.647141,97.5055115 146.622596,95.7628974 145.98335,93.7604691 C145.417076,91.7584731 144.579343,89.4992567 144.091881,87.0338316 C143.630689,84.5684066 142.968092,81.896773 142.661604,79.0712394 C142.337602,76.2452735 141.841383,73.2654077 141.71295,70.1822214 C141.52322,67.0994675 141.222569,63.9138253 141.228407,60.6767391 C141.202137,57.4396529 141.178785,54.1511226 141.152515,50.8630247 C141.24884,47.5744944 141.342246,44.2863964 141.435652,41.0493102 C141.634139,37.8126563 141.832627,34.6270142 142.019438,31.5446925 C142.293818,28.4623708 142.559441,25.482505 142.813388,22.6569714 C143.13739,19.8318702 143.443878,17.1602365 143.727014,14.6943792 C144.97048,4.83138216 146.371568,-1.74221998 146.371568,-1.74221998" id="Fill-84" transform="translate(146.365730, 50.847246) scale(-1, 1) rotate(25.000000) translate(-146.365730, -50.847246) "></path>
                                <polygon id="Path-1630" transform="translate(87.203641, 106.701607) rotate(85.000000) translate(-87.203641, -106.701607) " points="60.2392453 27.9334245 93.1215358 24.1983699 114.168037 181.487018 72.7632741 189.204845"></polygon>
                            </g>
                        </g>
                    </g>
                    <g id="Group-13" transform="translate(104.980336, 193.260870)">
                        <use id="Rectangle-8" stroke="#5D4B2F" mask="url(#mask-8)" stroke-width="31.51872" xlink:href="#path-7"></use>
                        <use id="Rectangle-8" stroke="#5D4B2F" mask="url(#mask-10)" stroke-width="31.51872" transform="translate(400.985527, 94.167913) scale(-1, 1) translate(-400.985527, -94.167913) " xlink:href="#path-9"></use>
                        <path d="M180.216243,147.581028 C180.216243,147.581028 223.958049,87.8458498 252.301981,87.8458498 C288.754619,87.8458498 316.690679,142.310277 316.690679,142.310277 C316.690679,142.310277 298.883766,93.4982237 299.193957,83.806752 C299.504147,74.1152802 307.942318,31.6245059 307.942318,31.6245059 C307.942318,31.6245059 283.446906,70.2766798 252.301981,68.5197628 C221.157056,66.7628458 197.712965,31.6245059 197.712965,31.6245059 C197.712965,31.6245059 206.117798,72.6498847 206.461327,82.5750988 C206.804855,92.5003129 180.216243,147.581028 180.216243,147.581028 Z" id="Path-10" fill="#5D4B2F"></path>
                    </g>
                </g>
            </g>
        </g>
    </g>
</svg>