<?xml version="1.0" encoding="UTF-8" standalone="no"?>
<svg width="1200px" height="1200px" viewBox="0 0 1200 1200" version="1.1" xmlns="http://www.w3.org/2000/svg" xmlns:xlink="http://www.w3.org/1999/xlink">
    <!-- Generator: Sketch 42 (36781) - http://www.bohemiancoding.com/sketch -->
    <title>46</title>
    <desc>Created with Sketch.</desc>
    <defs>
        <path d="M72,4 C72,4 28.5697974,18.2549328 16,28 C5.97900182,35.7690433 -2.84217094e-14,96.0677306 -2.84217094e-14,96.0677306 C-2.84217094e-14,96.0677306 20.7858606,79.5820141 28,82.8134974 C31.6183931,84.4343113 34.1794826,98.7992629 40,101.321964 C47.7329014,104.673521 58.4861346,96.0677306 58.4861346,96.0677306 C58.4861346,96.0677306 68.5638454,112.619463 84.5524372,106.576197 C91.7499061,103.855743 96.5746413,110.857295 105.405479,106.576197 C111.063788,103.833108 116.295156,97.6916101 126.258521,96.0677306 C133.156776,94.9434182 138.764232,102.006483 147.111564,101.321964 C154.956822,100.678617 164.508752,97.1233804 173.177866,96.0677306 C177.488465,95.542823 184.454408,101.880348 188.817648,101.321964 C199.290623,99.9816886 206.321798,85.6483952 216,82.8134974 C227.883093,79.3327523 228.992782,86.0753741 240,82.8134974 C246.218893,80.970592 251.442262,78.4787853 256,76 C262.951929,72.2191022 269.142487,89.1070677 272,82.8134974 C273.812854,78.8207526 258.961355,25.366544 204,8 C156.170565,-7.11301865 72,4 72,4 Z" id="path-1"></path>
    </defs>
    <g id="Page-1" stroke="none" stroke-width="1" fill="none" fill-rule="evenodd">
        <g id="46">
            <g id="Group-4" transform="translate(186.000000, 108.000000)">
                <g id="Group-2">
                    <g id="Mascot_EPS" transform="translate(68.000000, 216.000000)">
                        <g id="Group-3" fill="#F6C823">
                            <path d="M657.587745,229.973381 C651.90165,216.302066 645.85726,202.81468 639.087796,189.736953 C663.074551,175.729133 679.208474,150.029319 679.208474,120.552702 C679.208474,76.1277229 642.679237,40.1153778 597.616618,40.1153778 C597.616618,40.1153778 429.701446,0 347.608656,0 C263.796945,1.12906329e-14 99.9031165,40.1153778 99.9031165,40.1153778 C54.8404973,40.1153778 18.3133806,76.1277229 18.3133806,120.552702 C18.3133806,150.006328 34.4197423,175.689421 58.3768158,189.703511 C51.6073524,202.777058 45.5650817,216.260264 39.8789869,229.927399 C18.3981844,281.546487 4.75961327,337.128396 0.652989259,395.354275 C0.3392152,402.280852 0,409.203248 0,416.207158 C0,466.526206 8.30229201,514.905646 23.4164492,560.235637 C27.9237712,572.99567 36.5907196,594.968844 47.2102754,609.641314 C48.3699674,611.148273 49.4639364,612.61761 50.7847556,614.199812 C55.9641476,620.350963 61.6735635,626.326546 68.5447914,632.254057 C75.4796221,638.187838 83.5105419,644.117439 92.6523916,649.077235 C101.686116,654.007771 112.229349,657.993583 122.632655,659.314523 C133.517223,660.852833 145.003897,659.011459 153.77261,652.946002 C162.710931,647.026852 169.100897,636.672519 172.800463,624.963804 C180.180514,601.24331 179.362157,574.368863 177.102136,550.061052 C174.632225,525.554683 170.127023,502.781003 165.653623,483.430899 C156.577496,444.699339 147.668857,419.551311 147.668857,419.551311 C147.668857,419.551311 158.309614,444.001248 170.148224,482.252085 C176.001806,501.386909 182.154322,523.982931 186.436914,548.836256 C190.393011,573.6436 193.583754,600.969508 187.136545,628.901544 C183.824957,642.623021 176.921928,657.099022 164.354004,666.880669 C151.773361,676.827433 136.044376,679.904054 121.918183,680.242649 C107.047837,680.342974 93.8460051,676.998821 81.8717085,672.503026 C80.4130832,671.94706 79.1685874,671.232248 77.7523639,670.642841 C99.646585,703.191897 125.719513,732.708226 155.034067,758.767536 C170.674008,767.242873 196.155429,773.504799 229.907342,756.22807 C288.756939,726.103524 347.608656,722.755191 347.608656,722.755191 C347.608656,722.755191 406.458253,726.103524 465.30997,756.22807 C504.853982,776.468555 533.047005,764.419154 547.334325,754.332354 C574.552105,729.426776 598.892915,701.526091 619.515079,670.914553 C618.19214,671.462158 617.036688,672.130989 615.679827,672.647242 C603.705531,677.143038 590.503699,680.48928 575.633353,680.386866 C561.50716,680.04827 545.778175,676.97165 533.197532,667.024885 C520.629608,657.243239 513.728699,642.769327 510.417111,629.04576 C503.969902,601.113724 507.158525,573.787816 511.116742,548.982563 C515.397214,524.129238 521.54973,501.533216 527.403312,482.396301 C539.244042,444.145464 549.882679,419.695527 549.882679,419.695527 C549.882679,419.695527 540.97616,444.843556 531.897913,483.575115 C527.426633,502.925219 522.921431,525.698899 520.4494,550.205269 C518.191499,574.513079 517.373142,601.389617 524.751073,625.108021 C528.450639,636.816735 534.840605,647.173158 543.778926,653.090219 C552.549759,659.157766 564.034313,660.99705 574.921001,659.45874 C585.322187,658.137799 595.86542,654.154077 604.901264,649.221452 C614.043114,644.261655 622.074034,638.332055 629.006745,632.398274 C638.341523,624.345136 645.405679,616.281547 650.833123,609.162682 C659.298662,597.29303 666.492144,580.892051 671.2984,568.338937 C688.191317,520.703571 697.447651,469.531764 697.447651,416.207158 C697.447651,409.205338 697.110556,402.285032 696.796782,395.360546 C692.690158,337.149296 679.060067,281.582018 657.587745,229.973381 Z" id="Fill-1"></path>
                        </g>
                        <path d="M275.561467,178.013607 C275.561467,218.551009 242.227214,251.41567 201.105851,251.41567 C159.986609,251.41567 126.650235,218.551009 126.650235,178.013607 C126.650235,137.474115 159.986609,104.609454 201.105851,104.609454 C242.227214,104.609454 275.561467,137.474115 275.561467,178.013607" id="Fill-4" fill="#FFFFFF"></path>
                        <path d="M234.240816,178.013607 C234.240816,196.053221 219.406511,210.677619 201.105851,210.677619 C182.807311,210.677619 167.973007,196.053221 167.973007,178.013607 C167.973007,159.971903 182.807311,145.347505 201.105851,145.347505 C219.406511,145.347505 234.240816,159.971903 234.240816,178.013607" id="Fill-5" fill="#25282C"></path>
                        <path d="M196.494645,154.351636 C196.494645,164.256599 188.35136,172.284655 178.30635,172.284655 C168.259219,172.284655 160.115934,164.256599 160.115934,154.351636 C160.115934,144.448764 168.259219,136.420707 178.30635,136.420707 C188.35136,136.420707 196.494645,144.448764 196.494645,154.351636" id="Fill-8" fill="#FFFFFF"></path>
                        <path d="M570.797416,178.013607 C570.797416,218.551009 537.463163,251.41567 496.3418,251.41567 C455.220438,251.41567 421.886184,218.551009 421.886184,178.013607 C421.886184,137.474115 455.220438,104.609454 496.3418,104.609454 C537.463163,104.609454 570.797416,137.474115 570.797416,178.013607" id="Fill-9" fill="#FFFFFF"></path>
                        <path d="M529.474645,178.013607 C529.474645,196.053221 514.64034,210.677619 496.3418,210.677619 C478.04114,210.677619 463.206835,196.053221 463.206835,178.013607 C463.206835,159.971903 478.04114,145.347505 496.3418,145.347505 C514.64034,145.347505 529.474645,159.971903 529.474645,178.013607" id="Fill-10" fill="#25282C"></path>
                        <path d="M491.730593,154.351636 C491.730593,164.256599 483.585189,172.284655 473.540178,172.284655 C463.495168,172.284655 455.351883,164.256599 455.351883,154.351636 C455.351883,144.448764 463.495168,136.420707 473.540178,136.420707 C483.585189,136.420707 491.730593,144.448764 491.730593,154.351636" id="Fill-11" fill="#FFFFFF"></path>
                        <path d="M448.843192,319.749252 C448.843192,374.867159 403.519801,419.551311 347.608656,419.551311 C291.69751,419.551311 246.37412,374.867159 246.37412,319.749252 C246.37412,264.629254 291.69751,219.945103 347.608656,219.945103 C403.519801,219.945103 448.843192,264.629254 448.843192,319.749252" id="Fill-12" fill="#FFFFFF"></path>
                        <g id="Group" transform="translate(216.000000, 288.000000)">
                            <mask id="mask-2" fill="white">
                                <use xlink:href="#path-1"></use>
                            </mask>
                            <use id="Path-15" fill="#DFE4E1" xlink:href="#path-1"></use>
                            <path d="M26,90 L40,48" id="Path-31" stroke="#C7CDC8" stroke-width="4" opacity="0.808652052" mask="url(#mask-2)"></path>
                            <path d="M58,98 L72,56" id="Path-31" stroke="#C7CDC8" stroke-width="4" opacity="0.808652052" mask="url(#mask-2)"></path>
                            <path d="M97.1484913,108.408381 L100.571912,64.2690543" id="Path-31" stroke="#C7CDC8" stroke-width="4" opacity="0.808652052" mask="url(#mask-2)"></path>
                            <path d="M136.453453,106.180309 L132.16015,62.1170866 M174.698433,101.977091 L169.636775,57.9955079" id="Path-31" stroke="#C7CDC8" stroke-width="4" opacity="0.808652052" mask="url(#mask-2)"></path>
                            <path d="M212.453453,94.1803089 L208.16015,50.1170866 M250.698433,89.9770906 L245.636775,45.9955079" id="Path-31" stroke="#C7CDC8" stroke-width="4" opacity="0.808652052" mask="url(#mask-2)" transform="translate(231.392546, 70.032900) rotate(-16.000000) translate(-231.392546, -70.032900) "></path>
                        </g>
                        <path d="M400.131889,265.254192 C400.131889,263.874729 399.866877,262.57051 399.4895,261.312272 C399.324133,260.695694 399.190567,260.332017 399.190567,260.332017 L399.179966,260.332017 C398.707185,259.100951 398.064797,257.968119 397.278241,256.933522 L397.282481,256.920982 C397.282481,256.920982 391.335615,244.833959 348.206522,244.719004 L348.206522,244.706464 C348.102638,244.706464 348.013594,244.712734 347.907589,244.712734 C347.803704,244.712734 347.71254,244.706464 347.608656,244.706464 L347.608656,244.719004 C322.515211,244.785887 310.038452,248.892925 303.974981,252.331132 C300.313576,253.779568 297.436608,256.688981 296.037345,260.332017 L296.016144,260.332017 C296.016144,260.332017 295.859257,260.758397 295.676929,261.4753 C295.329233,262.685465 295.083302,263.935342 295.083302,265.254192 C295.083302,265.373328 295.115104,265.484103 295.119344,265.601148 C294.862812,271.871435 296.948986,282.913409 311.371992,294.241726 C325.561788,305.386116 336.461196,309.022882 342.452585,310.228867 C342.908405,310.331281 343.374826,310.393984 343.839127,310.469228 C346.196672,310.845445 347.598055,310.843355 347.598055,310.843355 L347.608656,310.843355 C347.608656,310.843355 349.003678,310.843355 351.352743,310.471318 C351.829765,310.393984 352.308906,310.331281 352.777447,310.224687 C358.773076,309.014521 369.664004,305.369395 383.834719,294.241726 C398.198362,282.959391 400.324818,271.961309 400.089487,265.678482 C400.093727,265.534265 400.131889,265.400499 400.131889,265.254192" id="Fill-14" fill="#25282C"></path>
                        <path d="M54.9507422,576.389985 C54.9507422,576.389985 49.5402598,569.455048 43.5827929,557.727523 C37.5892843,546.054339 31.5088519,529.557216 27.6269579,512.589821 C23.679341,495.624516 21.8009369,478.314345 21.4214399,465.316041 C21.0801046,452.301017 21.9048215,443.61249 21.9048215,443.61249 C21.9048215,443.61249 22.5535706,445.715126 23.4461306,449.399964 C24.3111293,453.074352 25.5492648,458.322582 27.0354514,464.622129 C29.8869792,477.196144 33.319413,493.898097 37.2288682,510.426572 C40.9496349,527.003119 45.2682684,543.404098 48.8321481,555.721031 C50.6469494,561.901443 52.1585771,567.053529 53.2165045,570.658943 C54.3931573,574.270628 54.9507422,576.389985 54.9507422,576.389985" id="Fill-16" fill="#FFFFFF"></path>
                        <path d="M559.832285,471.582147 C559.832285,471.582147 559.681758,477.419784 558.761637,485.890941 C557.790634,494.353738 555.888908,505.416613 553.614046,516.370803 C551.2459,527.308273 548.544899,538.170499 546.10891,546.321872 C544.976779,550.405918 543.624159,553.777242 542.939368,556.180852 C542.137972,558.567741 541.542225,559.926303 541.542225,559.926303 C541.542225,559.926303 540.583943,554.15973 540.507619,545.538086 C540.477938,536.928982 541.622789,525.531692 543.973974,514.385213 C546.361201,503.242914 549.91236,492.378597 553.315113,484.475946 C556.766628,476.575386 559.832285,471.582147 559.832285,471.582147" id="Fill-17" fill="#FFFFFF"></path>
                        <path d="M98.6013781,49.882394 C98.6013781,49.882394 92.5103452,52.1835891 84.5663493,56.8842138 C80.5636099,59.1603278 76.1071702,62.0279388 71.6486104,65.4159836 C67.1561291,68.753866 62.7399713,72.7250474 58.6799893,77.005563 C54.4949218,81.1962044 50.9840445,85.9511716 47.6215738,90.4427868 C44.6004385,95.1496818 41.666227,99.5639635 39.5312913,103.64592 C37.1292237,107.600381 35.4543486,111.124282 34.2225734,113.594774 C32.9547566,116.054817 32.0876378,117.457271 32.0876378,117.457271 C32.0876378,117.457271 32.1024784,115.866708 32.3738506,113.086881 C32.8042299,110.359307 32.785149,106.214647 34.2649753,101.608077 C35.2995817,96.8468393 37.4620786,91.5693483 40.1779203,86.0452259 C43.1227322,80.6297885 46.9643444,75.2059908 51.5140682,70.3465188 C60.7619226,60.7174489 72.8189029,54.1378284 82.4059725,51.7572096 C91.9972822,49.1759417 98.6013781,49.882394 98.6013781,49.882394" id="Fill-18" fill="#FFFFFF"></path>
                    </g>
                    <path d="M152.584795,468.571921 C152.584795,468.571921 168.631579,457.311445 168.631579,427.967168 C168.631579,419.833812 148.887526,346.265904 160.631579,315.63196 C171.72553,286.693783 222.272921,288.575319 224.584795,282.287683 C226.810168,276.235307 224.756099,258.137481 234.175439,249.68293 C245.20606,239.782136 267.74269,235.901504 267.74269,235.901504 C267.74269,235.901504 304.768641,243.342759 315.695906,240.641029 C322.351487,238.995459 320.491228,230.859603 320.491228,230.859603 C320.491228,230.859603 353.343506,249.800658 378.035088,250.422455 C396.501401,250.887483 461.964912,250.120078 461.964912,250.120078 C461.964912,250.120078 446.732965,246.73194 442.783626,243.599128 C437.142321,239.124164 421.192982,211.296752 421.192982,211.296752 C421.192982,211.296752 483.964202,245.721099 509.918129,246.859603 C533.515859,247.894749 581.847953,237.817702 581.847953,237.817702 C581.847953,237.817702 593.198735,246.725051 601.02924,249.68293 C607.5847,252.159176 625.005848,254.120078 625.005848,254.120078 C625.005848,254.120078 661.269476,301.856502 663.368421,335.63196 C666.064798,379.021083 667.391813,469.613822 667.391813,469.613822 L657.80117,512 C657.80117,512 676.958516,500.219641 691.368421,495.697624 C697.738243,493.69869 720.140351,492.437148 720.140351,492.437148 L705.754386,498.958099 C705.754386,498.958099 720.67548,499.391884 729.730994,495.697624 C736.659886,492.870934 757.707602,447.395247 757.707602,447.395247 L751.274854,375.664792 C751.274854,375.664792 752.706314,379.752517 751.274854,382.185742 C749.509433,385.186642 753.684211,391.967168 753.684211,391.967168 C753.684211,391.967168 760.607784,394.596468 765.660819,388.706693 C771.796867,381.554567 775.251462,368.841465 775.251462,368.841465 C775.251462,368.841465 794.40758,368.552837 804.023392,365.58099 C811.990426,363.118711 828,352.539089 828,352.539089 C828,352.539089 803.608086,352.85233 799.22807,349.278613 C795.615883,346.331379 804.023392,332.976237 804.023392,332.976237 C804.023392,332.976237 811.304351,327.02945 813.614035,319.934336 C818.150997,305.997251 818.701565,284.277717 813.614035,271.027207 C805.669622,250.335925 780.046784,248.203881 780.046784,248.203881 C780.046784,248.203881 786.86423,239.93568 789.637427,231.901504 C792.332156,224.094655 789.637427,215.599128 789.637427,215.599128 C789.637427,215.599128 771.255919,232.202864 760.865497,231.901504 C743.216155,231.389609 751.298246,212.338653 751.298246,212.338653 L757.707602,156 C757.707602,156 725.056986,82.472107 705.754386,69.3477218 C672.187135,46.524395 648.982456,76.3058208 648.982456,76.3058208 C648.982456,76.3058208 614.723199,97.577329 601.02924,99.1291476 C595.541913,99.7509792 591.438596,82.8267713 591.438596,82.8267713 C591.438596,82.8267713 586.362573,34.5209505 548,28 C509.637427,21.4790495 452.374269,60.0034445 452.374269,60.0034445 C452.374269,60.0034445 412.355943,6.84953191 392,4 C381.545042,2.53646009 344.98366,33.3025932 308.51462,33.9196425 C278.613578,34.4255624 248.24413,23.4295913 222.19883,33.9196425 C196.115387,44.4250564 188.516135,52.4486146 179.040936,69.3477218 C171.999664,81.9058964 159.859649,101.650098 159.859649,101.650098 C159.859649,101.650098 147.591062,92.5917709 140.678363,91.8686723 C126.811335,90.4181207 81.5204678,91.1291476 81.5204678,91.1291476 C81.5204678,91.1291476 105.497076,164.910573 100.701754,174.691999 C98.310241,179.570173 94.9044113,183.394618 89.5204678,182.994375 C84.1088454,182.592076 84.7251462,163.431524 84.7251462,163.431524 C84.7251462,163.431524 65.7234861,172.968683 60.748538,179.7339 C52.9359617,190.357885 46.3625731,235.599128 46.3625731,235.599128 C46.3625731,235.599128 70.3391813,267.766732 51.1578947,277.548158 C31.9766082,287.329584 27.1812865,281.245782 27.1812865,281.245782 C27.1812865,281.245782 10.8440913,290.573611 12.7953216,301.850534 C14.0409724,309.049637 36.7719298,324.673861 36.7719298,324.673861 C36.7719298,324.673861 7.18175519e-16,358.757663 0,378.320514 C0,397.883366 38.3625731,410.925267 38.3625731,410.925267 C38.3625731,410.925267 45.507576,422.434798 43.1578947,427.227643 C40.7122544,432.216224 23.9766082,440.269544 23.9766082,440.269544 C23.9766082,440.269544 46.222213,457.121771 57.5438596,456.571921 C68.6003806,456.034946 91.1111111,437.009069 91.1111111,437.009069 C91.1111111,437.009069 65.4980183,456.557297 72.7017544,466.353346 C76.6871021,471.772848 112.678363,486.655723 112.678363,486.655723 C112.678363,486.655723 110.093753,489.164635 107.883041,489.916198 C103.69999,491.338285 113.497076,493.176673 113.497076,493.176673 C113.497076,493.176673 70.2690058,520.739525 99.0409357,517.479049 C127.812865,514.218574 138.19883,488.134772 138.19883,488.134772 L162.175439,520.739525 L152.584795,468.571921 Z" id="Path-14" fill="#E2E3E3"></path>
                    <path d="M569.703032,280.951937 C592.721963,285.730494 599.357411,291.117412 608.24007,300.951937 C613.8088,307.117412 624.29653,320.951937 617.874329,320.951937 C611.452129,320.951937 594.046068,304.111063 584.154421,300.951937 C573.171839,297.444396 550.713539,300.961681 550.713539,300.961681 C550.713539,300.961681 537.204007,310.265008 527.277215,309.177571 C522.101791,308.610625 518.644428,299.703225 516.993631,296.961681 C512.176501,288.961681 531.165994,284.951937 531.165994,284.951937 C531.165994,284.951937 546.684102,276.17338 569.703032,280.951937 Z" id="Path-16" stroke="#F6F4F5" stroke-width="4" fill="#F4F3F3" transform="translate(568.050504, 300.239864) rotate(356.000000) translate(-568.050504, -300.239864) "></path>
                    <path d="M266.810732,280.989846 C289.829662,285.768403 296.465111,291.155322 305.34777,300.989846 C310.9165,307.155322 321.40423,320.989846 314.982029,320.989846 C308.559828,320.989846 291.153768,304.148972 281.262121,300.989846 C270.279539,297.482305 247.821239,300.99959 247.821239,300.99959 C247.821239,300.99959 234.311706,310.302917 224.384915,309.21548 C219.20949,308.648535 215.752127,299.741134 214.10133,296.99959 C209.284201,288.99959 228.273694,284.989846 228.273694,284.989846 C228.273694,284.989846 243.791801,276.211289 266.810732,280.989846 Z" id="Path-16" stroke="#F6F4F5" stroke-width="4" fill="#F4F3F3" transform="translate(265.158204, 300.277773) scale(-1, 1) rotate(356.000000) translate(-265.158204, -300.277773) "></path>
                    <path d="M80,540 C80,540 309.287038,671.356728 418,672 C534.620371,672.690061 756,536 756,536 L764,628 C764,628 542.410677,731.851535 432,728 C313.077343,723.851535 76,604 76,604 C76,604 75.0864391,574.616974 76,560 C76.4197725,553.283641 80,540 80,540 Z" id="Path-32" fill="#F2F2F2"></path>
                    <path d="M76,552 C76,552 178.775792,609.890175 236,636 C292.742808,661.890175 417.901049,708 417.901049,708 C417.901049,708 540.270471,663.559407 600,636 C652.970121,611.559407 756,552 756,552 C756,552 766.57783,584.322127 768,628 C769.393701,670.803531 761.818017,724.485288 744,772 C708,868 652,936 652,936 L184,940 C184,940 161.034139,915.767096 136,872 C122.357821,848.149427 106.109077,817.861786 92,784 C70.5642821,732.554277 66.2195776,671.334103 68,624 C69.5419247,583.006568 76,552 76,552 Z" id="Path-17" fill="#475747"></path>
                    <path d="M76,724 C76,724 93.2480935,798.921859 132,844 C151.769579,866.996956 187.730953,878.70254 208,876 C268,868 236,724 236,724 L76,724 Z" id="Path-18" fill="#F6C823"></path>
                    <polygon id="Path-20" fill="#262F26" points="236 724 224 664 244 724"></polygon>
                    <path d="M588,724 C588,724 605.248093,798.921859 644,844 C663.769579,866.996956 699.730953,878.70254 720,876 C780,868 748,724 748,724 L588,724 Z" id="Path-18" fill="#F6C823" transform="translate(672.262227, 800.191399) scale(-1, 1) translate(-672.262227, -800.191399) "></path>
                    <polygon id="Path-20" fill="#262F26" transform="translate(598.000000, 694.000000) scale(-1, 1) translate(-598.000000, -694.000000) " points="600 724 588 664 608 724"></polygon>
                    <polygon id="Path-21" fill="#262F26" points="588 720 584 744 756 748 760 720"></polygon>
                    <polygon id="Path-28" fill="#262F26" points="244 724 248 752 80 752 76 724"></polygon>
                    <path d="M416,710 L416,932" id="Path-30" stroke="#222A22" stroke-width="4"></path>
                    <circle id="Oval-3" fill="#6C7E6C" cx="436" cy="732" r="8"></circle>
                    <circle id="Oval-3" fill="#6C7E6C" cx="436" cy="792" r="8"></circle>
                    <circle id="Oval-3" fill="#6C7E6C" cx="436" cy="844" r="8"></circle>
                    <circle id="Oval-3" fill="#6C7E6C" cx="436" cy="904" r="8"></circle>
                </g>
            </g>
        </g>
    </g>
</svg>