<?xml version="1.0" encoding="UTF-8" standalone="no"?>
<svg width="1200px" height="1200px" viewBox="0 0 1200 1200" version="1.1" xmlns="http://www.w3.org/2000/svg" xmlns:xlink="http://www.w3.org/1999/xlink">
    <!-- Generator: Sketch 42 (36781) - http://www.bohemiancoding.com/sketch -->
    <title>53</title>
    <desc>Created with Sketch.</desc>
    <defs>
        <polygon id="path-1" points="788.647536 416.940129 788.647536 833.798561 0 833.798561 0 416.940129 0 0.0816978417 788.647536 0.0816978417"></polygon>
        <radialGradient cx="50%" cy="62.9404224%" fx="50%" fy="62.9404224%" r="34.0338197%" id="radialGradient-3">
            <stop stop-color="#CA9353" offset="0%"></stop>
            <stop stop-color="#E88C4A" offset="100%"></stop>
        </radialGradient>
        <path d="M621.309456,115.102063 C621.309456,115.102063 516.983796,168.128909 512.733337,169.793406 C508.266135,171.54278 499.656844,180.03502 499.656844,180.03502 C499.656844,180.03502 487.052864,182.322148 471.991603,180.03502 C456.482279,177.679851 438.350466,170.767341 427.509638,172.115523 C421.259441,172.892808 415.058502,178.761807 409.066493,183.564944 C402.60494,188.744462 398.203945,188.242717 396.580939,192.8537 C394.957932,197.464683 397.882694,203.746023 401.708479,204.712901 C407.880025,206.272617 426.572933,200.433484 426.572933,200.433484 C426.572933,200.433484 450.839433,198.487021 455.902974,212.62796 C460.966515,226.768899 445.919166,234.608285 445.919166,234.608285 C445.919166,234.608285 406.956062,241.272277 389.535934,239.692129 C375.863515,238.451928 352.641525,226.14724 352.641525,226.14724 C352.641525,226.14724 341.449739,222.836394 335.765739,231.077419 C330.08174,239.318444 344.19146,246.961086 344.19146,246.961086 C344.19146,246.961086 385.803328,282.482427 405.574709,283.905398 C437.202772,286.181709 498.389793,258.058931 498.389793,258.058931 C498.389793,258.058931 522.103101,235.02866 555.942519,226.147243 C582.225282,219.249128 618.332913,212.786734 637.966523,204.7129 C681.434029,186.837966 763.52877,149.027107 763.52877,149.027107 L621.309456,115.102063 Z" id="path-4"></path>
        <filter x="-50%" y="-50%" width="200%" height="200%" filterUnits="objectBoundingBox" id="filter-5">
            <feOffset dx="0" dy="18" in="SourceAlpha" result="shadowOffsetOuter1"></feOffset>
            <feGaussianBlur stdDeviation="7.5" in="shadowOffsetOuter1" result="shadowBlurOuter1"></feGaussianBlur>
            <feColorMatrix values="0 0 0 0 0   0 0 0 0 0   0 0 0 0 0  0 0 0 0.159222147 0" type="matrix" in="shadowBlurOuter1"></feColorMatrix>
        </filter>
        <path d="M57.8597721,212.224855 C101.973161,250.128717 176.201735,252.106646 209.415643,255.367814 C242.62955,258.628983 291.439718,260.373658 291.439718,260.373658 C291.439718,260.373658 332.475218,289.085027 390.60501,291.546587 C448.734803,294.008147 462.512178,279.558275 471.53907,273.348378 C476.783193,269.740773 497.438313,211.26496 467.403619,184.391228 C445.738544,165.006265 371.909407,174.389077 368.990904,174.320994 C349.712072,173.871255 311.428928,184.39123 311.428928,184.39123 C311.428928,184.39123 295.674016,184.533766 289.570205,181.444743 C280.404915,176.806365 216.754938,155.286101 191.486769,118.469627 C176.398342,96.4853399 143.126983,0.274174896 143.126983,0.274174896 C143.126983,0.274174896 7.1662828,35.3625905 1.81649852,38.712421 C-3.53328576,42.0622516 5.88420394,112.519064 18.3945964,145.328669 C30.9049889,178.138273 31.5287521,179.811473 35.9428524,187.263964" id="path-6"></path>
        <filter x="-50%" y="-50%" width="200%" height="200%" filterUnits="objectBoundingBox" id="filter-7">
            <feOffset dx="0" dy="18" in="SourceAlpha" result="shadowOffsetOuter1"></feOffset>
            <feGaussianBlur stdDeviation="7.5" in="shadowOffsetOuter1" result="shadowBlurOuter1"></feGaussianBlur>
            <feColorMatrix values="0 0 0 0 0   0 0 0 0 0   0 0 0 0 0  0 0 0 0.138898324 0" type="matrix" in="shadowBlurOuter1"></feColorMatrix>
        </filter>
        <linearGradient x1="50%" y1="76.64519%" x2="50%" y2="24.6476599%" id="linearGradient-8">
            <stop stop-color="#EC8C47" offset="0%"></stop>
            <stop stop-color="#E88C4A" offset="100%"></stop>
        </linearGradient>
        <path d="M650.805386,628.602974 L604.809591,698.244452 L737.329853,806.670458 C737.329853,806.670458 806.736934,779.961084 817.798674,708.46429 C828.860413,636.967496 825.700204,514.435271 825.700204,514.435271 L650.805386,628.602974 Z" id="path-9"></path>
        <filter x="-50%" y="-50%" width="200%" height="200%" filterUnits="objectBoundingBox" id="filter-10">
            <feOffset dx="0" dy="33" in="SourceAlpha" result="shadowOffsetOuter1"></feOffset>
            <feGaussianBlur stdDeviation="21" in="shadowOffsetOuter1" result="shadowBlurOuter1"></feGaussianBlur>
            <feColorMatrix values="0 0 0 0 0   0 0 0 0 0   0 0 0 0 0  0 0 0 0.0709635417 0" type="matrix" in="shadowBlurOuter1"></feColorMatrix>
        </filter>
    </defs>
    <g id="Page-1" stroke="none" stroke-width="1" fill="none" fill-rule="evenodd">
        <g id="53">
            <g id="Group-2" transform="translate(167.000000, 104.000000)">
                <g id="Mascot3_EPS" transform="translate(38.403614, 0.000000)">
                    <g id="Group-3" transform="translate(0.000000, 156.187050)">
                        <mask id="mask-2" fill="white">
                            <use xlink:href="#path-1"></use>
                        </mask>
                        <g id="Clip-2"></g>
                        <path d="M743.577361,217.780014 C737.145289,202.106043 730.311813,186.638719 722.658705,171.64236 C749.78109,155.581525 768.02212,126.112633 768.02212,92.3137554 C768.02212,41.3751511 726.71841,0.0816978417 675.761783,0.0816978417 L112.967476,0.0816978417 C62.013253,0.0816978417 20.7071386,41.3751511 20.7071386,92.3137554 C20.7071386,126.086201 38.9217289,155.535871 66.0104639,171.606317 C58.3573554,186.595468 51.5238795,202.057986 45.0942108,217.727151 C20.8032831,276.917237 5.38169277,340.648763 0.737909639,407.412719 C0.384578313,415.356633 0,423.293338 0,431.323755 C0,489.024058 9.38851807,544.496892 26.4782169,596.47354 C31.5738795,611.104662 41.3758193,636.301237 53.3842771,653.123784 C54.694247,654.851453 55.9321084,656.535871 57.4271566,658.352446 C63.2823614,665.404892 69.7384699,672.255496 77.5069518,679.053237 C85.3475422,685.855784 94.4308012,692.655928 104.766343,698.341137 C114.984108,703.997511 126.906036,708.565381 138.666922,710.081597 C150.975831,711.845309 163.964964,709.73318 173.879873,702.776849 C183.987072,695.993525 191.214741,684.118504 195.39703,670.693626 C203.739976,643.495453 202.814584,612.678547 200.259542,584.807568 C197.466542,556.705914 192.373283,530.593842 187.316078,508.405669 C177.050241,463.995683 166.979096,435.158748 166.979096,435.158748 C166.979096,435.158748 179.009187,463.193122 192.397319,507.055252 C199.016873,528.995928 205.972934,554.903755 210.816217,583.404288 C215.289343,611.847151 218.897169,643.180676 211.607006,675.208633 C207.862175,690.942676 200.057639,707.541755 185.84747,718.755986 C171.620476,730.162446 153.833729,733.689871 137.861711,734.079137 C121.046024,734.194475 106.117175,730.357079 92.5776145,725.202906 C90.9287349,724.566144 89.5226205,723.746763 87.9194096,723.069151 C112.676639,760.39305 393.063072,782.826317 393.063072,782.826317 C393.063072,782.826317 677.206355,758.482763 700.523819,723.383928 C699.031175,724.011079 697.723608,724.777597 696.187699,725.368705 C682.648139,730.522878 667.721693,734.360273 650.906006,734.244935 C634.931584,733.855669 617.147241,730.328245 602.920247,718.921784 C588.710078,707.707554 580.905542,691.108475 577.160711,675.374432 C569.870548,643.346475 573.47597,612.01295 577.9515,583.570086 C582.79238,555.071957 589.750843,529.161727 596.370398,507.22105 C609.756127,463.358921 621.78862,435.324547 621.78862,435.324547 C621.78862,435.324547 611.715072,464.161482 601.451639,508.571468 C596.394434,530.75964 591.298771,556.874115 588.505771,584.973367 C585.950729,612.844345 585.025337,643.661252 593.370687,670.859424 C597.552976,684.284302 604.778241,696.159324 614.88544,702.942647 C624.802753,709.901381 637.789482,712.011108 650.098392,710.247396 C661.861681,708.73118 673.783608,704.163309 683.99897,698.506935 C694.336916,692.821727 703.417771,686.021583 711.258361,679.219036 C721.815036,669.984777 729.802247,660.738504 735.938675,652.573525 C745.509867,638.963626 753.646102,620.158705 759.078271,605.765468 C778.179795,551.143252 788.647536,492.467381 788.647536,431.323755 C788.647536,423.295741 788.265361,415.361439 787.91203,407.419928 C783.268247,340.672791 767.856271,276.958086 743.577361,217.780014 Z" id="Fill-1" fill="#F6C823" mask="url(#mask-2)"></path>
                    </g>
                    <path d="M112.967476,202.230993 C87.4050361,202.230993 66.6810723,222.946201 66.6810723,248.500806 C66.6810723,265.075856 75.4710904,279.502734 88.5707892,287.674921 C104.588476,261.377827 122.461753,236.344647 142.123319,212.837295 C134.143319,206.308676 124.081789,202.230993 112.967476,202.230993" id="Fill-4" fill="#25282C"></path>
                    <path d="M675.761783,202.230993 C664.625837,202.230993 654.545078,206.325496 646.560271,212.875741 C666.21703,236.383094 684.083096,261.413871 700.095976,287.708561 C713.231729,279.543583 722.048187,265.099885 722.048187,248.500806 C722.048187,222.946201 701.324223,202.230993 675.761783,202.230993" id="Fill-5" fill="#25282C"></path>
                    <path d="M507.535211,476.908748 C507.535211,540.109237 456.285343,591.345799 393.063072,591.345799 C329.840801,591.345799 278.58853,540.109237 278.58853,476.908748 C278.58853,413.705856 329.840801,362.469295 393.063072,362.469295 C456.285343,362.469295 507.535211,413.705856 507.535211,476.908748" id="Fill-6" fill="#FFFFFF"></path>
                    <path d="M385.6335,590.97095 C388.102012,591.12954 390.551295,591.345799 393.058265,591.345799 C395.567639,591.345799 398.021729,591.12954 400.490241,590.97095 L400.490241,442.230417 L385.6335,442.230417 L385.6335,590.97095" id="Fill-7" fill="#25282C"></path>
                    <path d="M452.456386,414.421914 C452.456386,412.84082 452.155934,411.34623 451.72809,409.902101 C451.540608,409.193252 451.389181,408.777554 451.389181,408.777554 L451.377163,408.777554 C450.84356,407.367065 450.117669,406.069511 449.225928,404.882489 L449.233139,404.868072 C449.233139,404.868072 442.507825,391.008273 393.740892,390.873712 L393.740892,390.861698 C393.620711,390.861698 393.519759,390.868906 393.401982,390.868906 C393.281801,390.868906 393.180849,390.861698 393.063072,390.861698 L393.063072,390.873712 C364.688404,390.953007 350.58159,395.662647 343.724078,399.603367 C339.582651,401.263755 336.33056,404.59895 334.746578,408.777554 L334.722542,408.777554 C334.722542,408.777554 334.547078,409.267741 334.340367,410.089525 C333.948578,411.475986 333.669759,412.910504 333.669759,414.421914 C333.669759,414.558878 333.705813,414.68623 333.71062,414.820791 C333.419783,422.007799 335.777729,434.670964 352.086253,447.658518 C368.132783,460.439424 380.458518,464.61082 387.231904,465.992475 C387.748681,466.110216 388.275072,466.179899 388.801464,466.266403 C391.467072,466.698921 393.051054,466.696518 393.051054,466.696518 L393.063072,466.696518 C393.063072,466.696518 394.639843,466.696518 397.295837,466.268806 C397.836651,466.179899 398.377464,466.107813 398.906259,465.987669 C405.689259,464.598806 418.002976,460.420201 434.02547,447.658518 C450.269096,434.723827 452.672711,422.111122 452.40591,414.909698 C452.410717,414.743899 452.456386,414.590115 452.456386,414.421914" id="Fill-8" fill="#25282C"></path>
                    <path d="M208.874096,131.718547 L578.066873,131.718547 C533.859596,101.324547 481.93912,81.3614388 425.68012,75.837223 L448.286114,14.3163453 C448.286114,14.3163453 433.898078,2.32838849 393.471687,2.32838849 C353.045295,2.32838849 338.654855,14.3163453 338.654855,14.3163453 L361.263253,75.837223 C305.004253,81.3614388 253.081373,101.324547 208.874096,131.718547" id="Fill-9" fill="#F6C823"></path>
                    <path d="M62.1358373,771.184374 C62.1358373,771.184374 56.0186386,763.230849 49.2813072,749.784345 C42.5055181,736.400317 35.6287771,717.484863 31.2397771,698.02636 C26.7762651,678.572662 24.6514699,658.724892 24.2212229,643.822245 C23.8366446,628.897971 24.769247,618.93564 24.769247,618.93564 C24.769247,618.93564 25.5023494,621.345727 26.5118675,625.569986 C27.4901386,629.784633 28.8914458,635.803842 30.5691687,643.026892 C33.7948193,657.444158 37.6766566,676.595094 42.0969036,695.548993 C46.3032289,714.553353 51.1873735,733.360676 55.2182349,747.482388 C57.2685181,754.570878 58.977488,760.477151 60.174488,764.612504 C61.5060904,768.752662 62.1358373,771.184374 62.1358373,771.184374" id="Fill-10" fill="#FFFFFF"></path>
                    <path d="M633.037536,651.006849 C633.037536,651.006849 632.869283,657.701266 631.828518,667.413698 C630.727663,677.118921 628.576428,689.801309 626.00456,702.363554 C623.326934,714.904173 620.274343,727.360691 617.519801,736.705482 C616.241078,741.388691 614.709976,745.254921 613.933608,748.011022 C613.029849,750.747899 612.356837,752.304964 612.356837,752.304964 C612.356837,752.304964 611.272807,745.694647 611.186277,735.806806 C611.150223,725.935784 612.445771,712.868935 615.104169,700.085626 C617.805831,687.309525 621.822271,674.853007 625.668054,665.791755 C629.571524,656.732906 633.037536,651.006849 633.037536,651.006849" id="Fill-11" fill="#FFFFFF"></path>
                    <path d="M111.49406,167.468561 C111.49406,167.468561 104.607705,170.106921 95.622994,175.496576 C91.0993916,178.106101 86.059012,181.393237 81.0162289,185.278691 C75.9373916,189.108878 70.9450843,193.659928 66.3541807,198.566604 C61.6214639,203.37236 57.6506928,208.824489 53.8481747,213.976259 C50.4326386,219.373122 47.113247,224.433583 44.7000181,229.114388 C41.9839337,233.648619 40.0898855,237.690259 38.6957892,240.523252 C37.2632349,243.34423 36.2849639,244.954158 36.2849639,244.954158 C36.2849639,244.954158 36.2993855,243.127971 36.6070482,239.941755 C37.0925783,236.813209 37.0733494,232.060317 38.7462651,226.778791 C39.9144217,221.319453 42.3613012,215.266604 45.4331205,208.932619 C48.7621265,202.723583 53.1054578,196.504935 58.2491928,190.932662 C68.7073193,179.891439 82.3430241,172.346403 93.1809217,169.616734 C104.02603,166.658791 111.49406,167.468561 111.49406,167.468561" id="Fill-12" fill="#FFFFFF"></path>
                    <path d="M295.360952,325.61636 L295.37297,325.61636 L295.351337,325.580317 C295.305669,325.484201 295.228753,325.400101 295.183084,325.301583 C295.029253,325.051683 294.786488,324.66482 294.397102,324.095338 C293.69044,322.879482 292.875614,321.728504 291.834849,320.683252 C284.222602,311.295209 263.594783,291.728576 223.728434,291.728576 C182.208398,291.728576 161.405114,314.584748 154.521163,324.119367 C153.557313,325.246317 152.70403,326.457367 152.07909,327.788561 C151.90603,328.084115 151.809886,328.259525 151.809886,328.259525 C151.120048,330.13377 150.603271,332.087309 150.574428,334.136964 C150.550392,335.907885 150.704223,337.702835 151.237825,339.488173 C152.259361,342.919482 154.232729,345.793324 156.768542,347.953511 C157.768446,348.849784 165.657108,354.962705 185.970054,345.05564 L185.890735,345.245468 C190.274928,343.075669 194.815355,341.126935 199.668253,339.685209 C224.156277,332.394878 249.32212,336.181813 269.86341,348.064043 C274.211548,350.579856 279.3,351.497755 284.11444,350.063237 C295.137416,346.780906 299.435078,334.742489 295.360952,325.61636" id="Fill-13" fill="#25282C"></path>
                    <path d="M634.039843,325.61636 L634.051861,325.61636 L634.030229,325.580317 C633.986964,325.484201 633.907645,325.400101 633.861976,325.301583 C633.708145,325.051683 633.46538,324.66482 633.075994,324.095338 C632.369331,322.879482 631.554506,321.728504 630.513741,320.683252 C622.901494,311.295209 602.276078,291.728576 562.407325,291.728576 C520.887289,291.728576 500.084006,314.584748 493.200054,324.119367 C492.236205,325.246317 491.382922,326.457367 490.757982,327.788561 C490.584922,328.084115 490.488777,328.259525 490.488777,328.259525 C489.801343,330.13377 489.282163,332.087309 489.253319,334.136964 C489.229283,335.907885 489.383114,337.702835 489.916717,339.488173 C490.938253,342.919482 492.91162,345.793324 495.447434,347.953511 C496.447337,348.849784 504.336,354.962705 524.651349,345.05564 L524.569627,345.245468 C528.953819,343.075669 533.494247,341.126935 538.347145,339.685209 C562.835169,332.394878 588.001012,336.181813 608.542301,348.064043 C612.89044,350.579856 617.978892,351.497755 622.793331,350.063237 C633.818711,346.780906 638.11397,334.742489 634.039843,325.61636" id="Fill-14" fill="#25282C"></path>
                </g>
                <path d="M771.353653,815.784521 C771.353653,815.784521 785.706933,794.97995 790.846519,784.033264 C797.70126,769.433509 807.336635,739.145197 807.336635,739.145197 L756.525182,730.583209 L724.832797,805.69331 L771.353653,815.784521 Z" id="Path-14927" fill="#D47837"></path>
                <path d="M62.6141,757.0562 C53.6325084,732.016568 48.3945904,698.175001 44.4143279,677.765122 C42.4661842,667.775485 39.9519938,620.872256 39.9519938,620.872256 L51.7675705,620.872256 C51.7675705,620.872256 103.807651,712.205223 134.705399,751.581849 C146.049626,766.039128 178.493495,782.373971 178.493495,782.373971 L88.3252758,808.051097 C88.3252758,808.051097 71.7387513,782.494666 62.6141,757.0562 Z" id="Path-14927" fill="#D47937"></path>
                <path d="M439.987946,979.367703 C334.239053,980.503567 84.3527496,967.662503 84.3527496,967.662503 C84.3527496,967.662503 -1.53240085,938.196936 0.0245289995,869.709849 C1.58145884,801.222762 75.9509282,760.324212 75.9509282,760.324212 L210.504867,760.324201 C210.504867,760.324201 215.670844,771.708873 222.734121,753.542665 C229.797397,735.376457 230.458512,761.552052 224.502888,731.650744 C215.97913,688.855651 176.070967,597.747154 174.596627,576.611676 C174.359424,573.211245 208.235466,583.205445 208.235466,583.205445 C208.235466,583.205445 269.6798,638.203328 439.987933,632.429414 C610.296066,626.6555 801.152607,413.735826 801.152607,413.735826 C801.152607,413.735826 814.624816,457.222833 819.075849,479.29722 C822.821957,497.875612 825.74403,535.694161 825.74403,535.694161 L651.859711,632.429411 C651.859711,632.429411 723.333939,702.074 751.510135,721.474187 C779.686331,740.874373 766.051104,760.324218 766.051104,760.324218 C766.051104,760.324218 866.601147,777.568726 866.60116,869.709858 C866.601172,961.850989 781.428677,961.072397 781.428677,961.072397 C781.428677,961.072397 538.751912,978.306865 439.987946,979.367703 Z" id="Path-14919" fill="url(#radialGradient-3)"></path>
                <g id="Group" transform="translate(37.442169, 563.496403)">
                    <g id="Path-14924">
                        <use fill="black" fill-opacity="1" filter="url(#filter-5)" xlink:href="#path-4"></use>
                        <use fill="#F6C724" fill-rule="evenodd" xlink:href="#path-4"></use>
                    </g>
                    <g id="Path-14925">
                        <use fill="black" fill-opacity="1" filter="url(#filter-7)" xlink:href="#path-6"></use>
                        <use fill="#F6C724" fill-rule="evenodd" xlink:href="#path-6"></use>
                    </g>
                </g>
                <g id="Path-14923">
                    <use fill="black" fill-opacity="1" filter="url(#filter-10)" xlink:href="#path-9"></use>
                    <use fill="url(#linearGradient-8)" fill-rule="evenodd" xlink:href="#path-9"></use>
                </g>
                <path d="M606.619196,699.850134 C606.619196,699.850134 630.061454,669.996977 640.541311,654.475771 C648.502415,642.684966 661.94208,617.914101 661.94208,617.914101 L603.951311,696.829142 L606.619196,699.850134 Z" id="Path-14928" fill="#D57A38"></path>
                <ellipse id="Oval-551" fill="#F05052" cx="427.789157" cy="265.03741" rx="12.0180723" ry="20.4244604"></ellipse>
            </g>
        </g>
    </g>
</svg>