<?xml version="1.0" encoding="UTF-8" standalone="no"?>
<svg width="1200px" height="1200px" viewBox="0 0 1200 1200" version="1.1" xmlns="http://www.w3.org/2000/svg" xmlns:xlink="http://www.w3.org/1999/xlink">
    <!-- Generator: Sketch 42 (36781) - http://www.bohemiancoding.com/sketch -->
    <title>55</title>
    <desc>Created with Sketch.</desc>
    <defs>
        <rect id="path-1" x="475.092303" y="673.591003" width="74.4384132" height="44.1810446"></rect>
        <mask id="mask-2" maskContentUnits="userSpaceOnUse" maskUnits="objectBoundingBox" x="0" y="0" width="74.4384132" height="44.1810446" fill="white">
            <use xlink:href="#path-1"></use>
        </mask>
        <rect id="path-3" x="443.613657" y="165.848844" width="120.360295" height="54.3766703"></rect>
        <mask id="mask-4" maskContentUnits="userSpaceOnUse" maskUnits="objectBoundingBox" x="0" y="0" width="120.360295" height="54.3766703" fill="white">
            <use xlink:href="#path-3"></use>
        </mask>
    </defs>
    <g id="Page-1" stroke="none" stroke-width="1" fill="none" fill-rule="evenodd">
        <g id="55">
            <g id="bear" transform="translate(71.000000, 165.000000)">
                <g id="Group-2" transform="translate(2.248634, 3.720818)">
                    <g id="Group">
                        <g id="Mascot_EPS" transform="translate(215.609878, 228.862058)">
                            <g id="Group-3" transform="translate(-0.000000, 0.000000)" fill="#F6C823">
                                <path d="M563.874371,162.806363 C558.998606,151.274622 553.815606,139.898024 548.010865,128.866973 C568.579247,117.05139 582.413911,95.3736209 582.413911,70.5101221 C582.413911,33.037693 551.090487,2.66131319 512.449779,2.66131319 L85.6658405,2.66131319 C47.0251326,2.66131319 15.7035255,33.037693 15.7035255,70.5101221 C15.7035255,95.354228 29.5145563,117.017893 50.0574874,128.838766 C44.2527459,139.866291 39.0715641,151.239362 34.1957994,162.767578 C15.7762439,206.308231 4.08131684,253.19152 0.559931219,302.304995 C0.29087336,308.147556 0,313.986591 0,319.894383 C0,362.338454 7.11912549,403.146467 20.0793517,441.382272 C23.9443314,452.145348 31.3761458,470.6797 40.4822999,483.055915 C41.4767232,484.327033 42.4147898,485.566418 43.547378,486.901004 C47.9886506,492.089494 52.8844128,497.129893 58.7764163,502.129743 C64.7229586,507.134882 71.6093854,512.136494 79.4484225,516.320078 C87.1947436,520.47898 96.2354513,523.841009 105.156174,524.955221 C114.489573,526.252784 124.339272,524.699587 131.858348,519.583379 C139.522861,514.590581 145.002188,505.856711 148.174526,495.980421 C154.502839,475.972207 153.801107,453.303635 151.863163,432.800019 C149.745242,412.128919 145.88208,392.919341 142.046188,376.597546 C134.263507,343.927511 126.624446,322.715172 126.624446,322.715172 C126.624446,322.715172 135.748779,343.338672 145.90026,375.603218 C150.919643,391.743424 156.195359,410.803148 159.867635,431.766905 C163.259945,452.691876 165.995973,475.741254 160.467561,499.301901 C157.62791,510.875954 151.708637,523.086448 140.931779,531.337258 C130.144013,539.727344 116.656579,542.322471 104.543522,542.608076 C91.7923607,542.6927 80.4719331,539.87191 70.2041035,536.079711 C68.953348,535.610754 67.8862064,535.00781 66.6718101,534.510646 C85.4458676,561.965746 107.803121,586.862741 132.940033,608.843746 C146.351113,615.992685 168.201157,621.274614 197.143056,606.701708 C247.605948,581.291682 298.070658,578.467366 298.070658,578.467366 C298.070658,578.467366 348.53355,581.291682 398.99826,606.701708 C432.906822,623.774538 457.082034,613.61088 469.333257,605.102673 C492.672208,584.094841 513.54419,560.56064 531.227472,534.739835 C530.093066,535.20174 529.102278,535.765898 527.938785,536.201357 C517.670955,539.993556 506.350528,542.816109 493.599367,542.729722 C481.486309,542.444117 467.998875,539.848991 457.211109,531.458904 C446.434251,523.208094 440.516797,510.999364 437.677145,499.423547 C432.148734,475.862901 434.882943,452.813523 438.277072,431.890314 C441.94753,410.926557 447.223245,391.866834 452.242629,375.724864 C462.395927,343.460318 471.518443,322.836819 471.518443,322.836819 C471.518443,322.836819 463.881199,344.049158 456.096701,376.719193 C452.262626,393.040987 448.399465,412.250566 446.279725,432.921666 C444.343599,453.425281 443.641867,476.095616 449.968363,496.102068 C453.1407,505.978358 458.620027,514.713991 466.28454,519.705026 C473.805435,524.822996 483.653316,526.374431 492.988533,525.076867 C501.907437,523.962655 510.948145,520.60239 518.696284,516.441725 C526.535321,512.258141 533.421748,507.256528 539.366472,502.251389 C547.370943,495.458575 553.428381,488.656946 558.082355,482.652189 C565.341463,472.640149 571.509796,458.805938 575.631108,448.217398 C590.116602,408.037011 598.053808,364.873638 598.053808,319.894383 C598.053808,313.988354 597.764753,308.151082 597.495695,302.310284 C593.97431,253.209149 582.286654,206.338201 563.874371,162.806363 Z" id="Fill-1"></path>
                            </g>
                            <path d="M7.30872449,399.743146 C10.1828041,415.756396 21.5575113,443.374211 21.5575113,443.374211 L152.992633,443.374211 C152.992633,443.374211 151.259416,422.444006 149.481184,411.770902 C145.32023,386.796485 133.92249,342.853118 133.92249,342.853118 C133.92249,342.853118 151.030407,392.511479 157.906331,420.135739 C161.035222,432.706163 162.877797,459.754835 162.877797,459.754835 L435.508444,459.754832 C435.508444,459.754832 441.803011,412.564814 447.741354,391.267389 C454.115,368.408785 468.569272,328.223962 468.569272,328.223962 C468.569272,328.223962 456.36125,368.728352 451.549522,391.267392 C448.070373,407.564378 445.702044,443.374211 445.702044,443.374211 L579.542518,443.374211 C579.542518,443.374211 593.33373,395.732168 595.586649,372.166138 C596.738895,360.113396 597.911211,344.296581 597.888951,328.223962 C597.84634,297.456438 595.586649,266.551694 595.586649,266.551694 C595.586649,266.551694 582.068388,257.402701 576.791401,257.789082 C518.628835,262.04774 403.305384,281.065701 403.305384,281.065701 C403.305384,281.065701 343.767861,293.321923 314.007863,293.663753 C235.822071,294.561813 79.4680124,284.78537 79.4680124,284.78537 L0.513517299,341.87787 C0.513517299,341.87787 3.8776933,380.626779 7.30872449,399.743146 Z" id="Path-4923" fill="#369942"></path>
                            <path d="M67.4862555,34.709011 C48.101364,34.709011 32.3869307,49.9483277 32.3869307,68.7471285 C32.3869307,80.9399923 39.0515666,91.5532138 48.9867098,97.565022 C61.1324906,78.2196931 74.6871891,59.8052249 89.5962668,42.5120207 C83.5461009,37.7096261 75.9143111,34.709011 67.4862555,34.709011" id="Fill-6" fill="#25282C"></path>
                            <path d="M494.270194,34.709011 C485.823958,34.709011 478.181261,37.720204 472.125641,42.5402286 C487.031083,59.8316698 500.580327,78.2461381 512.72429,97.5879409 C522.683067,91.5831847 529.369518,80.9576222 529.369518,68.7471285 C529.369518,49.9483277 513.655085,34.709011 494.270194,34.709011" id="Fill-7" fill="#25282C"></path>
                            <path d="M366.698592,236.769234 C366.698592,283.261138 327.834275,320.952179 279.891073,320.952179 C231.947871,320.952179 193.083555,283.261138 193.083555,236.769234 C193.083555,190.275567 231.947871,152.584526 279.891073,152.584526 C327.834275,152.584526 366.698592,190.275567 366.698592,236.769234" id="Fill-12" fill="#FFFFFF"></path>
                            <path d="M324.929177,190.802702 C324.929177,189.639126 324.701932,188.539018 324.378336,187.477696 C324.236535,186.957613 324.122003,186.650852 324.122003,186.650852 L324.112914,186.650852 C323.707509,185.612449 323.156667,184.656906 322.482205,183.784224 L322.485841,183.773646 C322.485841,183.773646 317.386467,173.578254 280.403737,173.48129 L280.403737,173.470712 C280.314657,173.470712 280.238303,173.476001 280.147405,173.476001 C280.058325,173.476001 279.980153,173.470712 279.891073,173.470712 L279.891073,173.48129 C258.373716,173.537705 247.67503,177.001988 242.475669,179.902112 C239.336055,181.123867 236.869085,183.577954 235.669232,186.650852 L235.651053,186.650852 C235.651053,186.650852 235.516524,187.010503 235.36018,187.615209 C235.062034,188.635983 234.851151,189.690253 234.851151,190.802702 C234.851151,190.903192 234.878421,190.996631 234.882056,191.095359 C234.662083,196.38434 236.450955,205.698235 248.818526,215.25366 C260.986123,224.653942 270.332247,227.721551 275.469798,228.738798 C275.860659,228.825185 276.26061,228.878075 276.658743,228.941542 C278.680313,229.258881 279.881983,229.257118 279.881983,229.257118 L279.891073,229.257118 C279.891073,229.257118 281.08729,229.257118 283.101588,228.943305 C283.510628,228.878075 283.921487,228.825185 284.323256,228.735272 C289.464443,227.714499 298.803295,224.639838 310.95453,215.25366 C323.271199,205.737021 325.094611,196.460148 324.892818,191.16059 C324.896454,191.038943 324.929177,190.926111 324.929177,190.802702" id="Fill-14" fill="#25282C"></path>
                            <path d="M66.370029,9.13678871 C66.370029,9.13678871 61.1470342,11.0778447 54.3351437,15.0428173 C50.9028381,16.9627173 47.0814893,19.3815445 43.2583226,22.2393572 C39.4060685,25.054858 35.6192609,28.4045458 32.1378704,32.0151567 C28.5492203,35.5499589 25.538681,39.5607694 22.6553989,43.3494426 C20.064808,47.3197042 17.5487534,51.0431467 15.7180692,54.4862732 C13.6583222,57.8218571 12.222135,60.7942643 11.1659011,62.8781228 C10.0787619,64.9531663 9.33521691,66.136135 9.33521691,66.136135 C9.33521691,66.136135 9.34794262,64.7944968 9.58064131,62.4497153 C9.94968688,60.1490087 9.93332526,56.6529924 11.2022603,52.7673545 C12.089424,48.751255 13.9437417,44.2996962 16.2725466,39.6401041 C18.7976909,35.0721876 22.0918317,30.4972192 25.9931707,26.3982591 C33.9231057,18.2761476 44.2618357,12.7262437 52.482644,10.718194 C60.7070883,8.54089687 66.370029,9.13678871 66.370029,9.13678871" id="Fill-18" fill="#FFFFFF"></path>
                            <path d="M140.890868,529.413358 C156.949224,516.615238 160.763929,499.828402 162.346233,485.535848 C163.963982,470.923131 163.166227,458.944156 163.166227,458.944156 L435.549438,459.429972 C435.549438,459.429972 433.690539,475.951174 437.136796,493.877396 C439.913339,508.319998 445.072365,523.82271 459.575215,532.285539 C492.07907,551.252468 531.841766,534.54941 531.841766,534.54941 C531.841766,534.54941 519.648442,552.488055 512.837752,560.629871 C503.661567,571.59951 482.748702,593.397038 482.748702,593.397038 L365.988758,593.397038 C365.988758,593.397038 318.688663,579.004336 296.209372,579.62072 C269.441843,580.354688 228.812413,593.397038 228.812413,593.397038 L116.361766,593.397038 C116.361766,593.397038 101.754945,579.687814 93.6568455,570.128401 C84.1403843,558.89468 66.0367323,533.812953 66.0367323,533.812953 C66.0367323,533.812953 108.414437,555.296284 140.890868,529.413358 Z" id="Path-4923" fill="#065D22"></path>
                        </g>
                        <path d="M378.635397,695.001817 C378.635397,690.06151 377.570595,679.708378 377.570595,679.708378 L652.517866,679.708378 C652.517866,679.708378 651.088915,689.613524 650.672577,694.564201 C650.23149,699.80915 651.208168,710.295255 651.208168,710.295255 L378.275211,710.295255 C378.275211,710.295255 378.635397,700.257136 378.635397,695.001817 Z" id="Rectangle-791" fill="#4D2907"></path>
                        <use id="Rectangle-790" stroke="#F5B300" mask="url(#mask-2)" stroke-width="16.353792" xlink:href="#path-1"></use>
                        <path d="M761.46934,324.76102 C749.772372,329.255471 745.517611,374.658498 743.391681,392.190045 C741.26285,409.721591 633.222714,476.253196 622.587261,487.49055 C611.954709,498.727903 592.397587,485.01897 572.057682,470.015399 C553.057722,455.999969 541.218639,450.068667 524.202494,448.268925 C508.479889,446.608945 496.811924,455.38943 495.123941,456.735559 C493.438859,455.38943 481.767993,446.608945 466.045389,448.268925 C449.032144,450.068667 437.190161,455.999969 418.190201,470.015399 C397.853196,485.01897 385.822692,498.727903 375.187239,487.49055 C364.554686,476.253196 260.818582,405.687171 258.692651,388.155624 C256.566721,370.624078 252.311959,325.221051 240.612091,320.7266 C228.915123,316.232149 201.225105,293.334332 199.629932,334.242908 C198.034759,375.149032 302.428483,484.110399 320.401732,527.213483 C333.429944,558.456415 364.035676,591.331232 364.035676,591.331232 C364.035676,591.331232 363.504919,573.799685 364.566434,571.551234 C365.630849,569.305234 370.592444,595.649148 393.008974,623.47159 C417.998083,654.488941 437.937745,663.480295 437.937745,663.480295 L433.685884,641.454298 C433.685884,641.454298 453.617542,668.425916 494.825209,681.23743 C494.92962,680.124238 495.028231,678.957103 495.123941,677.765449 C495.219652,678.957103 495.318262,680.124238 495.422674,681.23743 C536.633241,668.425916 561.12651,644.154343 561.12651,644.154343 L556.871749,666.18034 C556.871749,666.18034 576.811411,657.188986 601.80342,626.171635 C624.21995,598.349194 629.201932,569.305234 630.266348,571.551234 C631.330763,573.799685 630.797105,591.331232 630.797105,591.331232 C630.797105,591.331232 665.357454,558.456415 678.382766,527.213483 C696.356014,484.110399 798.294648,412.231637 796.699475,371.325513 C795.104302,330.416937 773.166308,320.266569 761.46934,324.76102 Z" id="Fill-68" fill="#ED623B"></path>
                        <path d="M516.927621,492.643868 C499.229702,489.240808 496.518736,489.094417 475.944887,492.643868 C462.91415,494.891712 459.216318,489.920784 459.216318,489.920784 C459.216318,489.920784 478.353661,483.892233 484.508444,480.975021 C490.182931,478.285883 495.618001,474.777803 496.435524,474.245279 C497.253047,474.777803 502.688117,478.285883 508.362605,480.975021 C514.518847,483.892233 533.654731,489.920784 533.654731,489.920784 C533.654731,489.920784 529.873686,495.133576 516.927621,492.643868 L516.927621,492.643868 Z" id="Path" fill="#26292D"></path>
                        <path d="M691.263095,602.241736 C691.263095,602.241736 752.576896,585.612919 739.799993,563.668627 C727.02309,541.728326 672.077297,538.571764 661.140268,508.243228 C653.36169,486.705978 669.118166,460.607475 669.118166,460.607475 C669.118166,460.607475 661.498022,463.109579 650.959632,463.109579 C646.365058,463.109579 641.218521,462.634698 635.90333,461.269914 C688.493062,456.285658 691.263106,425.166481 691.263106,425.166481 C691.263106,425.166481 699.3381,457.447041 701.62261,361.445254 C698.290394,351.907728 698.586827,316.315585 691.263106,307.209044 C672.24791,283.576307 678.3295,310.752546 609.532159,279.610298 C583.009947,267.604583 553.880174,242.159981 522.134337,235.204002 C471.532999,224.116508 421.757615,235.204005 421.757615,235.204005 C331.828679,260.857831 343.388904,270.731002 313.352961,307.209048 C302.594809,320.282243 297.105851,340.666211 294.473809,361.445248 C298.526643,455.415821 304.475872,447.073463 357.060493,452.057718 C351.745301,453.422502 346.598765,453.897383 342.004191,453.897383 C331.470912,453.897383 323.850767,451.395279 323.850767,451.395279 C323.850767,451.395279 339.602133,477.493782 331.828665,499.031033 C320.891636,529.359569 265.940732,532.516131 253.16894,554.456432 C240.392037,576.400723 301.705839,593.02954 301.705839,593.02954 C301.705839,593.02954 297.928987,593.76381 291.346326,593.76381 C278.165673,593.76381 253.746456,590.810768 225.913251,573.076556 C184.183886,546.479229 196.112403,489.960407 196.112403,489.960407 C196.112403,489.960407 165.396728,510.631698 136.674251,510.631698 C120.345369,510.631698 104.655332,503.943458 95.624617,482.976862 C104.512231,487.278726 112.474797,489.130362 119.471429,489.130362 C156.458007,489.126372 179.521311,451.706458 154.815892,437.448056 C137.258555,427.318204 166.105027,412.504979 166.019842,385.570376 C165.962473,367.430592 131.33146,424.69134 141.611247,410.242338 C167.159942,374.334948 148.219061,322.032433 179.486337,292.609881 C191.935262,280.895426 196.064492,256.832706 213.864284,245.338477 C229.635428,235.154249 258.869637,237.380534 273.77741,229.219484 C284.303613,223.457063 277.997543,206.224762 291.346327,206.224762 C313.293266,206.224762 341.801231,183.911103 403.854568,177.521017 C478.963187,169.786533 458.743715,153.380443 512.770407,153.380443 C566.797098,153.380443 597.883088,170.695352 618.078218,172.59694 C666.375127,177.144611 664.056134,166.091374 691.263119,177.521019 C717.859639,188.694206 683.541878,218.709811 694.558759,229.219484 C705.57564,239.729157 767.003627,243.315553 784.539713,260.857829 C806.224512,282.550282 795.400834,292.578761 797.233681,293.999956 C814.539917,307.419271 811.37122,345.486847 821.587631,361.445244 C831.804043,377.40364 857.008494,391.536719 865.947215,422.459854 C874.891047,453.371016 836.500705,498.342558 873.497505,498.342558 C880.489026,498.342558 888.461814,496.490921 897.344317,492.189058 C888.313602,513.159644 872.628676,519.843893 856.294683,519.843893 C827.572205,519.843893 796.856531,499.172602 796.856531,499.172602 C796.856531,499.172602 808.779937,555.691424 767.045461,582.288752 C739.217366,600.026954 714.79815,602.976005 701.622607,602.976005 C695.039947,602.976005 691.263095,602.241736 691.263095,602.241736 Z" id="Fill-58" fill="#CB4B2D" transform="translate(496.484467, 378.178224) scale(-1, 1) translate(-496.484467, -378.178224) "></path>
                        <g transform="translate(1.090775, 1.410394)"></g>
                        <path d="M331.546659,821.627795 C331.546659,821.627795 341.28974,838.990432 363.935798,843.41318 C372.467959,845.0795 383.731948,845.560957 395.534026,842.497737 C415.691355,837.265917 444.678546,822.10683 444.678546,822.10683 L331.546659,821.627795 Z" id="Path-4924" fill="#4D2907"></path>
                    </g>
                    <path d="M221.119056,240.616766 L779.934709,240.616766" id="Line" stroke="#065D22" stroke-width="40.88448" stroke-linecap="square"></path>
                    <path d="M269.070506,224.920391 L237.083905,38.2583598 C235.811945,30.835669 240.889705,24.8183892 248.413776,24.8183892 L765.104439,24.8183892 C772.633715,24.8183892 777.339694,30.7527553 775.613177,38.0831937 L731.607949,224.920391 L269.070506,224.920391 Z" id="Path-4921" fill="#065D22"></path>
                    <polygon id="Path-4922" fill="#4D2907" points="268.802136 217.239283 261.115753 175.11804 742.79731 175.11804 732.856639 218.067278"></polygon>
                    <use id="Rectangle-790" stroke="#F5B300" mask="url(#mask-4)" stroke-width="20.44224" xlink:href="#path-3"></use>
                    <path d="M581.241198,821.698164 C581.241198,821.698164 591.451717,839.809775 614.097776,844.232522 C622.629937,845.898843 633.893926,846.3803 645.696003,843.31708 C665.853333,838.08526 698.894244,822.211472 698.894244,822.211472 L581.241198,821.698164 Z" id="Path-4924" fill="#4D2907" transform="translate(640.067721, 833.625153) scale(-1, 1) translate(-640.067721, -833.625153) "></path>
                </g>
                <g id="Group-6" transform="translate(312.544468, 326.919223)" fill="#25282C">
                    <path d="M109.54096,25.8743015 L109.550052,25.8743015 L109.533686,25.8467815 C109.499135,25.7733948 109.440944,25.7091815 109.406393,25.6339602 C109.290011,25.4431549 109.106346,25.1477735 108.811754,24.7129576 C108.277123,23.7846163 107.660662,22.9058111 106.873265,22.1077312 C101.114171,14.9396892 85.5080639,0 55.3469248,0 C23.9346786,0 8.19582307,17.4513476 2.98772575,24.7313043 C2.25851939,25.5917628 1.61296263,26.5164347 1.1401605,27.53284 C1.00923068,27.758504 0.936491888,27.8924346 0.936491888,27.8924346 C0.414591074,29.3234745 0.0236200806,30.8150583 0.00179844374,32.3800288 C-0.0163862536,33.732178 0.0999958094,35.1026739 0.503696091,36.4658311 C1.27654573,39.0857349 2.76950938,41.279996 4.68799495,42.9293611 C5.44447836,43.6136917 11.412696,48.2810833 26.7805838,40.7167534 L26.7205743,40.861692 C30.0374631,39.2049882 33.4725524,37.7170737 37.1440428,36.6162738 C55.6706125,31.0498956 74.7099906,33.94133 90.2506329,43.0137558 C93.5402447,44.9346516 97.3899451,45.6354942 101.03234,44.5401983 C109.371842,42.0340439 112.623266,32.8423648 109.54096,25.8743015" id="Fill-13"></path>
                    <path d="M365.770619,25.8743015 L365.779712,25.8743015 L365.763346,25.8467815 C365.730613,25.7733948 365.670604,25.7091815 365.636053,25.6339602 C365.519671,25.4431549 365.336005,25.1477735 365.041413,24.7129576 C364.506783,23.7846163 363.890322,22.9058111 363.102924,22.1077312 C357.343831,14.9396892 341.739542,0 311.576584,0 C280.164338,0 264.425483,17.4513476 259.217385,24.7313043 C258.488179,25.5917628 257.842622,26.5164347 257.36982,27.53284 C257.23889,27.758504 257.166151,27.8924346 257.166151,27.8924346 C256.646069,29.3234745 256.25328,30.8150583 256.231458,32.3800288 C256.213273,33.732178 256.329655,35.1026739 256.733356,36.4658311 C257.506205,39.0857349 258.999169,41.279996 260.917655,42.9293611 C261.674138,43.6136917 267.642356,48.2810833 283.012062,40.7167534 L282.950234,40.861692 C286.267123,39.2049882 289.702212,37.7170737 293.373702,36.6162738 C311.900272,31.0498956 330.93965,33.94133 346.480293,43.0137558 C349.769904,44.9346516 353.619605,45.6354942 357.262,44.5401983 C365.60332,42.0340439 368.852926,32.8423648 365.770619,25.8743015" id="Fill-14"></path>
                </g>
            </g>
        </g>
    </g>
</svg>