<?xml version="1.0" encoding="UTF-8" standalone="no"?>
<svg width="1200px" height="1200px" viewBox="0 0 1200 1200" version="1.1" xmlns="http://www.w3.org/2000/svg" xmlns:xlink="http://www.w3.org/1999/xlink">
    <!-- Generator: Sketch 42 (36781) - http://www.bohemiancoding.com/sketch -->
    <title>58</title>
    <desc>Created with Sketch.</desc>
    <defs>
        <rect id="path-1" x="547.555152" y="661.39521" width="161.275152" height="49.3772455"></rect>
        <mask id="mask-2" maskContentUnits="userSpaceOnUse" maskUnits="objectBoundingBox" x="0" y="0" width="161.275152" height="49.3772455" fill="white">
            <use xlink:href="#path-1"></use>
        </mask>
    </defs>
    <g id="Page-1" stroke="none" stroke-width="1" fill="none" fill-rule="evenodd">
        <g id="58">
            <g id="Group-11" transform="translate(65.000000, 81.000000)">
                <g id="Group-5" transform="translate(0.591185, 187.113772)">
                    <g id="Group" transform="translate(260.121212, 0.959156)">
                        <g id="Mascot_EPS" transform="translate(57.919324, 4.932157)">
                            <g id="Group-3" fill="#F6C823">
                                <path d="M592.395558,174.661864 C587.273174,162.10194 581.828014,149.710992 575.729664,137.6964 C597.338411,124.827327 611.872843,101.216743 611.872843,74.1363871 C611.872843,33.3228745 578.965056,0.238102826 538.369872,0.238102826 L89.9988828,0.238102826 C49.403699,0.238102826 16.4978216,33.3228745 16.4978216,74.1363871 C16.4978216,101.195621 31.0074246,124.790843 52.5894325,137.665677 C46.4910828,149.676429 41.0478331,162.063536 35.9254485,174.61962 C16.5742181,222.042406 4.2877529,273.105861 0.588252959,326.59835 C0.305585953,332.96184 0,339.321489 0,345.756026 C0,388.941958 71.9621509,428.493171 83.9217817,467.737652 C84.7643519,470.502472 107.484286,480.448695 108.3804,483.189535 C110.223084,488.509426 42.0878378,516.519357 64.9254917,553.353309 C92.4120926,597.685364 125.240262,647.392182 139.66424,660.468436 C153.753662,668.254783 176.708897,674.007654 207.114699,658.135413 C260.130042,630.459799 316.624246,552.16582 316.624246,552.16582 C316.624246,552.16582 366.162638,630.459799 419.179891,658.135413 C454.803573,676.730475 480.201586,665.660614 493.072484,656.393806 C517.591937,633.512892 539.519639,607.880355 558.097355,579.757339 C556.90557,580.260427 555.864667,580.874886 554.642324,581.349171 C543.855139,585.479487 531.962116,588.553702 518.565992,588.459613 C505.840247,588.148543 491.670608,585.322032 480.337189,576.183876 C469.01523,567.197415 462.798466,553.90014 459.815183,541.292211 C454.00714,515.630871 456.879648,490.526385 460.445454,467.73764 C464.301566,444.904731 469.844132,424.145621 475.117399,406.564416 C485.784259,371.423127 495.368198,348.960813 495.368198,348.960813 C495.368198,348.960813 487.344657,372.064468 479.166413,407.647399 C475.138408,425.424464 628.303817,394.745683 628.303817,345.756026 C628.303817,339.323409 628.000141,332.96568 627.717474,326.60411 C624.017974,273.125063 611.739149,222.075049 592.395558,174.661864 Z" id="Fill-1"></path>
                            </g>
                            <path d="M248.242749,126.926088 C248.242749,164.168058 218.213199,194.361033 181.168542,194.361033 C144.125795,194.361033 114.094335,164.168058 114.094335,126.926088 C114.094335,89.6821974 144.125795,59.489223 181.168542,59.489223 C218.213199,59.489223 248.242749,89.6821974 248.242749,126.926088" id="Fill-4" fill="#FFFFFF"></path>
                            <path d="M211.01856,126.926088 C211.01856,143.499197 197.654904,156.934725 181.168542,156.934725 C164.68409,156.934725 151.320434,143.499197 151.320434,126.926088 C151.320434,110.351059 164.68409,96.9155309 181.168542,96.9155309 C197.654904,96.9155309 211.01856,110.351059 211.01856,126.926088" id="Fill-5" fill="#25282C"></path>
                            <path d="M89.9988828,37.0633931 C69.633489,37.0633931 53.1242079,53.6614643 53.1242079,74.1363871 C53.1242079,87.4163802 60.1259461,98.9758884 70.5636163,105.523716 C83.3237397,84.4535362 97.5640451,64.3972135 113.227235,45.5621278 C106.871047,40.3315464 98.8532358,37.0633931 89.9988828,37.0633931" id="Fill-6" fill="#25282C"></path>
                            <path d="M538.369872,37.0633931 C529.49642,37.0633931 521.467149,40.3430675 515.105231,45.5928508 C530.764601,64.4260162 544.999177,84.482339 557.75739,105.548678 C568.219889,99.0085315 575.244547,87.4355821 575.244547,74.1363871 C575.244547,53.6614643 558.735265,37.0633931 538.369872,37.0633931" id="Fill-7" fill="#25282C"></path>
                            <path d="M177.014483,105.187684 C177.014483,114.287436 169.67851,121.662863 160.629346,121.662863 C151.578272,121.662863 144.242299,114.287436 144.242299,105.187684 C144.242299,96.0898517 151.578272,88.7144247 160.629346,88.7144247 C169.67851,88.7144247 177.014483,96.0898517 177.014483,105.187684" id="Fill-8" fill="#FFFFFF"></path>
                            <path d="M514.209482,126.926088 C514.209482,164.168058 484.179933,194.361033 447.135276,194.361033 C410.090619,194.361033 380.061069,164.168058 380.061069,126.926088 C380.061069,89.6821974 410.090619,59.489223 447.135276,59.489223 C484.179933,59.489223 514.209482,89.6821974 514.209482,126.926088" id="Fill-9" fill="#FFFFFF"></path>
                            <path d="M476.983384,126.926088 C476.983384,143.499197 463.619728,156.934725 447.135276,156.934725 C430.648913,156.934725 417.285258,143.499197 417.285258,126.926088 C417.285258,110.351059 430.648913,96.9155309 447.135276,96.9155309 C463.619728,96.9155309 476.983384,110.351059 476.983384,126.926088" id="Fill-10" fill="#25282C"></path>
                            <path d="M442.981217,105.187684 C442.981217,114.287436 435.643334,121.662863 426.59417,121.662863 C417.545006,121.662863 410.209033,114.287436 410.209033,105.187684 C410.209033,96.0898517 417.545006,88.7144247 426.59417,88.7144247 C435.643334,88.7144247 442.981217,96.0898517 442.981217,105.187684" id="Fill-11" fill="#FFFFFF"></path>
                            <path d="M404.345603,257.139531 C404.345603,307.776705 363.5155,348.828321 313.147295,348.828321 C262.77909,348.828321 221.948987,307.776705 221.948987,257.139531 C221.948987,206.500436 262.77909,165.448821 313.147295,165.448821 C363.5155,165.448821 404.345603,206.500436 404.345603,257.139531" id="Fill-12" fill="#FFFFFF"></path>
                            <path d="M307.228477,348.526852 C309.193777,348.655504 311.145707,348.828321 313.143475,348.828321 C315.143153,348.828321 317.096993,348.655504 319.064203,348.526852 L319.064203,229.354467 L307.228477,229.354467 L307.228477,348.526852" id="Fill-13" fill="#25282C"></path>
                            <path d="M360.46346,207.074571 C360.46346,205.80725 360.224721,204.609055 359.884756,203.453104 C359.735783,202.88665 359.615459,202.552538 359.615459,202.552538 L359.605909,202.552538 C359.179999,201.421549 358.601295,200.38081 357.892718,199.430319 L357.896538,199.418797 C357.896538,199.418797 352.539234,188.314373 313.68589,188.208763 L313.68589,188.197242 C313.592304,188.197242 313.512088,188.203002 313.416593,188.203002 C313.323007,188.203002 313.240881,188.197242 313.147295,188.197242 L313.147295,188.208763 C290.541574,188.270209 279.301741,192.04337 273.839392,195.202073 C270.540973,196.532761 267.949223,199.205657 266.688681,202.552538 L266.669581,202.552538 C266.669581,202.552538 266.528248,202.944255 266.363995,203.602879 C266.05077,204.714665 265.82922,205.862935 265.82922,207.074571 C265.82922,207.184022 265.857869,207.285792 265.861689,207.393322 C265.630589,213.153874 267.509943,223.298207 280.503076,233.705604 C293.286118,243.944026 303.104977,247.285146 308.502388,248.393092 C308.91302,248.487181 309.3332,248.544787 309.751471,248.613914 C311.875293,248.959547 313.137745,248.957626 313.137745,248.957626 L313.147295,248.957626 C313.147295,248.957626 314.404017,248.957626 316.5202,248.615834 C316.94993,248.544787 317.38157,248.487181 317.803661,248.389252 C323.204893,247.277465 333.016112,243.928664 345.781965,233.705604 C358.72162,223.340451 360.637262,213.236442 360.425262,207.464369 C360.429081,207.331876 360.46346,207.208984 360.46346,207.074571" id="Fill-14" fill="#25282C"></path>
                            <path d="M504.331416,396.629383 C504.331416,396.629383 504.195813,401.992457 503.366911,409.774963 C502.492171,417.549789 500.77898,427.713323 498.729644,437.777008 C496.596272,447.825331 494.163044,457.804528 491.968555,465.293246 C490.948662,469.045285 489.730138,472.142542 489.113236,474.350754 C488.391289,476.543604 487.854604,477.791724 487.854604,477.791724 C487.854604,477.791724 486.991323,472.493936 486.922567,464.573177 C486.895828,456.663938 487.92718,446.193175 490.045273,435.952833 C492.195834,425.716332 495.394937,415.735215 498.460346,408.474999 C501.569683,401.216703 504.331416,396.629383 504.331416,396.629383" id="Fill-17" fill="#FFFFFF"></path>
                            <path d="M88.8261967,9.21112303 C88.8261967,9.21112303 83.339019,11.3252457 76.182578,15.6437397 C72.5766637,17.7348202 68.5620283,20.3693127 64.5454829,23.4819311 C60.4983789,26.5484651 56.5200318,30.1968148 52.86255,34.1293518 C49.0923833,37.9793209 45.9295687,42.3477397 42.9004479,46.4742153 C40.178823,50.7984698 37.5355045,54.8538986 35.6122229,58.6040181 C33.4482924,62.2370064 31.9394618,65.4744367 30.8298028,67.7440943 C29.6876753,70.004151 28.9065212,71.2925945 28.9065212,71.2925945 C28.9065212,71.2925945 28.9198906,69.8313344 29.1643593,67.2774896 C29.5520715,64.7716494 29.5348823,60.9639243 30.868001,56.7318386 C31.8000382,52.3576593 33.7481486,47.5091945 36.1947462,42.434148 C38.8476142,37.458951 42.3083751,32.4760733 46.4070467,28.0116454 C54.7380837,19.1653573 65.5997544,13.1206178 74.2363774,10.9335281 C82.8768202,8.56210081 88.8261967,9.21112303 88.8261967,9.21112303" id="Fill-18" fill="#FFFFFF"></path>
                        </g>
                        <g id="Group-2" transform="translate(4.181955, 271.050766)" fill="#19090C">
                            <path d="M114.887637,282.7173 C111.612481,277.403648 113.400884,265.533128 107.195435,253.214586 C88.9994319,217.093392 56.5527962,164.738426 56.5527962,164.738426 C56.5527962,164.738426 36.3447448,159.386265 27.7137538,155.550328 C17.7103249,151.104429 0.649536514,139.892917 0.649536514,139.892917 L9.92590363,9.2424934 C9.92590363,9.2424934 66.2257611,4.58268346 66.2257611,4.58268346 C96.3476981,-4.51302017 218.93798,90.2009072 218.93798,90.2009072 C222.896929,87.6895161 301.731105,118.980622 363.039669,118.525161 C392.202829,118.308508 479.619303,106.440607 550.534771,76.997943 C616.382346,49.6593654 667.07261,4.58268338 667.07261,4.58268338 C674.744433,3.34311831 679.363122,6.03286315 691.416235,6.73954788 C712.046019,7.94909047 670.010857,164.738428 670.010857,164.738428 C670.010857,164.738428 651.329884,210.298712 637.543594,248.467894 C632.860569,261.43347 631.699939,273.525683 628.036881,282.717295 C621.354501,299.485207 123.494345,296.680923 114.887637,282.7173 Z" id="Fill-79"></path>
                        </g>
                    </g>
                    <path d="M146.576944,200.810767 C139.109129,203.761618 108.914625,167.325096 108.914625,167.325096 L40.7938643,138.118806 C40.7938643,138.118806 14.5603898,123.401225 22.7790545,101.31275 C30.9977192,79.2242757 49.266835,73.5302055 49.266835,73.5302055 C49.266835,73.5302055 96.9470546,94.6042438 113.700415,107.774001 C130.453775,120.943758 145.386031,119.111981 146.576946,135.197974 C147.750629,151.051221 146.576946,182.636085 146.576946,182.636085 C146.576946,182.636085 155.511825,197.280214 146.576944,200.810767 Z" id="Path-3" fill="#F5B300" transform="translate(85.866422, 137.255498) rotate(-25.000000) translate(-85.866422, -137.255498) "></path>
                </g>
                <g id="Group-9" transform="translate(895.340041, 574.073087) rotate(-27.000000) translate(-895.340041, -574.073087) translate(734.064889, 501.306620)">
                    <path d="M249.216509,5.09508852 L190.178448,77.6107652 L100.388817,61.4184788 C100.388817,61.4184788 97.398599,73.0048012 94.6945761,77.6107675 C91.9308431,82.3184427 83.9855493,89.3594034 83.9855493,89.3594034 C83.9855493,89.3594034 157.443679,126.550379 190.178448,140.260264 C202.108521,145.256784 260.37456,125.031777 278.119192,120.039285 C293.606077,115.682015 301.964323,100.553979 301.964323,100.553979 C301.964323,100.553979 322.036721,75.1385469 320.969762,68.0811407 C318.472935,51.5658491 291.272965,29.8358861 291.272965,29.8358861 L249.216509,5.09508852 Z" id="Path-200" fill="#000000"></path>
                    <path d="M110.372735,83.296927 C112.766119,78.6324073 112.788573,68.1124455 112.788573,68.1124455 C112.788573,68.1124455 83.2640359,26.7402354 71.7775788,20.7663481 C67.3678152,18.4729141 68.8528673,45.0139066 68.8528673,45.0139066 C68.8528673,45.0139066 25.7510341,41.5662472 15.9672089,45.0139071 C12.3771987,46.278968 3.99672964,61.9525634 3.81260997,66.2206558 C3.66369554,69.6726527 10.6269927,84.2719208 11.6093882,86.4342832 C12.7328176,88.907077 30.2967772,94.5143806 30.2967772,94.5143806 C30.2967772,94.5143806 53.1967545,100.116076 65.0999115,100.683179 C75.6299741,101.184864 97.5964358,97.7207425 97.5964358,97.7207425 C97.5964358,97.7207425 107.702073,88.5018396 110.372735,83.296927 Z" id="Path-201" fill="#F5B300"></path>
                </g>
                <path d="M275.060577,606.062322 C249.236787,588.2416 194.33482,543.262441 178.278465,506.540272 C171.718629,491.537401 157.088433,470.557161 152.736866,445.793148 C143.491634,393.180132 121.287427,339.347367 121.287427,339.347367 C121.287427,339.347367 137.784948,348.587176 143.873717,344.53708 C148.956683,341.156018 154.802632,317.053892 154.802632,317.053892 C154.802632,317.053892 200.696782,392.146602 227.937122,418.821308 C260.624845,450.830287 334.586821,493.104945 334.586821,493.104945 L289.234496,611.520576 C289.234496,611.520576 283.208409,611.685054 275.060577,606.062322 Z" id="Path-2" fill="#000000"></path>
                <g id="Group-12" transform="translate(288.734545, 77.964072)" fill="#504A3E">
                    <path d="M159.763689,524.482778 C159.763689,524.482778 101.170564,513.718685 113.380518,499.513804 C125.590471,485.311505 178.098155,483.268213 188.549875,463.63608 C195.983295,449.694682 180.92598,432.800714 180.92598,432.800714 L152.032346,390.191235 C152.032346,390.191235 117.963557,342.847604 119.710657,289.899442 C120.73886,258.738397 142.865131,185.712888 149.863876,179.818082 C188.930843,146.929092 240.388454,162.879544 320.915539,155.290174 C401.43774,147.700805 403.826007,106.798804 403.826007,106.798804 C432.524282,149.390201 503.918319,144.686967 532.621477,168.299774 C542.902258,176.762256 567.767687,256.437402 569.104822,289.899442 C571.050373,338.58723 530.452992,390.191235 530.452992,390.191235 C530.452992,390.191235 520.074532,430.003135 469.823247,433.229521 C474.902588,434.112967 479.820757,434.420365 484.211457,434.420365 C494.277342,434.420365 501.559358,432.800714 501.559358,432.800714 C501.559358,432.800714 486.506928,449.694682 493.935464,463.63608 C504.387184,483.268213 556.899752,485.311505 569.104821,499.513804 C581.314775,513.718685 522.72165,524.482778 522.72165,524.482778 C522.72165,524.482778 526.330912,524.958082 532.62148,524.958082 C545.217268,524.958082 568.552931,523.046532 595.151094,511.5669 C635.028802,494.350036 594.496013,457.764522 594.496013,457.764522 C594.496013,457.764522 623.848741,471.145371 651.296717,471.145371 C666.901037,471.145371 681.89486,466.815969 690.524855,453.243965 C682.031611,456.028628 674.422368,457.227221 667.736198,457.227221 C632.390825,457.224638 622.969625,423.736351 646.578791,414.506665 C674.6568,403.533336 686.861869,376.409994 662.45173,353.169164 C638.036707,329.925751 692.966846,309.908725 684.419878,289.899447 C675.877795,269.882421 607.516707,256.97171 603.858605,233.728297 C600.195619,210.484884 653.904763,196.282586 644.141684,185.952467 C634.373721,175.622348 649.020781,172.393379 644.141684,159.480085 C639.257703,146.569374 614.677251,146.998181 544.694682,67.8006044 C491.034379,7.08306516 400.075109,-1.95562126e-06 360.544164,-1.95562126e-06 C348.514918,-1.95562126e-06 341.242669,0.656124612 341.242669,0.656124612 C341.242669,0.656124612 333.980189,-1.95562126e-06 321.946059,-1.95562126e-06 C282.41023,-1.95562126e-06 191.446076,7.08564834 137.795541,67.8006044 C67.8129714,146.998181 51.5515152,146.569374 46.6724178,159.480085 C41.7835524,172.393379 56.4354966,175.622348 46.6724178,185.952467 C36.909339,196.282586 90.6184823,210.484884 86.9506123,233.728297 C83.2973942,256.97171 14.9314228,269.882421 6.38933932,289.899447 C-2.15762811,309.908725 52.7773945,329.925751 28.3623716,353.169164 C3.95223261,376.409994 16.1524181,403.533336 44.2304271,414.506665 C67.8395931,423.736351 58.428161,457.227221 23.0730197,457.227221 C16.3917332,457.227221 8.77272224,456.028628 0.284362587,453.243965 C8.9143577,466.818552 23.9032966,471.145371 39.5125011,471.145371 C66.9604765,471.145371 96.3132046,457.764522 96.3132046,457.764522 C96.3132046,457.764522 79.8280654,503.843016 119.710657,521.05988 C146.303936,532.542095 159.763689,524.482778 159.763689,524.482778 Z" id="Fill-58"></path>
                </g>
                <path d="M629.18362,77.5712038 C487.142998,82.7474788 380.469348,111.532621 343.40036,128.849264 C306.331372,146.165908 315.014731,162.978784 315.014731,191.747803 C315.014731,220.516823 343.40036,220.516823 343.40036,220.516823 C343.40036,220.516823 500.000465,199.312258 644.414455,199.695106 C701.144455,199.8455 748.960748,227.471804 791.823585,228.832991 C831.274366,230.085821 917.680888,232.574732 917.680888,232.574732 C917.680888,232.574732 954.384727,220.426145 954.384727,181.441145 C954.384727,142.456145 905.324577,128.849262 905.324577,128.849262 C905.324577,128.849262 771.224243,72.3949288 629.18362,77.5712038 Z" id="Path-192" fill="#A51F2D"></path>
                <g id="Group-8" transform="translate(766.056970, 0.000000)">
                    <path d="M19.2165474,186.600951 C19.2165474,186.600951 19.3000959,186.330096 19.4601435,185.81897 C21.4303276,179.527012 34.9928758,136.825345 46.9981648,114.764371 C62.1936303,86.8411133 107.582127,24.2199536 107.582127,24.2199536 C107.582127,24.2199536 122.107772,15.9128503 130.678294,15.6148458 C140.934321,15.2582349 183.821714,2.38168245 183.821714,2.38168245 C183.821714,2.38168245 149.693743,36.1043305 122.822186,69.4350154 C105.319805,91.1444509 94.4077093,112.957027 85.9515027,124.251684 C77.6020063,135.403812 68.8649088,153.846957 53.9148671,167.166285 C39.9575041,179.601212 19.4601435,187.318799 19.4601435,187.318799" id="Path-193" fill="#000000"></path>
                    <ellipse id="Oval" fill="#FFCD47" cx="23.4109091" cy="184.51497" rx="23.4109091" ry="23.3892216"></ellipse>
                </g>
                <g id="Group-7" transform="translate(629.753455, 706.874251)">
                    <path d="M174.144633,16.1637935 C165.144845,17.1455799 127.50373,15.584829 123.632542,16.1637935 C94.0097175,20.5941047 3.59829163,18.9360636 3.59829163,18.9360636 C3.59829163,18.9360636 1.12879487,94.9820577 40.7388716,123.351445 C80.3489483,151.720831 126.686056,139.64009 126.686056,139.64009 C126.686056,139.64009 227.385925,132.485156 246.232654,121.860806 C262.063245,112.936725 280.11186,76.9550147 280.11186,76.9550147 C280.11186,76.9550147 291.383847,43.0998247 280.111857,18.9360639 C268.839868,-5.22769677 276.074295,0.822275322 276.074295,0.822275322 C276.074295,0.822275322 217.560631,11.4275451 174.144633,16.1637935 Z" id="Path-194" fill="#A04141"></path>
                    <path d="M59.7705202,84.7727839 C63.0914726,97.4742614 78.2624261,122.064316 78.2624261,122.064316 C78.2624261,122.064316 48.8263074,99.5126649 43.2684079,84.7727839 C37.483871,69.4318469 52.0248188,21.7146765 52.0248188,21.7146765 C52.0248188,21.7146765 54.3456036,64.0243817 59.7705202,84.7727839 Z" id="Path-195" fill="#FFFFFF" transform="translate(60.085456, 71.889496) rotate(12.000000) translate(-60.085456, -71.889496) "></path>
                    <path d="M116.90141,80.4901176 C122.821245,95.731023 143.991598,124.725468 143.991598,124.725468 C143.991598,124.725468 109.370153,107.832917 100.797257,91.9776981 C96.7429148,84.4793596 95.0744839,63.9546129 97.3816636,47.8671777 C99.3145078,34.3898988 105.014039,24.3758284 105.014039,24.3758284 C105.014039,24.3758284 109.828725,62.2811432 116.90141,80.4901176 Z" id="Path-196" fill="#FFFFFF" transform="translate(120.163194, 74.550648) rotate(12.000000) translate(-120.163194, -74.550648) "></path>
                    <path d="M185.414483,124.402056 C185.414483,124.402056 189.073977,87.3439122 185.414484,69.0921418 C184.323995,63.6533188 181.230358,52.7913865 176.175778,45.5727099 C168.534518,34.6598758 158.254455,27.9236311 158.254455,27.9236311 L185.414483,124.402056 Z" id="Path-197" fill="#FFFFFF" transform="translate(172.647690, 76.162844) rotate(12.000000) translate(-172.647690, -76.162844) "></path>
                    <path d="M247.425794,40.5758434 C239.647443,31.5078232 219.314354,18.6792317 219.314354,18.6792317 C219.314354,18.6792317 241.335786,51.3893609 244.160423,69.7060178 C246.581726,85.4072166 235.052175,120.732799 235.052175,120.732799 C235.052175,120.732799 248.307636,107.330386 252.738938,97.4885565 C256.546173,89.0327665 259.767787,65.8399396 259.767787,65.8399396 C259.767787,65.8399396 253.131921,47.2280592 247.425794,40.5758434 Z" id="Path-198" fill="#FFFFFF" transform="translate(239.541071, 69.706015) rotate(12.000000) translate(-239.541071, -69.706015) "></path>
                </g>
                <g id="Group-7" transform="translate(498.132121, 780.680239) scale(-1, 1) translate(-498.132121, -780.680239) translate(355.065455, 707.913772)">
                    <path d="M174.144633,16.1637935 C165.144845,17.1455799 127.50373,15.584829 123.632542,16.1637935 C94.0097175,20.5941047 3.47857235,18.9360636 3.47857235,18.9360636 C3.47857235,18.9360636 1.12879487,94.9820577 40.7388716,123.351445 C80.3489483,151.720831 126.686056,139.64009 126.686056,139.64009 C126.686056,139.64009 227.385925,132.485156 246.232654,121.860806 C262.063245,112.936725 280.11186,76.9550147 280.11186,76.9550147 C280.11186,76.9550147 291.383847,43.0998247 280.111857,18.9360639 C268.839868,-5.22769677 276.074295,0.822275322 276.074295,0.822275322 C276.074295,0.822275322 217.560631,11.4275451 174.144633,16.1637935 Z" id="Path-194" fill="#A04141"></path>
                    <path d="M59.7705202,84.7727839 C63.0914726,97.4742614 78.2624261,122.064316 78.2624261,122.064316 C78.2624261,122.064316 48.8263074,99.5126649 43.2684079,84.7727839 C37.483871,69.4318469 52.0248188,21.7146765 52.0248188,21.7146765 C52.0248188,21.7146765 54.3456036,64.0243817 59.7705202,84.7727839 Z" id="Path-195" fill="#FFFFFF" transform="translate(60.085456, 71.889496) rotate(12.000000) translate(-60.085456, -71.889496) "></path>
                    <path d="M116.90141,80.4901176 C122.821245,95.731023 143.991598,124.725468 143.991598,124.725468 C143.991598,124.725468 109.370153,107.832917 100.797257,91.9776981 C96.7429148,84.4793596 95.0744839,63.9546129 97.3816636,47.8671777 C99.3145078,34.3898988 105.014039,24.3758284 105.014039,24.3758284 C105.014039,24.3758284 109.828725,62.2811432 116.90141,80.4901176 Z" id="Path-196" fill="#FFFFFF" transform="translate(120.163194, 74.550648) rotate(12.000000) translate(-120.163194, -74.550648) "></path>
                    <path d="M185.414483,124.402056 C185.414483,124.402056 189.073977,87.3439122 185.414484,69.0921418 C184.323995,63.6533188 181.230358,52.7913865 176.175778,45.5727099 C168.534518,34.6598758 158.254455,27.9236311 158.254455,27.9236311 L185.414483,124.402056 Z" id="Path-197" fill="#FFFFFF" transform="translate(172.647690, 76.162844) rotate(12.000000) translate(-172.647690, -76.162844) "></path>
                    <path d="M247.425794,40.5758434 C239.647443,31.5078232 219.314354,18.6792317 219.314354,18.6792317 C219.314354,18.6792317 241.335786,51.3893609 244.160423,69.7060178 C246.581726,85.4072166 235.052175,120.732799 235.052175,120.732799 C235.052175,120.732799 248.307636,107.330386 252.738938,97.4885565 C256.546173,89.0327665 259.767787,65.8399396 259.767787,65.8399396 C259.767787,65.8399396 253.131921,47.2280592 247.425794,40.5758434 Z" id="Path-198" fill="#FFFFFF" transform="translate(239.541071, 69.706015) rotate(12.000000) translate(-239.541071, -69.706015) "></path>
                </g>
                <polygon id="Path-199" fill="#4C1C2E" points="354.003086 674.452788 913.849628 677.657096 905.391007 696.530311 364.717544 695.135135"></polygon>
                <use id="Rectangle-4" stroke="#FCC047" mask="url(#mask-2)" stroke-width="20.8" xlink:href="#path-1"></use>
                <text id="HONEY" font-family="ProximaNova-Medium, Proxima Nova" font-size="42.9" font-weight="400" fill="#FFBF68">
                    <tspan x="553.940671" y="700.497006">HONEY</tspan>
                </text>
                <g id="Group-10" transform="translate(1.300606, 116.946108)">
                    <path d="M14.6834729,139.029404 C8.03990602,132.20545 1.91104087,128.488383 1.27812739,115.536982 C0.645213908,102.585582 12.2202522,88.6241604 12.2202522,88.6241604 C12.2202522,88.6241604 10.3459688,-1.94077639 94.1966082,0.336001681 C178.047248,2.61277975 171.221949,88.812112 171.221949,88.812112 C171.221949,88.812112 186.906721,102.788633 180.206096,121.391827 C173.505471,139.99502 141.21844,158.646835 141.21844,158.646835 C141.21844,158.646835 137.850141,181.532948 135.024291,190.725615 C133.29995,196.335003 127.567865,203.052999 127.567865,203.052999 L126.205327,188.269419 C126.205327,188.269419 123.685098,189.409281 122.949988,191.609843 C121.948964,194.606421 120.996924,203.860839 120.996924,203.860839 L109.897616,205.718238 L108.863519,189.997441 C108.863519,189.997441 105.98368,193.908184 105.370339,195.891702 C104.185959,199.721934 103.470358,207.43869 103.470358,207.43869 L95.2348086,207.88876 C95.2348086,207.88876 94.4193073,195.13115 92.906025,191.609843 C92.4069544,190.44854 89.1977499,193.840929 89.1977499,193.840929 L88.6779438,208.231474 L78.5348303,207.741489 L77.8027372,193.273409 C77.8027372,193.273409 75.9058519,190.537761 75.4146138,192.363407 C74.6465515,195.217848 74.0144473,207.108363 74.0144473,207.108363 L61.5039409,203.92484 L61.5039409,191.514191 C61.5039409,191.514191 58.4859626,188.536298 57.6288335,190.725615 C56.9334382,192.501824 56.8463677,203.410769 56.8463677,203.410769 C56.8463677,203.410769 49.7059535,196.996448 47.5615553,189.997443 C45.2221086,182.361828 43.394833,159.50691 43.394833,159.50691 C43.394833,159.50691 26.968392,151.647884 14.6834729,139.029404 Z" id="Path-203" fill="#F2F2F2"></path>
                    <path d="M100.580402,163.774731 C97.7919902,156.874393 95.2251573,144.167365 91.1535721,145.405402 C87.081987,146.643438 79.9617069,169.699422 79.0567046,179.471029 C78.8538443,181.661378 87.8299842,181.291268 87.8299842,181.291268 C87.8299842,181.291268 90.7179128,179.395008 92.1635404,179.471029 C93.7278247,179.553289 96.8597198,181.766112 96.8597198,181.766112 C96.8597198,181.766112 102.630162,182.616496 104.35072,181.766114 C105.127162,181.382359 104.350719,178.063701 104.350719,178.063701 C104.350719,178.063701 102.191039,167.760493 100.580402,163.774731 Z" id="Path-204" fill="#000000"></path>
                    <path d="M30.2962699,140.138066 C23.5139719,131.104317 26.4432243,115.466104 26.4432243,115.466104 C26.4432243,115.466104 30.1009355,102.171291 34.1500051,101.227647 C38.7519619,100.155152 52.697569,108.791441 52.697569,108.791441 C52.697569,108.791441 57.7523983,112.023277 63.9416523,114.108324 C69.0395192,115.825702 74.7495369,116.824361 78.0894785,118.901502 C81.1430739,120.800562 84.1368167,121.623043 83.7418537,128.911777 C83.3468908,136.20051 81.3899089,140.599673 76.7485979,143.646411 C71.5469134,147.061001 54.2128671,148.29576 54.2128671,148.29576 C54.2128671,148.29576 37.078568,149.171815 30.2962699,140.138066 Z" id="Path-205" fill="#000000"></path>
                    <path d="M104.942841,139.820882 C98.1605425,130.787133 101.089795,115.148921 101.089795,115.148921 C101.089795,115.148921 104.747506,101.854108 108.796576,100.910464 C113.398533,99.8379683 127.34414,108.474257 127.34414,108.474257 C127.34414,108.474257 132.398969,111.706094 138.588223,113.79114 C143.68609,115.508519 149.396108,116.507178 152.736049,118.584319 C155.789645,120.483379 158.783387,121.30586 158.388424,128.594594 C157.993461,135.883327 156.03648,140.28249 151.395169,143.329228 C146.193484,146.743817 128.859438,147.978577 128.859438,147.978577 C128.859438,147.978577 111.725139,148.854631 104.942841,139.820882 Z" id="Path-205" fill="#000000" transform="translate(129.442122, 124.409970) scale(-1, 1) translate(-129.442122, -124.409970) "></path>
                </g>
            </g>
        </g>
    </g>
</svg>