<?xml version="1.0" encoding="UTF-8" standalone="no"?>
<svg width="1200px" height="1200px" viewBox="0 0 1200 1200" version="1.1" xmlns="http://www.w3.org/2000/svg" xmlns:xlink="http://www.w3.org/1999/xlink">
    <!-- Generator: Sketch 42 (36781) - http://www.bohemiancoding.com/sketch -->
    <title>59</title>
    <desc>Created with Sketch.</desc>
    <defs>
        <rect id="path-1" x="294.25446" y="672" width="81.0422535" height="54" rx="9"></rect>
        <mask id="mask-2" maskContentUnits="userSpaceOnUse" maskUnits="objectBoundingBox" x="0" y="0" width="81.0422535" height="54" fill="white">
            <use xlink:href="#path-1"></use>
        </mask>
    </defs>
    <g id="Page-1" stroke="none" stroke-width="1" fill="none" fill-rule="evenodd">
        <g id="59">
            <g id="Group-4" transform="translate(243.000000, 185.000000)">
                <g id="Group-5" transform="translate(437.592830, 525.750000) scale(-1, 1) translate(-437.592830, -525.750000) translate(52.642125, 231.000000)">
                    <g id="Group" transform="translate(166.586854, 0.830421)">
                        <g id="Mascot_EPS" transform="translate(50.125269, 4.270179)">
                            <g id="Group-3" fill="#F6C823">
                                <path d="M512.678414,151.219344 C508.245336,140.34517 503.532917,129.617293 498.255207,119.215259 C516.95612,108.073429 529.534691,87.6317771 529.534691,64.1860541 C529.534691,28.8503919 501.05522,0.206145477 465.922825,0.206145477 L77.8879651,0.206145477 C42.7555705,0.206145477 14.2777523,28.8503919 14.2777523,64.1860541 C14.2777523,87.61349 26.8348354,108.041842 45.5126081,119.18866 C40.2348976,129.587369 35.5241319,140.311921 31.0910535,151.18277 C14.3438683,192.240632 3.71076104,236.450524 0.509093274,282.763433 C0.264464038,288.272837 0,293.778916 0,299.349831 C0,336.739495 62.2783897,370.982279 72.6286438,404.959499 C73.3578314,407.353234 93.0204026,415.964509 93.7959291,418.337484 C95.3906476,422.943356 36.4241859,447.19389 56.1886356,479.084115 C79.9764354,517.466072 106.160059,558.481526 118.643039,569.80273 C130.836484,576.544019 157.525509,585.852297 183.839681,572.110374 C188.894087,569.470752 209.86127,558.694452 219.009255,556.097629 C232.767854,552.191999 240.705795,540.20081 260.36559,536.48154 C346.291596,520.225928 471.403312,519.499897 482.995632,501.944286 C481.964222,502.379851 481.063391,502.91184 480.005535,503.322468 C470.669955,506.898427 460.377345,509.560031 448.783903,509.478571 C437.770628,509.209251 425.507762,506.762105 415.699452,498.850441 C405.901059,491.070112 400.520869,479.557552 397.939038,468.641817 C392.912569,446.424654 395.398531,424.689606 398.484496,404.959489 C401.821701,385.191135 406.618418,367.218242 411.182075,351.996726 C420.413523,321.571981 428.707776,302.124483 428.707776,302.124483 C428.707776,302.124483 421.763943,322.127244 414.686224,352.934356 C411.200257,368.325443 543.754592,341.764263 543.754592,299.349831 C543.754592,293.780579 543.491781,288.276162 543.247151,282.76842 C540.045484,236.467149 529.418988,192.268894 512.678414,151.219344 Z" id="Fill-1"></path>
                            </g>
                            <path d="M182.622336,109.890501 C182.622336,124.239224 171.056993,135.871481 156.789158,135.871481 C142.522976,135.871481 130.957633,124.239224 130.957633,109.890501 C130.957633,95.5401161 142.522976,83.9078588 156.789158,83.9078588 C171.056993,83.9078588 182.622336,95.5401161 182.622336,109.890501" id="Fill-5" fill="#25282C"></path>
                            <path d="M77.8879651,32.0888709 C60.2630898,32.0888709 45.9754202,46.4592055 45.9754202,64.1860541 C45.9754202,75.6836518 52.0349524,85.6916822 61.0680522,91.3606828 C72.1110787,73.1184706 84.4351029,55.7540391 97.9905378,39.4469344 C92.4896858,34.9183838 85.5508106,32.0888709 77.8879651,32.0888709" id="Fill-6" fill="#25282C"></path>
                            <path d="M465.922825,32.0888709 C458.243451,32.0888709 451.294658,34.9283586 445.788847,39.4735338 C459.340977,55.778976 471.660042,73.1434075 482.701416,91.3822948 C491.756003,85.719944 497.83537,75.7002764 497.83537,64.1860541 C497.83537,46.4592055 483.547701,32.0888709 465.922825,32.0888709" id="Fill-7" fill="#25282C"></path>
                            <path d="M153.1941,91.0697517 C153.1941,98.9481663 146.84531,105.333689 139.013869,105.333689 C131.180775,105.333689 124.831985,98.9481663 124.831985,91.0697517 C124.831985,83.1929995 131.180775,76.8074771 139.013869,76.8074771 C146.84531,76.8074771 153.1941,83.1929995 153.1941,91.0697517" id="Fill-8" fill="#FFFFFF"></path>
                            <path d="M445.013637,109.890501 C445.013637,142.133981 419.025087,168.274558 386.965434,168.274558 C354.905781,168.274558 328.91723,142.133981 328.91723,109.890501 C328.91723,77.6453587 354.905781,51.5047823 386.965434,51.5047823 C419.025087,51.5047823 445.013637,77.6453587 445.013637,109.890501" id="Fill-9" fill="#FFFFFF"></path>
                            <path d="M412.796959,109.890501 C412.796959,124.239224 401.231616,135.871481 386.965434,135.871481 C372.697599,135.871481 361.132256,124.239224 361.132256,109.890501 C361.132256,95.5401161 372.697599,83.9078588 386.965434,83.9078588 C401.231616,83.9078588 412.796959,95.5401161 412.796959,109.890501" id="Fill-10" fill="#25282C"></path>
                            <path d="M383.370376,91.0697517 C383.370376,98.9481663 377.019933,105.333689 369.188492,105.333689 C361.35705,105.333689 355.008261,98.9481663 355.008261,91.0697517 C355.008261,83.1929995 361.35705,76.8074771 369.188492,76.8074771 C377.019933,76.8074771 383.370376,83.1929995 383.370376,91.0697517" id="Fill-11" fill="#FFFFFF"></path>
                            <path d="M349.933857,222.62714 C349.933857,266.467965 314.598155,302.009773 271.00787,302.009773 C227.417585,302.009773 192.081884,266.467965 192.081884,222.62714 C192.081884,178.784652 227.417585,143.242844 271.00787,143.242844 C314.598155,143.242844 349.933857,178.784652 349.933857,222.62714" id="Fill-12" fill="#FFFFFF"></path>
                            <path d="M265.885533,301.748766 C267.586367,301.860151 269.275631,302.009773 271.004565,302.009773 C272.735151,302.009773 274.426068,301.860151 276.128555,301.748766 L276.128555,198.571293 L265.885533,198.571293 L265.885533,301.748766" id="Fill-13" fill="#25282C"></path>
                            <path d="M311.956821,179.281729 C311.956821,178.184503 311.750208,177.147125 311.455992,176.146322 C311.327066,175.655896 311.222933,175.366627 311.222933,175.366627 L311.214669,175.366627 C310.846072,174.387436 310.345243,173.486381 309.732017,172.663461 L309.735323,172.653486 C309.735323,172.653486 305.098938,163.03946 271.473988,162.948024 L271.473988,162.93805 C271.392996,162.93805 271.323574,162.943037 271.240929,162.943037 C271.159937,162.943037 271.088862,162.93805 271.00787,162.93805 L271.00787,162.948024 C251.444143,163.001223 241.716825,166.267964 236.989531,169.002717 C234.134972,170.154804 231.891986,172.468953 230.801072,175.366627 L230.784543,175.366627 C230.784543,175.366627 230.662228,175.705769 230.520079,176.275994 C230.249003,177.238561 230.057267,178.232714 230.057267,179.281729 C230.057267,179.376489 230.08206,179.4646 230.085366,179.557697 C229.885365,184.545088 231.511819,193.327883 242.756499,202.338435 C253.819361,211.202691 262.316921,214.095377 266.988017,215.054619 C267.343391,215.136079 267.707029,215.185953 268.069014,215.245802 C269.907039,215.545045 270.999606,215.543383 270.999606,215.543383 L271.00787,215.543383 C271.00787,215.543383 272.095479,215.543383 273.926892,215.247464 C274.298795,215.185953 274.67235,215.136079 275.037641,215.051294 C279.712043,214.088727 288.202992,211.189391 299.250977,202.338435 C310.449376,193.364457 312.107235,184.616574 311.923763,179.619209 C311.927069,179.504499 311.956821,179.398101 311.956821,179.281729" id="Fill-14" fill="#25282C"></path>
                            <path d="M436.464837,343.39514 C436.464837,343.39514 436.347481,348.0384 435.630123,354.776365 C434.873094,361.50768 433.390443,370.307099 431.616881,379.020071 C429.770591,387.719742 427.664796,396.359565 425.765614,402.843173 C424.882965,406.091627 423.828415,408.77318 423.294528,410.685013 C422.669732,412.583547 422.205267,413.664148 422.205267,413.664148 C422.205267,413.664148 421.458156,409.077411 421.398652,402.219749 C421.375511,395.372062 422.268077,386.306648 424.101143,377.44073 C425.962309,368.578137 428.730917,359.936652 431.383822,353.650877 C434.074743,347.366765 436.464837,343.39514 436.464837,343.39514" id="Fill-17" fill="#FFFFFF"></path>
                            <path d="M76.8730843,7.97483751 C76.8730843,7.97483751 72.1243019,9.80520984 65.9308848,13.5440903 C62.8102091,15.3545131 59.3358128,17.635413 55.8597636,20.3302664 C52.357268,22.9852206 48.9142768,26.1439013 45.7489728,29.5486266 C42.4861478,32.881866 39.748945,36.6639705 37.1274452,40.2366046 C34.7720623,43.9804724 32.4844484,47.4915954 30.8199779,50.7383866 C28.9472419,53.8837676 27.6414507,56.6866811 26.6811157,58.651713 C25.6926813,60.6084326 25.0166451,61.7239456 25.0166451,61.7239456 C25.0166451,61.7239456 25.0282154,60.4588109 25.2397867,58.2477344 C25.5753254,56.0782195 25.5604493,52.7815543 26.7141737,49.1174847 C27.520789,45.3303928 29.2067472,41.1326724 31.3241124,36.7387813 C33.6199909,32.4313384 36.6150461,28.1172455 40.16217,24.2520178 C47.3721209,16.5930484 56.7721645,11.3596132 64.2465794,9.46606729 C71.7243001,7.41292484 76.8730843,7.97483751 76.8730843,7.97483751" id="Fill-18" fill="#FFFFFF"></path>
                        </g>
                        <g id="Group-2" transform="translate(3.619200, 234.671257)" fill="#E2E0E1">
                            <path d="M101.648026,247.232126 C98.8135988,242.631654 48.9426322,142.627796 48.9426322,142.627796 C48.9426322,142.627796 31.4539262,137.993984 23.9843853,134.672894 C15.3270921,130.823708 0.562130059,121.116967 0.562130059,121.116967 L8.59020035,8.00199745 L57.3139311,3.96761131 C83.3824367,-3.907298 189.47606,78.094449 189.47606,78.094449 C192.902263,75.9201283 261.127928,103.011448 314.186356,102.617118 C339.425105,102.429543 415.078169,92.1545118 476.450726,66.6635416 C533.437362,42.9942548 577.306368,3.96761124 577.306368,3.96761124 C579.792765,3.56571189 593.041558,4.54178495 597.421872,21.8273287 C604.738344,50.6995023 579.224929,146.098211 575.925845,154.407998 C562.963544,187.057659 530.761224,268.167213 528.234245,274.510663 C522.451096,289.028044 109.096551,259.321599 101.648026,247.232126 Z" id="Fill-79"></path>
                        </g>
                    </g>
                    <path d="M71.4638299,161.348391 C65.0009399,163.903189 38.8696323,132.357053 38.8696323,132.357053 C38.8696323,132.357053 20.7632946,114.012783 19.7045215,103.375865 C17.9748454,85.9987505 41.908818,55.5618981 50.9024932,62.6346603 C65.4013967,74.0368174 74.0613066,87.2746163 75.0919629,101.201602 C75.6093803,108.193326 72.5216658,118.770428 71.463832,128.266189 C70.4450285,137.411591 71.4638313,145.613053 71.4638313,145.613053 C71.4638313,145.613053 79.196367,158.291697 71.4638299,161.348391 Z" id="Path-3" fill="#F5B300" transform="translate(47.382704, 111.541505) rotate(-25.000000) translate(-47.382704, -111.541505) "></path>
                </g>
                <g id="Group-13" transform="translate(97.051643, 370.500000)">
                    <path d="M458.381976,7.73564023 C458.381976,7.73564023 456.69231,24.9677596 456.276902,28.3197034 C454.383028,43.5806178 361.573415,98.0641444 352.111788,107.84607 C342.652741,117.627996 325.254122,105.694602 307.159114,92.634247 C290.256163,80.4340531 279.723749,75.2709549 264.585661,73.70431 C250.598347,72.2593255 240.218165,79.9025891 238.716483,81.0743712 C237.217382,79.9025891 226.834619,72.2593255 212.847305,73.70431 C197.711797,75.2709549 187.176803,80.4340531 170.273852,92.634247 C152.181425,105.694602 141.478717,117.627996 132.017089,107.84607 C124.727251,100.307398 41.8537961,37.9798868 41.8537961,37.9798868 C41.8537961,37.9798868 33.734349,28.1543094 28.3799074,21.3766987 C23.0254657,14.5990881 17.9602654,7.73564103 17.9602654,7.73564103 C17.9602654,7.73564103 7.77518423,-6.78569341 5.66936622,3.96325887 C3.56354821,14.7122111 -8.73268247,14.7925213 11.2470477,42.0026366 C38.8521203,79.5975992 74.0022894,120.657677 83.2782106,142.424212 C94.8685106,169.620655 122.096315,198.237627 122.096315,198.237627 C122.096315,198.237627 121.624137,182.976712 122.568493,181.019473 C123.51543,179.064369 127.929418,201.9963 147.871855,226.215265 C170.102938,253.215344 187.841877,261.042165 187.841877,261.042165 L184.05929,241.868907 C184.05929,241.868907 201.791108,265.347245 238.450722,276.499451 C238.543609,275.530437 238.631336,274.514465 238.716483,273.47715 C238.80163,274.514465 238.889357,275.530437 238.982245,276.499451 C275.644438,265.347245 297.434406,244.219251 297.434406,244.219251 L293.649239,263.392509 C293.649239,263.392509 311.388178,255.565688 333.621841,228.565608 C353.564278,204.346644 357.996404,179.064369 358.94334,181.019473 C359.890277,182.976712 359.415519,198.237627 359.415519,198.237627 C359.415519,198.237627 390.161472,169.620655 401.749192,142.424212 C412.197034,117.907689 451.271327,76.425627 479.431175,45.0617526 C494.367641,28.4258166 471.847469,6.81959142 470.236707,3.96325883 C468.625944,1.10692624 458.381976,7.73564023 458.381976,7.73564023 Z" id="Fill-68" fill="#543B3B"></path>
                    <path d="M258.687542,117.145975 C242.942927,114.183669 240.531168,114.056238 222.228037,117.145975 C210.635491,119.102686 207.345784,114.775576 207.345784,114.775576 C207.345784,114.775576 224.370956,109.527825 229.846441,106.988442 C234.89464,104.647592 239.729846,101.593868 240.45714,101.130315 C241.184434,101.593868 246.01964,104.647592 251.067839,106.988442 C256.544622,109.527825 273.568495,114.775576 273.568495,114.775576 C273.568495,114.775576 270.204761,119.313224 258.687542,117.145975 L258.687542,117.145975 Z" id="Path" fill="#000000"></path>
                </g>
                <g id="Group" transform="translate(97.051643, 114.000000)" fill="#594040">
                    <path d="M103.412299,73.2667487 C113.413791,79.7033778 129.996119,118.124081 85.5056437,152.00723 C54.1709747,175.888311 31.3744494,232.321836 21.4732467,278.980375 C20.3421742,284.310453 6.34347831,267.146601 5.15624954,273.186855 C-1.33671748,236.857977 18.8829064,165.585136 28.6835522,137.84317 C34.195827,121.557266 58.0901967,72.1134008 82.5855346,80.5581191 C79.2276444,76.8010489 73.4031172,70.9079153 67.8877042,70.9079153 C78.3207003,68.9804024 94.4166055,67.4605111 103.412299,73.2667487 Z" id="Fill-17"></path>
                    <path d="M136.69535,158.256631 C173.632142,160.06565 219.450082,143.210971 252.162836,126.492167 C241.045709,144.432256 217.25647,153.376232 208.212134,159.142971 C238.182088,158.488881 338.238352,130.978003 359.251841,113.976392 C400.161584,65.9877784 325.70927,49.4660937 300.264138,43.1061193 C274.819005,36.746145 114.423437,19.5041428 83.3880593,81.4120647 C75.4781881,98.2699027 48.4801237,131.423124 25.5146656,149.320555 C63.6910522,157.61992 153.095662,138.845629 188.585736,123.574039 C172.850726,135.172295 159.659239,148.137189 136.69535,158.256631 Z" id="Fill-18"></path>
                    <path d="M145.61588,123.487314 C182.552671,125.296332 228.370611,108.441654 261.083366,91.7228492 C249.966239,109.662938 226.176999,118.606914 217.132663,124.373653 C247.102617,123.719563 347.158882,96.2086852 368.17237,79.2070737 C409.082114,31.2184605 334.629799,14.6967757 309.184667,8.3368014 C283.739535,1.97682708 146.896057,-9.97685089 115.860679,51.931071 C107.950808,68.7889091 111.87079,85.2789159 88.9053315,103.176347 C127.081718,111.475712 162.016192,104.076311 197.506266,88.8047211 C181.771256,100.402977 168.579768,113.367871 145.61588,123.487314 Z" id="Fill-18" transform="translate(234.555731, 63.686827) scale(1, -1) translate(-234.555731, -63.686827) "></path>
                    <path d="M464.331378,73.2667487 C474.33287,79.7033778 490.915198,118.124081 446.424723,152.00723 C415.090054,175.888311 386.665314,224.507981 376.764111,271.16652 C375.633039,276.496599 362.616282,267.97109 361.429053,274.011344 C354.936086,237.682466 379.801986,165.585136 389.602631,137.84317 C395.114906,121.557266 419.009276,72.1134008 443.504614,80.5581191 C440.146724,76.8010489 434.322196,70.9079153 428.806783,70.9079153 C439.239779,68.9804024 455.335685,67.4605111 464.331378,73.2667487 Z" id="Fill-17" transform="translate(418.088893, 171.594922) scale(-1, 1) translate(-418.088893, -171.594922) "></path>
                </g>
                <path d="M725.696174,593.718704 C703.347424,578.289818 655.833474,539.347609 641.937781,507.554164 C636.260685,494.564927 623.599237,476.400583 619.83325,454.960312 C611.832125,409.408835 592.023346,364.568279 592.023346,364.568279 C592.023346,364.568279 606.893373,370.800994 612.162792,367.294488 C616.561756,364.367221 621.621031,343.5 621.621031,343.5 C621.621031,343.5 661.339323,408.514023 684.914,431.608541 C713.203021,459.321383 777.212125,495.922081 777.212125,495.922081 L737.962745,598.44437 C737.962745,598.44437 732.747573,598.586772 725.696174,593.718704 Z" id="Path-2" fill="#E4E2E3" transform="translate(684.617735, 470.972402) scale(-1, 1) translate(-684.617735, -470.972402) "></path>
                <path d="M179.828303,238.136483 C179.828303,238.136483 359.986339,318.338688 450.670905,350.69653 C490.202273,364.802015 570.476104,377.526467 570.476104,377.526467" id="Path-202" stroke="#000000" stroke-width="9"></path>
                <path d="M411.486045,380.317655 C403.58305,375.969469 391.523913,361.201143 391.523913,361.201143 C391.523913,361.201143 377.830283,333.424207 400.84217,315.434589 C410.430123,307.939175 421.970909,303.181878 432.153421,302.857359 C446.409788,302.403006 458.019543,308.436186 458.019543,308.436186 C458.019543,308.436186 483.103324,314.091476 493.581814,320.757183 C496.91382,322.876779 504.422423,333.340309 504.422423,333.340309 C504.422423,333.340309 515.908041,347.427287 499.451032,365.446188 C494.460946,370.90987 489.923509,378.68067 482.081552,381.947208 C464.061197,389.453522 440.698015,388.256468 440.698015,388.256468 C440.698015,388.256468 419.974417,384.987911 411.486045,380.317655 Z" id="Path-207" fill="#000000"></path>
                <path d="M56.8073296,250.613938 C56.8073296,250.613938 54.8563901,222.74837 61.3131407,219.343041 C66.9812808,216.35363 93.1820016,231.429716 93.1820016,231.429716 C93.1820016,231.429716 124.884746,233.29806 136.147262,219.343038 C158.169462,192.056035 193.036152,107.703641 193.036152,107.703641 C193.036152,107.703641 239.343142,40.8913885 271.388836,26.8568013 C304.767517,12.2384249 326.994443,1.66381641 385.981698,21.0419434 C444.968954,40.4200703 451.180508,64.3723645 474.855103,93.698276 C489.688379,112.072374 504.83289,164.844778 504.83289,164.844778 C504.83289,164.844778 534.157182,196.010139 552.911893,201.690032 C568.825474,206.509485 608.837766,196.342818 608.837766,196.342818 C608.837766,196.342818 613.7554,226.002692 605.671577,238.954819 C594.555713,256.764967 551.238707,288.629643 551.238707,288.629643 C551.238707,288.629643 502.251036,297.583679 485.760511,291.459574 C449.964798,278.166078 394.379996,230.376841 394.379996,230.376841 C394.379996,230.376841 343.955269,201.690032 300.76135,214.279085 C257.567431,226.868138 181.388295,270.252446 181.388295,270.252446 C181.388295,270.252446 153.775068,299.105179 120.652655,298.49031 C87.5302426,297.875441 73.6039168,274.375758 73.6039168,274.375758 L56.8073296,250.613938 Z" id="Path-206" fill="#000000"></path>
                <path d="M179.997601,780.9 L179.894836,794.881929 L208.104014,795.541104 L210.971702,832.454288 C210.971702,832.454288 222.000498,833.90714 223.09274,832.454288 C229.709751,823.652633 229.478946,795.541103 229.478946,795.541103 L260.052421,794.876045 L260.937089,781.443519 L179.997601,780.9 Z" id="Path-208" fill="#B37836"></path>
                <path d="M534.791613,740.525138 C542.509598,728.311106 556.391283,703.904784 556.391283,703.904784 L110.478654,703.904784 C110.478654,703.904784 118.537958,732.353276 125.055559,745.897843 C130.894118,758.031257 169.487527,781.616507 169.487527,781.616507 C169.487527,781.616507 248.710236,781.13117 261.656908,781.616507 C272.823196,782.035102 321.211251,769.896854 321.677072,769.896854 C342.663852,769.896854 367.073857,784.024562 385.135655,793.126969 C396.856375,799.033732 407.447921,801.340597 407.447921,801.340597 L494.822081,801.340597 C494.822081,801.340597 521.986531,760.78971 534.791613,740.525138 Z" id="Path-209" fill="#366FA6"></path>
                <polygon id="Path-210" fill="#45200D" points="111.621093 712.091371 549.871405 719.514642 565.426595 686.254152 97.0516432 676.5"></polygon>
                <use id="Rectangle-5" stroke="#F5B300" mask="url(#mask-2)" stroke-width="18" xlink:href="#path-1"></use>
                <g id="Group-14" transform="translate(805.870201, 184.815883) rotate(-19.000000) translate(-805.870201, -184.815883) translate(704.567384, 25.065883)">
                    <polygon id="Path-213" fill="#574A51" points="45.857435 247.796852 0.88960268 301.053367 20.8122431 316.830332 68.9757956 262.988481"></polygon>
                    <path d="M186.168517,148.534875 C193.531717,130.212043 200.432726,93.7062237 198.624366,61.6016195 C196.784273,28.9336323 186.168517,0.820647463 186.168517,0.820647463 C186.168517,0.820647463 157.277413,105.705929 141.515415,131.295189 C118.442016,168.754348 48.9301083,238.167846 48.9301083,238.167846 L81.9648345,256.73577 C81.9648345,256.73577 173.200307,180.805401 186.168517,148.534875 Z" id="Path-211" fill="#E7E7E7"></path>
                    <path d="M47.8722689,265.26962 C34.5839231,255.851736 3.61336115,242.115316 3.61336115,242.115316 C3.61336115,242.115316 40.0803675,211.045516 70.651186,238.176947 C101.222005,265.308377 90.1942426,303.478008 90.1942426,303.478008 C90.1942426,303.478008 63.4442169,276.305967 47.8722689,265.26962 Z" id="Path-212" fill="#F5B300"></path>
                </g>
                <path d="M781.493982,361.178799 C786.774992,361.178799 796.671593,353.693595 802.207223,344.035425 C805.794225,337.777081 806.494824,329.052785 806.494824,326.121161 C806.494824,322.971555 807.438805,313.044015 804.553023,311.91806 C800.607493,310.378618 790.234913,311.91806 784.435779,314.119507 C776.136702,317.269974 767.039132,324.015816 767.039132,331.47166 C767.039132,338.927504 772.79096,361.178799 781.493982,361.178799 Z" id="Oval-2" fill="#F5B300"></path>
                <path d="M64.3676209,474.881574 C64.3676209,474.881574 28.7230385,533.58081 18.8196025,565.757751 C11.4651673,589.652815 12.5940073,643.09759 12.5940073,643.09759 L0.371605391,663.712934 L42.2139347,667.995765 L39.7322538,648.774961 C43.8131535,648.774961 69.7239513,607.552527 78.1524567,584.907419 C85.6982545,564.633907 89.3619774,519.314205 89.3619774,519.314205 L64.3676209,474.881574 Z" id="Path-214" fill="#E4E2E3"></path>
            </g>
            <polyline id="Path-215" stroke="#9A2746" stroke-width="4" points="283 833.885489 257.758718 829 224 841"></polyline>
        </g>
    </g>
</svg>