<?xml version="1.0" encoding="UTF-8" standalone="no"?>
<svg width="1200px" height="1200px" viewBox="0 0 1200 1200" version="1.1" xmlns="http://www.w3.org/2000/svg" xmlns:xlink="http://www.w3.org/1999/xlink">
    <!-- Generator: Sketch 42 (36781) - http://www.bohemiancoding.com/sketch -->
    <title>6</title>
    <desc>Created with Sketch.</desc>
    <defs>
        <polyline id="path-1" points="0 1.91991123 717.125848 1.91991123 717.125848 889.795897 0 889.795897"></polyline>
    </defs>
    <g id="Page-1" stroke="none" stroke-width="1" fill="none" fill-rule="evenodd">
        <g id="6">
            <g id="Group-19" transform="translate(238.000000, 136.000000)">
                <g id="Group-30">
                    <g id="Dennis" transform="translate(0.051404, 34.292538)">
                        <g id="Mascot_EPS" transform="translate(2.680437, 0.000000)">
                            <g id="Group-3">
                                <mask id="mask-2" fill="white">
                                    <use xlink:href="#path-1"></use>
                                </mask>
                                <g id="Clip-2"></g>
                                <path d="M716.456615,506.567824 C712.234124,446.554976 698.219466,389.267928 676.141311,336.062038 C670.294786,321.967605 664.079855,308.062793 657.119394,294.580319 C681.782925,280.138967 698.37206,253.643761 698.37206,223.254863 C698.37206,177.45496 660.812166,140.328057 614.478123,140.328057 L102.721842,140.328057 C56.3877992,140.328057 18.830085,177.45496 18.830085,223.254863 C18.830085,253.620058 35.3908811,280.098026 60.0238934,294.545843 C53.0634325,308.024007 46.8506816,321.924509 41.004156,336.014632 C18.9172815,389.231296 4.89390379,446.533428 0.671413081,506.56136 C0.348786016,513.702309 0,520.838949 0,528.059625 C0,579.936014 8.53653774,629.812766 24.0771347,676.545689 C28.7116289,689.700636 37.6231116,712.353865 48.5422938,727.480438 C49.734706,729.034037 50.8595409,730.548849 52.2176264,732.180019 C52.3811199,732.36964 52.5380736,732.580809 52.6993871,732.76612 C57.5431529,738.521544 63.4136575,744.682067 70.4787543,750.793031 C77.6092484,756.910458 85.8667573,763.023576 95.2665404,768.136875 C104.555148,773.220007 115.395853,777.329177 126.092685,778.691 C137.284356,780.27692 149.095122,778.378556 158.111241,772.125378 C167.301752,766.023033 173.872009,755.348241 177.675956,743.277149 C185.264232,718.822522 184.422786,691.116328 182.098999,666.056208 C179.559401,640.791383 174.927087,617.312872 170.327471,597.363896 C160.995265,557.433621 151.835272,531.507277 151.835272,531.507277 C151.835272,531.507277 162.776254,556.713923 174.948886,596.148598 C180.967624,615.875632 187.293731,639.170986 191.697154,664.793505 C195.764871,690.368619 199.04564,718.540246 192.416525,747.336759 C189.011502,761.482907 181.913706,776.40693 168.991185,786.491313 C156.055583,796.745923 139.882812,799.917763 125.358054,800.266837 C110.068147,800.370267 96.4938312,796.922615 84.1816849,792.287678 C82.681905,791.714506 81.4022963,790.97757 79.9461147,790.369921 C102.458072,823.92635 129.266637,854.356188 159.408289,881.222017 C175.489504,889.95966 201.689874,896.415388 236.394082,878.603956 C296.904096,847.547076 357.41629,844.095114 357.41629,844.095114 C357.41629,844.095114 417.926304,847.547076 478.438498,878.603956 C519.098228,899.47087 548.086705,887.048549 562.777136,876.649568 C590.762854,850.97318 615.790431,822.208988 636.994441,790.650043 C635.634175,791.214596 634.446123,791.904126 633.050979,792.436358 C620.738832,797.071295 607.164517,800.521102 591.87461,800.415517 C577.349852,800.066443 561.17708,796.894603 548.241479,786.639993 C535.318957,776.55561 528.223342,761.633741 524.818318,747.485439 C518.189204,718.688926 521.467793,690.517299 525.537689,664.94434 C529.938933,639.321821 536.265039,616.026467 542.283778,596.297278 C554.45859,556.862603 565.397391,531.655957 565.397391,531.655957 C565.397391,531.655957 556.239578,557.582301 546.905193,597.512576 C542.307757,617.461552 537.675443,640.940063 535.133665,666.204888 C532.812058,691.265008 531.970611,718.973357 539.556707,743.425829 C543.360655,755.496921 549.930911,766.173868 559.121423,772.274058 C568.139721,778.529391 579.948308,780.4256 591.142159,778.83968 C601.83681,777.477857 612.677516,773.370842 621.968303,768.285555 C631.368086,763.172256 639.625595,757.059138 646.753909,750.941711 C656.352065,742.639333 663.615533,734.326182 669.19611,726.986993 C677.900501,714.749983 685.296944,697.841405 690.238806,684.899781 C707.60835,635.790132 717.125848,583.034592 717.125848,528.059625 C717.125848,520.841104 716.779242,513.706619 716.456615,506.567824" id="Fill-1" fill="#F6C823" mask="url(#mask-2)"></path>
                            </g>
                            <path d="M283.33632,282.494144 C283.33632,324.286151 249.061554,358.167952 206.779969,358.167952 C164.500565,358.167952 130.223619,324.286151 130.223619,282.494144 C130.223619,240.699982 164.500565,206.818182 206.779969,206.818182 C249.061554,206.818182 283.33632,240.699982 283.33632,282.494144" id="Fill-4" fill="#FFFFFF"></path>
                            <path d="M240.849824,282.494144 C240.849824,301.092072 225.596975,316.169085 206.779969,316.169085 C187.965144,316.169085 172.712295,301.092072 172.712295,282.494144 C172.712295,263.894061 187.965144,248.817048 206.779969,248.817048 C225.596975,248.817048 240.849824,263.894061 240.849824,282.494144" id="Fill-5" fill="#25282C"></path>
                            <path d="M102.721842,181.652477 C79.4774335,181.652477 60.634269,200.278417 60.634269,223.254863 C60.634269,238.157339 68.6258286,251.12913 80.5390509,258.476938 C95.103047,234.832509 111.356475,212.325806 129.233939,191.189544 C121.979189,185.319916 112.827916,181.652477 102.721842,181.652477" id="Fill-6" fill="#25282C"></path>
                            <path d="M614.478123,181.652477 C604.35025,181.652477 595.185897,185.332845 587.924608,191.224021 C605.797711,212.358128 622.0446,234.864831 636.606416,258.50495 C648.547977,251.165761 656.565696,238.178887 656.565696,223.254863 C656.565696,200.278417 637.722532,181.652477 614.478123,181.652477" id="Fill-7" fill="#25282C"></path>
                            <path d="M202.03866,258.099851 C202.03866,268.311365 193.665615,276.587885 183.337189,276.587885 C173.006584,276.587885 164.633539,268.311365 164.633539,258.099851 C164.633539,247.890491 173.006584,239.613972 183.337189,239.613972 C193.665615,239.613972 202.03866,247.890491 202.03866,258.099851" id="Fill-8" fill="#FFFFFF"></path>
                            <path d="M586.902229,282.494144 C586.902229,324.286151 552.627463,358.167952 510.345878,358.167952 C468.064294,358.167952 433.789528,324.286151 433.789528,282.494144 C433.789528,240.699982 468.064294,206.818182 510.345878,206.818182 C552.627463,206.818182 586.902229,240.699982 586.902229,282.494144" id="Fill-9" fill="#FFFFFF"></path>
                            <path d="M544.413553,282.494144 C544.413553,301.092072 529.160704,316.169085 510.345878,316.169085 C491.528873,316.169085 476.276024,301.092072 476.276024,282.494144 C476.276024,263.894061 491.528873,248.817048 510.345878,248.817048 C529.160704,248.817048 544.413553,263.894061 544.413553,282.494144" id="Fill-10" fill="#25282C"></path>
                            <path d="M505.604569,258.099851 C505.604569,268.311365 497.229344,276.587885 486.900918,276.587885 C476.572493,276.587885 468.199448,268.311365 468.199448,258.099851 C468.199448,247.890491 476.572493,239.613972 486.900918,239.613972 C497.229344,239.613972 505.604569,247.890491 505.604569,258.099851" id="Fill-11" fill="#FFFFFF"></path>
                            <path d="M461.507117,428.616412 C461.507117,485.440182 414.904945,531.507277 357.41629,531.507277 C299.927635,531.507277 253.325463,485.440182 253.325463,428.616412 C253.325463,371.790487 299.927635,325.723391 357.41629,325.723391 C414.904945,325.723391 461.507117,371.790487 461.507117,428.616412" id="Fill-12" fill="#FFFFFF"></path>
                            <path d="M350.660741,531.168976 C352.903871,531.313347 355.131742,531.507277 357.41193,531.507277 C359.694299,531.507277 361.924349,531.313347 364.169659,531.168976 L364.169659,397.436708 L350.660741,397.436708 L350.660741,531.168976" id="Fill-13" fill="#25282C"></path>
                            <path d="M411.421445,372.434767 C411.421445,371.01261 411.148956,369.668026 410.760931,368.370847 C410.590898,367.735186 410.453564,367.360254 410.453564,367.360254 L410.442664,367.360254 C409.956543,366.091087 409.29603,364.923195 408.487282,363.856577 L408.491642,363.843649 C408.491642,363.843649 402.376987,351.382541 358.031025,351.264028 L358.031025,351.2511 C357.92421,351.2511 357.832653,351.257564 357.723658,351.257564 C357.616842,351.257564 357.523106,351.2511 357.41629,351.2511 L357.41629,351.264028 C331.614844,351.332981 318.786059,355.567129 312.551509,359.111746 C308.7868,360.605011 305.828658,363.604468 304.389916,367.360254 L304.368117,367.360254 C304.368117,367.360254 304.206803,367.799829 304.019331,368.53892 C303.661825,369.786539 303.408955,371.075099 303.408955,372.434767 C303.408955,372.557589 303.441654,372.671793 303.446014,372.792461 C303.182244,379.256808 305.327278,390.640524 320.157224,402.319446 C334.747379,413.808746 345.95431,417.558068 352.114743,418.801377 C352.583424,418.906961 353.063004,418.971605 353.540405,419.049177 C355.964468,419.437038 357.40539,419.434883 357.40539,419.434883 L357.41629,419.434883 C357.41629,419.434883 358.850672,419.434883 361.266016,419.051332 C361.756496,418.971605 362.249156,418.906961 362.730917,418.797068 C368.89571,417.549448 380.093921,413.791508 394.664457,402.319446 C409.433364,390.687929 411.619817,379.349464 411.377846,372.872188 C411.382206,372.723508 411.421445,372.585601 411.421445,372.434767" id="Fill-14" fill="#25282C"></path>
                            <path d="M56.5011547,693.200003 C56.5011547,693.200003 50.9380177,686.050435 44.8124633,673.95995 C38.6498504,661.92549 32.3978611,644.917791 28.4064411,627.425267 C24.3474438,609.934897 22.4160413,592.088988 22.0258369,578.688395 C21.674871,565.270565 22.522857,556.313134 22.522857,556.313134 C22.522857,556.313134 23.1899102,558.480845 24.1076534,562.279726 C24.9970578,566.067834 26.2701267,571.478493 27.7982455,577.973008 C30.7302279,590.936179 34.2595064,608.155046 38.2792653,625.195067 C42.1050119,642.284647 46.5454938,659.193225 50.2099269,671.891359 C52.0759321,678.263051 53.6302098,683.57459 54.7179862,687.291589 C55.9278377,691.015054 56.5011547,693.200003 56.5011547,693.200003" id="Fill-16" fill="#FFFFFF"></path>
                            <path d="M575.627721,585.148433 C575.627721,585.148433 575.472947,591.166741 574.526865,599.900075 C573.528465,608.624789 571.573084,620.030053 569.234037,631.323268 C566.799075,642.599245 564.021866,653.79765 561.517147,662.201302 C560.353074,666.411747 558.962289,669.887411 558.258178,672.365411 C557.434171,674.826173 556.821615,676.226781 556.821615,676.226781 C556.821615,676.226781 555.836295,670.281736 555.757818,661.393258 C555.727299,652.517709 556.904452,640.76768 559.321975,629.276225 C561.776556,617.789079 565.42791,606.58852 568.92667,598.441287 C572.475567,590.296209 575.627721,585.148433 575.627721,585.148433" id="Fill-17" fill="#FFFFFF"></path>
                            <path d="M101.383375,150.397356 C101.383375,150.397356 95.1204863,152.769772 86.9523538,157.615877 C82.8366788,159.962436 78.2545025,162.918797 73.6701463,166.4117 C69.0509115,169.852887 64.5101536,173.946974 60.3356209,178.359969 C56.0324735,182.680308 52.4225382,187.582438 48.9651968,192.213066 C45.8588214,197.065636 42.8418223,201.616537 40.6466503,205.824827 C38.1768094,209.901675 36.4546784,213.534639 35.1881492,216.081592 C33.8845615,218.617771 32.9929772,220.06363 32.9929772,220.06363 C32.9929772,220.06363 33.0082366,218.42384 33.2872654,215.55798 C33.7297877,212.745988 33.7101684,208.473055 35.2317474,203.723914 C36.2955448,198.815319 38.5190556,193.374494 41.3115237,187.679403 C44.3394223,182.096362 48.2894239,176.504701 52.9675163,171.494832 C62.4762951,161.567749 74.8734581,154.784493 84.7310228,152.330196 C94.5929474,149.66904 101.383375,150.397356 101.383375,150.397356" id="Fill-18" fill="#FFFFFF"></path>
                        </g>
                        <path d="M10.9240144,449.082616 C10.9240144,449.082616 244.542672,552.083216 360.475686,552.083216 C478.110702,552.083216 711.628105,449.082616 711.628105,449.082616 C711.628105,449.082616 719.404734,480.471678 719.871682,527.363072 C720.280091,568.375841 714.647309,621.585466 699.262738,671.563912 C666.288428,778.684536 592.09623,852.844968 592.09623,852.844968 L130.455889,852.844968 C130.455889,852.844968 108.685574,834.230193 85.1162122,799.284656 C59.0207333,760.593726 30.2058308,702.918775 15.0458032,650.963792 C-13.8067182,552.083216 10.9240144,449.082616 10.9240144,449.082616 Z" id="Path-47" stroke="#D2DAE6" stroke-width="7.2576" fill="#E2E8F0"></path>
                        <path d="M564.1906,57.2360206 C547.917431,51.0776521 550.695877,80.5208065 544.241445,99.0950318 C532.794249,132.072537 540.218478,161.677856 544.241445,187.161987 C552.553136,239.813734 573.463203,277.303508 573.468637,307.624111 C593.727039,280.97807 594.618722,179.096644 594.618722,179.096644" id="Fill-6" fill="#565656" transform="translate(566.377902, 182.014115) rotate(-37.000000) translate(-566.377902, -182.014115) "></path>
                        <path d="M145.448886,57.6026031 C129.175717,51.4442347 131.954164,80.887389 125.499731,99.4616144 C114.083185,132.350824 141.462874,154.029283 145.448886,179.463226 C153.717039,232.220636 145.443445,274.438847 145.448886,304.798743 C165.707288,278.152702 175.877008,179.463227 175.877008,179.463227" id="Fill-6" fill="#565656" transform="translate(149.306191, 180.784722) scale(-1, 1) rotate(-37.000000) translate(-149.306191, -180.784722) "></path>
                        <path d="M283.248138,56.0427257 C240.343291,63.5567082 198.473059,93.6387617 162.439157,106.371061 C133.129681,116.727336 106.847595,116.152933 89.1860886,112.05329 C106.847595,125.560173 130.7361,131.497449 145.812375,142.165777 C144.733317,142.525239 142.608286,160.008951 109.846945,156.560912 C152.560152,207.844736 158.001259,183.289538 283.248138,177.577209 C456.982812,169.630371 507.41304,167.736275 507.41304,116.152937 C516.376332,42.7996097 398.937458,35.7819025 283.248138,56.0427257 Z" id="Fill-9" fill="#565656"></path>
                        <path d="M500.114693,104.709079 C481.672633,135.377058 424.685358,162.487564 288.974899,167.290902 C163.72802,171.712308 139.525095,177.72848 92.9974028,159.257317 C127.958824,169.434739 157.158542,166.770199 217.512877,163.108941 C237.479876,161.897688 263.198467,158.343245 288.974899,156.410007 C360.186096,151.069154 438.614999,145.649196 470.51802,127.339806 C497.997998,111.565511 500.114693,104.709079 500.114693,104.709079 Z" id="Fill-11" fill-opacity="0.414204031" fill="#CBCBCB"></path>
                        <path d="M2.68043688,490.282856 L328.301749,562.111801 C328.301749,562.111801 329.969885,566.418738 332.423538,568.24393 C335.465604,570.506823 344.788904,574.376059 344.788904,574.376059 C344.788904,574.376059 313.000011,644.783474 307.692806,678.622247 C303.382504,706.104761 315.936383,758.339921 315.936383,758.339921 C315.936383,758.339921 341.660304,716.954258 348.910693,690.886505 C354.942332,669.200598 357.154271,580.923384 357.154271,580.923384 L361.27606,580.923384 C361.27606,580.923384 361.578161,581.390256 365.397848,585.043408 C367.850636,587.389256 369.519637,585.043408 369.519637,585.043408 C369.519637,585.043408 372.835485,576.606659 373.641426,580.923384 C378.356447,606.177645 392.651621,706.449465 406.615736,746.075663 C412.357843,762.370134 439.590046,791.044608 439.590046,791.044608 C439.590046,791.044608 463.280606,746.969912 456.077201,715.41502 C446.793451,674.747062 390.128581,574.376059 390.128581,574.376059 C390.128581,574.376059 394.25037,569.174086 394.25037,566.199887 C394.25037,563.041957 390.128581,555.979673 390.128581,555.979673 L715.749893,482.042808 L715.749893,444.962592 L381.885003,549.847544 C381.885003,549.847544 365.168423,547.803501 357.154271,547.803501 C348.681268,547.803501 332.423538,549.847544 332.423538,549.847544 L10.9240144,453.20264 L2.68043688,490.282856 Z" id="Path-51" stroke="#08758D" stroke-width="7.2576" fill="#0487A3"></path>
                        <path d="M678.100943,334.920764 C678.100943,334.920764 636.607961,363.590753 595.440718,395.722178 C557.287452,425.501165 523.317497,461.127221 517.183305,467.733593 C504.433819,481.468216 477.157371,462.2246 452.767807,443.886795 C429.98497,426.756726 415.788735,419.507314 395.384689,417.307617 C376.531726,415.278741 362.540679,426.010507 360.51662,427.655785 C358.496038,426.010507 344.501513,415.278741 325.64855,417.307617 C305.247983,419.507314 291.048269,426.756726 268.265432,443.886795 C243.879346,462.2246 229.453578,478.980061 216.700615,465.245438 C210.443197,458.504517 169.112009,418.86379 131.021118,382.283655 C91.5018359,344.331782 55.2919794,309.52112 55.2919794,309.52112 L37.6789656,350.526929 C37.6789656,350.526929 93.2575516,428.615014 120.506164,474.630459 C126.392219,484.570394 137.082968,501.912972 137.082968,501.912972 C137.082968,501.912972 147.752299,489.359086 151.007356,497.315877 C166.629475,535.501905 203.328785,555.082351 203.328785,555.082351 C203.328785,555.082351 202.692354,533.65478 203.965216,530.906657 C205.241555,528.16153 211.191,523.279619 238.070643,557.285024 C268.035064,595.195341 291.944697,606.184837 291.944697,606.184837 L286.846293,579.264017 C286.846293,579.264017 310.746329,628.709616 360.15841,644.368225 C360.283609,643.007649 360.401853,641.581143 360.51662,640.124667 C360.631386,641.581143 360.74963,643.007649 360.874829,644.368225 C410.290389,628.709616 439.660248,582.564091 439.660248,582.564091 L434.558367,609.484912 C434.558367,609.484912 458.467999,598.495415 488.435898,560.585098 C515.315542,526.579694 521.289432,528.16153 522.565772,530.906657 C523.842112,533.65478 523.202203,555.082351 523.202203,555.082351 C523.202203,555.082351 555.774896,533.586275 580.262131,497.315877 C586.334018,488.32222 595.440718,501.912972 595.440718,501.912972 C595.440718,501.912972 622.942666,463.739731 632.942997,450.277046 C675.099136,393.525448 694.530451,375.54479 694.530451,375.54479 L678.100943,334.920764 Z" id="Fill-68" fill="#565656"></path>
                        <path d="M385.789429,466.372496 C364.567869,462.213176 361.317152,462.034253 336.647066,466.372496 C321.02192,469.119877 316.587851,463.044262 316.587851,463.044262 C316.587851,463.044262 339.535425,455.675991 346.91562,452.110489 C353.719893,448.823745 360.237081,444.536067 361.217372,443.8852 C362.197664,444.536067 368.714852,448.823745 375.519125,452.110489 C382.90107,455.675991 405.846894,463.044262 405.846894,463.044262 C405.846894,463.044262 401.313045,469.41549 385.789429,466.372496 L385.789429,466.372496 Z" id="Path" fill="#26292D"></path>
                    </g>
                    <g id="Group-18" transform="translate(534.442592, 590.495778)">
                        <path d="M12.3653663,61.80036 C12.3653663,61.80036 -20.6089438,210.121224 45.3396764,222.481296 C72.2856113,227.531495 109.449812,207.937346 131.897241,177.161032 C164.388598,132.614094 177.236917,70.040408 177.236917,70.040408 L12.3653663,61.80036 Z" id="Path-48" fill="#F6C823"></path>
                        <path d="M24.7307326,8.18545232e-14 L12.3653663,61.80036 L4.12178877,61.80036 C4.12178877,61.80036 5.9888075,47.9616539 8.24357753,41.20024 C12.8584554,27.3615339 24.7307326,8.18545232e-14 24.7307326,8.18545232e-14 Z" id="Path-49" fill="#E2E8F0"></path>
                        <polygon id="Path-50" stroke="#D2DAE5" stroke-width="7.2576" fill="#D0D8E4" points="4.12178877 61.80036 0 90.640528 177.236917 98.8805759 181.358706 65.920384"></polygon>
                    </g>
                    <g id="Group-18" transform="translate(97.407166, 702.172796) scale(-1, 1) translate(-97.407166, -702.172796) translate(6.601997, 590.495778)">
                        <path d="M12.3653663,61.80036 C12.3653663,61.80036 -20.6089438,210.121224 45.3396764,222.481296 C72.2856113,227.531495 109.449812,207.937346 131.897241,177.161032 C164.388598,132.614094 177.236917,70.040408 177.236917,70.040408 L12.3653663,61.80036 Z" id="Path-48" fill="#F6C823"></path>
                        <path d="M24.7307326,8.18545232e-14 L12.3653663,61.80036 L4.12178877,61.80036 C4.12178877,61.80036 5.9888075,47.9616539 8.24357753,41.20024 C12.8584554,27.3615339 24.7307326,8.18545232e-14 24.7307326,8.18545232e-14 Z" id="Path-49" fill="#E2E8F0"></path>
                        <polygon id="Path-50" stroke="#D2DAE5" stroke-width="7.2576" fill="#D0D8E4" points="4.12178877 61.80036 0 90.640528 177.236917 98.8805759 181.358706 65.920384"></polygon>
                    </g>
                    <path d="M118.141926,223.813642 C118.141926,223.813642 276.830794,174.373354 348.962097,174.373354 C421.093401,174.373354 596.269423,215.573594 596.269423,215.573594 L666.339832,50.772634 C666.339832,50.772634 402.545351,1.33234607 340.71852,1.33234607 C278.891688,1.33234607 52.1933061,67.25273 52.1933061,67.25273 L118.141926,223.813642 Z" id="Path-52" stroke="#D2DBE6" stroke-width="7.2576" fill="#E2E8F0"></path>
                    <path d="M72.8022499,116.693018 C72.8022499,116.693018 271.659791,55.5652963 353.083886,54.892658 C437.905272,54.191955 645.730888,100.212922 645.730888,100.212922 L653.974466,79.612802 C653.974466,79.612802 441.227192,28.7958646 353.083886,30.1725141 C265.364205,31.5425472 60.4368836,91.972874 60.4368836,91.972874 L72.8022499,116.693018 Z" id="Path-53" stroke="#08758D" stroke-width="7.2576" fill="#0487A3"></path>
                </g>
            </g>
        </g>
    </g>
</svg>