<?xml version="1.0" encoding="UTF-8" standalone="no"?>
<svg width="1200px" height="1200px" viewBox="0 0 1200 1200" version="1.1" xmlns="http://www.w3.org/2000/svg" xmlns:xlink="http://www.w3.org/1999/xlink">
    <!-- Generator: Sketch 42 (36781) - http://www.bohemiancoding.com/sketch -->
    <title>63</title>
    <desc>Created with Sketch.</desc>
    <defs></defs>
    <g id="Page-1" stroke="none" stroke-width="1" fill="none" fill-rule="evenodd">
        <g id="63">
            <g id="Group-23" transform="translate(286.000000, 136.000000)">
                <g id="Group-13">
                    <g id="Group-14">
                        <g id="Group-9" transform="translate(75.567568, 0.000000)">
                            <g id="Mascot5_EPS">
                                <g id="Group-4" fill="#F6C723">
                                    <path d="M137.389262,93.0894916 L402.398754,93.0894916 C370.667615,71.3504614 333.396803,57.0707509 293.013912,53.1186684 L309.241551,9.11332022 C309.241551,9.11332022 298.913931,0.539310695 269.89487,0.539310695 C240.877534,0.539310695 230.548189,9.11332022 230.548189,9.11332022 L246.775829,53.1186684 C206.394662,57.0690333 169.122125,71.3487439 137.389262,93.0894916" id="Fill-1"></path>
                                    <path d="M548.432432,435.363538 C548.432432,327.363538 538.630236,307.616637 521.202593,265.287618 C516.58706,254.075452 511.681872,243.012712 506.187026,232.286613 C525.656056,220.797921 538.750926,199.720147 538.750926,175.543914 C538.750926,139.107808 509.100829,109.572819 472.524846,109.572819 L68.5476569,109.572819 C31.9733988,109.572819 2.3233014,139.107808 2.3233014,175.543914 C2.3233014,199.701254 15.3974823,220.765287 34.8423738,232.259132 C29.3492523,242.981796 24.4440637,254.041101 19.8285313,265.249832 C2.39226715,307.587439 -2.41059517,430.690599 8.43243243,507.363538 C19.27546,584.036477 172.082778,684.289806 200.432432,675.363538 C224.798037,667.691702 267.567286,660.5555 290.432432,663.363538 C331.638611,668.424014 368.452671,692.396449 398.432432,693.363538 C418.423374,694.008407 446.432432,663.363538 446.432432,663.363538 C446.432432,663.363538 473.106886,635.952322 500.432432,597.363538" id="Fill-3"></path>
                                </g>
                                <path d="M351.771001,338.918986 C351.771001,384.126619 314.982949,420.773983 269.601766,420.773983 C224.220582,420.773983 187.43253,384.126619 187.43253,338.918986 C187.43253,293.711353 224.220582,257.063989 269.601766,257.063989 C314.982949,257.063989 351.771001,293.711353 351.771001,338.918986" id="Fill-11" fill="#FFFFFF"></path>
                                <path d="M264.270714,420.506045 C266.041409,420.619403 267.800036,420.773983 269.598318,420.773983 C271.400048,420.773983 273.162122,420.619403 274.934542,420.506045 L274.934542,314.114129 L264.270714,314.114129 L264.270714,420.506045" id="Fill-12" fill="#25282C"></path>
                                <path d="M312.234665,294.2249 C312.234665,293.093035 312.019147,292.023001 311.712249,290.990753 C311.57949,290.484076 311.469145,290.18694 311.469145,290.18694 L311.460524,290.18694 C311.077764,289.178738 310.555349,288.249544 309.917416,287.399356 L309.922588,287.390769 C309.922588,287.390769 305.093262,277.47707 270.087974,277.380887 L270.087974,277.3723 C270.003491,277.3723 269.931077,277.375735 269.84487,277.375735 C269.760387,277.375735 269.687973,277.3723 269.601766,277.3723 L269.601766,277.380887 C249.236182,277.435849 239.108562,280.805682 234.186132,283.624182 C231.213709,284.812726 228.880942,287.198403 227.743008,290.18694 L227.725766,290.18694 C227.725766,290.18694 227.59818,290.53732 227.451627,291.124722 C227.168868,292.115749 226.970591,293.142844 226.970591,294.2249 C226.970591,294.321083 226.996453,294.412113 226.998178,294.510013 C226.789556,299.65064 228.482665,308.707281 240.1896,317.997509 C251.708604,327.13831 260.555184,330.121695 265.417269,331.111003 C265.78796,331.195163 266.165548,331.244972 266.543135,331.308522 C268.456935,331.615963 269.593145,331.614246 269.593145,331.614246 L269.601766,331.614246 C269.601766,331.614246 270.734528,331.615963 272.641431,331.310239 C273.029363,331.24669 273.417296,331.193446 273.796607,331.107568 C278.665589,330.114825 287.505273,327.12457 299.005311,317.997509 C310.66397,308.746785 312.391562,299.724495 312.198458,294.571845 C312.20363,294.453334 312.234665,294.343411 312.234665,294.2249" id="Fill-13" fill="#25282C"></path>
                                <path d="M67.4907569,117.583472 C67.4907569,117.583472 62.5476372,119.471059 56.0993402,123.325242 C52.8510536,125.190501 49.2320762,127.543544 45.614823,130.32254 C41.9682593,133.060315 38.3837647,136.31679 35.0889263,139.827462 C31.6906393,143.264279 28.8406299,147.164835 26.1113106,150.84898 C23.6595784,154.710032 21.2785361,158.32891 19.5457718,161.678133 C17.5957654,164.920867 16.2371402,167.811504 15.2354128,169.836495 C14.2078232,171.854616 13.5043726,173.005375 13.5043726,173.005375 C13.5043726,173.005375 13.5147175,171.701754 13.737132,169.420848 C14.085409,167.184598 14.0698917,163.783849 15.2716198,160.005239 C16.1112777,156.101248 17.8664559,151.773022 20.0716356,147.242125 C22.4612986,142.800541 25.5802744,138.352086 29.2716658,134.365653 C36.778587,126.468358 46.5648261,121.071816 54.3458861,119.118962 C62.1303945,117.00294 67.4907569,117.583472 67.4907569,117.583472" id="Fill-16" fill="#FFFFFF"></path>
                            </g>
                            <path d="M68.5476569,142.448443 C50.1993208,142.448443 35.3234098,157.265747 35.3234098,175.543914 C35.3234098,187.400161 41.6320513,197.719202 51.0372546,203.564024 C62.5338441,184.755134 75.3631966,166.849676 89.4753119,150.034861 C83.749431,145.364843 76.5269935,142.448443 68.5476569,142.448443" id="Fill-8" fill="#25282C"></path>
                            <path d="M472.524846,142.448443 C464.531717,142.448443 457.295486,145.375148 451.564433,150.062342 C465.6731,166.875439 478.499004,184.77918 489.993869,203.58807 C499.421487,197.7484 505.749094,187.417337 505.749094,175.543914 C505.749094,157.265747 490.874907,142.448443 472.524846,142.448443" id="Fill-9" fill="#25282C"></path>
                        </g>
                        <path d="M78,387.363538 C78,387.363538 255.544771,466.412497 351,465.363538 C437.544771,464.412497 624,381.363538 624,381.363538 C624,381.363538 630,447.363538 612,519.363538 C594,591.363538 546,639.363538 546,639.363538 C546,639.363538 510,699.363538 474,699.363538 C443.3268,699.363538 391.346021,663.82586 351,663.363538 C292.802419,662.696656 245.596372,694.034448 204,693.363538 C187.153019,693.091813 144,639.363538 144,639.363538 C144,639.363538 102.597349,586.000719 90,543.363538 C76.5973488,498.000719 78,387.363538 78,387.363538 Z" id="Path-82" fill="#1F2228"></path>
                        <path d="M171.891892,189.391304 C171.891892,189.391304 171.93857,190.747637 172.077466,193.146232 C173.00202,209.112335 178.012591,271.259192 200.540541,286.956522 C218.556135,299.509671 303.675676,281.217391 303.675676,281.217391 C303.675676,281.217391 434.650158,304.417102 492.756757,286.956522 C511.046555,281.46058 532.864865,212.347826 532.864865,212.347826 C532.864865,212.347826 522.151057,188.388 498.486486,177.913043 C462.545414,162.003978 404.739612,157.011137 372.432432,154.956522 C305.687205,150.711777 171.891892,189.391304 171.891892,189.391304 Z" id="Path-25" fill="#F1F1F1"></path>
                        <g id="Group" transform="translate(97.405405, 143.478261)" fill="#000000">
                            <path d="M449.783784,70.0440849 C447.491892,55.9498483 441.189189,42.2827098 429.156757,31.6052578 C400.508108,5.55227503 333.47027,2.84217094e-14 281.902703,2.84217094e-14 C266.432432,2.84217094e-14 253.827027,0.427098079 248.67027,0.854196158 C242.940541,0.427098079 230.908108,2.84217094e-14 215.437838,2.84217094e-14 C163.87027,2.84217094e-14 96.8324324,5.55227503 68.1837838,31.6052578 C56.1513514,42.7098079 49.8486486,56.3769464 47.5567568,70.0440849 L38.9621622,70.0440849 C33.2324324,70.0440849 5.72972973,93.2942366 5.72972973,97.5652174 L0,114.782609 C0,119.053589 33.2324324,99.9409505 38.9621622,99.9409505 L47.5567568,99.9409505 C49.8486486,108.482912 52.7135135,116.597776 56.7243243,123.858443 C69.9027027,148.203033 92.2486486,163.151466 118.605405,165.286957 C123.189189,165.714055 127.772973,165.714055 132.356757,165.714055 C148.972973,165.714055 172.464865,161.443074 183.351351,157.599191 C198.821622,166.568251 218.302703,190.672599 246.378378,189.391304 C275.6,188.11001 295.654054,165.714055 309.405405,157.599191 C320.864865,162.29727 343.783784,165.714055 363.264865,165.714055 C367.848649,165.714055 372.432432,165.714055 377.016216,165.286957 C402.8,163.151466 425.718919,147.775935 438.897297,123.858443 C442.908108,116.597776 445.772973,108.482912 447.491892,99.9409505 L451.502703,99.9409505 C457.232432,99.9409505 492.756757,107.575329 492.756757,103.304348 L487.027027,91.826087 C486.454054,87.5551062 456.659459,70.0440849 451.502703,70.0440849 L449.783784,70.0440849 Z M132.92973,137.952679 C129.491892,137.952679 126.627027,137.952679 123.189189,137.525581 C111.156757,136.671385 99.1243243,127.275228 91.6756757,113.180991 C80.7891892,93.5344793 79.0702703,64.918908 96.8324324,49.1162791 C111.156757,35.8762386 155.848649,27.7613751 215.437838,27.7613751 L228.616216,27.7613751 L228.616216,59.366633 C217.72973,68.7627907 201.686486,87.5551062 176.475676,125.139737 C173.037838,128.129424 159.859459,137.952679 132.92973,137.952679 L132.92973,137.952679 Z M405.664865,113.180991 C397.643243,127.702326 386.183784,136.671385 374.151351,137.525581 C370.713514,137.952679 367.275676,137.952679 364.410811,137.952679 C337.481081,137.952679 324.302703,127.702326 321.437838,125.139737 C295.654054,87.9822042 279.610811,68.7627907 268.724324,59.366633 L268.724324,27.7613751 L281.902703,27.7613751 C341.491892,27.7613751 385.610811,35.8762386 400.508108,49.1162791 C418.27027,64.918908 416.551351,93.5344793 405.664865,113.180991 L405.664865,113.180991 Z" id="Shape"></path>
                        </g>
                        <rect id="Rectangle-5" fill="#000000" transform="translate(210.870917, 206.271835) rotate(49.000000) translate(-210.870917, -206.271835) " x="205.141187" y="189.054444" width="11.4594595" height="34.4347826" rx="5.72972973"></rect>
                        <rect id="Rectangle-5" fill="#000000" transform="translate(224.109542, 222.966277) rotate(49.000000) translate(-224.109542, -222.966277) " x="218.379812" y="194.270625" width="11.4594595" height="57.3913043" rx="5.72972973"></rect>
                        <g id="Group-6" transform="translate(0.000000, 304.173913)">
                            <path d="M78,79.326502 C70.7503509,77.7128257 53.1800667,75.6536283 48.6679496,79.326502 C4.76653293,115.062356 -12.6946232,167.134531 10.2580645,195.031484 C52.8907845,246.847768 171.121342,150.31217 209.820343,116.246166 C217.679109,109.328241 246.193548,98.05997 246.193548,98.05997" id="Path-22" stroke="#000000" stroke-width="13.824"></path>
                            <polygon id="Path-23" fill="#D8D8D8" transform="translate(259.870968, 84.850075) rotate(-15.000000) translate(-259.870968, -84.850075) " points="225.677419 83.1184408 229.096774 103.898051 294.064516 100.434783 283.806452 65.802099"></polygon>
                            <g id="Group-7" transform="translate(275.027027, 0.000000)">
                                <path d="M68.6181343,124.677661 C102.179432,124.677661 129.636364,98.9215603 131.745881,66.3727778 C131.769171,66.0134295 143.176451,64.7693955 145.553618,58.8755622 C148.648995,51.2010349 142.838731,37.8744271 142.134263,31.1694153 C141.371838,23.9127743 130.230965,25.557922 125.037489,24.2428786 C125.037489,24.2428786 103.554599,0 68.6181343,0 C33.6816699,0 5.36006975,27.9100451 5.36006975,62.3388306 C5.36006975,96.767616 33.6816699,124.677661 68.6181343,124.677661 Z" id="Oval-4" stroke="#2D3636" stroke-width="3.456" fill="#282F2F"></path>
                                <ellipse id="Oval-5" fill="#000000" cx="71.6216216" cy="60.2608696" rx="25.7837838" ry="25.826087"></ellipse>
                            </g>
                        </g>
                    </g>
                </g>
                <g id="Group-6" transform="translate(114.000000, 666.000000)">
                    <path d="M60,0 L54,45.9130435 C54,45.9130435 19.5040926,104.670042 12,133.913043 C1.50409256,174.814969 0,256.347826 0,256.347826 L204,256.347826 C204,256.347826 202.741692,172.271782 192,133.913043 C182.741692,100.851492 144,42.0869565 144,42.0869565 L144,0 L60,0 Z" id="Path-83" fill="#0B3E46"></path>
                    <rect id="Rectangle-10" fill="#F6C823" x="72" y="7.65217391" width="12" height="26.7826087" rx="6"></rect>
                    <rect id="Rectangle-10" fill="#F6C823" x="96" y="7.65217391" width="12" height="26.7826087" rx="6"></rect>
                    <rect id="Rectangle-10" fill="#F6C823" x="120" y="7.65217391" width="12" height="26.7826087" rx="6"></rect>
                    <path d="M54,80.3478261 C54,80.3478261 50.5116041,118.964535 54,130.086957 C56.5116041,138.09497 72,137.73913 72,137.73913 C72,137.73913 49.5509008,185.556936 42,210.434783 C37.5509008,225.093167 36,256.347826 36,256.347826 C36,256.347826 14.295027,264 6,264 C2.29502696,264 0,256.347826 0,256.347826 C0,256.347826 8.09094577,185.55059 18,149.217391 C24.0909458,126.883923 48,80.3478261 48,80.3478261 L54,80.3478261 Z" id="Path-84" fill="#F6C823"></path>
                    <path d="M186,80.3478261 C186,80.3478261 182.511604,118.964535 186,130.086957 C188.511604,138.09497 204,137.73913 204,137.73913 C204,137.73913 181.550901,185.556936 174,210.434783 C169.550901,225.093167 168,256.347826 168,256.347826 C168,256.347826 146.295027,264 138,264 C134.295027,264 132,256.347826 132,256.347826 C132,256.347826 140.090946,185.55059 150,149.217391 C156.090946,126.883923 180,80.3478261 180,80.3478261 L186,80.3478261 Z" id="Path-84" fill="#F6C823" transform="translate(168.000000, 172.173913) scale(-1, 1) translate(-168.000000, -172.173913) "></path>
                    <path d="M72,153.043478 C72,153.043478 77.7854569,141.565217 102,141.565217 C125.442188,141.565217 132,153.043478 132,153.043478 C132,153.043478 144.954717,200.791569 150,225.73913 C150.911808,235.226351 150,256.347826 150,256.347826 C150,256.347826 144,260.173913 132,260.173913 C120,260.173913 114,256.347826 114,256.347826 L108,172.173913 C108,172.173913 104.592368,168.347826 102,168.347826 C98.6352768,168.347826 96,172.173913 96,172.173913 L96,256.347826 C96,256.347826 83.1074124,260.173913 72,260.173913 C67.1074124,260.173913 54,256.347826 54,256.347826 C54,256.347826 57.2063771,222.641662 60,206.608696 C63.2063771,188.206879 72,153.043478 72,153.043478 Z" id="Path-85" fill="#F6C823"></path>
                </g>
                <g id="Group-22" transform="translate(378.000000, 666.000000)">
                    <g id="Group-6">
                        <path d="M60,0 L54,45.9130435 C54,45.9130435 19.5040926,104.670042 12,133.913043 C1.50409256,174.814969 0,256.347826 0,256.347826 L204,256.347826 C204,256.347826 202.741692,172.271782 192,133.913043 C182.741692,100.851492 144,42.0869565 144,42.0869565 L144,0 L60,0 Z" id="Path-83" fill="#0B3E46"></path>
                        <rect id="Rectangle-10" fill="#F6C823" x="72" y="7.65217391" width="12" height="26.7826087" rx="6"></rect>
                        <rect id="Rectangle-10" fill="#F6C823" x="96" y="7.65217391" width="12" height="26.7826087" rx="6"></rect>
                        <rect id="Rectangle-10" fill="#F6C823" x="120" y="7.65217391" width="12" height="26.7826087" rx="6"></rect>
                        <path d="M54,80.3478261 C54,80.3478261 50.5116041,118.964535 54,130.086957 C56.5116041,138.09497 72,137.73913 72,137.73913 C72,137.73913 49.5509008,185.556936 42,210.434783 C37.5509008,225.093167 36,256.347826 36,256.347826 C36,256.347826 14.295027,264 6,264 C2.29502696,264 0,256.347826 0,256.347826 C0,256.347826 8.09094577,185.55059 18,149.217391 C24.0909458,126.883923 48,80.3478261 48,80.3478261 L54,80.3478261 Z" id="Path-84" fill="#F6C823"></path>
                        <path d="M186,80.3478261 C186,80.3478261 182.511604,118.964535 186,130.086957 C188.511604,138.09497 204,137.73913 204,137.73913 C204,137.73913 181.550901,185.556936 174,210.434783 C169.550901,225.093167 168,256.347826 168,256.347826 C168,256.347826 146.295027,264 138,264 C134.295027,264 132,256.347826 132,256.347826 C132,256.347826 140.090946,185.55059 150,149.217391 C156.090946,126.883923 180,80.3478261 180,80.3478261 L186,80.3478261 Z" id="Path-84" fill="#F6C823" transform="translate(168.000000, 172.173913) scale(-1, 1) translate(-168.000000, -172.173913) "></path>
                        <path d="M72,153.043478 C72,153.043478 77.7854569,141.565217 102,141.565217 C125.442188,141.565217 132,153.043478 132,153.043478 C132,153.043478 144.954717,200.791569 150,225.73913 C150.911808,235.226351 150,256.347826 150,256.347826 C150,256.347826 144,260.173913 132,260.173913 C120,260.173913 114,256.347826 114,256.347826 L108,172.173913 C108,172.173913 104.592368,168.347826 102,168.347826 C98.6352768,168.347826 96,172.173913 96,172.173913 L96,256.347826 C96,256.347826 83.1074124,260.173913 72,260.173913 C67.1074124,260.173913 54,256.347826 54,256.347826 C54,256.347826 57.2063771,222.641662 60,206.608696 C63.2063771,188.206879 72,153.043478 72,153.043478 Z" id="Path-85" fill="#F6C823"></path>
                    </g>
                </g>
            </g>
        </g>
    </g>
</svg>