<?xml version="1.0" encoding="UTF-8" standalone="no"?>
<svg width="1200px" height="1200px" viewBox="0 0 1200 1200" version="1.1" xmlns="http://www.w3.org/2000/svg" xmlns:xlink="http://www.w3.org/1999/xlink">
    <!-- Generator: Sketch 42 (36781) - http://www.bohemiancoding.com/sketch -->
    <title>65</title>
    <desc>Created with Sketch.</desc>
    <defs>
        <path d="M0,310.439726 C0,310.439726 32.0721667,292.598363 60.5807594,303.303181 C89.089352,314.007999 103.343648,353.258999 103.343648,353.258999 C103.343648,353.258999 146.106537,335.417635 181.742278,353.258999 C217.378019,371.100363 235.195889,413.919635 235.195889,413.919635 C235.195889,413.919635 285.085926,392.509999 317.158093,406.78309 C349.23026,421.056181 367.04813,471.011999 367.04813,471.011999 C367.04813,471.011999 399.120297,453.170635 438.319612,471.011999 C477.518927,488.853362 488.209649,517.399544 488.209649,517.399544 C488.209649,517.399544 538.099686,499.55818 573.735427,520.967817 C609.371168,542.377453 609.371168,581.628453 609.371168,581.628453 C609.371168,581.628453 662.824779,567.355362 691.333371,585.196726 C719.841964,603.038089 730.532686,631.584271 730.532686,631.584271 C730.532686,631.584271 819.413166,405.086323 776.859149,242.642545 C762.909326,189.39112 722.332532,129.453783 680.642649,96.3433634 C626.37095,53.2403707 625.824983,53.0688061 498.900371,10.7048182 C456.137482,-3.56827272 320.095971,-2.38256075 242.323037,32.1144545 C128.250907,82.7123659 67.7079075,174.845363 67.7079075,174.845363 C67.7079075,174.845363 37.9638593,223.707077 24.9450186,249.77909 C15.3945568,268.905199 0,310.439726 0,310.439726 Z" id="path-1"></path>
    </defs>
    <g id="Page-1" stroke="none" stroke-width="1" fill="none" fill-rule="evenodd">
        <g id="65">
            <g id="Group-31" transform="translate(0.000000, 62.000000)">
                <g id="Group-8" transform="translate(279.495675, 0.000000)">
                    <g id="Group-12" transform="translate(10.690722, 271.188727)" fill="#604938">
                        <polygon id="Path-35" points="0 15.4149381 128.288667 467.586457 131.852241 452.171519 10.6907222 0"></polygon>
                        <polygon id="Path-36" points="103.343648 77.0746907 142.542963 503.554646 146.106537 513.831271 121.161519 56.5214398"></polygon>
                        <polygon id="Path-37" points="228.068741 138.734443 149.670111 488.139708 153.233685 488.139708 242.323037 138.734443"></polygon>
                    </g>
                    <g id="Group-12" transform="translate(496.835604, 677.822279) scale(-1, 1) rotate(-44.000000) translate(-496.835604, -677.822279) translate(361.673123, 458.539641)" fill="#604938">
                        <polygon id="Path-35" points="2.98156308 14.4437294 135.415815 402.777886 138.979389 389.233014 13.6722853 0.898857475"></polygon>
                        <polygon id="Path-36" points="110.470796 33.5188767 149.670111 428.335769 153.233685 437.849429 128.288667 14.4915565"></polygon>
                        <polygon id="Path-37" points="251.206349 104.745506 156.79726 420.837715 160.360834 420.837715 265.460645 104.745506"></polygon>
                    </g>
                    <mask id="mask-2" fill="white">
                        <use xlink:href="#path-1"></use>
                    </mask>
                    <use id="Path-18" fill="#D8D8D8" xlink:href="#path-1"></use>
                    <path d="M103.343648,356.827272 C103.343648,356.827272 123.891384,274.852998 167.487982,196.254999 C192.881973,150.473517 232.365546,106.976677 263.704482,78.5019998 C285.236305,58.9381028 319.955943,30.7762077 370.611704,17.8413636 C421.463109,4.85656234 498.900371,3.56827272 498.900371,3.56827272 C498.900371,3.56827272 454.061689,32.0694239 420.501741,64.2289089 C390.293431,93.1766205 361.282228,128.129882 345.666686,153.435727 C288.353118,246.315514 217.378019,446.03409 217.378019,446.03409 L103.343648,356.827272 Z" id="Path-32" fill="#017C71" mask="url(#mask-2)"></path>
                    <path d="M534.536112,21.4096363 C534.536112,21.4096363 505.10427,142.977661 481.082501,206.959818 C445.711369,301.171085 356.357408,495.989908 356.357408,495.989908 L488.209649,517.399544 C488.209649,517.399544 591.553297,367.53209 595.116871,221.232908 C598.680445,74.9337271 541.66326,21.4096363 541.66326,21.4096363 L534.536112,21.4096363 Z" id="Path-33" fill="#017C71" mask="url(#mask-2)"></path>
                    <path d="M584.426149,39.2509999 C584.426149,39.2509999 630.081395,79.1601494 659.261205,146.299181 C676.274001,185.443462 682.893754,245.095961 684.206223,281.893545 C687.769797,381.805181 609.371168,592.333271 609.371168,592.333271 L780.422723,652.993907 L812.49489,24.977909 L584.426149,39.2509999 Z" id="Path-34" fill="#017C71" mask="url(#mask-2)"></path>
                </g>
                <g id="Group-16" transform="translate(541.350104, 721.166575) rotate(22.000000) translate(-541.350104, -721.166575) translate(125.661721, 305.549482)">
                    <g id="Group-15" transform="translate(0.000000, -0.000000)">
                        <g id="Group" transform="translate(416.504248, 415.040417) rotate(48.000000) translate(-416.504248, -415.040417) translate(120.676933, 124.363431)">
                            <g id="Mascot7_EPS" transform="translate(295.924108, 290.025894) rotate(-48.000000) translate(-295.924108, -290.025894) translate(114.857389, 57.994265)">
                                <g id="Group-3" transform="translate(-0.000000, 69.829327)" fill="#F6C823">
                                    <path d="M338.030204,102.857508 C335.030389,95.5908939 331.843908,88.4213859 328.274216,81.4690035 C340.92351,74.0234514 349.431038,60.3630893 349.431038,44.6951339 C349.431038,21.0819104 330.167218,1.93885492 306.402577,1.93885492 L43.9275376,1.93885492 C20.1639948,1.93885492 0.899076574,21.0819104 0.899076574,44.6951339 C0.899076574,60.3510873 9.39342864,74.0027209 22.0273499,81.4515462 C18.4576577,88.4017464 15.2722757,95.5690722 12.2724606,102.832413 C6.13474231,117.698651 2.70860419,181.607217 9.18605384,237.658669 C14.66401,285.061182 29.2021625,326.048696 34.8682068,335.172052 C47.2341068,355.083389 57.5419987,370.085616 73.0011485,383.936918 C81.2484441,388.443091 94.6872206,391.770895 112.48627,382.587248 C143.522059,366.57451 174.557847,364.794953 174.557847,364.794953 C174.557847,364.794953 205.593636,366.57451 236.629425,382.587248 C257.483191,393.346419 272.351601,386.941761 279.886276,381.580178 C294.239711,368.340974 307.075669,353.51097 317.951646,337.239646 C317.254398,337.530965 316.644992,337.885567 315.929077,338.16052 C309.614312,340.549992 302.652808,342.328458 294.809588,342.274995 C287.360559,342.094966 279.066048,340.459433 272.430659,335.172043 C265.802956,329.973032 262.16299,322.278713 260.417124,314.98373 C257.016529,300.13736 264.085639,300.283565 267.977054,312.891032 C269.927153,319.114571 273.298102,324.619086 278.010842,327.764679 C282.63574,330.989921 288.693566,331.968623 294.434062,331.15031 C299.919814,330.447653 305.480233,328.32986 310.244581,325.707987 C315.066026,323.073021 319.301124,319.920882 322.95756,316.76656 C327.880024,312.485149 331.605636,308.199374 334.4671,304.415498 C338.931685,298.105763 342.725375,289.388008 345.259626,282.716034 C354.169033,257.394174 359.05087,230.19456 359.05087,201.8504 C359.05087,198.128715 358.871891,194.449582 358.707187,190.768267 C356.540776,159.826238 349.353078,130.290614 338.030204,102.857508 Z" id="Fill-1"></path>
                                </g>
                                <path d="M43.9275376,93.0748559 C32.0051391,93.0748559 22.3413862,102.678571 22.3413862,114.524461 C22.3413862,122.20787 26.4392303,128.89621 32.5497615,132.684451 C40.0196525,120.493778 48.3558884,108.889016 57.5255283,97.991277 C53.8043081,94.9646121 49.1113323,93.0748559 43.9275376,93.0748559" id="Fill-4" fill="#25282C"></path>
                                <path d="M306.402577,93.0748559 C301.2089,93.0748559 296.508238,94.9722497 292.783724,98.0087343 C301.951168,108.906474 310.28411,120.510144 317.751805,132.699726 C323.877708,128.914758 327.989827,122.219871 327.989827,114.524461 C327.989827,102.678571 318.324976,93.0748559 306.402577,93.0748559" id="Fill-5" fill="#25282C"></path>
                                <path d="M227.945114,220.406452 C227.945114,249.705311 204.043219,273.457102 174.557847,273.457102 C145.072476,273.457102 121.170581,249.705311 121.170581,220.406452 C121.170581,191.107594 145.072476,167.356894 174.557847,167.356894 C204.043219,167.356894 227.945114,191.107594 227.945114,220.406452" id="Fill-6" fill="#FFFFFF"></path>
                                <path d="M121.340776,217.047007 C121.270502,218.163185 121.169483,219.272817 121.169483,220.406452 C121.169483,249.705311 145.072476,273.457102 174.557847,273.457102 C204.043219,273.457102 227.945114,249.705311 227.945114,220.406452 C227.945114,219.272817 227.845193,218.163185 227.774919,217.047007 L121.340776,217.047007" id="Fill-7" fill="#25282C"></path>
                                <path d="M178.559065,273.255251 C196.999363,271.892488 212.831843,261.26752 221.314117,246.001083 C213.939754,240.121235 204.647135,236.533754 194.450838,236.533754 C187.420159,236.533754 180.8792,238.356954 175.009137,241.313789 C169.140173,238.356954 162.598116,236.533754 155.567437,236.533754 C145.095534,236.533754 135.555859,240.2969 128.078281,246.452792 C137.184236,262.462256 154.394742,273.30435 174.190008,273.438553 C175.660269,273.430916 177.106373,273.330536 178.559065,273.255251" id="Fill-8" fill="#DD3E5D"></path>
                                <path d="M171.093566,217.15066 C172.2443,217.169208 173.387349,217.195394 174.555651,217.195394 C175.72615,217.195394 176.870296,217.169208 178.022129,217.15066 L178.022129,199.741336 L171.093566,199.741336 L171.093566,217.15066" id="Fill-9" fill="#25282C"></path>
                                <path d="M202.257824,186.850187 C202.257824,186.11807 202.117276,185.424142 201.917435,184.755307 C201.830691,184.426891 201.760417,184.23377 201.760417,184.23377 L201.754927,184.23377 C201.505674,183.580211 201.166383,182.977933 200.751328,182.428027 L200.754622,182.42148 C200.754622,182.42148 197.617554,175.996091 174.87408,175.933899 L174.87408,175.928444 L174.715964,175.931717 L174.557847,175.928444 L174.557847,175.933899 C161.3255,175.969905 154.745013,178.153163 151.547552,179.980727 C149.61612,180.751032 148.099742,182.297097 147.360768,184.23377 L147.349788,184.23377 C147.349788,184.23377 147.267436,184.460715 147.170809,184.841503 C146.987438,185.484151 146.858969,186.149712 146.858969,186.850187 L146.877635,187.035671 C146.74148,190.36784 147.841705,196.236776 155.447751,202.258465 C162.931917,208.181956 168.679,210.116446 171.839128,210.756912 C172.079596,210.811466 172.324457,210.844199 172.570415,210.884569 C173.813384,211.084237 174.552357,211.083146 174.552357,211.083146 L174.557847,211.083146 C174.557847,211.083146 175.293527,211.083146 176.532104,210.88566 C176.78465,210.844199 177.036099,210.810375 177.283155,210.75473 C180.446577,210.110991 186.189268,208.173227 193.662453,202.258465 C201.237755,196.261871 202.358843,190.414756 202.234766,187.076042 L202.257824,186.850187" id="Fill-10" fill="#25282C"></path>
                                <path d="M88.6557475,60.3870931 L260.839865,60.3870931 C240.223274,46.2979352 216.007343,37.0433671 189.769941,34.4825948 L200.313215,5.96276992 C200.313215,5.96276992 193.602062,0.405882966 174.747806,0.405882966 C155.894649,0.405882966 149.183496,5.96276992 149.183496,5.96276992 L159.72677,34.4815037 C133.489368,37.0433671 109.273437,46.2979352 88.6557475,60.3870931" id="Fill-11" fill="#F6C823"></path>
                                <path d="M43.2412695,76.9606475 C43.2412695,76.9606475 40.0284368,78.1837518 35.8394563,80.6812414 C33.7290446,81.8912527 31.3770665,83.415496 29.0261865,85.2157833 C26.6577381,86.9909758 24.3288186,89.1011308 22.1876621,91.3760393 C19.9806239,93.6040313 18.1293471,96.1320712 16.3549323,98.5193613 C14.7627903,101.022306 13.2145694,103.368135 12.0890898,105.537209 C10.8219643,107.639726 9.93914904,109.513116 9.28911589,110.825689 C8.62151428,112.133898 8.1636362,112.879108 8.1636362,112.879108 C8.1636362,112.879108 8.17132241,112.033518 8.3151642,110.556192 C8.54135817,109.106142 8.53147591,106.903245 9.3121745,104.453763 C9.8578949,101.924632 10.997649,99.118366 12.4305768,96.1811699 C13.9831897,93.3028923 16.0090532,90.4202504 18.4082464,87.8376564 C23.2856911,82.7193849 29.6443768,79.221372 34.6997022,77.9557155 C39.7572236,76.5842238 43.2412695,76.9606475 43.2412695,76.9606475" id="Fill-14" fill="#FFFFFF"></path>
                                <path d="M128.991841,150.272713 L128.997332,150.272713 L128.987449,150.256346 L128.909489,150.127599 C128.838117,150.010853 128.723922,149.831915 128.542748,149.566782 C128.213339,149.003783 127.832323,148.470243 127.346994,147.985802 C123.797066,143.633471 114.177235,134.563296 95.5832122,134.563296 C76.2205695,134.563296 66.5183855,145.158806 63.3077488,149.578784 C62.857557,150.101413 62.4600705,150.663321 62.1690928,151.279783 C62.0878387,151.416168 62.0428195,151.497999 62.0428195,151.497999 C61.721097,152.366501 61.4795306,153.272101 61.4663543,154.222434 C61.455374,155.04402 61.5267459,155.875425 61.7759984,156.703557 C62.251445,158.293266 63.1726913,159.626569 64.3552685,160.627093 C64.8219308,161.042795 68.5003278,163.876339 77.9752197,159.283969 L77.9367887,159.372347 C79.9813187,158.366368 82.0994165,157.462951 84.3624542,156.794117 C95.7841515,153.413941 107.519885,155.170585 117.100188,160.679465 C119.128247,161.845833 121.501088,162.270264 123.746557,161.605794 C128.888627,160.084824 130.89253,154.502842 128.991841,150.272713" id="Fill-15" fill="#25282C"></path>
                                <path d="M286.944406,150.272713 L286.949896,150.272713 L286.940014,150.256346 L286.862054,150.127599 C286.790682,150.010853 286.676487,149.831915 286.495312,149.566782 C286.165904,149.003783 285.784887,148.470243 285.299559,147.985802 C281.749631,143.633471 272.129799,134.563296 253.535777,134.563296 C234.173134,134.563296 224.47095,145.158806 221.260313,149.578784 C220.810122,150.101413 220.412635,150.663321 220.121657,151.279783 C220.040403,151.416168 219.995384,151.497999 219.995384,151.497999 C219.673662,152.366501 219.432095,153.272101 219.420017,154.222434 C219.407939,155.04402 219.47931,155.875425 219.727465,156.703557 C220.20401,158.293266 221.125256,159.626569 222.307833,160.627093 C222.774495,161.042795 226.45399,163.876339 235.927784,159.283969 L235.889353,159.372347 C237.934981,158.366368 240.053079,157.462951 242.315019,156.794117 C253.736716,153.413941 265.47245,155.170585 275.052752,160.679465 C277.080812,161.845833 279.453652,162.270264 281.699122,161.605794 C286.841191,160.084824 288.845094,154.502842 286.944406,150.272713" id="Fill-16" fill="#25282C"></path>
                            </g>
                            <g transform="translate(21.588017, 322.700252)" id="Path-1561" stroke="#F6C724" stroke-width="2.55" fill="#F6C724">
                                <path d="M104.914215,181.24374 C94.0238379,167.807604 73.4229873,135.201546 73.4229873,135.201546 L59.4322789,11.4080581 C59.4322789,11.4080581 157.915097,108.149012 174.817386,143.78074 C182.895052,160.809275 184.832855,178.595484 181.169364,193.854201 C169.840122,241.041352 132.427407,210.178585 132.427407,210.178585 C132.427407,210.178585 113.6527,192.024952 104.914215,181.24374 Z" transform="translate(121.190150, 115.749850) rotate(130.000000) translate(-121.190150, -115.749850) "></path>
                            </g>
                        </g>
                    </g>
                    <path d="M241.046081,358.865126 L190.406323,428.192726 L243.859934,488.853362 C243.859934,488.853362 243.859934,517.399544 254.550657,549.513998 C265.241379,581.628453 283.059249,606.606362 283.059249,606.606362 L543.200157,606.606362 C543.200157,606.606362 569.397678,567.776113 578.835898,542.377453 C582.977743,531.231567 595.083029,502.539237 596.653768,476.364408 C598.711378,442.076353 589.52662,406.78309 589.52662,406.78309 C589.52662,406.78309 457.674379,474.580271 397.09362,471.011999 C336.51286,467.443726 322.258564,442.465817 290.186397,417.487908 C276.833572,407.088683 241.046081,358.865126 241.046081,358.865126 Z" id="Path-38" fill="#07564F"></path>
                    <path d="M514.691564,513.831271 C514.691564,513.831271 489.746546,581.628453 525.382287,585.196726 C561.018027,588.764998 585.963046,520.967817 585.963046,520.967817 L514.691564,513.831271 Z" id="Path-39" fill="#F6C823"></path>
                    <path d="M511.12799,513.831271 L518.255138,467.443726 C518.255138,467.443726 515.502889,488.99705 514.691564,499.55818 C514.315031,504.459565 514.691564,513.831271 514.691564,513.831271 L511.12799,513.831271 Z" id="Path-40" fill="#073A36"></path>
                    <polygon id="Path-41" fill="#063A36" points="511.12799 510.262999 507.564416 528.104362 582.399472 542.377453 585.963046 520.967817"></polygon>
                </g>
            </g>
        </g>
    </g>
</svg>