<?xml version="1.0" encoding="UTF-8" standalone="no"?>
<svg width="1200px" height="1200px" viewBox="0 0 1200 1200" version="1.1" xmlns="http://www.w3.org/2000/svg" xmlns:xlink="http://www.w3.org/1999/xlink">
    <!-- Generator: Sketch 42 (36781) - http://www.bohemiancoding.com/sketch -->
    <title>67</title>
    <desc>Created with Sketch.</desc>
    <defs>
        <polygon id="path-1" points="669.944 355.717 669.944 709.88 0 709.88 0 355.717 0 1.554 669.944 1.554"></polygon>
    </defs>
    <g id="Page-1" stroke="none" stroke-width="1" fill="none" fill-rule="evenodd">
        <g id="67">
            <g id="Group-15" transform="translate(233.000000, 165.000000)">
                <g id="Mascot7_EPS" transform="translate(26.000000, 158.000000)">
                    <g id="Group-3">
                        <mask id="mask-2" fill="white">
                            <use xlink:href="#path-1"></use>
                        </mask>
                        <g id="Clip-2"></g>
                        <path d="M638,296 C634.684295,277.620492 645.368781,219.976878 631.656,186.542 C626.192,173.222 620.388,160.08 613.886,147.336 C636.926,133.688 652.422,108.648 652.422,79.928 C652.422,36.644 617.334,1.554 574.048,1.554 L95.964,1.554 C52.68,1.554 17.59,36.644 17.59,79.928 C17.59,108.626 33.062,133.65 56.074,147.304 C49.572,160.044 43.77,173.182 38.306,186.496 C24.4957454,220.158914 44.8807337,265.263228 38.306,302 C31.7312663,338.736772 1.9309578,328.920503 0.626,347.682 C0.326,354.43 0,361.176 0,368 C0,417.028 7.974,464.166 22.492,508.334 C26.822,520.766 35.148,542.176 45.348,556.472 C46.462,557.94 47.514,559.372 48.782,560.914 C53.756,566.908 59.242,572.728 65.842,578.506 C72.502,584.286 80.216,590.064 88.998,594.896 C97.676,599.702 107.804,603.584 117.796,604.87 C128.252,606.37 139.286,604.576 147.708,598.666 C156.294,592.9 162.432,582.808 165.986,571.402 C173.074,548.29 172.288,522.104 170.118,498.42 C167.744,474.542 163.418,452.352 159.122,433.498 C150.402,395.76 141.846,371.258 141.846,371.258 C141.846,371.258 152.066,395.08 163.438,432.35 C169.062,450.994 174.972,473.012 179.084,497.228 C182.884,521.398 185.948,548.022 179.756,575.238 C176.576,588.608 169.944,602.712 157.874,612.242 C145.788,621.936 130.68,624.932 117.112,625.262 C102.826,625.36 90.144,622.1 78.644,617.722 C77.242,617.18 76.046,616.484 74.686,615.908 C95.716,647.624 120.762,676.382 148.92,701.772 C163.942,710.032 188.42,716.132 220.84,699.298 C277.37,669.946 333.9,666.684 333.9,666.684 C333.9,666.684 390.43,669.946 446.96,699.298 C484.944,719.02 512.026,707.28 525.75,697.452 C551.894,673.184 575.274,646 595.084,616.174 C593.814,616.708 592.704,617.358 591.4,617.862 C579.898,622.242 567.218,625.502 552.932,625.404 C539.364,625.074 524.256,622.076 512.17,612.384 C500.098,602.854 493.468,588.75 490.288,575.378 C484.094,548.164 487.158,521.538 490.96,497.368 C495.072,473.152 500.982,451.136 506.606,432.492 C517.978,395.22 528.198,371.398 528.198,371.398 C528.198,371.398 519.642,395.902 510.922,433.638 C506.626,452.494 502.298,474.684 499.926,498.562 C497.756,522.246 496.97,548.432 504.058,571.542 C507.61,582.95 513.75,593.04 522.334,598.806 C530.758,604.718 541.792,606.512 552.248,605.012 C562.24,603.724 572.368,599.842 581.046,595.036 C589.828,590.206 597.542,584.428 604.202,578.646 C613.168,570.798 619.954,562.942 625.166,556.006 C633.298,544.44 640.208,528.46 644.824,516.23 C661.052,469.814 669.944,419.956 669.944,368 C669.944,361.178 669.618,354.434 669.318,347.686 C667.995673,328.679478 641.315705,314.379508 638,296 Z" id="Fill-1" fill="#F6C723" mask="url(#mask-2)"></path>
                    </g>
                    <path d="M95.964,40.61 C74.248,40.61 56.646,58.214 56.646,79.928 C56.646,94.012 64.11,106.272 75.24,113.216 C88.846,90.87 104.03,69.598 120.732,49.622 C113.954,44.074 105.406,40.61 95.964,40.61" id="Fill-4" fill="#25282C"></path>
                    <path d="M574.048,40.61 C564.588,40.61 556.026,44.088 549.242,49.654 C565.94,69.63 581.118,90.9 594.72,113.244 C605.878,106.306 613.368,94.034 613.368,79.928 C613.368,58.214 595.764,40.61 574.048,40.61" id="Fill-5" fill="#25282C"></path>
                    <path d="M431.142,274.014 C431.142,327.72 387.606,371.258 333.9,371.258 C280.194,371.258 236.658,327.72 236.658,274.014 C236.658,220.308 280.194,176.772 333.9,176.772 C387.606,176.772 431.142,220.308 431.142,274.014" id="Fill-6" fill="#FFFFFF"></path>
                    <path d="M236.968,267.856 C236.84,269.902 236.656,271.936 236.656,274.014 C236.656,327.72 280.194,371.258 333.9,371.258 C387.606,371.258 431.142,327.72 431.142,274.014 C431.142,271.936 430.96,269.902 430.832,267.856 L236.968,267.856" id="Fill-7" fill="#25282C"></path>
                    <path d="M341.188,370.888 C374.776,368.39 403.614,348.914 419.064,320.93 C405.632,310.152 388.706,303.576 370.134,303.576 C357.328,303.576 345.414,306.918 334.722,312.338 C324.032,306.918 312.116,303.576 299.31,303.576 C280.236,303.576 262.86,310.474 249.24,321.758 C265.826,351.104 297.174,370.978 333.23,371.224 C335.908,371.21 338.542,371.026 341.188,370.888" id="Fill-8" fill="#DD3E5D"></path>
                    <path d="M327.59,268.046 C329.686,268.08 331.768,268.128 333.896,268.128 C336.028,268.128 338.112,268.08 340.21,268.046 L340.21,236.134 L327.59,236.134 L327.59,268.046" id="Fill-9" fill="#25282C"></path>
                    <path d="M384.354,212.504 C384.354,211.162 384.098,209.89 383.734,208.664 C383.576,208.062 383.448,207.708 383.448,207.708 L383.438,207.708 C382.984,206.51 382.366,205.406 381.61,204.398 L381.616,204.386 C381.616,204.386 375.902,192.608 334.476,192.494 L334.476,192.484 L334.188,192.49 L333.9,192.484 L333.9,192.494 C309.798,192.56 297.812,196.562 291.988,199.912 C288.47,201.324 285.708,204.158 284.362,207.708 L284.342,207.708 C284.342,207.708 284.192,208.124 284.016,208.822 C283.682,210 283.448,211.22 283.448,212.504 L283.482,212.844 C283.234,218.952 285.238,229.71 299.092,240.748 C312.724,251.606 323.192,255.152 328.948,256.326 C329.386,256.426 329.832,256.486 330.28,256.56 C332.544,256.926 333.89,256.924 333.89,256.924 L333.9,256.924 C333.9,256.924 335.24,256.924 337.496,256.562 C337.956,256.486 338.414,256.424 338.864,256.322 C344.626,255.142 355.086,251.59 368.698,240.748 C382.496,229.756 384.538,219.038 384.312,212.918 L384.354,212.504" id="Fill-10" fill="#25282C"></path>
                    <path d="M52.784,524.074 C52.784,524.074 47.586,517.316 41.862,505.89 C36.106,494.516 30.266,478.442 26.538,461.91 C22.746,445.378 20.94,428.512 20.576,415.848 C20.248,403.168 21.04,394.702 21.04,394.702 C21.04,394.702 21.664,396.75 22.52,400.34 C23.354,403.92 24.542,409.034 25.968,415.172 C28.708,427.424 32.006,443.698 35.76,459.802 C39.334,475.954 43.484,491.934 46.906,503.934 C48.65,509.956 50.1,514.976 51.118,518.49 C52.248,522.008 52.784,524.074 52.784,524.074" id="Fill-12" fill="#FFFFFF"></path>
                    <path d="M537.754,421.954 C537.754,421.954 537.612,427.642 536.728,435.894 C535.792,444.142 533.966,454.92 531.78,465.594 C529.506,476.25 526.912,486.834 524.572,494.776 C523.486,498.756 522.184,502.042 521.528,504.382 C520.758,506.708 520.186,508.032 520.186,508.032 C520.186,508.032 519.266,502.414 519.192,494.012 C519.162,485.624 520.264,474.52 522.522,463.66 C524.814,452.802 528.226,442.218 531.494,434.518 C534.81,426.82 537.754,421.954 537.754,421.954" id="Fill-13" fill="#FFFFFF"></path>
                    <path d="M94.714,11.072 C94.714,11.072 88.862,13.314 81.232,17.892 C77.388,20.11 73.104,22.904 68.822,26.204 C64.508,29.458 60.266,33.326 56.366,37.496 C52.346,41.58 48.974,46.214 45.742,50.59 C42.842,55.178 40.022,59.478 37.972,63.454 C35.664,67.308 34.056,70.742 32.872,73.148 C31.656,75.546 30.822,76.912 30.822,76.912 C30.822,76.912 30.836,75.362 31.098,72.654 C31.51,69.996 31.492,65.958 32.914,61.468 C33.908,56.832 35.984,51.688 38.594,46.304 C41.422,41.028 45.112,35.744 49.482,31.01 C58.366,21.628 69.948,15.216 79.156,12.896 C88.368,10.382 94.714,11.072 94.714,11.072" id="Fill-14" fill="#FFFFFF"></path>
                    <path d="M250.904,145.456 L250.914,145.456 L250.896,145.426 L250.754,145.19 C250.624,144.976 250.416,144.648 250.086,144.162 C249.486,143.13 248.792,142.152 247.908,141.264 C241.442,133.286 223.92,116.66 190.052,116.66 C154.784,116.66 137.112,136.082 131.264,144.184 C130.444,145.142 129.72,146.172 129.19,147.302 C129.042,147.552 128.96,147.702 128.96,147.702 C128.374,149.294 127.934,150.954 127.91,152.696 C127.89,154.202 128.02,155.726 128.474,157.244 C129.34,160.158 131.018,162.602 133.172,164.436 C134.022,165.198 140.722,170.392 157.98,161.974 L157.91,162.136 C161.634,160.292 165.492,158.636 169.614,157.41 C190.418,151.214 211.794,154.434 229.244,164.532 C232.938,166.67 237.26,167.448 241.35,166.23 C250.716,163.442 254.366,153.21 250.904,145.456" id="Fill-15" fill="#25282C"></path>
                    <path d="M538.606,145.456 L538.616,145.456 L538.598,145.426 L538.456,145.19 C538.326,144.976 538.118,144.648 537.788,144.162 C537.188,143.13 536.494,142.152 535.61,141.264 C529.144,133.286 511.622,116.66 477.754,116.66 C442.486,116.66 424.814,136.082 418.966,144.184 C418.146,145.142 417.422,146.172 416.892,147.302 C416.744,147.552 416.662,147.702 416.662,147.702 C416.076,149.294 415.636,150.954 415.614,152.696 C415.592,154.202 415.722,155.726 416.174,157.244 C417.042,160.158 418.72,162.602 420.874,164.436 C421.724,165.198 428.426,170.392 445.682,161.974 L445.612,162.136 C449.338,160.292 453.196,158.636 457.316,157.41 C478.12,151.214 499.496,154.434 516.946,164.532 C520.64,166.67 524.962,167.448 529.052,166.23 C538.418,163.442 542.068,153.21 538.606,145.456" id="Fill-16" fill="#25282C"></path>
                </g>
                <path d="M56,458 C56,458 53.0177427,453.819651 68,464 C82.9822573,474.180349 242.900488,562 361,562 C453.802386,562 534.154362,527.9104 590,498 C645.845638,468.0896 666,452 666,452 C666,452 694.184221,482.968344 696,504 C697.815779,525.031656 734,830 734,830 L0,836 C0,836 20,534 26,508 C32,482 56,458 56,458 Z" id="Path-68" fill="#E25B00"></path>
                <g id="Group-12" transform="translate(30.000000, 546.000000)">
                    <path d="M4,80 C4,80 10.7635687,130.280138 38,170 C65.2364313,209.719862 93.1640861,221.354489 120,218 C184,210 158,80 158,80 L4,80 Z" id="Path-69" fill="#F6C823"></path>
                    <polygon id="Path-70" fill="#C34B09" points="0 68 4 98 164 96 162 72"></polygon>
                    <path d="M140,0 C140,0 147.797551,29.1886716 151,44 C154.202449,58.8113284 156,74 156,74 L162,74 C162,74 157.27347,51.0107629 154,40 C150.72653,28.9892371 140,0 140,0 Z" id="Path-71" fill="#C34B09"></path>
                </g>
                <g id="Group-12" transform="translate(608.000000, 666.000000) scale(-1, 1) translate(-608.000000, -666.000000) translate(526.000000, 556.000000)">
                    <path d="M4,80 C4,80 10.7635687,130.280138 38,170 C65.2364313,209.719862 93.1640861,221.354489 120,218 C184,210 158,80 158,80 L4,80 Z" id="Path-69" fill="#F6C823"></path>
                    <polygon id="Path-70" fill="#C34B09" points="0 68 4 98 164 96 162 72"></polygon>
                    <path d="M140,0 C140,0 147.797551,29.1886716 151,44 C154.202449,58.8113284 156,74 156,74 L162,74 C162,74 157.27347,51.0107629 154,40 C150.72653,28.9892371 140,0 140,0 Z" id="Path-71" fill="#C34B09"></path>
                </g>
                <path d="M362,170 C674,178 652,468 652,468 L668,456 C668,456 744,333 728,243 C721.271806,205.153906 677.680551,112.405585 628,88 C565.847305,57.4674716 362,0 362,0 C362,0 174.018156,67.9992104 110,98 C67.5576522,117.889732 23.0089609,189.33218 12,220 C-16,298 52,456 52,456 L72,472 C72,472 50,162 362,170 Z" id="Path-72" fill="#E25B00"></path>
                <path d="M72,470 C72,470 159.900097,522.320035 204,538 C238.399003,550.230757 303.098346,561.63408 329.898349,566.059147 C337.456246,567.307065 350.306395,588.834845 350.306395,588.834845 L354,834 L360,834 L357.845532,589.00769 C357.845532,589.00769 367.981938,567.525043 377.50393,566.590834 C404.433494,563.948756 459.677819,557.633395 488,548 C526.336588,534.960344 656,464 656,464 L652,462 C652,462 566.994087,514.230192 481.923141,542.053437 C437.180981,556.686777 388.420831,557.888204 356,558 C316.247322,558.137078 262.657688,549.369901 209.407107,529.961829 C136.653872,503.445687 72,464 72,464 L72,470 Z" id="Path-73" fill="#C34B09"></path>
                <path d="M72,470 C72,470 42,176 352,170 C662,164 654,464 654,464" id="Path-74" stroke="#AB3C01" stroke-width="4"></path>
                <g id="Group-13" transform="translate(298.000000, 636.000000)">
                    <path d="M105,20 C105,20 112,14 114,9 C114.372569,8.06857796 116,4 112,2 C108,-3.83471033e-13 105,4 105,4 C105,4 102,-1.45661261e-13 98,2 C94,4 95.1661147,6.91528686 96,9 C98,14 105,20 105,20 Z" id="Oval-3" fill="#1F2228"></path>
                    <path d="M9.82667021,20.56 C9.82667021,20.56 16.8266702,14.56 18.8266702,9.56 C19.199239,8.62857796 20.8266702,4.56 16.8266702,2.56 C12.8266702,0.56 9.82667021,4.56 9.82667021,4.56 C9.82667021,4.56 6.82667021,0.56 2.82667021,2.56 C-1.17332979,4.56 -0.00721505125,7.47528686 0.826670206,9.56 C2.82667021,14.56 9.82667021,20.56 9.82667021,20.56 Z" id="Oval-3" fill="#1F2228"></path>
                    <path d="M11,10 L105,10" id="Line" stroke="#1F2228" stroke-width="4" stroke-linecap="square"></path>
                </g>
                <g id="Group-13" transform="translate(298.000000, 676.000000)">
                    <path d="M105,20 C105,20 112,14 114,9 C114.372569,8.06857796 116,4 112,2 C108,-3.83471033e-13 105,4 105,4 C105,4 102,-1.45661261e-13 98,2 C94,4 95.1661147,6.91528686 96,9 C98,14 105,20 105,20 Z" id="Oval-3" fill="#1F2228"></path>
                    <path d="M9.82667021,20.56 C9.82667021,20.56 16.8266702,14.56 18.8266702,9.56 C19.199239,8.62857796 20.8266702,4.56 16.8266702,2.56 C12.8266702,0.56 9.82667021,4.56 9.82667021,4.56 C9.82667021,4.56 6.82667021,0.56 2.82667021,2.56 C-1.17332979,4.56 -0.00721505125,7.47528686 0.826670206,9.56 C2.82667021,14.56 9.82667021,20.56 9.82667021,20.56 Z" id="Oval-3" fill="#1F2228"></path>
                    <path d="M11,10 L105,10" id="Line" stroke="#1F2228" stroke-width="4" stroke-linecap="square"></path>
                </g>
                <g id="Group-13" transform="translate(298.000000, 716.000000)">
                    <path d="M105,20 C105,20 112,14 114,9 C114.372569,8.06857796 116,4 112,2 C108,-3.83471033e-13 105,4 105,4 C105,4 102,-1.45661261e-13 98,2 C94,4 95.1661147,6.91528686 96,9 C98,14 105,20 105,20 Z" id="Oval-3" fill="#1F2228"></path>
                    <path d="M9.82667021,20.56 C9.82667021,20.56 16.8266702,14.56 18.8266702,9.56 C19.199239,8.62857796 20.8266702,4.56 16.8266702,2.56 C12.8266702,0.56 9.82667021,4.56 9.82667021,4.56 C9.82667021,4.56 6.82667021,0.56 2.82667021,2.56 C-1.17332979,4.56 -0.00721505125,7.47528686 0.826670206,9.56 C2.82667021,14.56 9.82667021,20.56 9.82667021,20.56 Z" id="Oval-3" fill="#1F2228"></path>
                    <path d="M11,10 L105,10" id="Line" stroke="#1F2228" stroke-width="4" stroke-linecap="square"></path>
                </g>
                <g id="Group-14" transform="translate(148.000000, 832.000000)">
                    <path d="M0,2 C0,2 14,38 58,38 C102,38 162,0 162,0 L0,2 Z" id="Path-75" fill="#1F2228"></path>
                    <circle id="Oval-5" fill="#D8D8D8" cx="26" cy="8" r="2"></circle>
                    <circle id="Oval-5" fill="#D8D8D8" cx="36" cy="18" r="2"></circle>
                    <circle id="Oval-5" fill="#D8D8D8" cx="23" cy="17" r="1"></circle>
                    <circle id="Oval-5" fill="#D8D8D8" cx="55" cy="11" r="1"></circle>
                    <circle id="Oval-5" fill="#D8D8D8" cx="72" cy="24" r="2"></circle>
                    <circle id="Oval-5" fill="#D8D8D8" cx="52" cy="28" r="2"></circle>
                    <circle id="Oval-5" fill="#D8D8D8" cx="91" cy="23" r="1"></circle>
                    <circle id="Oval-5" fill="#D8D8D8" cx="96" cy="8" r="2"></circle>
                    <circle id="Oval-5" fill="#D8D8D8" cx="78" cy="10" r="2"></circle>
                    <circle id="Oval-5" fill="#D8D8D8" cx="128" cy="10" r="2"></circle>
                    <circle id="Oval-5" fill="#D8D8D8" cx="112" cy="16" r="2"></circle>
                </g>
                <g id="Group-14" transform="translate(492.000000, 849.000000) scale(-1, 1) translate(-492.000000, -849.000000) translate(406.000000, 830.000000)">
                    <path d="M0,0 C0,0 18,38 62,38 C106,38 172,2 172,2 L0,0 Z" id="Path-75" fill="#1F2228"></path>
                    <circle id="Oval-5" fill="#D8D8D8" cx="30" cy="8" r="2"></circle>
                    <circle id="Oval-5" fill="#D8D8D8" cx="40" cy="18" r="2"></circle>
                    <circle id="Oval-5" fill="#D8D8D8" cx="27" cy="17" r="1"></circle>
                    <circle id="Oval-5" fill="#D8D8D8" cx="59" cy="11" r="1"></circle>
                    <circle id="Oval-5" fill="#D8D8D8" cx="76" cy="24" r="2"></circle>
                    <circle id="Oval-5" fill="#D8D8D8" cx="56" cy="28" r="2"></circle>
                    <circle id="Oval-5" fill="#D8D8D8" cx="95" cy="23" r="1"></circle>
                    <circle id="Oval-5" fill="#D8D8D8" cx="100" cy="8" r="2"></circle>
                    <circle id="Oval-5" fill="#D8D8D8" cx="82" cy="10" r="2"></circle>
                    <circle id="Oval-5" fill="#D8D8D8" cx="132" cy="10" r="2"></circle>
                    <circle id="Oval-5" fill="#D8D8D8" cx="116" cy="16" r="2"></circle>
                </g>
            </g>
        </g>
    </g>
</svg>