<?xml version="1.0" encoding="UTF-8" standalone="no"?>
<svg width="1200px" height="1200px" viewBox="0 0 1200 1200" version="1.1" xmlns="http://www.w3.org/2000/svg" xmlns:xlink="http://www.w3.org/1999/xlink">
    <!-- Generator: Sketch 42 (36781) - http://www.bohemiancoding.com/sketch -->
    <title>75</title>
    <desc>Created with Sketch.</desc>
    <defs>
        <polyline id="path-1" points="0 1.84760924 688.791158 1.84760924 688.791158 856.287047 0 856.287047"></polyline>
    </defs>
    <g id="Page-1" stroke="none" stroke-width="1" fill="none" fill-rule="evenodd">
        <g id="75">
            <g id="Group-5" transform="translate(47.000000, 129.000000)">
                <g id="Dennis" transform="translate(62.023910, 3.320341)">
                    <g id="Mascot_EPS" transform="translate(14.038800, 3.710804)">
                        <g id="Group-3">
                            <mask id="mask-2" fill="white">
                                <use xlink:href="#path-1"></use>
                            </mask>
                            <g id="Clip-2"></g>
                            <path d="M688.148367,487.490972 C684.092713,429.738149 670.631795,374.608476 649.42598,323.406268 C643.810459,309.842618 637.841089,296.461448 631.155646,283.486711 C654.844685,269.589205 670.778359,244.091783 670.778359,214.847302 C670.778359,170.772179 634.702511,135.043439 590.199195,135.043439 L98.6631515,135.043439 C54.1598349,135.043439 18.0860809,170.772179 18.0860809,214.847302 C18.0860809,244.068973 33.9925356,269.549806 57.6522617,283.453532 C50.9668187,296.424122 44.9995427,309.801145 39.3840219,323.360648 C18.1698321,374.573224 4.7005385,429.717413 0.644884569,487.484751 C0.335004971,494.356779 0,501.22466 0,508.173413 C0,558.096187 8.19924666,606.094629 23.1258119,651.067636 C27.5771904,663.72718 36.1365674,685.52731 46.6243168,700.084232 C47.7696151,701.579323 48.8500061,703.037089 50.1544317,704.606831 C50.3114653,704.789311 50.4622175,704.992527 50.6171573,705.17086 C55.2695388,710.70954 60.9080912,716.638064 67.6940357,722.518894 C74.5427936,728.405945 82.4740362,734.288849 91.5024202,739.209586 C100.424021,744.101293 110.836395,748.055716 121.110578,749.366253 C131.86005,750.892449 143.204156,749.065576 151.864035,743.047886 C160.691416,737.17535 167.002072,726.90256 170.65572,715.286054 C177.944172,691.752364 177.135972,665.089559 174.904001,640.973178 C172.464747,616.659802 168.015462,594.065469 163.597584,574.867751 C154.634107,536.441212 145.836039,511.491229 145.836039,511.491229 C145.836039,511.491229 156.344726,535.748618 168.0364,573.698221 C173.817329,592.682354 179.893482,615.100428 184.122919,639.758027 C188.029915,664.370007 191.181055,691.480718 184.813867,719.192783 C181.543381,732.8062 174.72603,747.1682 162.314096,756.872814 C149.889599,766.741245 134.355837,769.793637 120.404974,770.129566 C105.719194,770.2291 92.6812189,766.911283 80.8555435,762.450893 C79.4150221,761.899306 78.1859726,761.190123 76.7873269,760.605358 C98.4098039,792.898083 124.159124,822.181964 153.109834,848.036052 C168.555657,856.444644 193.720812,862.657256 227.053806,845.516585 C285.172981,815.629276 343.29425,812.307312 343.29425,812.307312 C343.29425,812.307312 401.413425,815.629276 459.534694,845.516585 C498.587898,865.597671 526.430999,853.643162 540.540989,843.635797 C567.420951,818.926356 591.459651,791.245396 611.825859,760.87493 C610.51934,761.418223 609.378229,762.081786 608.03821,762.593974 C596.212534,767.054364 583.174559,770.374255 568.488779,770.272646 C554.537916,769.936717 539.004154,766.884326 526.579657,757.015895 C514.167723,747.31128 507.352466,732.951355 504.08198,719.335864 C497.714791,691.623799 500.863838,664.513088 504.772927,639.903182 C509.000271,615.245582 515.076424,592.827509 520.857353,573.841302 C532.551121,535.891698 543.057714,511.63431 543.057714,511.63431 C543.057714,511.63431 534.26174,536.584293 525.296169,575.010832 C520.880385,594.20855 516.4311,616.802882 513.989752,641.116259 C511.759875,665.23264 510.951675,691.897519 518.238033,715.429134 C521.891681,727.045641 528.202337,737.320505 537.029718,743.190967 C545.691691,749.210731 557.033703,751.03553 567.785268,749.509334 C578.057358,748.198796 588.469732,744.246447 597.393427,739.352667 C606.421811,734.43193 614.353053,728.549026 621.199717,722.661975 C630.418635,714.672258 637.395114,706.672172 642.755193,699.609369 C651.115661,687.833193 658.21986,671.561375 662.966462,659.10712 C679.64971,611.846893 688.791158,561.078075 688.791158,508.173413 C688.791158,501.226734 688.458247,494.360926 688.148367,487.490972" id="Fill-1" fill="#C5BD6D" mask="url(#mask-2)"></path>
                        </g>
                        <path d="M272.141288,271.855689 C272.141288,312.07385 239.220768,344.679694 198.609791,344.679694 C158.000907,344.679694 125.078293,312.07385 125.078293,271.855689 C125.078293,231.635455 158.000907,199.02961 198.609791,199.02961 C239.220768,199.02961 272.141288,231.635455 272.141288,271.855689" id="Fill-4" fill="#FFFFFF"></path>
                        <path d="M231.333495,271.855689 C231.333495,289.753237 216.683309,304.262465 198.609791,304.262465 C180.538366,304.262465 165.88818,289.753237 165.88818,271.855689 C165.88818,253.956067 180.538366,239.44684 198.609791,239.44684 C216.683309,239.44684 231.333495,253.956067 231.333495,271.855689" id="Fill-5" fill="#25282C"></path>
                        <path d="M98.6631515,174.811621 C76.3371639,174.811621 58.2385204,192.736126 58.2385204,214.847302 C58.2385204,229.188565 65.9143218,241.67185 77.3568353,248.742948 C91.3453866,225.988945 106.956618,204.329822 124.127717,183.989532 C117.159613,178.340948 108.36992,174.811621 98.6631515,174.811621" id="Fill-6" fill="#25282C"></path>
                        <path d="M590.199195,174.811621 C580.471488,174.811621 571.669232,178.35339 564.694848,184.02271 C581.861759,204.360927 597.466709,226.02005 611.453166,248.769905 C622.922899,241.707102 630.623826,229.209301 630.623826,214.847302 C630.623826,192.736126 612.525182,174.811621 590.199195,174.811621" id="Fill-7" fill="#25282C"></path>
                        <path d="M194.055817,248.380061 C194.055817,258.20702 186.013604,266.171854 176.093269,266.171854 C166.170841,266.171854 158.128628,258.20702 158.128628,248.380061 C158.128628,238.555176 166.170841,230.590342 176.093269,230.590342 C186.013604,230.590342 194.055817,238.555176 194.055817,248.380061" id="Fill-8" fill="#FFFFFF"></path>
                        <path d="M563.712864,271.855689 C563.712864,312.07385 530.792345,344.679694 490.181367,344.679694 C449.570389,344.679694 416.64987,312.07385 416.64987,271.855689 C416.64987,231.635455 449.570389,199.02961 490.181367,199.02961 C530.792345,199.02961 563.712864,231.635455 563.712864,271.855689" id="Fill-9" fill="#FFFFFF"></path>
                        <path d="M522.902978,271.855689 C522.902978,289.753237 508.252791,304.262465 490.181367,304.262465 C472.107849,304.262465 457.457663,289.753237 457.457663,271.855689 C457.457663,253.956067 472.107849,239.44684 490.181367,239.44684 C508.252791,239.44684 522.902978,253.956067 522.902978,271.855689" id="Fill-10" fill="#25282C"></path>
                        <path d="M485.627393,248.380061 C485.627393,258.20702 477.583086,266.171854 467.662752,266.171854 C457.742417,266.171854 449.700204,258.20702 449.700204,248.380061 C449.700204,238.555176 457.742417,230.590342 467.662752,230.590342 C477.583086,230.590342 485.627393,238.555176 485.627393,248.380061" id="Fill-11" fill="#FFFFFF"></path>
                        <path d="M443.272296,412.475134 C443.272296,467.158976 398.511444,511.491229 343.29425,511.491229 C288.077056,511.491229 243.316204,467.158976 243.316204,412.475134 C243.316204,357.789218 288.077056,313.456965 343.29425,313.456965 C398.511444,313.456965 443.272296,357.789218 443.272296,412.475134" id="Fill-12" fill="#FFFFFF"></path>
                        <path d="M336.805622,511.165669 C338.960123,511.304602 341.099967,511.491229 343.290062,511.491229 C345.482251,511.491229 347.624189,511.304602 349.780784,511.165669 L349.780784,382.469628 L336.805622,382.469628 L336.805622,511.165669" id="Fill-13" fill="#25282C"></path>
                        <path d="M395.165582,358.409235 C395.165582,357.040636 394.90386,355.746687 394.531167,354.498359 C394.367852,353.886636 394.235943,353.525824 394.235943,353.525824 L394.225474,353.525824 C393.758561,352.304452 393.124146,351.180542 392.347353,350.154092 L392.35154,350.14165 C392.35154,350.14165 386.478485,338.149816 343.884696,338.035766 L343.884696,338.023324 C343.782101,338.023324 343.694162,338.029545 343.589473,338.029545 C343.486878,338.029545 343.396845,338.023324 343.29425,338.023324 L343.29425,338.035766 C318.512257,338.102123 306.190356,342.176816 300.202142,345.587947 C296.586182,347.024976 293.744921,349.911477 292.363026,353.525824 L292.342088,353.525824 C292.342088,353.525824 292.187148,353.948845 292.007083,354.660102 C291.663703,355.860737 291.420824,357.100771 291.420824,358.409235 C291.420824,358.527432 291.452231,358.637335 291.456418,358.753459 C291.203071,364.974365 293.263351,375.929382 307.507344,387.168486 C321.521021,398.225111 332.285149,401.833236 338.202174,403.029724 C338.652337,403.131332 339.112969,403.193541 339.571507,403.268192 C341.899792,403.641447 343.283781,403.639373 343.283781,403.639373 L343.29425,403.639373 C343.29425,403.639373 344.671958,403.639373 346.991867,403.270266 C347.462968,403.193541 347.936163,403.131332 348.398888,403.025577 C354.320101,401.824942 365.075854,398.208521 379.070687,387.168486 C393.256054,375.975002 395.356116,365.063531 395.123707,358.830183 C395.127894,358.687102 395.165582,358.55439 395.165582,358.409235" id="Fill-14" fill="#25282C"></path>
                        <path d="M54.2687115,667.094764 C54.2687115,667.094764 48.9253822,660.214442 43.0418574,648.579273 C37.1227383,636.998019 31.1177742,620.630814 27.2840611,603.79704 C23.3854407,586.965341 21.5303507,569.791492 21.1555639,556.895552 C20.8184652,543.983024 21.632946,535.362921 21.632946,535.362921 C21.632946,535.362921 22.273643,537.448999 23.1551248,541.104818 C24.0093875,544.750269 25.2321556,549.957168 26.6998962,556.207105 C29.5160317,568.682097 32.9058633,585.252518 36.7667955,601.650828 C40.4413813,618.096831 44.7064133,634.368649 48.2260593,646.588583 C50.0183359,652.720323 51.5112018,657.831835 52.5559986,661.408856 C53.7180471,664.992098 54.2687115,667.094764 54.2687115,667.094764" id="Fill-16" fill="#FFFFFF"></path>
                        <path d="M552.883829,563.112312 C552.883829,563.112312 552.73517,568.903976 551.826469,577.30842 C550.867517,585.704571 548.989396,596.680323 546.742769,607.548247 C544.404015,618.399582 541.736538,629.176265 539.330784,637.263444 C538.212705,641.315328 536.876872,644.660102 536.200581,647.044783 C535.409132,649.412874 534.820779,650.760737 534.820779,650.760737 C534.820779,650.760737 533.87439,645.039577 533.799014,636.485831 C533.769701,627.944526 534.900343,616.636992 537.222346,605.578293 C539.579944,594.523742 543.087027,583.744985 546.447546,575.904569 C549.856221,568.066227 552.883829,563.112312 552.883829,563.112312" id="Fill-17" fill="#FFFFFF"></path>
                        <path d="M97.3775699,144.733538 C97.3775699,144.733538 91.3621369,147.01661 83.5167392,151.680217 C79.5636806,153.938406 75.1625528,156.783434 70.7593312,160.144797 C66.3226091,163.456393 61.9612631,167.3963 57.9516724,171.643106 C53.8185486,175.800745 50.3512471,180.518266 47.0305103,184.974508 C44.0468723,189.644336 41.1490793,194.023854 39.0406418,198.073664 C36.6683878,201.996982 35.0143008,205.493132 33.797814,207.944169 C32.5457329,210.384838 31.6893765,211.776247 31.6893765,211.776247 C31.6893765,211.776247 31.7040329,210.198211 31.9720369,207.440275 C32.3970745,204.734181 32.3782304,200.622162 33.8396896,196.051869 C34.8614548,191.328128 36.9971115,186.092198 39.679245,180.611579 C42.5875069,175.23879 46.3814382,169.857706 50.8746924,165.036503 C60.0077654,155.483264 71.9150983,148.95546 81.3831763,146.593589 C90.8554419,144.032649 97.3775699,144.733538 97.3775699,144.733538" id="Fill-18" fill="#FFFFFF"></path>
                    </g>
                    <g id="Group-2" transform="translate(356.231991, 593.239285) scale(-1, 1) translate(-356.231991, -593.239285) translate(6.498754, 398.169308)">
                        <path d="M60.9431494,330.449131 C46.630902,307.144178 25.9556765,259.853173 25.9556765,259.853173 C25.9556765,259.853173 17.2527771,233.851129 15.4612693,221.920355 C13.6697616,209.98958 10.7482007,202.624488 10.7482007,202.624488 C10.7482007,202.624488 0.296450951,130.59439 1.18263301,93.0433725 C1.86747406,64.0239653 14.776429,31.9326197 15.46127,2.91321245 C48.9359375,-7.23171672 202.941208,93.0433713 202.941208,93.0433713 C207.340809,90.2422813 275.073866,148.051577 343.206396,147.543577 C405.708657,147.077556 680.357289,20.208339 680.357289,20.208339 C684.975156,19.4594946 699.416197,67.2986043 696.534019,116.68387 C694.094977,158.47614 691.173898,224.97261 684.345105,245.04896 C675.098175,272.234528 650.557607,298.045559 641.322783,321.302673 C633.896619,340.004831 621.328738,357.789033 613.902574,376.491191 C613.902574,376.491191 523.54387,386.435445 420.643551,387.581346 C301.593343,388.907092 110.977431,381.185585 86.3340595,376.491195 C76.7693795,360.916813 70.5078294,346.023513 60.9431494,330.449131 Z" id="Fill-79" fill="#395B2B"></path>
                        <path d="M529.433272,341.659283 C529.433272,341.659283 500.26255,235.091175 573.918955,230.616683 C647.575361,226.142192 672.801676,336.065662 672.801676,336.065662 L529.433272,341.659283 Z" id="Path-1628" fill="#C5BD6D" transform="translate(598.268176, 286.071490) scale(-1, 1) rotate(172.000000) translate(-598.268176, -286.071490) "></path>
                        <g id="Group-4" transform="translate(604.010971, 215.097581) scale(-1, 1) translate(-604.010971, -215.097581) translate(517.606289, 144.540355)" fill="#28421E">
                            <polygon id="Path-1630" transform="translate(83.978530, 104.289126) rotate(85.000000) translate(-83.978530, -104.289126) " points="56.5329845 27.3018608 90.0020232 23.6512543 111.424076 177.383668 69.2804909 184.926998"></polygon>
                            <path d="M144.202243,-1.70282907 C144.202243,-1.70282907 144.095286,4.72594928 143.937822,14.3659479 C143.878402,16.7760531 143.81304,19.3872822 143.744706,22.1489316 C143.679344,24.910581 143.608039,27.8226506 143.533764,30.8352822 C143.468402,33.8479138 143.40601,36.9611073 143.337677,40.1241592 C143.293112,43.2872111 143.245575,46.500544 143.198039,49.7138768 C143.189126,52.9272097 143.180213,56.14012 143.1713,59.3031719 C143.224778,62.4662238 143.275285,65.5789948 143.325793,68.5912039 C143.46246,71.6034129 143.596155,74.5150601 143.720938,77.276287 C143.833837,80.0375138 144.255721,82.6466302 144.425069,85.056313 C144.668693,87.4659957 145.230215,89.6728646 145.515433,91.6304413 C145.880868,93.5875955 146.632536,95.2903873 147.012826,96.6952961 C147.149493,97.3983843 147.538697,98.0228822 147.910074,98.5662544 C148.251741,99.1096267 148.542901,99.5722959 148.780582,99.9470791 C149.252974,100.697913 149.50254,101.098048 149.50254,101.098048 C149.50254,101.098048 149.172757,100.699181 148.548843,99.9513044 C148.239857,99.5773663 147.853625,99.1155421 147.40203,98.5730149 C146.923696,98.0304877 146.406739,97.4064124 146.130434,96.7041692 C145.500578,95.3009505 144.457751,93.5977362 143.807098,91.640582 C143.23072,89.6838503 142.378038,87.4757139 141.881878,85.0660311 C141.412457,82.6563484 140.738036,80.0451193 140.426079,77.2834699 C140.096296,74.521398 139.591223,71.6089058 139.460498,68.5954292 C139.267382,65.582375 138.961367,62.468759 138.967309,59.3048621 C138.94057,56.1409651 138.916801,52.9267872 138.890062,49.7130318 C138.988106,46.4988539 139.083179,43.2850985 139.178251,40.1212015 C139.38028,36.9577271 139.58231,33.8441111 139.772455,30.8314795 C140.05173,27.8188479 140.322093,24.9063557 140.580572,22.1447063 C140.910355,19.3834794 141.222312,16.7722504 141.510501,14.3621451 C142.776154,4.72214652 144.202243,-1.70282907 144.202243,-1.70282907" id="Fill-84" transform="translate(144.196301, 49.697609) scale(-1, 1) rotate(25.000000) translate(-144.196301, -49.697609) "></path>
                        </g>
                        <g id="Group" transform="translate(98.371339, 251.704720) scale(-1, 1) translate(-98.371339, -251.704720) translate(7.852148, 143.793669)">
                            <path d="M16.2214051,198.043591 C16.2214051,198.043591 -12.9493167,91.4754819 60.7070884,87.0009904 C134.363494,82.526499 162.149401,193.912056 162.149401,193.912056 L16.2214051,198.043591 Z" id="Path-1628" fill="#C5BD6D" transform="translate(86.336105, 142.456647) scale(-1, 1) rotate(172.000000) translate(-86.336105, -142.456647) "></path>
                            <g id="Group-4" transform="translate(92.624415, 71.303912) scale(-1, 1) translate(-92.624415, -71.303912) translate(6.219733, 0.746686)" fill="#28421E">
                                <polygon id="Path-1630" transform="translate(83.978530, 104.289126) rotate(85.000000) translate(-83.978530, -104.289126) " points="56.5329845 27.3018608 90.0020232 23.6512543 111.424076 177.383668 69.2804909 184.926998"></polygon>
                                <path d="M144.202243,-1.70282907 C144.202243,-1.70282907 144.095286,4.72594928 143.937822,14.3659479 C143.878402,16.7760531 143.81304,19.3872822 143.744706,22.1489316 C143.679344,24.910581 143.608039,27.8226506 143.533764,30.8352822 C143.468402,33.8479138 143.40601,36.9611073 143.337677,40.1241592 C143.293112,43.2872111 143.245575,46.500544 143.198039,49.7138768 C143.189126,52.9272097 143.180213,56.14012 143.1713,59.3031719 C143.224778,62.4662238 143.275285,65.5789948 143.325793,68.5912039 C143.46246,71.6034129 143.596155,74.5150601 143.720938,77.276287 C143.833837,80.0375138 144.255721,82.6466302 144.425069,85.056313 C144.668693,87.4659957 145.230215,89.6728646 145.515433,91.6304413 C145.880868,93.5875955 146.632536,95.2903873 147.012826,96.6952961 C147.149493,97.3983843 147.538697,98.0228822 147.910074,98.5662544 C148.251741,99.1096267 148.542901,99.5722959 148.780582,99.9470791 C149.252974,100.697913 149.50254,101.098048 149.50254,101.098048 C149.50254,101.098048 149.172757,100.699181 148.548843,99.9513044 C148.239857,99.5773663 147.853625,99.1155421 147.40203,98.5730149 C146.923696,98.0304877 146.406739,97.4064124 146.130434,96.7041692 C145.500578,95.3009505 144.457751,93.5977362 143.807098,91.640582 C143.23072,89.6838503 142.378038,87.4757139 141.881878,85.0660311 C141.412457,82.6563484 140.738036,80.0451193 140.426079,77.2834699 C140.096296,74.521398 139.591223,71.6089058 139.460498,68.5954292 C139.267382,65.582375 138.961367,62.468759 138.967309,59.3048621 C138.94057,56.1409651 138.916801,52.9267872 138.890062,49.7130318 C138.988106,46.4988539 139.083179,43.2850985 139.178251,40.1212015 C139.38028,36.9577271 139.58231,33.8441111 139.772455,30.8314795 C140.05173,27.8188479 140.322093,24.9063557 140.580572,22.1447063 C140.910355,19.3834794 141.222312,16.7722504 141.510501,14.3621451 C142.776154,4.72214652 144.202243,-1.70282907 144.202243,-1.70282907" id="Fill-84" transform="translate(144.196301, 49.697609) scale(-1, 1) rotate(25.000000) translate(-144.196301, -49.697609) "></path>
                            </g>
                        </g>
                    </g>
                </g>
                <path d="M221.522097,600.455446 C221.522097,600.455446 156.772631,588.541012 170.265477,572.818078 C183.758322,557.098002 241.782953,554.836347 253.332829,533.106159 C261.547273,517.674867 244.907896,498.975468 244.907896,498.975468 L212.978427,451.812383 C212.978427,451.812383 175.330053,399.409214 177.26072,340.802568 C178.396956,306.311392 202.848018,225.481765 210.582117,218.956991 C253.753825,182.553207 310.618052,200.208258 399.606065,191.807825 C488.58868,183.407392 491.227881,138.134261 491.227881,138.134261 C522.941464,185.277331 601.836825,180.07147 633.555806,206.207739 C644.916781,215.574594 672.394804,303.764494 673.872431,340.802568 C676.0224,394.693541 631.159479,451.812383 631.159479,451.812383 C631.159479,451.812383 619.690561,495.878916 564.159407,499.450101 C569.772431,500.42796 575.207349,500.768209 580.059376,500.768209 C591.182878,500.768209 599.230011,498.975468 599.230011,498.975468 C599.230011,498.975468 582.596031,517.674867 590.805078,533.106159 C602.354953,554.836347 660.384982,557.098002 673.87243,572.818078 C687.365275,588.541012 622.61581,600.455446 622.61581,600.455446 C622.61581,600.455446 626.604295,600.981545 633.555809,600.981545 C647.475028,600.981545 673.262553,598.865711 702.655367,586.159269 C746.723,567.102466 734.126079,526.607117 734.126079,526.607117 C734.126079,526.607117 766.562879,541.417956 796.894795,541.417956 C814.138651,541.417956 830.707865,536.625878 840.244608,521.603456 C830.858985,524.685711 822.450244,526.012397 815.061562,526.012397 C776.002474,526.009537 765.591394,488.942412 791.68116,478.726364 C822.709307,466.580333 836.196755,436.558362 809.221859,410.833823 C782.241565,385.106424 842.943177,362.95021 833.498186,340.802574 C824.058591,318.64636 748.51485,304.355902 744.472393,278.628503 C740.42454,252.901104 799.776867,237.181029 788.987988,225.746947 C778.193712,214.312865 794.379729,210.738821 788.987988,196.445504 C783.59085,182.155047 724.233125,182.62968 646.897534,94.968386 C587.599178,27.7620614 487.082879,19.9220384 443.398443,19.9220384 C430.105292,19.9220384 422.068953,20.6482841 422.068953,20.6482841 C422.068953,20.6482841 414.043409,19.9220384 400.744861,19.9220384 C357.055028,19.9220384 256.533332,27.7649207 197.24577,94.968386 C119.910178,182.62968 60.5470568,182.155047 55.1553159,196.445504 C49.7527807,210.738821 65.9441949,214.312865 55.1553159,225.746947 C44.3664369,237.181029 103.718764,252.901104 99.6655135,278.628503 C95.6284543,304.355902 20.0793155,318.64636 10.6397211,340.802574 C1.19472943,362.95021 61.9017385,385.106424 34.9214452,410.833823 C7.94654916,436.558362 21.4286001,466.580333 52.4567468,478.726364 C78.5465123,488.942412 68.1462272,526.012397 29.0763447,526.012397 C21.6930598,526.012397 13.2735244,524.685711 3.89329847,521.603456 C13.4300414,536.628737 29.9938582,541.417956 47.2431115,541.417956 C77.5750274,541.417956 110.011827,526.607117 110.011827,526.607117 C110.011827,526.607117 97.4203041,567.102466 141.493334,586.159269 C170.88075,598.86857 196.668276,600.981545 210.582098,600.981545 C217.533612,600.981545 221.522097,600.455446 221.522097,600.455446 Z" id="Fill-58" fill="#C54848"></path>
                <g id="Group-22" transform="translate(607.856044, 544.775441) rotate(58.000000) translate(-607.856044, -544.775441) translate(452.809315, 58.247968)">
                    <rect id="Rectangle-41" fill="#661C20" x="71.5600288" y="924.402198" width="23.8533429" height="24.3263736"></rect>
                    <rect id="Rectangle-41" fill="#863136" x="47.7066858" y="948.728571" width="23.8533429" height="24.3263736"></rect>
                    <rect id="Rectangle-40" fill="#661C20" x="23.8533429" y="924.402198" width="23.8533429" height="48.6527473"></rect>
                    <rect id="Rectangle-39" fill="#DD4F4E" x="47.7066858" y="924.402198" width="23.8533429" height="24.3263736"></rect>
                    <rect id="Rectangle-38" fill="#5A5A5A" x="47.7066858" y="875.749451" width="23.8533429" height="48.6527473"></rect>
                    <rect id="Rectangle-37" fill="#000000" x="71.5600288" y="875.749451" width="23.8533429" height="48.6527473"></rect>
                    <rect id="Rectangle-33" fill="#888888" x="71.5600288" y="778.443956" width="23.8533429" height="97.3054945"></rect>
                    <rect id="Rectangle-34" fill="#5A5A5A" x="71.5600288" y="778.443956" width="23.8533429" height="24.3263736"></rect>
                    <rect id="Rectangle-34" fill="#5A5A5A" x="71.5600288" y="827.096703" width="23.8533429" height="24.3263736"></rect>
                    <rect id="Rectangle-32" fill="#000000" x="47.7066858" y="778.443956" width="23.8533429" height="97.3054945"></rect>
                    <rect id="Rectangle-31" fill="#000000" x="95.4133717" y="786.552747" width="23.8533429" height="89.1967033"></rect>
                    <rect id="Rectangle-30" fill="#000000" x="95.4133717" y="778.443956" width="79.5111431" height="24.3263736"></rect>
                    <rect id="Rectangle-29" fill="#000000" x="166.9734" y="754.117582" width="23.8533429" height="48.6527473"></rect>
                    <rect id="Rectangle-28" fill="#888888" x="23.8533429" y="729.791209" width="143.120058" height="48.6527473"></rect>
                    <rect id="Rectangle-27" fill="#000000" x="23.8533429" y="754.117582" width="71.5600288" height="24.3263736"></rect>
                    <rect id="Rectangle-25" fill="#5A5A5A" x="95.4133717" y="729.791209" width="95.4133717" height="24.3263736"></rect>
                    <rect id="Rectangle-25" fill="#5A5A5A" x="2.94676283e-13" y="705.464835" width="95.4133717" height="24.3263736"></rect>
                    <rect id="Rectangle-26" fill="#000000" x="8.81338616e-13" y="729.791209" width="23.8533429" height="48.6527473"></rect>
                    <rect id="Rectangle-24" fill="#661C20" x="262.386772" y="1.47338142e-13" width="23.8533429" height="48.6527473"></rect>
                    <rect id="Rectangle-22" fill="#DD4F4E" x="214.680086" y="97.3054945" width="23.8533429" height="48.6527473"></rect>
                    <rect id="Rectangle-22" fill="#DD4F4E" x="166.9734" y="97.3054945" width="23.8533429" height="48.6527473"></rect>
                    <rect id="Rectangle-23" fill="#F3A198" x="214.680086" y="72.9791209" width="23.8533429" height="24.3263736"></rect>
                    <rect id="Rectangle-23" fill="#F3A198" x="238.533429" y="48.6527473" width="23.8533429" height="24.3263736"></rect>
                    <rect id="Rectangle-23" fill="#DD4F4E" x="190.826743" y="72.9791209" width="23.8533429" height="24.3263736"></rect>
                    <rect id="Rectangle-23" fill="#DD4F4E" x="214.680086" y="48.6527473" width="23.8533429" height="24.3263736"></rect>
                    <rect id="Rectangle-23" fill="#DD4F4E" x="238.533429" y="24.3263736" width="23.8533429" height="24.3263736"></rect>
                    <rect id="Rectangle-22" fill="#F3A198" x="190.826743" y="97.3054945" width="23.8533429" height="48.6527473"></rect>
                    <rect id="Rectangle-21" fill="#993334" x="238.533429" y="72.9791209" width="23.8533429" height="170.284615"></rect>
                    <rect id="Rectangle-21" fill="#993334" x="214.680086" y="243.263736" width="23.8533429" height="97.3054945"></rect>
                    <rect id="Rectangle-21" fill="#993334" x="190.826743" y="340.569231" width="23.8533429" height="97.3054945"></rect>
                    <rect id="Rectangle-21" fill="#993334" x="166.9734" y="437.874725" width="23.8533429" height="97.3054945"></rect>
                    <rect id="Rectangle-21" fill="#993334" x="143.120058" y="535.18022" width="23.8533429" height="121.631868"></rect>
                    <rect id="Rectangle-21" fill="#993334" x="119.266715" y="656.812088" width="23.8533429" height="72.9791209"></rect>
                    <rect id="Rectangle-21" fill="#F3A198" x="214.680086" y="145.958242" width="23.8533429" height="97.3054945"></rect>
                    <rect id="Rectangle-21" fill="#F3A198" x="190.826743" y="243.263736" width="23.8533429" height="97.3054945"></rect>
                    <rect id="Rectangle-21" fill="#F3A198" x="166.9734" y="340.569231" width="23.8533429" height="97.3054945"></rect>
                    <rect id="Rectangle-21" fill="#F3A198" x="143.120058" y="437.874725" width="23.8533429" height="97.3054945"></rect>
                    <rect id="Rectangle-21" fill="#F3A198" x="119.266715" y="535.18022" width="23.8533429" height="121.631868"></rect>
                    <rect id="Rectangle-21" fill="#F3A198" x="95.4133717" y="656.812088" width="23.8533429" height="72.9791209"></rect>
                    <rect id="Rectangle-21" fill="#DD4F4E" x="190.826743" y="145.958242" width="23.8533429" height="97.3054945"></rect>
                    <rect id="Rectangle-21" fill="#DD4F4E" x="166.973399" y="243.263736" width="23.8533429" height="97.3054945"></rect>
                    <rect id="Rectangle-21" fill="#DD4F4E" x="143.120056" y="340.569231" width="23.8533429" height="97.3054945"></rect>
                    <rect id="Rectangle-21" fill="#DD4F4E" x="119.266713" y="437.874725" width="23.8533429" height="97.3054945"></rect>
                    <rect id="Rectangle-21" fill="#DD4F4E" x="95.4133703" y="535.18022" width="23.8533429" height="121.631868"></rect>
                    <rect id="Rectangle-21" fill="#DD4F4E" x="71.5600273" y="656.812088" width="23.8533429" height="48.6527473"></rect>
                    <rect id="Rectangle-21" fill="#F3A198" x="166.973399" y="145.958242" width="23.8533429" height="97.3054945"></rect>
                    <rect id="Rectangle-21" fill="#F3A198" x="143.120058" y="243.263736" width="23.8533429" height="97.3054945"></rect>
                    <rect id="Rectangle-21" fill="#F3A198" x="119.266715" y="340.569231" width="23.8533429" height="97.3054945"></rect>
                    <rect id="Rectangle-21" fill="#F3A198" x="95.4133717" y="437.874725" width="23.8533429" height="97.3054945"></rect>
                    <rect id="Rectangle-21" fill="#F3A198" x="71.5600288" y="535.18022" width="23.8533429" height="121.631868"></rect>
                    <rect id="Rectangle-21" fill="#F3A198" x="47.7066858" y="656.812088" width="23.8533429" height="48.6527473"></rect>
                    <rect id="Rectangle-21" fill="#DD4F4E" x="143.120058" y="145.958242" width="23.8533429" height="97.3054945"></rect>
                    <rect id="Rectangle-21" fill="#DD4F4E" x="119.266715" y="243.263736" width="23.8533429" height="97.3054945"></rect>
                    <rect id="Rectangle-21" fill="#DD4F4E" x="95.4133717" y="340.569231" width="23.8533429" height="97.3054945"></rect>
                    <rect id="Rectangle-21" fill="#DD4F4E" x="71.5600288" y="437.874725" width="23.8533429" height="97.3054945"></rect>
                    <rect id="Rectangle-21" fill="#DD4F4E" x="47.7066858" y="535.18022" width="23.8533429" height="121.631868"></rect>
                    <rect id="Rectangle-21" fill="#DD4F4E" x="23.8533429" y="656.812088" width="23.8533429" height="48.6527473"></rect>
                    <rect id="Rectangle-21" fill="#661C20" x="286.240115" y="48.6527473" width="23.8533429" height="194.610989"></rect>
                    <rect id="Rectangle-21" fill="#661C20" x="262.386772" y="243.263736" width="23.8533429" height="97.3054945"></rect>
                    <rect id="Rectangle-21" fill="#661C20" x="238.533429" y="340.569231" width="23.8533429" height="97.3054945"></rect>
                    <rect id="Rectangle-21" fill="#661C20" x="214.680086" y="437.874725" width="23.8533429" height="97.3054945"></rect>
                    <rect id="Rectangle-21" fill="#661C20" x="190.826743" y="535.18022" width="23.8533429" height="121.631868"></rect>
                    <rect id="Rectangle-21" fill="#661C20" x="166.9734" y="656.812088" width="23.8533429" height="72.9791209"></rect>
                    <rect id="Rectangle-21" fill="#C93D3E" x="262.386772" y="48.6527473" width="23.8533429" height="194.610989"></rect>
                    <rect id="Rectangle-21" fill="#C93D3E" x="238.533429" y="243.263736" width="23.8533429" height="97.3054945"></rect>
                    <rect id="Rectangle-21" fill="#C93D3E" x="214.680086" y="340.569231" width="23.8533429" height="97.3054945"></rect>
                    <rect id="Rectangle-21" fill="#C93D3E" x="190.826743" y="437.874725" width="23.8533429" height="97.3054945"></rect>
                    <rect id="Rectangle-21" fill="#C93D3E" x="166.9734" y="535.18022" width="23.8533429" height="121.631868"></rect>
                    <rect id="Rectangle-21" fill="#C93D3E" x="143.120058" y="656.812088" width="23.8533429" height="72.9791209"></rect>
                </g>
                <path d="M238.472462,648.557833 C238.472462,648.557833 264.595215,709.714986 209.311141,736.98791 C154.027067,764.260833 106.526164,681.469273 106.526164,681.469273 L238.472462,648.557833 Z" id="Path-36" fill="#C5BD6D"></path>
            </g>
        </g>
    </g>
</svg>