<?xml version="1.0" encoding="UTF-8" standalone="no"?>
<svg width="1200px" height="1200px" viewBox="0 0 1200 1200" version="1.1" xmlns="http://www.w3.org/2000/svg" xmlns:xlink="http://www.w3.org/1999/xlink">
    <!-- Generator: Sketch 42 (36781) - http://www.bohemiancoding.com/sketch -->
    <title>78</title>
    <desc>Created with Sketch.</desc>
    <defs>
        <polyline id="path-1" points="0 894.154661 742.728555 894.154661 742.728555 1.55391927 0 1.55391927"></polyline>
        <path d="M427.401173,551.856225 C409.26657,555.365564 373.082029,559.473553 373.082029,559.473553 L456.237854,603.990905 L456.693577,543.293368 C456.693577,543.293368 437.137086,549.972169 427.401173,551.856225 Z" id="path-3"></path>
        <filter x="-50%" y="-50%" width="200%" height="200%" filterUnits="objectBoundingBox" id="filter-4">
            <feOffset dx="0" dy="10" in="SourceAlpha" result="shadowOffsetOuter1"></feOffset>
            <feGaussianBlur stdDeviation="5" in="shadowOffsetOuter1" result="shadowBlurOuter1"></feGaussianBlur>
            <feColorMatrix values="0 0 0 0 0   0 0 0 0 0   0 0 0 0 0  0 0 0 0.203294837 0" type="matrix" in="shadowBlurOuter1"></feColorMatrix>
        </filter>
        <path d="M337.524534,551.952754 C319.389931,555.462093 283.20539,559.570082 283.20539,559.570082 L366.361215,604.087434 L366.816937,543.389897 C366.816937,543.389897 347.260447,550.068698 337.524534,551.952754 Z" id="path-5"></path>
        <filter x="-50%" y="-50%" width="200%" height="200%" filterUnits="objectBoundingBox" id="filter-6">
            <feOffset dx="0" dy="10" in="SourceAlpha" result="shadowOffsetOuter1"></feOffset>
            <feGaussianBlur stdDeviation="5" in="shadowOffsetOuter1" result="shadowBlurOuter1"></feGaussianBlur>
            <feColorMatrix values="0 0 0 0 0   0 0 0 0 0   0 0 0 0 0  0 0 0 0.203294837 0" type="matrix" in="shadowBlurOuter1"></feColorMatrix>
        </filter>
    </defs>
    <g id="Page-1" stroke="none" stroke-width="1" fill="none" fill-rule="evenodd">
        <g id="78">
            <g id="Group-2" transform="translate(220.000000, 125.000000)">
                <g id="Group-6" transform="translate(0.000000, 46.249379)">
                    <g id="Group-5" transform="translate(9.594937, 0.000000)">
                        <g id="Group-3" transform="translate(2.682455, 0.000000)">
                            <mask id="mask-2" fill="white">
                                <use xlink:href="#path-1"></use>
                            </mask>
                            <g id="Clip-2"></g>
                            <path d="M714.724004,508.813067 C710.51199,448.490182 696.529325,390.906188 674.506138,337.424019 C668.672946,323.258613 662.473681,309.27985 655.531377,295.728633 C680.134504,281.211641 696.681856,254.580156 696.681856,224.033489 C696.681856,177.997545 659.213892,140.67961 612.990694,140.67961 L102.474171,140.67961 C56.2531512,140.67961 18.7830091,177.997545 18.7830091,224.033489 C18.7830091,254.556283 35.3063918,281.170406 59.8790129,295.693908 C52.9367081,309.242956 46.7374435,323.215207 40.9064304,337.376273 C18.8701693,390.869293 4.88314657,448.468479 0.668954038,508.806556 C0.348640541,515.985837 0,523.158607 0,530.416018 C0,582.561294 8.51554521,632.696893 24.0191543,679.670397 C28.6408204,692.893903 37.5311542,715.664463 48.4239921,730.869433 C49.613728,732.429863 50.7359147,733.953398 52.0912548,735.594128 L52.5728145,736.182274 C57.403665,741.968236 63.2608261,748.16004 70.307723,754.304098 C77.4199901,760.450326 85.6588019,766.596554 95.0350534,771.735773 C104.302355,776.846778 115.116749,780.974648 125.787328,782.344093 C136.952541,783.939248 148.734413,782.031573 157.729339,775.744277 C166.896406,769.613241 173.453027,758.881215 177.246672,746.747189 C184.814351,722.166617 183.975434,694.315435 181.659154,669.127185 C179.124973,643.732759 174.503307,620.130982 169.916505,600.077611 C160.605623,559.942654 151.469062,533.881952 151.469062,533.881952 C151.469062,533.881952 162.381511,559.217781 174.525097,598.857914 C180.53043,618.687747 186.840824,642.10288 191.233695,667.859743 C195.290999,693.564519 198.563862,721.88231 191.950587,750.827312 C188.555699,765.049146 181.473938,780.047939 168.582954,790.185309 C155.678896,800.494131 139.545555,803.68227 125.055183,804.031685 C109.802159,804.135858 96.2596533,800.669923 83.9787902,796.012506 C82.4818149,795.437382 81.207098,794.695147 79.7537027,794.083129 C102.210512,827.815764 128.95342,858.401497 159.023667,885.40627 C175.063311,894.189386 201.200456,900.678518 235.822641,882.773722 C296.185392,851.556439 356.552502,848.088334 356.552502,848.088334 C356.552502,848.088334 416.917433,851.556439 477.280184,882.773722 C517.842332,903.749462 546.762065,891.263851 561.415863,880.80962 C589.333254,855.00067 614.300275,826.088223 635.45404,794.367435 C634.098699,794.933878 632.913322,795.626197 631.520938,796.162255 C619.237896,800.819673 605.697569,804.287777 590.442367,804.183604 C575.954173,803.832019 559.820832,800.64388 546.916774,790.335058 C534.02579,780.197688 526.944029,765.198895 523.549142,750.977061 C516.935867,722.032059 520.206551,693.714268 524.266034,668.009492 C528.656726,642.254799 534.969299,618.837496 540.972453,599.007663 C553.118218,559.36753 564.030667,534.031701 564.030667,534.031701 C564.030667,534.031701 554.894106,560.092403 545.583224,600.22736 C540.996422,620.282902 536.374756,643.882508 533.840575,669.276934 C531.524294,694.467355 530.683199,722.316366 538.253057,746.896938 C542.046702,759.030964 548.601144,769.76299 557.77039,775.894026 C566.765316,782.181323 578.547187,784.088997 589.712401,782.496013 C600.380801,781.124397 611.195195,776.996528 620.464675,771.885522 C629.840927,766.746303 638.07756,760.602245 645.189827,754.453847 C654.766547,746.106957 662.011733,737.751385 667.576907,730.372439 C676.260236,718.071301 683.64052,701.075852 688.569426,688.069374 C705.896861,638.704224 715.392958,585.675644 715.392958,530.416018 C715.392958,523.160777 715.044317,515.990178 714.724004,508.813067" id="Fill-1" fill="#F6C823" mask="url(#mask-2)"></path>
                        </g>
                        <path d="M285.334058,283.579415 C285.334058,325.589492 251.141137,359.645499 208.962168,359.645499 C166.7832,359.645499 132.592458,325.589492 132.592458,283.579415 C132.592458,241.569337 166.7832,207.51333 208.962168,207.51333 C251.141137,207.51333 285.334058,241.569337 285.334058,283.579415" id="Fill-4" fill="#FFFFFF"></path>
                        <path d="M242.950263,283.579415 C242.950263,302.274192 227.732103,317.429245 208.962168,317.429245 C190.192233,317.429245 174.976253,302.274192 174.976253,283.579415 C174.976253,264.884637 190.192233,249.729584 208.962168,249.729584 C227.732103,249.729584 242.950263,264.884637 242.950263,283.579415" id="Fill-5" fill="#25282C"></path>
                        <path d="M105.156626,182.216566 C81.9676724,182.216566 63.1694102,200.939557 63.1694102,224.033489 C63.1694102,239.01275 71.1423836,252.051782 83.026668,259.437239 C97.5562626,235.670521 113.768048,213.04754 131.60319,191.802686 C124.36672,185.901699 115.238875,182.216566 105.156626,182.216566" id="Fill-6" fill="#25282C"></path>
                        <path d="M615.673149,182.216566 C605.571289,182.216566 596.428191,185.916891 589.185184,191.83741 C607.01379,213.082264 623.221217,235.703075 637.748632,259.467623 C649.661244,252.088676 657.660365,239.036623 657.660365,224.033489 C657.660365,200.939557 638.862103,182.216566 615.673149,182.216566" id="Fill-7" fill="#25282C"></path>
                        <path d="M204.231552,259.05961 C204.231552,269.322856 195.879432,277.643703 185.574925,277.643703 C175.270418,277.643703 166.918298,269.322856 166.918298,259.05961 C166.918298,248.796364 175.270418,240.477688 185.574925,240.477688 C195.879432,240.477688 204.231552,248.796364 204.231552,259.05961" id="Fill-8" fill="#FFFFFF"></path>
                        <path d="M588.16541,283.579415 C588.16541,325.589492 553.972489,359.645499 511.793521,359.645499 C469.614553,359.645499 435.421632,325.589492 435.421632,283.579415 C435.421632,241.569337 469.614553,207.51333 511.793521,207.51333 C553.972489,207.51333 588.16541,241.569337 588.16541,283.579415" id="Fill-9" fill="#FFFFFF"></path>
                        <path d="M545.779437,283.579415 C545.779437,302.274192 530.563456,317.429245 511.793521,317.429245 C493.023586,317.429245 477.807605,302.274192 477.807605,283.579415 C477.807605,264.884637 493.023586,249.729584 511.793521,249.729584 C530.563456,249.729584 545.779437,264.884637 545.779437,283.579415" id="Fill-10" fill="#25282C"></path>
                        <path d="M507.062905,259.05961 C507.062905,269.322856 498.710785,277.643703 488.406278,277.643703 C478.101771,277.643703 469.749651,269.322856 469.749651,259.05961 C469.749651,248.796364 478.101771,240.477688 488.406278,240.477688 C498.710785,240.477688 507.062905,248.796364 507.062905,259.05961" id="Fill-11" fill="#FFFFFF"></path>
                        <path d="M463.073184,430.457339 C463.073184,487.576894 416.584147,533.881952 359.234957,533.881952 C301.885767,533.881952 255.394551,487.576894 255.394551,430.457339 C255.394551,373.337785 301.885767,327.032727 359.234957,327.032727 C416.584147,327.032727 463.073184,373.337785 463.073184,430.457339" id="Fill-12" fill="#FFFFFF"></path>
                        <path d="M352.4953,462.334574 C354.733136,462.401935 356.95572,462.49379 359.230599,462.49379 C361.505479,462.49379 363.73242,462.401935 365.972436,462.334574 L365.972436,399.118521 L352.4953,399.118521 L352.4953,462.334574" id="Fill-13" fill="#25282C"></path>
                        <path d="M413.110816,373.986698 C413.110816,372.558655 412.838441,371.204401 412.448399,369.902234 C412.280616,369.262002 412.143338,368.884374 412.143338,368.884374 L412.132443,368.884374 C411.646526,367.61042 410.988467,366.4363 410.182235,365.364182 L410.186593,365.351161 C410.186593,365.351161 404.085384,352.826484 359.849436,352.704949 L359.849436,352.694098 L359.542197,352.698438 L359.232778,352.694098 L359.232778,352.704949 C333.49657,352.774398 320.699283,357.032484 314.478228,360.593911 C310.721626,362.093573 307.773435,365.11026 306.335292,368.884374 L306.313502,368.884374 C306.313502,368.884374 306.152256,369.32711 305.967041,370.069346 C305.609684,371.323766 305.359099,372.619423 305.359099,373.986698 L305.393963,374.346964 C305.130304,380.842607 307.270085,392.286485 322.063339,404.02552 C336.62126,415.573571 347.799548,419.343344 353.946516,420.593425 C354.415002,420.699768 354.890025,420.762706 355.369405,420.840836 C357.78592,421.231486 359.224062,421.229316 359.224062,421.229316 L359.232778,421.229316 C359.232778,421.229316 360.664384,421.229316 363.074361,420.843007 C363.564637,420.762706 364.054913,420.697598 364.534294,420.589084 C370.687799,419.334663 381.857371,415.556209 396.393502,404.02552 C411.125744,392.334231 413.306926,380.935929 413.065057,374.427264 L413.110816,373.986698" id="Fill-14" fill="#25282C"></path>
                        <path d="M192.153336,118.490685 L527.053082,118.490685 C486.952883,91.0236424 439.853724,72.9799485 388.821465,67.9883084 L409.328066,12.3879486 C409.328066,12.3879486 396.275836,1.55391927 359.605388,1.55391927 C322.932761,1.55391927 309.880531,12.3879486 309.880531,12.3879486 L330.387132,67.9883084 C279.354873,72.9799485 232.255714,91.0214721 192.153336,118.490685" id="Fill-15" fill="#F6C823"></path>
                        <path d="M23.4432428,674.845656 C15.7660106,651.770553 9.68324857,618.906548 4.87688523,586.194433 C-5.3469218,516.611189 15.6953483,433.49416 15.6953483,433.49416 C15.6953483,433.49416 243.803098,562.615619 358.379673,562.38144 C473.436622,562.146279 707.129945,433.49416 707.129945,433.49416 C707.129945,433.49416 729.976465,529.165812 714.362999,594.196514 C708.956652,616.714164 706.881698,640.326653 701.106372,659.645589 C690.202627,696.119506 676.647381,721.075338 676.647381,721.075338 L533.570708,705.470579 C533.570708,705.470579 534.673417,654.82646 539.06845,628.710618 C544.444559,596.765096 557.42236,559.329424 557.42236,559.329424 C557.42236,559.329424 540.425744,609.245642 531.63595,648.501563 C526.431555,671.744802 522.925475,720.368101 522.925475,720.368101 L198.383146,719.71941 C198.383146,719.71941 194.357732,667.678593 188.349969,641.808567 C180.176828,606.614203 159.069503,546.559442 159.069503,546.559442 C159.069503,546.559442 177.649465,611.663233 183.405174,648.501563 C186.837711,670.470865 186.37166,713.72296 186.37166,713.72296 L42.1170555,715.082557 C42.1170555,715.082557 32.0965573,700.854524 23.4432428,674.845656 Z" id="Path-164" fill="#FFFFFF"></path>
                        <path d="M59.0467358,696.411924 C59.0467358,696.411924 53.4968142,689.226132 47.3847098,677.072574 C41.2399202,664.975443 35.0014336,647.880161 31.0203944,630.296566 C26.9718061,612.715141 25.0433881,594.775621 24.6533465,581.306874 C24.304706,567.820764 25.1501593,558.816279 25.1501593,558.816279 C25.1501593,558.816279 25.8147553,560.993069 26.7299367,564.812758 C27.6189701,568.621597 28.8893291,574.060314 30.4124524,580.588511 C33.338854,593.618862 36.8601234,610.926832 40.8673106,628.054668 C44.6849246,645.232421 49.1148384,662.22787 52.7712061,674.991277 C54.632075,681.397939 56.1813464,686.734653 57.2664901,690.471872 C58.475837,694.215602 59.0467358,696.411924 59.0467358,696.411924" id="Fill-16" fill="#FFFFFF"></path>
                        <path d="M103.820897,150.801788 C103.820897,150.801788 97.5715156,153.184754 89.424222,158.057028 C85.3189796,160.413951 80.7474305,163.385062 76.1737024,166.896572 C71.5651103,170.358166 67.0371412,174.470843 62.8730658,178.906892 C58.5804291,183.249619 54.9785365,188.176151 51.5291742,192.833568 C48.4306314,197.710183 45.4192487,202.28296 43.2315293,206.515002 C40.7648975,210.610317 39.0500218,214.265066 37.7840209,216.823824 C36.4853349,219.373901 35.5963015,220.827988 35.5963015,220.827988 C35.5963015,220.827988 35.6093755,219.178576 35.8904669,216.298617 C36.3306256,213.470744 36.3110146,209.175764 37.8297799,204.401151 C38.8887756,199.470279 41.10918,193.999007 43.8939463,188.273813 C46.914045,182.663644 50.8558621,177.042623 55.5211084,172.005407 C65.0084891,162.028638 77.3765123,155.209623 87.2081755,152.742017 C97.0463758,150.068234 103.820897,150.801788 103.820897,150.801788" id="Fill-17" fill="#FFFFFF"></path>
                        <path d="M360.378934,612.591435 L409.042112,553.816272 C409.042112,553.816272 388.449047,559.521716 357.666543,559.521716 C326.884038,559.521716 310.72498,553.816272 310.72498,553.816272 L360.378934,612.591435 Z" id="Fill-18" fill="#000000"></path>
                        <polygon id="Fill-19" fill="#000000" points="352.981218 561.950161 312.316657 770.405392 360.378934 821.979886 408.441212 770.405392 367.776651 561.950161"></polygon>
                        <path d="M208.962168,207.817169 C167.020711,207.817169 132.89316,241.805898 132.89316,283.579415 C132.89316,325.355102 167.020711,359.34383 208.962168,359.34383 C250.905804,359.34383 285.031176,325.355102 285.031176,283.579415 C285.031176,241.805898 250.905804,207.817169 208.962168,207.817169 L208.962168,207.817169 Z M208.962168,372.767002 C159.583773,372.767002 119.418203,332.760091 119.418203,283.579415 C119.418203,234.398738 159.583773,194.393998 208.962168,194.393998 C258.340564,194.393998 298.508312,234.398738 298.508312,283.579415 C298.508312,332.760091 258.340564,372.767002 208.962168,372.767002 L208.962168,372.767002 Z" id="Fill-20" fill="#25282C"></path>
                        <path d="M511.789163,207.947386 C469.923971,207.947386 435.866148,241.871006 435.866148,283.579415 C435.866148,325.289993 469.923971,359.213614 511.789163,359.213614 C553.66525,359.213614 587.725252,325.289993 587.725252,283.579415 C587.725252,241.871006 553.66525,207.947386 511.789163,207.947386 L511.789163,207.947386 Z M511.789163,372.634615 C462.489212,372.634615 422.389012,332.681961 422.389012,283.579415 C422.389012,234.476868 462.489212,194.524215 511.789163,194.524215 C561.089115,194.524215 601.202388,234.476868 601.202388,283.579415 C601.202388,332.681961 561.089115,372.634615 511.789163,372.634615 L511.789163,372.634615 Z" id="Fill-21" fill="#25282C"></path>
                        <path d="M428.732091,265.924201 C382.735509,257.299515 336.647408,256.932738 291.624841,264.875956 L289.282412,251.663302 C335.871683,243.431436 383.631079,243.785192 431.233587,252.73759 L428.732091,265.924201" id="Fill-22" fill="#25282C"></path>
                        <path d="M694.335171,793.445067 C693.380768,793.445067 692.41329,793.345234 691.443634,793.139058 L613.657571,776.506045 L691.443634,793.139058 C692.41329,793.345234 693.380768,793.445067 694.335171,793.445067 C694.755719,793.445067 695.174087,793.425534 695.588098,793.38864 C701.460512,792.850411 706.589886,788.574962 707.888572,782.5481 L736.788694,648.474817 L707.888572,782.5481 C706.589886,788.574962 701.460512,792.850411 695.588098,793.38864 C695.174087,793.425534 694.755719,793.445067 694.335171,793.445067 M547.912681,762.446982 L528.286398,758.249664 L547.912681,762.446982" id="Fill-26" fill="#CECFCA"></path>
                        <path d="M613.657571,776.506045 L547.912681,762.446982 L613.657571,776.506045 M528.286398,758.249664 L491.652993,750.417129 L528.286398,758.249664" id="Fill-27" fill="#C5A433"></path>
                        <path d="M576.917395,587.800346 C576.917395,587.800346 576.764865,593.851082 575.821356,602.627688 C574.823373,611.399952 572.873165,622.861192 570.539452,634.213918 C568.109863,645.549282 565.34035,656.806515 562.843212,665.253238 C561.681803,669.485281 560.291599,672.979429 559.58996,675.468738 C558.768476,677.942856 558.158355,679.351366 558.158355,679.351366 C558.158355,679.351366 557.173445,673.37442 557.09718,664.439384 C557.064495,655.51954 558.241157,643.708886 560.651135,632.156494 C563.100335,620.610614 566.743628,609.35121 570.234392,601.16275 C573.773093,592.97646 576.917395,587.800346 576.917395,587.800346" id="Fill-36" fill="#FFFFFF"></path>
                    </g>
                    <path d="M456.111439,543.826887 C456.111439,543.826887 531.78421,519.141986 566.813419,504.281044 C618.780492,482.234308 717.100285,433.103852 717.100285,433.103852 C717.100285,433.103852 728.362621,464.59039 731.93581,502.049175 C734.295244,526.783798 734.25655,554.453979 731.93581,577.192241 C726.100479,634.365943 723.152742,631.050047 706.106791,679.872325 C697.576863,704.303379 679.603126,743.371491 661.543446,773.848329 C643.513209,804.27548 625.390038,826.131321 625.390038,826.131321 L367.994767,823.719392 L367.994767,759.462353 L456.111439,543.826887 Z" id="Path-165" fill="#1C1D1E"></path>
                    <path d="M96.2640605,544.115965 C96.2640605,544.115965 171.936832,519.431065 206.96604,504.570122 C258.933114,482.523387 357.186566,431.412167 357.186566,431.412167 C357.186566,431.412167 366.094113,465.226608 369.667303,502.685393 C372.026736,527.420016 371.988043,554.385601 369.667303,577.123863 C363.831972,634.297566 363.305363,631.339126 346.259413,680.161404 C337.729484,704.592458 319.755748,743.66057 301.696067,774.137408 C283.66583,804.564559 265.542659,826.4204 265.542659,826.4204 L8.14738836,824.008471 L11.0253429,759.052728 L96.2640605,544.115965 Z" id="Path-165" fill="#1C1D1E" transform="translate(189.784893, 628.916283) scale(-1, 1) translate(-189.784893, -628.916283) "></path>
                    <g id="Path-166">
                        <use fill="black" fill-opacity="1" filter="url(#filter-4)" xlink:href="#path-3"></use>
                        <use fill="#FFFAFA" fill-rule="evenodd" xlink:href="#path-3"></use>
                    </g>
                    <g id="Path-166" transform="translate(325.011164, 573.738666) scale(-1, 1) translate(-325.011164, -573.738666) ">
                        <use fill="black" fill-opacity="1" filter="url(#filter-6)" xlink:href="#path-5"></use>
                        <use fill="#FFFAFA" fill-rule="evenodd" xlink:href="#path-5"></use>
                    </g>
                </g>
                <g id="Group-5" transform="translate(495.672452, 616.658387)">
                    <path d="M44.6794451,222.922145 C44.6794451,222.922145 14.6764124,112.162735 90.4344122,107.512263 C134.126351,104.830194 163.143957,136.704215 178.981512,168.618589 C190.604892,192.040947 194.639027,217.911018 194.639027,217.911018 L44.6794451,222.922145 Z" id="Path-1628" fill="#F6C724" transform="translate(116.728641, 165.138102) scale(-1, 1) rotate(172.000000) translate(-116.728641, -165.138102) "></path>
                    <g id="Group-4" transform="translate(111.026727, 81.721538) scale(-1, 1) translate(-111.026727, -81.721538) translate(6.867259, 0.785125)" fill="#000000">
                        <path d="M180.832628,9.23095716 C180.832628,9.23095716 180.722619,15.912578 180.560662,25.9317157 C180.499547,28.4366099 180.432319,31.1505381 180.362036,34.0208025 C180.294809,36.891067 180.22147,39.9176678 180.145075,43.0487855 C180.077848,46.1799033 180.013676,49.415538 179.943393,52.7029921 C179.897556,55.9904462 179.848664,59.3301587 179.799771,62.6698713 C179.790604,66.0095838 179.781436,69.3488573 179.772269,72.6363113 C179.827273,75.9237654 179.879221,79.158961 179.93117,82.2896396 C180.071736,85.4203182 180.209247,88.4464798 180.33759,91.3163052 C180.45371,94.1861305 180.887632,96.8978629 181.061812,99.402318 C181.312386,101.906773 181.88993,104.200438 182.183286,106.235005 C182.559148,108.269134 183.332263,110.038896 183.723404,111.49906 C183.86397,112.2298 184.264278,112.87886 184.646252,113.443603 C184.997667,114.008346 185.297135,114.489211 185.541598,114.878735 C186.027468,115.659099 186.284155,116.074971 186.284155,116.074971 C186.284155,116.074971 185.944962,115.660416 185.303246,114.883126 C184.985444,114.494481 184.588192,114.014494 184.123712,113.450629 C183.63173,112.886764 183.100023,112.238144 182.815834,111.508282 C182.168007,110.049875 181.095425,108.279674 180.426208,106.245545 C179.833385,104.211855 178.956373,101.916873 178.446057,99.4124183 C177.963242,96.9079633 177.269578,94.1940351 176.94872,91.3237707 C176.609528,88.453067 176.090044,85.4260271 175.955589,82.2940311 C175.756963,79.1624742 175.442216,75.9264003 175.448328,72.6380679 C175.420826,69.3497355 175.39638,66.0091447 175.368877,62.668993 C175.469718,59.3284021 175.567504,55.9882504 175.665289,52.6999181 C175.873083,49.4120248 176.080876,46.175951 176.276447,43.0448332 C176.563691,39.9137155 176.841768,36.8866755 177.107621,34.0164111 C177.446814,31.1465857 177.767672,28.4326576 178.064083,25.9277634 C179.365849,15.9086257 180.832628,9.23095716 180.832628,9.23095716 L145.451123,4.92344743" id="Fill-84" transform="translate(165.867639, 60.499209) scale(-1, 1) rotate(25.000000) translate(-165.867639, -60.499209) "></path>
                        <polygon id="Path-1630" transform="translate(91.292221, 125.459019) rotate(85.000000) translate(-91.292221, -125.459019) " points="63.0635884 45.4438604 97.4875793 41.6496764 119.520855 201.428353 76.1748118 209.268361"></polygon>
                    </g>
                </g>
                <g id="Group-5" transform="translate(125.327678, 743.844179) scale(-1, 1) translate(-125.327678, -743.844179) translate(32.741485, 632.074847)">
                    <path d="M18.3784817,207.428936 C18.3784817,207.428936 -10.859856,95.8450139 62.9672802,91.1599227 C96.7429238,89.0165107 127.818126,103.597317 144.037589,129.230901 C163.270789,159.627459 164.443377,202.128599 164.443377,202.128599 L18.3784817,207.428936 Z" id="Path-1628" fill="#F6C724" transform="translate(88.555027, 149.190656) scale(-1, 1) rotate(172.000000) translate(-88.555027, -149.190656) "></path>
                    <g id="Group-4" transform="translate(95.813962, 74.019153) scale(-1, 1) translate(-95.813962, -74.019153) translate(7.085526, 0.790970)" fill="#000000">
                        <path d="M149.328741,-1.78297568 C149.328741,-1.78297568 149.221537,4.94838429 149.063708,15.0421061 C149.004149,17.5656472 148.938636,20.2997783 148.870144,23.1914095 C148.80463,26.0830407 148.73316,29.132172 148.658713,32.2865983 C148.593199,35.4410246 148.530663,38.700746 148.462171,42.0126724 C148.417502,45.3245989 148.369856,48.6891728 148.322209,52.0537467 C148.313276,55.4183207 148.304342,58.7824522 148.295408,62.0943786 C148.34901,65.4063051 148.399635,68.665584 148.450259,71.8195679 C148.587243,74.9735518 148.721249,78.0222407 148.846321,80.9134295 C148.959481,83.8046183 149.382343,86.5365373 149.552084,89.0596359 C149.796272,91.5827346 150.359096,93.8934735 150.644975,95.943187 C151.011257,97.9924581 151.764667,99.7753947 152.145839,101.246428 C152.282823,101.982608 152.672928,102.636499 153.045167,103.205446 C153.387626,103.774393 153.67946,104.258839 153.917693,104.651262 C154.39118,105.437435 154.641324,105.856403 154.641324,105.856403 C154.641324,105.856403 154.310776,105.438762 153.685416,104.655686 C153.375714,104.264148 152.988586,103.780587 152.535945,103.212525 C152.056502,102.644463 151.538347,101.991014 151.261401,101.255719 C150.630086,99.7864551 149.584841,98.0030761 148.93268,95.953805 C148.354966,93.9049764 147.500307,91.5929102 147.002997,89.0698115 C146.532488,86.5467129 145.856504,83.8125818 145.543824,80.9209506 C145.213276,78.028877 144.707033,74.9793032 144.576005,71.8239921 C144.382441,68.6691233 144.075717,65.4089596 144.081673,62.0961483 C144.054871,58.783337 144.031048,55.4178783 144.004247,52.0528619 C144.102518,48.6874031 144.197811,45.3223868 144.293104,42.0095755 C144.495601,38.6972067 144.698099,35.4370429 144.888685,32.2826166 C145.168608,29.1281902 145.439597,26.0786165 145.698675,23.1869853 C146.029222,20.2957965 146.341902,17.5616654 146.630759,15.0381244 C147.899347,4.94440254 149.328741,-1.78297568 149.328741,-1.78297568" id="Fill-84" transform="translate(149.322785, 52.036714) scale(-1, 1) rotate(25.000000) translate(-149.322785, -52.036714) "></path>
                        <polygon id="Path-1630" transform="translate(88.965433, 109.197675) rotate(85.000000) translate(-88.965433, -109.197675) " points="61.4562706 28.5868702 95.0028884 24.7644417 116.474596 185.732538 74.2333248 193.630908"></polygon>
                    </g>
                </g>
                <path d="M381.76027,470.679029 C385.146842,469.636773 392.948783,470.679029 392.948783,470.679029 C392.948783,470.679029 408.724899,473.716057 423.270121,478.984094 C435.157243,483.289411 445.98194,489.849945 448.698195,491.102784 C454.738091,493.888611 454.188821,497.29114 452.953242,498.355343 C451.87552,499.283584 441.75829,497.080115 441.75829,497.080115 L392.72585,488.717962 C392.72585,488.717962 382.816126,487.695265 380.372437,485.244282 C378.246128,483.111626 379.015857,474.967044 379.015857,474.967044 C379.015857,474.967044 378.373698,471.721285 381.76027,470.679029 Z" id="Path-90" fill="#000000"></path>
                <path d="M286.676831,470.665245 C290.063403,469.622989 297.865345,470.665245 297.865345,470.665245 C297.865345,470.665245 313.641461,473.702273 328.186683,478.97031 C340.073805,483.275628 350.898501,489.836161 353.614756,491.089 C359.654653,493.874827 359.105383,497.277356 357.869804,498.341559 C356.792082,499.2698 346.674852,497.066331 346.674852,497.066331 L297.642412,488.704178 C297.642412,488.704178 287.732688,487.681481 285.288999,485.230498 C283.16269,483.097842 283.932418,474.953261 283.932418,474.953261 C283.932418,474.953261 283.29026,471.707501 286.676831,470.665245 Z" id="Path-90" fill="#000000" transform="translate(321.229402, 484.385890) scale(-1, 1) translate(-321.229402, -484.385890) "></path>
                <g id="Group" transform="translate(23.310453, 0.000000)">
                    <path d="M158.240151,178.038376 C158.240151,178.038376 93.3286814,181.773616 59.2935012,183.311779 C38.833693,184.236425 35.4341218,182.592034 21.8628999,183.311779 C8.4710521,184.022011 0.197137432,187.08928 1.02779848,189.042337 C3.01875342,193.723487 21.3354145,207.652862 59.2935012,216.086294 C105.287157,226.305049 180.66863,230.772407 180.66863,230.772407 C180.66863,230.772407 358.799,249.28401 446.221309,247.495205 C476.344061,246.878843 524.042491,244.942308 562.026514,239.11256 C606.770479,232.245303 639.754734,221.378745 639.754734,221.378745 C639.754734,221.378745 686.204379,198.210351 670.65726,183.311779 C655.110141,168.413206 543.242409,171.985464 543.242409,171.985464 C543.242409,171.985464 516.333243,50.1268402 510.360087,35.1407265 C504.386931,20.1546128 493.188844,10.8006395 477.510946,7.07110062 C458.901247,2.6441301 425.724698,5.29522828 407.497296,10.6711983 C389.269894,16.0471683 372.635606,26.1415707 354.310075,25.5448618 C335.781401,24.9415382 325.422175,15.1845914 294.431363,9.03452385 C263.440551,2.88445628 244.02629,-1.18210534 227.144082,0.309012435 C211.091124,1.72688688 206.616742,4.38411774 198.129184,15.7980773 C194.266983,20.9919153 182.213544,54.9591545 173.97981,90.540384 C164.11912,133.152335 158.240151,178.038376 158.240151,178.038376 Z" id="Path-86" fill="#1F2228"></path>
                    <path d="M371.535533,135.107222 C426.928033,133.424399 536.689547,114 536.689547,114 L547.689547,171 C547.689547,171 421.357799,191.868444 359.326261,192.855264 C293.347098,193.904884 158.092908,176.454806 158.092908,176.454806 L164.82591,123.221259 C164.82591,123.221259 303.568633,137.172055 371.535533,135.107222 Z" id="Path-89" fill="#FFFFFF"></path>
                </g>
                <path d="M391.730423,523.342832 C371.552207,519.216695 368.46131,519.039199 345.004114,523.342832 C330.147168,526.068295 325.931097,520.041151 325.931097,520.041151 C325.931097,520.041151 347.750468,512.731663 354.76782,509.194607 C361.237566,505.934084 367.43434,501.680613 368.366436,501.03494 C369.298532,501.680613 375.495307,505.934084 381.965052,509.194607 C388.984069,512.731663 410.801775,520.041151 410.801775,520.041151 C410.801775,520.041151 406.49083,526.361549 391.730423,523.342832 L391.730423,523.342832 Z" id="Path" fill="#1F2228"></path>
            </g>
        </g>
    </g>
</svg>