<?xml version="1.0" encoding="UTF-8" standalone="no"?>
<svg width="1200px" height="1200px" viewBox="0 0 1200 1200" version="1.1" xmlns="http://www.w3.org/2000/svg" xmlns:xlink="http://www.w3.org/1999/xlink">
    <!-- Generator: Sketch 42 (36781) - http://www.bohemiancoding.com/sketch -->
    <title>79</title>
    <desc>Created with Sketch.</desc>
    <defs>
        <polyline id="path-1" points="0 0.0554520568 750.053676 0.0554520568 750.053676 941.28769 0 941.28769"></polyline>
    </defs>
    <g id="Page-1" stroke="none" stroke-width="1" fill="none" fill-rule="evenodd">
        <g id="79">
            <g id="Group-4" transform="translate(224.000000, 65.000000)">
                <g id="Mascot_EPS" transform="translate(0.444225, 117.581898)">
                    <g id="Group-3">
                        <mask id="mask-2" fill="white">
                            <use xlink:href="#path-1"></use>
                        </mask>
                        <g id="Clip-2"></g>
                        <path d="M707.187277,354.277603 C701.0723,339.336176 694.572002,324.595765 687.291942,310.303071 C713.087933,294.993876 730.438781,266.906461 730.438781,234.691364 C730.438781,186.13915 691.154273,146.781134 642.692739,146.781134 L107.438457,146.781134 C58.9769232,146.781134 19.6946945,186.13915 19.6946945,234.691364 C19.6946945,266.881334 37.0159024,294.950475 62.7799737,310.266523 C55.4999136,324.554648 49.0018956,339.290491 42.8869187,354.227349 C19.7858948,410.642029 5.11861416,471.38769 0.702241943,535.022956 C0.36480101,542.593036 0,550.158546 0,557.813144 C0,612.807007 8.92850471,665.681064 25.1826697,715.222368 C30.0299631,729.167853 39.3506289,753.18241 50.7711805,769.218004 C52.018344,770.864964 53.1948272,772.470808 54.6152711,774.200002 C60.1853266,780.922617 66.3253835,787.453352 73.714884,793.931549 C81.1727846,800.416599 89.8094485,806.89708 99.6408357,812.317659 C109.355943,817.706258 120.694414,822.062366 131.882405,823.506026 C143.587957,825.187251 155.941032,823.174807 165.371138,816.545848 C174.983644,810.076788 181.855583,798.760501 185.834194,785.964006 C193.770896,760.039797 208.185096,759.740557 201.251597,790.267576 C197.690227,805.263825 190.266527,821.084697 176.750649,831.775093 C163.221092,842.645946 146.305725,846.008396 131.114043,846.378448 C115.122079,846.488093 100.924479,842.833257 88.0470037,837.919786 C86.4783593,837.31217 85.1399956,836.530949 83.6169514,835.886784 C107.162577,871.459761 135.202094,903.718258 166.727741,932.198569 C183.547348,941.461295 210.950744,948.304975 247.248444,929.423178 C310.536859,896.499957 373.827554,892.840552 373.827554,892.840552 C373.827554,892.840552 437.11597,896.499957 500.406665,929.423178 C542.933342,951.544074 573.252866,938.375242 588.617829,927.351343 C617.88855,900.13195 644.065302,869.639196 666.242924,836.183739 C664.8202,836.782219 663.577596,837.513186 662.118392,838.077401 C649.240917,842.990872 635.043317,846.647992 619.051353,846.536063 C603.859671,846.16601 586.944304,842.803561 573.414747,831.932708 C559.898869,821.242312 552.477449,805.423725 548.916079,790.425191 C541.98258,759.898172 556.39678,760.199696 564.331202,786.121621 C568.309813,798.918116 575.181752,810.236687 584.794258,816.703463 C594.226644,823.334706 606.577439,825.344866 618.285271,823.663641 C629.470982,822.219981 640.809453,817.866157 650.52684,812.475274 C660.358227,807.054695 668.994891,800.574214 676.450512,794.089164 C686.48938,785.287862 694.086361,776.475138 699.923177,768.694905 C709.027242,755.722521 716.763304,737.797834 721.932078,724.078493 C740.099168,672.017637 750.053676,616.091791 750.053676,557.813144 C750.053676,550.160831 749.691155,542.597604 749.353714,535.029809 C744.937341,471.410533 730.279181,410.680862 707.187277,354.277603 Z" id="Fill-1" fill="#F6C823" mask="url(#mask-2)"></path>
                        <path d="M23.3031432,415.771957 C23.3031432,415.771957 14.541349,434.121822 9.45051159,458.338405 C4.35967416,482.554989 0.750427269,525.108646 -0.444225248,549.410807 C-3.4126463,609.795769 12.4189326,668.200897 12.4189326,668.200897 C12.4189326,668.200897 261.20982,776.922471 385.450512,777.091812 C509.691203,777.261153 738.692617,669.190814 738.692617,669.190814 C738.692617,669.190814 745.682747,637.717553 748.587354,604.846182 C751.491961,571.974812 749.268454,554.934183 748.587354,535.551964 C747.016213,490.84169 729.787354,415.771957 729.787354,415.771957 C729.787354,415.771957 502.228304,585.047834 380.577085,585.047834 C258.925867,585.047834 23.3031432,415.771957 23.3031432,415.771957 Z" id="Path-2" fill="#909B81" mask="url(#mask-2)"></path>
                    </g>
                    <path d="M296.3461,297.490586 C296.3461,341.794053 260.497561,377.711956 216.274558,377.711956 C172.053836,377.711956 136.203017,341.794053 136.203017,297.490586 C136.203017,253.184835 172.053836,217.266933 216.274558,217.266933 C260.497561,217.266933 296.3461,253.184835 296.3461,297.490586" id="Fill-4" fill="#FFFFFF"></path>
                    <path d="M251.908777,297.490586 C251.908777,317.206143 235.955573,333.189199 216.274558,333.189199 C196.595824,333.189199 180.64262,317.206143 180.64262,297.490586 C180.64262,277.772745 196.595824,261.78969 216.274558,261.78969 C235.955573,261.78969 251.908777,277.772745 251.908777,297.490586" id="Fill-5" fill="#25282C"></path>
                    <path d="M107.438457,190.588913 C83.12675,190.588913 63.4183755,210.334166 63.4183755,234.691364 C63.4183755,250.489394 71.7768786,264.240715 84.2371131,272.030084 C99.4698353,246.964761 116.469562,223.105534 135.167894,200.699104 C127.580033,194.476745 118.008567,190.588913 107.438457,190.588913" id="Fill-6" fill="#25282C"></path>
                    <path d="M642.692739,190.588913 C632.099829,190.588913 622.514683,194.490451 614.919982,200.735652 C633.613753,223.139798 650.60664,246.999025 665.837083,272.05978 C678.326957,264.279547 686.71282,250.512236 686.71282,234.691364 C686.71282,210.334166 667.004446,190.588913 642.692739,190.588913" id="Fill-7" fill="#25282C"></path>
                    <path d="M211.315545,271.630336 C211.315545,282.455504 202.558041,291.229395 191.755371,291.229395 C180.950421,291.229395 172.192917,282.455504 172.192917,271.630336 C172.192917,260.807453 180.950421,252.033562 191.755371,252.033562 C202.558041,252.033562 211.315545,260.807453 211.315545,271.630336" id="Fill-8" fill="#FFFFFF"></path>
                    <g id="Group" transform="translate(452.128374, 213.362515)">
                        <path d="M161.722284,84.1280712 C161.722284,128.431538 125.873745,164.34944 81.6507427,164.34944 C37.4277403,164.34944 1.57920108,128.431538 1.57920108,84.1280712 C1.57920108,39.82232 37.4277403,3.90441776 81.6507427,3.90441776 C125.873745,3.90441776 161.722284,39.82232 161.722284,84.1280712" id="Fill-9" fill="#FFFFFF"></path>
                        <path d="M117.282681,84.1280712 C117.282681,103.843628 101.329477,119.826683 81.6507427,119.826683 C61.9697282,119.826683 46.0165241,103.843628 46.0165241,84.1280712 C46.0165241,64.4102302 61.9697282,48.4271749 81.6507427,48.4271749 C101.329477,48.4271749 117.282681,64.4102302 117.282681,84.1280712" id="Fill-10" fill="#25282C"></path>
                        <path d="M76.6917289,58.2678212 C76.6917289,69.092989 67.9319447,77.8668801 57.1292748,77.8668801 C46.3266049,77.8668801 37.5691007,69.092989 37.5691007,58.2678212 C37.5691007,47.4449377 46.3266049,38.6710466 57.1292748,38.6710466 C67.9319447,38.6710466 76.6917289,47.4449377 76.6917289,58.2678212" id="Fill-11" fill="#FFFFFF"></path>
                    </g>
                    <path d="M482.697856,452.393964 C482.697856,512.632516 433.955881,561.46798 373.827554,561.46798 C313.699228,561.46798 264.957253,512.632516 264.957253,452.393964 C264.957253,392.153127 313.699228,343.317663 373.827554,343.317663 C433.955881,343.317663 482.697856,392.153127 482.697856,452.393964" id="Fill-12" fill="#FFFFFF"></path>
                    <path d="M366.761815,561.109349 C369.107941,561.262396 371.438108,561.46798 373.822994,561.46798 C376.210161,561.46798 378.542608,561.262396 380.891014,561.109349 L380.891014,419.340539 L366.761815,419.340539 L366.761815,561.109349" id="Fill-13" fill="#25282C"></path>
                    <path d="M430.312431,392.836124 C430.312431,391.328505 430.02743,389.903118 429.621589,388.527986 C429.443748,387.854126 429.300108,387.456662 429.300108,387.456662 L429.288708,387.456662 C428.780267,386.111226 428.089425,384.87315 427.243542,383.742435 L427.248102,383.72873 C427.248102,383.72873 420.852685,370.518781 374.470516,370.393146 L374.470516,370.379441 C374.358796,370.379441 374.263036,370.386293 374.149035,370.386293 C374.037315,370.386293 373.939275,370.379441 373.827554,370.379441 L373.827554,370.393146 C346.8414,370.466243 333.423563,374.954839 326.902745,378.712467 C322.965174,380.295468 319.871205,383.475175 318.366401,387.456662 L318.343601,387.456662 C318.343601,387.456662 318.17488,387.922654 317.9788,388.70616 C317.604879,390.028753 317.340398,391.394748 317.340398,392.836124 C317.340398,392.966328 317.374598,393.087394 317.379158,393.215314 C317.103278,400.068131 319.346804,412.135944 334.857687,424.516701 C350.117769,436.696443 361.839281,440.671077 368.282579,441.989102 C368.772781,442.101031 369.274382,442.16956 369.773703,442.251793 C372.30907,442.662963 373.816154,442.660678 373.816154,442.660678 L373.827554,442.660678 C373.827554,442.660678 375.327799,442.660678 377.854046,442.254078 C378.367047,442.16956 378.882328,442.101031 379.38621,441.984534 C385.834068,440.66194 397.54646,436.678168 412.786022,424.516701 C428.233065,412.186198 430.519911,400.166355 430.266831,393.299832 C430.271391,393.142217 430.312431,392.996024 430.312431,392.836124" id="Fill-14" fill="#25282C"></path>
                    <path d="M106.038533,157.455539 C106.038533,157.455539 99.4880753,159.970523 90.9448917,165.107853 C86.6402398,167.595425 81.8476665,170.729447 77.0528132,174.432253 C72.2214799,178.080237 67.4722267,182.420355 63.1060146,187.098545 C58.6052822,191.678511 54.8295917,196.875232 51.2135017,201.784133 C47.9644927,206.928315 44.808964,211.752699 42.5129976,216.213883 C39.9297505,220.535727 38.1285455,224.387011 36.8038618,227.087021 C35.4404181,229.77561 34.5078955,231.308357 34.5078955,231.308357 C34.5078955,231.308357 34.5238555,229.570025 34.8156963,226.531943 C35.2785376,223.550967 35.2580176,219.021254 36.849462,213.986717 C37.9621051,208.783145 40.2877115,203.015356 43.2083996,196.978024 C46.3753283,191.059473 50.5066998,185.131786 55.3995933,179.820852 C65.3449808,169.297208 78.3113767,162.106318 88.6215652,159.504532 C98.9363138,156.683455 106.038533,157.455539 106.038533,157.455539" id="Fill-18" fill="#FFFFFF"></path>
                </g>
                <path d="M327.174021,786.955882 C327.174021,786.955882 336.561541,790.701702 341.907617,792.061299 C346.383938,793.199704 356.641213,794.449888 356.641213,794.449888 L358.287306,815.205997 L334.050298,814.701727 L327.174021,786.955882 Z" id="Path-173" fill="#67411E"></path>
                <path d="M407.800457,794.513202 C403.776399,794.808367 395.73074,794.513202 395.73074,794.513202 L395.626226,815.347193 C395.626226,815.347193 402.653632,814.780795 405.93962,815.347193 C409.529229,815.965926 416.253015,818.902585 416.253015,818.902585 L421.047588,792.656212 C421.047588,792.656212 412.215348,794.18937 407.800457,794.513202 Z" id="Path-174" fill="#67411E"></path>
                <path d="M84.6549708,953.591859 C104.910614,993.71373 146.06099,1025.58388 146.06099,1025.58388 L285.144376,1025.58388 C285.144376,1025.58388 340.044416,1009.98238 371.110763,1010.65143 C398.565543,1011.24271 460.707758,1029.36486 460.707758,1029.36486 L602.275241,1025.58388 C602.275241,1025.58388 618.60325,1028.55186 662.964042,953.591859 C707.324834,878.631859 711.982853,805.581143 711.982853,805.581143 C711.982853,805.581143 698.453062,796.942201 650.084211,805.581143 C601.715359,814.220084 465.537623,844.660749 470.005885,835.549689 C471.982004,831.520263 477.163422,829.726466 478.983633,826.365983 C483.812097,817.451649 484.370578,809.48382 484.370578,809.48382 C484.370578,809.48382 480.305905,779.878327 554.054235,684.402407 C627.802565,588.926487 720.778175,516.898251 720.778175,516.898251 L707.236131,477.659747 C707.236131,477.659747 544.529946,645.065553 536.64863,657.896493 C501.837892,714.56907 471.228872,750.875896 471.228872,750.875896 L457.739318,810.466213 C457.739318,810.466213 418.567574,816.350759 400.122724,816.679272 C368.490462,817.24266 303.550089,813.141914 303.550089,813.141914 C303.550089,813.141914 289.809766,765.317289 267.480434,736.079482 C194.349423,640.322459 41.5057116,483.818547 41.5057116,483.818547 L32.0634447,509.646387 L151.920015,643.362461 L263.816073,769.989429 C263.816073,769.989429 273.556994,806.017 278.218052,822.707147 C279.287998,826.538372 290.905263,835.549689 290.905263,835.549689 L178.105263,826.365983 C178.105263,826.365983 137.646975,803.597167 115.768421,802.61139 C93.8898668,801.625614 33.4926845,802.61139 33.4926845,802.61139 C33.4926845,802.61139 64.3993279,913.469988 84.6549708,953.591859 Z" id="Path-166" stroke="#7D4E24" stroke-width="5.7024" fill="#7D4E24"></path>
                <path d="M726.708443,843.198004 C727.936404,850.366178 716.334694,861.875856 717.177912,871.061322 C718.141868,881.562033 713.410526,899.623297 713.410526,899.623297 C713.410526,899.623297 666.32416,924.119467 635.242105,925.361149 C604.16005,926.602832 447.242105,910.512388 447.242105,910.512388 C447.242105,910.512388 463.66728,895.114573 469.144114,879.824948 C474.620949,864.535324 468.935159,849.950287 469.144114,849.545681 C471.923883,844.163141 474.94737,832.738531 474.94737,832.738531 C474.94737,832.738531 722.990416,799.743428 726.713532,796.692801 C730.117368,793.903784 734.0243,784.792877 734.0243,784.792877 C734.0243,784.792877 738.886012,794.446909 738.548359,799.208068 C738.232865,803.656768 732.064861,812.422454 732.064861,812.422454 C732.064861,812.422454 732.847281,821.019648 732.064863,823.670461 C731.061808,827.068791 726.708443,830.569885 726.708443,830.569885 C726.708443,830.569885 725.968717,838.87988 726.708443,843.198004 Z" id="Path-168" fill="#67411E"></path>
                <path d="M293.890645,842.208087 C295.118606,849.376261 283.516896,860.885938 284.360114,870.071404 C285.32407,880.572116 280.592728,898.633379 280.592728,898.633379 C280.592728,898.633379 233.506362,923.129549 202.424307,924.371232 C171.342252,925.612915 13.8526316,905.562801 13.8526316,905.562801 C13.8526316,905.562801 30.491006,892.676714 36.3263159,877.845114 C42.1616258,863.013513 36.1258347,848.943961 36.3263159,848.555764 C39.1060846,843.173224 42.129572,831.748613 42.129572,831.748613 C42.129572,831.748613 290.172618,798.753511 293.895734,795.702884 C297.29957,792.913866 301.206502,783.80296 301.206502,783.80296 C301.206502,783.80296 306.068214,793.456992 305.730561,798.21815 C305.415067,802.666851 299.247063,811.432537 299.247063,811.432537 C299.247063,811.432537 300.029483,820.02973 299.247065,822.680544 C298.24401,826.078874 293.890645,829.579968 293.890645,829.579968 C293.890645,829.579968 293.150919,837.889963 293.890645,842.208087 Z" id="Path-168" fill="#67411E" transform="translate(159.800000, 854.114786) scale(-1, 1) translate(-159.800000, -854.114786) "></path>
                <path d="M293.02338,748.060328 C286.656728,751.556808 275.834868,755.100816 275.834868,755.100816 L282.364726,782.812912 C282.364726,782.812912 299.027516,782.347338 308.364221,784.871348 C320.131774,788.052493 343.285538,799.928377 343.285538,799.928377 L420.308737,799.644831 C420.308737,799.644831 432.197238,787.798797 440.222306,784.871348 C451.077249,780.911593 474.556808,778.983221 474.556808,778.983221 L477.611053,749.385361 C477.611053,749.385361 462.284595,747.950659 455.611836,745.003118 C442.17506,739.067727 428.925425,727.049738 420.308739,723.883472 C411.692053,720.717206 390.981716,718.294677 378.705124,719.272211 C370.853268,719.897423 356.471477,717.375156 346.709276,719.272211 C329.4196,722.632055 317.570184,730.866706 317.570184,730.866706 C317.570184,730.866706 301.365821,743.478771 293.02338,748.060328 Z" id="Path-172" fill="#7D4E24"></path>
                <ellipse id="Oval-13" fill="#F5B300" cx="526.747732" cy="698.519112" rx="4.48492725" ry="4.47860535"></ellipse>
                <ellipse id="Oval-13" fill="#F5B300" cx="220.424116" cy="698.519112" rx="4.48492725" ry="4.47860535"></ellipse>
                <text id="heart---FontAwesome" font-family="FontAwesome" font-size="56.7514253" font-weight="normal" fill="#EDB500">
                    <tspan x="347.139248" y="781.802749"></tspan>
                </text>
                <g id="Group-2" transform="translate(9.894737, 697.680145)">
                    <path d="M6.52040676,80.2305388 C6.52040676,80.2305388 -23.1638038,198.030711 55.0046173,211.889555 C133.173038,225.748398 179.678301,82.2103736 179.678301,82.2103736 L6.52040676,80.2305388 Z" id="Path-3" fill="#F6C823" transform="translate(90.333888, 146.531376) scale(-1, 1) translate(-90.333888, -146.531376) "></path>
                    <path d="M174.147368,80.1833104 C174.147368,80.1833104 172.487811,56.4920121 170.189474,45.5362009 C167.891137,34.5803898 157.326316,0 157.326316,0 C157.326316,0 164.747681,33.7830397 167.221053,50.485788 C169.694425,67.1885363 169.2,80.1833104 169.2,80.1833104 L174.147368,80.1833104 Z" id="Path-4" fill="#6F7763"></path>
                    <polygon id="Path-5" fill="#646C57" points="174.147368 73.2538885 177.115789 96.021989 1.97894737 99.9816586 0 74.2438059"></polygon>
                </g>
                <g id="Group-2" transform="translate(653.052632, 809.045854) scale(-1, 1) translate(-653.052632, -809.045854) translate(563.010526, 702.629732)">
                    <path d="M6.52040676,80.2305388 C6.52040676,80.2305388 -23.1638038,198.030711 55.0046173,211.889555 C133.173038,225.748398 179.678301,82.2103736 179.678301,82.2103736 L6.52040676,80.2305388 Z" id="Path-3" fill="#F6C823" transform="translate(90.333888, 146.531376) scale(-1, 1) translate(-90.333888, -146.531376) "></path>
                    <path d="M174.147368,80.1833104 C174.147368,80.1833104 172.487811,56.4920121 170.189474,45.5362009 C167.891137,34.5803898 157.326316,0 157.326316,0 C157.326316,0 164.747681,33.7830397 167.221053,50.485788 C169.694425,67.1885363 169.2,80.1833104 169.2,80.1833104 L174.147368,80.1833104 Z" id="Path-4" fill="#6F7763"></path>
                    <polygon id="Path-5" fill="#646C57" points="174.147368 73.2538885 177.115789 96.021989 1.97894737 99.9816586 0 74.2438059"></polygon>
                </g>
                <g id="Group-12" transform="translate(122.035088, 0.000000)">
                    <path d="M253.816619,292.517134 C394.602857,292.517134 510.128655,289.76568 510.128655,268.323988 C510.128655,246.882295 394.602857,225.036698 253.816619,225.036698 C113.030381,225.036698 0,246.882295 0,268.323988 C0,289.76568 113.030381,292.517134 253.816619,292.517134 Z" id="Oval-12" stroke="#6C635D" stroke-width="0.891" fill="#4F5B3F"></path>
                    <path d="M145.710866,97.7057285 C145.710866,97.7057285 205.431863,120.936765 256.930777,120.936765 C308.42969,120.936765 361.922372,100.108939 361.922372,100.108939 C361.922372,100.108939 348.575983,169.802049 256.930777,167.398838 C165.285571,164.995627 145.710866,97.7057285 145.710866,97.7057285 Z" id="Path-6" fill="#3D4631"></path>
                    <path d="M91.4355501,269.134756 L111.900014,113.727133 C111.900014,113.727133 112.789773,94.5014476 137.703033,94.5014476 C162.616293,94.5014476 185.750034,164.995627 261.379573,163.393487 C337.009112,161.791346 349.465742,94.5014476 375.268761,92.8993071 C401.07178,91.2971667 404.630817,112.926063 404.630817,112.926063 L421.536244,272.339037 L91.4355501,269.134756 Z" id="Path" fill="#596549"></path>
                    <path d="M415.307929,216.876763 C415.307929,216.876763 401.012858,139.266394 393.063947,101.744654 C390.036856,87.4556927 374.456972,72.7584773 369.930205,56.227309 C365.403439,39.6961407 367.260928,0 367.260928,0 C367.260928,0 408.958538,17.4121589 415.307929,44.6248484 C421.65732,71.8375379 415.307929,216.876763 415.307929,216.876763 Z" id="Path-7" fill="#B31600"></path>
                    <polygon id="Path-8" fill="#1F2228" points="88.7662723 273.231534 94.9945872 211.649243 417.977207 212.54174 421.536244 275.909025"></polygon>
                </g>
            </g>
        </g>
    </g>
</svg>